M48
; DRILL file {KiCad 9.0.2} date 2025-05-20T12:48:25-0700
; FORMAT={-:-/ absolute / metric / decimal}
; #@! TF.CreationDate,2025-05-20T12:48:25-07:00
; #@! TF.GenerationSoftware,Kicad,Pcbnew,9.0.2
; #@! TF.FileFunction,Plated,1,2,PTH
FMAT,2
METRIC
; #@! TA.AperFunction,Plated,PTH,ViaDrill
T1C0.750
; #@! TA.AperFunction,Plated,PTH,ComponentDrill
T2C0.800
; #@! TA.AperFunction,Plated,PTH,ComponentDrill
T3C1.000
; #@! TA.AperFunction,Plated,PTH,ComponentDrill
T4C1.100
; #@! TA.AperFunction,Plated,PTH,ComponentDrill
T5C1.270
; #@! TA.AperFunction,Plated,PTH,ComponentDrill
T6C1.500
; #@! TA.AperFunction,Plated,PTH,ComponentDrill
T7C2.109
; #@! TA.AperFunction,Plated,PTH,ViaDrill
T8C2.300
%
G90
G05
T1
X68.3Y-78.3
X75.0Y-69.5
T2
X109.96Y-77.5
X110.0Y-71.505
X110.0Y-74.045
X112.5Y-77.5
T3
X63.5Y-68.525
X66.0Y-68.525
X68.46Y-50.0
X68.5Y-68.525
X71.0Y-50.0
X77.14Y-49.0
X77.14Y-51.54
X77.14Y-54.08
X77.14Y-56.62
X77.14Y-59.16
X77.14Y-61.7
X77.14Y-64.24
X77.14Y-66.78
X97.699Y-81.62
X100.0Y-49.0
X100.0Y-51.54
X100.0Y-54.08
X100.0Y-56.62
X100.0Y-59.16
X100.0Y-61.7
X100.0Y-64.24
X100.0Y-66.78
X100.239Y-81.62
X105.225Y-49.5
X107.765Y-49.5
T4
X63.25Y-80.75
X63.25Y-85.25
X63.5Y-55.0
X66.0Y-60.0
X68.5Y-55.0
X69.75Y-80.75
X69.75Y-85.25
X105.0Y-71.5
X105.0Y-74.04
X107.75Y-80.75
X107.75Y-85.25
X108.5Y-54.0
X108.5Y-68.5
X111.0Y-68.5
X113.5Y-54.0
X113.5Y-68.5
X114.25Y-80.75
X114.25Y-85.25
X117.5Y-72.0
X117.5Y-74.54
X117.5Y-77.08
T5
X77.048Y-78.3
X77.048Y-80.84
X77.048Y-83.38
X77.048Y-85.92
X77.048Y-88.46
X94.447Y-81.707
X94.447Y-85.207
T7
X61.25Y-61.025
X70.75Y-61.025
T8
X62.25Y-50.5
X62.25Y-88.75
X116.0Y-50.5
X116.0Y-88.75
T3
G00X84.69Y-48.92
M15
G01X84.69Y-50.42
M16
G05
G00X87.23Y-48.92
M15
G01X87.23Y-50.42
M16
G05
G00X89.77Y-48.92
M15
G01X89.77Y-50.42
M16
G05
G00X92.31Y-48.92
M15
G01X92.31Y-50.42
M16
G05
T6
G00X105.0Y-60.25
M15
G01X105.0Y-61.75
M16
G05
G00X117.0Y-60.25
M15
G01X117.0Y-61.75
M16
G05
M30
