%TF.GenerationSoftware,KiCad,Pcbnew,9.0.2*%
%TF.CreationDate,2025-05-20T12:48:23-07:00*%
%TF.ProjectId,40Hz_S2,3430487a-5f53-4322-9e6b-696361645f70,rev?*%
%TF.SameCoordinates,Original*%
%TF.FileFunction,Legend,Top*%
%TF.FilePolarity,Positive*%
%FSLAX46Y46*%
G04 Gerber Fmt 4.6, Leading zero omitted, Abs format (unit mm)*
G04 Created by KiCad (PCBNEW 9.0.2) date 2025-05-20 12:48:23*
%MOMM*%
%LPD*%
G01*
G04 APERTURE LIST*
%ADD10C,0.250000*%
%ADD11C,0.100000*%
%ADD12C,0.150000*%
%ADD13C,0.125000*%
%ADD14C,0.120000*%
%ADD15C,0.160000*%
%ADD16C,0.200000*%
G04 APERTURE END LIST*
D10*
X106486603Y-52198248D02*
X106486603Y-50698248D01*
X106486603Y-50698248D02*
X106843746Y-50698248D01*
X106843746Y-50698248D02*
X107058032Y-50769677D01*
X107058032Y-50769677D02*
X107200889Y-50912534D01*
X107200889Y-50912534D02*
X107272318Y-51055391D01*
X107272318Y-51055391D02*
X107343746Y-51341105D01*
X107343746Y-51341105D02*
X107343746Y-51555391D01*
X107343746Y-51555391D02*
X107272318Y-51841105D01*
X107272318Y-51841105D02*
X107200889Y-51983962D01*
X107200889Y-51983962D02*
X107058032Y-52126820D01*
X107058032Y-52126820D02*
X106843746Y-52198248D01*
X106843746Y-52198248D02*
X106486603Y-52198248D01*
X107986603Y-52198248D02*
X107986603Y-51198248D01*
X107986603Y-50698248D02*
X107915175Y-50769677D01*
X107915175Y-50769677D02*
X107986603Y-50841105D01*
X107986603Y-50841105D02*
X108058032Y-50769677D01*
X108058032Y-50769677D02*
X107986603Y-50698248D01*
X107986603Y-50698248D02*
X107986603Y-50841105D01*
X108700889Y-52198248D02*
X108700889Y-51198248D01*
X108700889Y-51341105D02*
X108772318Y-51269677D01*
X108772318Y-51269677D02*
X108915175Y-51198248D01*
X108915175Y-51198248D02*
X109129461Y-51198248D01*
X109129461Y-51198248D02*
X109272318Y-51269677D01*
X109272318Y-51269677D02*
X109343747Y-51412534D01*
X109343747Y-51412534D02*
X109343747Y-52198248D01*
X109343747Y-51412534D02*
X109415175Y-51269677D01*
X109415175Y-51269677D02*
X109558032Y-51198248D01*
X109558032Y-51198248D02*
X109772318Y-51198248D01*
X109772318Y-51198248D02*
X109915175Y-51269677D01*
X109915175Y-51269677D02*
X109986604Y-51412534D01*
X109986604Y-51412534D02*
X109986604Y-52198248D01*
X110700889Y-52198248D02*
X110700889Y-51198248D01*
X110700889Y-51341105D02*
X110772318Y-51269677D01*
X110772318Y-51269677D02*
X110915175Y-51198248D01*
X110915175Y-51198248D02*
X111129461Y-51198248D01*
X111129461Y-51198248D02*
X111272318Y-51269677D01*
X111272318Y-51269677D02*
X111343747Y-51412534D01*
X111343747Y-51412534D02*
X111343747Y-52198248D01*
X111343747Y-51412534D02*
X111415175Y-51269677D01*
X111415175Y-51269677D02*
X111558032Y-51198248D01*
X111558032Y-51198248D02*
X111772318Y-51198248D01*
X111772318Y-51198248D02*
X111915175Y-51269677D01*
X111915175Y-51269677D02*
X111986604Y-51412534D01*
X111986604Y-51412534D02*
X111986604Y-52198248D01*
X113272318Y-52126820D02*
X113129461Y-52198248D01*
X113129461Y-52198248D02*
X112843747Y-52198248D01*
X112843747Y-52198248D02*
X112700889Y-52126820D01*
X112700889Y-52126820D02*
X112629461Y-51983962D01*
X112629461Y-51983962D02*
X112629461Y-51412534D01*
X112629461Y-51412534D02*
X112700889Y-51269677D01*
X112700889Y-51269677D02*
X112843747Y-51198248D01*
X112843747Y-51198248D02*
X113129461Y-51198248D01*
X113129461Y-51198248D02*
X113272318Y-51269677D01*
X113272318Y-51269677D02*
X113343747Y-51412534D01*
X113343747Y-51412534D02*
X113343747Y-51555391D01*
X113343747Y-51555391D02*
X112629461Y-51698248D01*
X113986603Y-52198248D02*
X113986603Y-51198248D01*
X113986603Y-51483962D02*
X114058032Y-51341105D01*
X114058032Y-51341105D02*
X114129461Y-51269677D01*
X114129461Y-51269677D02*
X114272318Y-51198248D01*
X114272318Y-51198248D02*
X114415175Y-51198248D01*
X62335434Y-52492590D02*
X62835434Y-53992590D01*
X62835434Y-53992590D02*
X63335434Y-52492590D01*
X64049719Y-53992590D02*
X63906862Y-53921162D01*
X63906862Y-53921162D02*
X63835433Y-53849733D01*
X63835433Y-53849733D02*
X63764005Y-53706876D01*
X63764005Y-53706876D02*
X63764005Y-53278304D01*
X63764005Y-53278304D02*
X63835433Y-53135447D01*
X63835433Y-53135447D02*
X63906862Y-53064019D01*
X63906862Y-53064019D02*
X64049719Y-52992590D01*
X64049719Y-52992590D02*
X64264005Y-52992590D01*
X64264005Y-52992590D02*
X64406862Y-53064019D01*
X64406862Y-53064019D02*
X64478291Y-53135447D01*
X64478291Y-53135447D02*
X64549719Y-53278304D01*
X64549719Y-53278304D02*
X64549719Y-53706876D01*
X64549719Y-53706876D02*
X64478291Y-53849733D01*
X64478291Y-53849733D02*
X64406862Y-53921162D01*
X64406862Y-53921162D02*
X64264005Y-53992590D01*
X64264005Y-53992590D02*
X64049719Y-53992590D01*
X65406862Y-53992590D02*
X65264005Y-53921162D01*
X65264005Y-53921162D02*
X65192576Y-53778304D01*
X65192576Y-53778304D02*
X65192576Y-52492590D01*
X66621148Y-52992590D02*
X66621148Y-53992590D01*
X65978290Y-52992590D02*
X65978290Y-53778304D01*
X65978290Y-53778304D02*
X66049719Y-53921162D01*
X66049719Y-53921162D02*
X66192576Y-53992590D01*
X66192576Y-53992590D02*
X66406862Y-53992590D01*
X66406862Y-53992590D02*
X66549719Y-53921162D01*
X66549719Y-53921162D02*
X66621148Y-53849733D01*
X67335433Y-53992590D02*
X67335433Y-52992590D01*
X67335433Y-53135447D02*
X67406862Y-53064019D01*
X67406862Y-53064019D02*
X67549719Y-52992590D01*
X67549719Y-52992590D02*
X67764005Y-52992590D01*
X67764005Y-52992590D02*
X67906862Y-53064019D01*
X67906862Y-53064019D02*
X67978291Y-53206876D01*
X67978291Y-53206876D02*
X67978291Y-53992590D01*
X67978291Y-53206876D02*
X68049719Y-53064019D01*
X68049719Y-53064019D02*
X68192576Y-52992590D01*
X68192576Y-52992590D02*
X68406862Y-52992590D01*
X68406862Y-52992590D02*
X68549719Y-53064019D01*
X68549719Y-53064019D02*
X68621148Y-53206876D01*
X68621148Y-53206876D02*
X68621148Y-53992590D01*
X69906862Y-53921162D02*
X69764005Y-53992590D01*
X69764005Y-53992590D02*
X69478291Y-53992590D01*
X69478291Y-53992590D02*
X69335433Y-53921162D01*
X69335433Y-53921162D02*
X69264005Y-53778304D01*
X69264005Y-53778304D02*
X69264005Y-53206876D01*
X69264005Y-53206876D02*
X69335433Y-53064019D01*
X69335433Y-53064019D02*
X69478291Y-52992590D01*
X69478291Y-52992590D02*
X69764005Y-52992590D01*
X69764005Y-52992590D02*
X69906862Y-53064019D01*
X69906862Y-53064019D02*
X69978291Y-53206876D01*
X69978291Y-53206876D02*
X69978291Y-53349733D01*
X69978291Y-53349733D02*
X69264005Y-53492590D01*
X65033037Y-87960115D02*
X65318751Y-87960115D01*
X65318751Y-87960115D02*
X65461608Y-88031544D01*
X65461608Y-88031544D02*
X65604465Y-88174401D01*
X65604465Y-88174401D02*
X65675894Y-88460115D01*
X65675894Y-88460115D02*
X65675894Y-88960115D01*
X65675894Y-88960115D02*
X65604465Y-89245829D01*
X65604465Y-89245829D02*
X65461608Y-89388687D01*
X65461608Y-89388687D02*
X65318751Y-89460115D01*
X65318751Y-89460115D02*
X65033037Y-89460115D01*
X65033037Y-89460115D02*
X64890180Y-89388687D01*
X64890180Y-89388687D02*
X64747322Y-89245829D01*
X64747322Y-89245829D02*
X64675894Y-88960115D01*
X64675894Y-88960115D02*
X64675894Y-88460115D01*
X64675894Y-88460115D02*
X64747322Y-88174401D01*
X64747322Y-88174401D02*
X64890180Y-88031544D01*
X64890180Y-88031544D02*
X65033037Y-87960115D01*
X66104466Y-88460115D02*
X66675894Y-88460115D01*
X66318751Y-87960115D02*
X66318751Y-89245829D01*
X66318751Y-89245829D02*
X66390180Y-89388687D01*
X66390180Y-89388687D02*
X66533037Y-89460115D01*
X66533037Y-89460115D02*
X66675894Y-89460115D01*
X67175894Y-89460115D02*
X67175894Y-87960115D01*
X67818752Y-89460115D02*
X67818752Y-88674401D01*
X67818752Y-88674401D02*
X67747323Y-88531544D01*
X67747323Y-88531544D02*
X67604466Y-88460115D01*
X67604466Y-88460115D02*
X67390180Y-88460115D01*
X67390180Y-88460115D02*
X67247323Y-88531544D01*
X67247323Y-88531544D02*
X67175894Y-88602972D01*
X69104466Y-89388687D02*
X68961609Y-89460115D01*
X68961609Y-89460115D02*
X68675895Y-89460115D01*
X68675895Y-89460115D02*
X68533037Y-89388687D01*
X68533037Y-89388687D02*
X68461609Y-89245829D01*
X68461609Y-89245829D02*
X68461609Y-88674401D01*
X68461609Y-88674401D02*
X68533037Y-88531544D01*
X68533037Y-88531544D02*
X68675895Y-88460115D01*
X68675895Y-88460115D02*
X68961609Y-88460115D01*
X68961609Y-88460115D02*
X69104466Y-88531544D01*
X69104466Y-88531544D02*
X69175895Y-88674401D01*
X69175895Y-88674401D02*
X69175895Y-88817258D01*
X69175895Y-88817258D02*
X68461609Y-88960115D01*
X69818751Y-89460115D02*
X69818751Y-88460115D01*
X69818751Y-88745829D02*
X69890180Y-88602972D01*
X69890180Y-88602972D02*
X69961609Y-88531544D01*
X69961609Y-88531544D02*
X70104466Y-88460115D01*
X70104466Y-88460115D02*
X70247323Y-88460115D01*
X102169381Y-89300662D02*
X102383667Y-89372090D01*
X102383667Y-89372090D02*
X102740809Y-89372090D01*
X102740809Y-89372090D02*
X102883667Y-89300662D01*
X102883667Y-89300662D02*
X102955095Y-89229233D01*
X102955095Y-89229233D02*
X103026524Y-89086376D01*
X103026524Y-89086376D02*
X103026524Y-88943519D01*
X103026524Y-88943519D02*
X102955095Y-88800662D01*
X102955095Y-88800662D02*
X102883667Y-88729233D01*
X102883667Y-88729233D02*
X102740809Y-88657804D01*
X102740809Y-88657804D02*
X102455095Y-88586376D01*
X102455095Y-88586376D02*
X102312238Y-88514947D01*
X102312238Y-88514947D02*
X102240809Y-88443519D01*
X102240809Y-88443519D02*
X102169381Y-88300662D01*
X102169381Y-88300662D02*
X102169381Y-88157804D01*
X102169381Y-88157804D02*
X102240809Y-88014947D01*
X102240809Y-88014947D02*
X102312238Y-87943519D01*
X102312238Y-87943519D02*
X102455095Y-87872090D01*
X102455095Y-87872090D02*
X102812238Y-87872090D01*
X102812238Y-87872090D02*
X103026524Y-87943519D01*
X103455095Y-88372090D02*
X104026523Y-88372090D01*
X103669380Y-87872090D02*
X103669380Y-89157804D01*
X103669380Y-89157804D02*
X103740809Y-89300662D01*
X103740809Y-89300662D02*
X103883666Y-89372090D01*
X103883666Y-89372090D02*
X104026523Y-89372090D01*
X105169381Y-89372090D02*
X105169381Y-88586376D01*
X105169381Y-88586376D02*
X105097952Y-88443519D01*
X105097952Y-88443519D02*
X104955095Y-88372090D01*
X104955095Y-88372090D02*
X104669381Y-88372090D01*
X104669381Y-88372090D02*
X104526523Y-88443519D01*
X105169381Y-89300662D02*
X105026523Y-89372090D01*
X105026523Y-89372090D02*
X104669381Y-89372090D01*
X104669381Y-89372090D02*
X104526523Y-89300662D01*
X104526523Y-89300662D02*
X104455095Y-89157804D01*
X104455095Y-89157804D02*
X104455095Y-89014947D01*
X104455095Y-89014947D02*
X104526523Y-88872090D01*
X104526523Y-88872090D02*
X104669381Y-88800662D01*
X104669381Y-88800662D02*
X105026523Y-88800662D01*
X105026523Y-88800662D02*
X105169381Y-88729233D01*
X105883666Y-89372090D02*
X105883666Y-88372090D01*
X105883666Y-88657804D02*
X105955095Y-88514947D01*
X105955095Y-88514947D02*
X106026524Y-88443519D01*
X106026524Y-88443519D02*
X106169381Y-88372090D01*
X106169381Y-88372090D02*
X106312238Y-88372090D01*
X106597952Y-88372090D02*
X107169380Y-88372090D01*
X106812237Y-87872090D02*
X106812237Y-89157804D01*
X106812237Y-89157804D02*
X106883666Y-89300662D01*
X106883666Y-89300662D02*
X107026523Y-89372090D01*
X107026523Y-89372090D02*
X107169380Y-89372090D01*
X108740809Y-87800662D02*
X107455095Y-89729233D01*
X109169381Y-89300662D02*
X109383667Y-89372090D01*
X109383667Y-89372090D02*
X109740809Y-89372090D01*
X109740809Y-89372090D02*
X109883667Y-89300662D01*
X109883667Y-89300662D02*
X109955095Y-89229233D01*
X109955095Y-89229233D02*
X110026524Y-89086376D01*
X110026524Y-89086376D02*
X110026524Y-88943519D01*
X110026524Y-88943519D02*
X109955095Y-88800662D01*
X109955095Y-88800662D02*
X109883667Y-88729233D01*
X109883667Y-88729233D02*
X109740809Y-88657804D01*
X109740809Y-88657804D02*
X109455095Y-88586376D01*
X109455095Y-88586376D02*
X109312238Y-88514947D01*
X109312238Y-88514947D02*
X109240809Y-88443519D01*
X109240809Y-88443519D02*
X109169381Y-88300662D01*
X109169381Y-88300662D02*
X109169381Y-88157804D01*
X109169381Y-88157804D02*
X109240809Y-88014947D01*
X109240809Y-88014947D02*
X109312238Y-87943519D01*
X109312238Y-87943519D02*
X109455095Y-87872090D01*
X109455095Y-87872090D02*
X109812238Y-87872090D01*
X109812238Y-87872090D02*
X110026524Y-87943519D01*
X110455095Y-88372090D02*
X111026523Y-88372090D01*
X110669380Y-87872090D02*
X110669380Y-89157804D01*
X110669380Y-89157804D02*
X110740809Y-89300662D01*
X110740809Y-89300662D02*
X110883666Y-89372090D01*
X110883666Y-89372090D02*
X111026523Y-89372090D01*
X111740809Y-89372090D02*
X111597952Y-89300662D01*
X111597952Y-89300662D02*
X111526523Y-89229233D01*
X111526523Y-89229233D02*
X111455095Y-89086376D01*
X111455095Y-89086376D02*
X111455095Y-88657804D01*
X111455095Y-88657804D02*
X111526523Y-88514947D01*
X111526523Y-88514947D02*
X111597952Y-88443519D01*
X111597952Y-88443519D02*
X111740809Y-88372090D01*
X111740809Y-88372090D02*
X111955095Y-88372090D01*
X111955095Y-88372090D02*
X112097952Y-88443519D01*
X112097952Y-88443519D02*
X112169381Y-88514947D01*
X112169381Y-88514947D02*
X112240809Y-88657804D01*
X112240809Y-88657804D02*
X112240809Y-89086376D01*
X112240809Y-89086376D02*
X112169381Y-89229233D01*
X112169381Y-89229233D02*
X112097952Y-89300662D01*
X112097952Y-89300662D02*
X111955095Y-89372090D01*
X111955095Y-89372090D02*
X111740809Y-89372090D01*
X112883666Y-88372090D02*
X112883666Y-89872090D01*
X112883666Y-88443519D02*
X113026524Y-88372090D01*
X113026524Y-88372090D02*
X113312238Y-88372090D01*
X113312238Y-88372090D02*
X113455095Y-88443519D01*
X113455095Y-88443519D02*
X113526524Y-88514947D01*
X113526524Y-88514947D02*
X113597952Y-88657804D01*
X113597952Y-88657804D02*
X113597952Y-89086376D01*
X113597952Y-89086376D02*
X113526524Y-89229233D01*
X113526524Y-89229233D02*
X113455095Y-89300662D01*
X113455095Y-89300662D02*
X113312238Y-89372090D01*
X113312238Y-89372090D02*
X113026524Y-89372090D01*
X113026524Y-89372090D02*
X112883666Y-89300662D01*
D11*
X80661027Y-55790752D02*
X80899122Y-55790752D01*
X80613408Y-55933609D02*
X80780074Y-55433609D01*
X80780074Y-55433609D02*
X80946741Y-55933609D01*
X81327693Y-55933609D02*
X81327693Y-55433609D01*
X81327693Y-55909800D02*
X81280074Y-55933609D01*
X81280074Y-55933609D02*
X81184836Y-55933609D01*
X81184836Y-55933609D02*
X81137217Y-55909800D01*
X81137217Y-55909800D02*
X81113407Y-55885990D01*
X81113407Y-55885990D02*
X81089598Y-55838371D01*
X81089598Y-55838371D02*
X81089598Y-55695514D01*
X81089598Y-55695514D02*
X81113407Y-55647895D01*
X81113407Y-55647895D02*
X81137217Y-55624085D01*
X81137217Y-55624085D02*
X81184836Y-55600276D01*
X81184836Y-55600276D02*
X81280074Y-55600276D01*
X81280074Y-55600276D02*
X81327693Y-55624085D01*
X81780074Y-55933609D02*
X81780074Y-55433609D01*
X81780074Y-55909800D02*
X81732455Y-55933609D01*
X81732455Y-55933609D02*
X81637217Y-55933609D01*
X81637217Y-55933609D02*
X81589598Y-55909800D01*
X81589598Y-55909800D02*
X81565788Y-55885990D01*
X81565788Y-55885990D02*
X81541979Y-55838371D01*
X81541979Y-55838371D02*
X81541979Y-55695514D01*
X81541979Y-55695514D02*
X81565788Y-55647895D01*
X81565788Y-55647895D02*
X81589598Y-55624085D01*
X81589598Y-55624085D02*
X81637217Y-55600276D01*
X81637217Y-55600276D02*
X81732455Y-55600276D01*
X81732455Y-55600276D02*
X81780074Y-55624085D01*
X82375312Y-55909800D02*
X82446740Y-55933609D01*
X82446740Y-55933609D02*
X82565788Y-55933609D01*
X82565788Y-55933609D02*
X82613407Y-55909800D01*
X82613407Y-55909800D02*
X82637216Y-55885990D01*
X82637216Y-55885990D02*
X82661026Y-55838371D01*
X82661026Y-55838371D02*
X82661026Y-55790752D01*
X82661026Y-55790752D02*
X82637216Y-55743133D01*
X82637216Y-55743133D02*
X82613407Y-55719323D01*
X82613407Y-55719323D02*
X82565788Y-55695514D01*
X82565788Y-55695514D02*
X82470550Y-55671704D01*
X82470550Y-55671704D02*
X82422931Y-55647895D01*
X82422931Y-55647895D02*
X82399121Y-55624085D01*
X82399121Y-55624085D02*
X82375312Y-55576466D01*
X82375312Y-55576466D02*
X82375312Y-55528847D01*
X82375312Y-55528847D02*
X82399121Y-55481228D01*
X82399121Y-55481228D02*
X82422931Y-55457419D01*
X82422931Y-55457419D02*
X82470550Y-55433609D01*
X82470550Y-55433609D02*
X82589597Y-55433609D01*
X82589597Y-55433609D02*
X82661026Y-55457419D01*
X82851502Y-55481228D02*
X82875311Y-55457419D01*
X82875311Y-55457419D02*
X82922930Y-55433609D01*
X82922930Y-55433609D02*
X83041978Y-55433609D01*
X83041978Y-55433609D02*
X83089597Y-55457419D01*
X83089597Y-55457419D02*
X83113406Y-55481228D01*
X83113406Y-55481228D02*
X83137216Y-55528847D01*
X83137216Y-55528847D02*
X83137216Y-55576466D01*
X83137216Y-55576466D02*
X83113406Y-55647895D01*
X83113406Y-55647895D02*
X82827692Y-55933609D01*
X82827692Y-55933609D02*
X83137216Y-55933609D01*
X83732453Y-55933609D02*
X83732453Y-55433609D01*
X83946739Y-55933609D02*
X83946739Y-55671704D01*
X83946739Y-55671704D02*
X83922929Y-55624085D01*
X83922929Y-55624085D02*
X83875310Y-55600276D01*
X83875310Y-55600276D02*
X83803882Y-55600276D01*
X83803882Y-55600276D02*
X83756263Y-55624085D01*
X83756263Y-55624085D02*
X83732453Y-55647895D01*
X84375310Y-55909800D02*
X84327691Y-55933609D01*
X84327691Y-55933609D02*
X84232453Y-55933609D01*
X84232453Y-55933609D02*
X84184834Y-55909800D01*
X84184834Y-55909800D02*
X84161025Y-55862180D01*
X84161025Y-55862180D02*
X84161025Y-55671704D01*
X84161025Y-55671704D02*
X84184834Y-55624085D01*
X84184834Y-55624085D02*
X84232453Y-55600276D01*
X84232453Y-55600276D02*
X84327691Y-55600276D01*
X84327691Y-55600276D02*
X84375310Y-55624085D01*
X84375310Y-55624085D02*
X84399120Y-55671704D01*
X84399120Y-55671704D02*
X84399120Y-55719323D01*
X84399120Y-55719323D02*
X84161025Y-55766942D01*
X84827691Y-55933609D02*
X84827691Y-55671704D01*
X84827691Y-55671704D02*
X84803881Y-55624085D01*
X84803881Y-55624085D02*
X84756262Y-55600276D01*
X84756262Y-55600276D02*
X84661024Y-55600276D01*
X84661024Y-55600276D02*
X84613405Y-55624085D01*
X84827691Y-55909800D02*
X84780072Y-55933609D01*
X84780072Y-55933609D02*
X84661024Y-55933609D01*
X84661024Y-55933609D02*
X84613405Y-55909800D01*
X84613405Y-55909800D02*
X84589596Y-55862180D01*
X84589596Y-55862180D02*
X84589596Y-55814561D01*
X84589596Y-55814561D02*
X84613405Y-55766942D01*
X84613405Y-55766942D02*
X84661024Y-55743133D01*
X84661024Y-55743133D02*
X84780072Y-55743133D01*
X84780072Y-55743133D02*
X84827691Y-55719323D01*
X85280072Y-55933609D02*
X85280072Y-55433609D01*
X85280072Y-55909800D02*
X85232453Y-55933609D01*
X85232453Y-55933609D02*
X85137215Y-55933609D01*
X85137215Y-55933609D02*
X85089596Y-55909800D01*
X85089596Y-55909800D02*
X85065786Y-55885990D01*
X85065786Y-55885990D02*
X85041977Y-55838371D01*
X85041977Y-55838371D02*
X85041977Y-55695514D01*
X85041977Y-55695514D02*
X85065786Y-55647895D01*
X85065786Y-55647895D02*
X85089596Y-55624085D01*
X85089596Y-55624085D02*
X85137215Y-55600276D01*
X85137215Y-55600276D02*
X85232453Y-55600276D01*
X85232453Y-55600276D02*
X85280072Y-55624085D01*
X85708643Y-55909800D02*
X85661024Y-55933609D01*
X85661024Y-55933609D02*
X85565786Y-55933609D01*
X85565786Y-55933609D02*
X85518167Y-55909800D01*
X85518167Y-55909800D02*
X85494358Y-55862180D01*
X85494358Y-55862180D02*
X85494358Y-55671704D01*
X85494358Y-55671704D02*
X85518167Y-55624085D01*
X85518167Y-55624085D02*
X85565786Y-55600276D01*
X85565786Y-55600276D02*
X85661024Y-55600276D01*
X85661024Y-55600276D02*
X85708643Y-55624085D01*
X85708643Y-55624085D02*
X85732453Y-55671704D01*
X85732453Y-55671704D02*
X85732453Y-55719323D01*
X85732453Y-55719323D02*
X85494358Y-55766942D01*
X85946738Y-55933609D02*
X85946738Y-55600276D01*
X85946738Y-55695514D02*
X85970548Y-55647895D01*
X85970548Y-55647895D02*
X85994357Y-55624085D01*
X85994357Y-55624085D02*
X86041976Y-55600276D01*
X86041976Y-55600276D02*
X86089595Y-55600276D01*
X86232453Y-55909800D02*
X86280072Y-55933609D01*
X86280072Y-55933609D02*
X86375310Y-55933609D01*
X86375310Y-55933609D02*
X86422929Y-55909800D01*
X86422929Y-55909800D02*
X86446738Y-55862180D01*
X86446738Y-55862180D02*
X86446738Y-55838371D01*
X86446738Y-55838371D02*
X86422929Y-55790752D01*
X86422929Y-55790752D02*
X86375310Y-55766942D01*
X86375310Y-55766942D02*
X86303881Y-55766942D01*
X86303881Y-55766942D02*
X86256262Y-55743133D01*
X86256262Y-55743133D02*
X86232453Y-55695514D01*
X86232453Y-55695514D02*
X86232453Y-55671704D01*
X86232453Y-55671704D02*
X86256262Y-55624085D01*
X86256262Y-55624085D02*
X86303881Y-55600276D01*
X86303881Y-55600276D02*
X86375310Y-55600276D01*
X86375310Y-55600276D02*
X86422929Y-55624085D01*
X86970548Y-55600276D02*
X87161024Y-55600276D01*
X87041976Y-55933609D02*
X87041976Y-55505038D01*
X87041976Y-55505038D02*
X87065786Y-55457419D01*
X87065786Y-55457419D02*
X87113405Y-55433609D01*
X87113405Y-55433609D02*
X87161024Y-55433609D01*
X87327690Y-55933609D02*
X87327690Y-55600276D01*
X87327690Y-55433609D02*
X87303881Y-55457419D01*
X87303881Y-55457419D02*
X87327690Y-55481228D01*
X87327690Y-55481228D02*
X87351500Y-55457419D01*
X87351500Y-55457419D02*
X87327690Y-55433609D01*
X87327690Y-55433609D02*
X87327690Y-55481228D01*
X87565785Y-55933609D02*
X87565785Y-55600276D01*
X87565785Y-55695514D02*
X87589595Y-55647895D01*
X87589595Y-55647895D02*
X87613404Y-55624085D01*
X87613404Y-55624085D02*
X87661023Y-55600276D01*
X87661023Y-55600276D02*
X87708642Y-55600276D01*
X87851500Y-55909800D02*
X87899119Y-55933609D01*
X87899119Y-55933609D02*
X87994357Y-55933609D01*
X87994357Y-55933609D02*
X88041976Y-55909800D01*
X88041976Y-55909800D02*
X88065785Y-55862180D01*
X88065785Y-55862180D02*
X88065785Y-55838371D01*
X88065785Y-55838371D02*
X88041976Y-55790752D01*
X88041976Y-55790752D02*
X87994357Y-55766942D01*
X87994357Y-55766942D02*
X87922928Y-55766942D01*
X87922928Y-55766942D02*
X87875309Y-55743133D01*
X87875309Y-55743133D02*
X87851500Y-55695514D01*
X87851500Y-55695514D02*
X87851500Y-55671704D01*
X87851500Y-55671704D02*
X87875309Y-55624085D01*
X87875309Y-55624085D02*
X87922928Y-55600276D01*
X87922928Y-55600276D02*
X87994357Y-55600276D01*
X87994357Y-55600276D02*
X88041976Y-55624085D01*
X88208643Y-55600276D02*
X88399119Y-55600276D01*
X88280071Y-55433609D02*
X88280071Y-55862180D01*
X88280071Y-55862180D02*
X88303881Y-55909800D01*
X88303881Y-55909800D02*
X88351500Y-55933609D01*
X88351500Y-55933609D02*
X88399119Y-55933609D01*
X88946737Y-55933609D02*
X88946737Y-55433609D01*
X88946737Y-55624085D02*
X88994356Y-55600276D01*
X88994356Y-55600276D02*
X89089594Y-55600276D01*
X89089594Y-55600276D02*
X89137213Y-55624085D01*
X89137213Y-55624085D02*
X89161023Y-55647895D01*
X89161023Y-55647895D02*
X89184832Y-55695514D01*
X89184832Y-55695514D02*
X89184832Y-55838371D01*
X89184832Y-55838371D02*
X89161023Y-55885990D01*
X89161023Y-55885990D02*
X89137213Y-55909800D01*
X89137213Y-55909800D02*
X89089594Y-55933609D01*
X89089594Y-55933609D02*
X88994356Y-55933609D01*
X88994356Y-55933609D02*
X88946737Y-55909800D01*
X89589594Y-55909800D02*
X89541975Y-55933609D01*
X89541975Y-55933609D02*
X89446737Y-55933609D01*
X89446737Y-55933609D02*
X89399118Y-55909800D01*
X89399118Y-55909800D02*
X89375309Y-55862180D01*
X89375309Y-55862180D02*
X89375309Y-55671704D01*
X89375309Y-55671704D02*
X89399118Y-55624085D01*
X89399118Y-55624085D02*
X89446737Y-55600276D01*
X89446737Y-55600276D02*
X89541975Y-55600276D01*
X89541975Y-55600276D02*
X89589594Y-55624085D01*
X89589594Y-55624085D02*
X89613404Y-55671704D01*
X89613404Y-55671704D02*
X89613404Y-55719323D01*
X89613404Y-55719323D02*
X89375309Y-55766942D01*
X89756261Y-55600276D02*
X89946737Y-55600276D01*
X89827689Y-55933609D02*
X89827689Y-55505038D01*
X89827689Y-55505038D02*
X89851499Y-55457419D01*
X89851499Y-55457419D02*
X89899118Y-55433609D01*
X89899118Y-55433609D02*
X89946737Y-55433609D01*
X90184832Y-55933609D02*
X90137213Y-55909800D01*
X90137213Y-55909800D02*
X90113403Y-55885990D01*
X90113403Y-55885990D02*
X90089594Y-55838371D01*
X90089594Y-55838371D02*
X90089594Y-55695514D01*
X90089594Y-55695514D02*
X90113403Y-55647895D01*
X90113403Y-55647895D02*
X90137213Y-55624085D01*
X90137213Y-55624085D02*
X90184832Y-55600276D01*
X90184832Y-55600276D02*
X90256260Y-55600276D01*
X90256260Y-55600276D02*
X90303879Y-55624085D01*
X90303879Y-55624085D02*
X90327689Y-55647895D01*
X90327689Y-55647895D02*
X90351498Y-55695514D01*
X90351498Y-55695514D02*
X90351498Y-55838371D01*
X90351498Y-55838371D02*
X90327689Y-55885990D01*
X90327689Y-55885990D02*
X90303879Y-55909800D01*
X90303879Y-55909800D02*
X90256260Y-55933609D01*
X90256260Y-55933609D02*
X90184832Y-55933609D01*
X90565784Y-55933609D02*
X90565784Y-55600276D01*
X90565784Y-55695514D02*
X90589594Y-55647895D01*
X90589594Y-55647895D02*
X90613403Y-55624085D01*
X90613403Y-55624085D02*
X90661022Y-55600276D01*
X90661022Y-55600276D02*
X90708641Y-55600276D01*
X91065784Y-55909800D02*
X91018165Y-55933609D01*
X91018165Y-55933609D02*
X90922927Y-55933609D01*
X90922927Y-55933609D02*
X90875308Y-55909800D01*
X90875308Y-55909800D02*
X90851499Y-55862180D01*
X90851499Y-55862180D02*
X90851499Y-55671704D01*
X90851499Y-55671704D02*
X90875308Y-55624085D01*
X90875308Y-55624085D02*
X90922927Y-55600276D01*
X90922927Y-55600276D02*
X91018165Y-55600276D01*
X91018165Y-55600276D02*
X91065784Y-55624085D01*
X91065784Y-55624085D02*
X91089594Y-55671704D01*
X91089594Y-55671704D02*
X91089594Y-55719323D01*
X91089594Y-55719323D02*
X90851499Y-55766942D01*
X91899117Y-55933609D02*
X91899117Y-55671704D01*
X91899117Y-55671704D02*
X91875307Y-55624085D01*
X91875307Y-55624085D02*
X91827688Y-55600276D01*
X91827688Y-55600276D02*
X91732450Y-55600276D01*
X91732450Y-55600276D02*
X91684831Y-55624085D01*
X91899117Y-55909800D02*
X91851498Y-55933609D01*
X91851498Y-55933609D02*
X91732450Y-55933609D01*
X91732450Y-55933609D02*
X91684831Y-55909800D01*
X91684831Y-55909800D02*
X91661022Y-55862180D01*
X91661022Y-55862180D02*
X91661022Y-55814561D01*
X91661022Y-55814561D02*
X91684831Y-55766942D01*
X91684831Y-55766942D02*
X91732450Y-55743133D01*
X91732450Y-55743133D02*
X91851498Y-55743133D01*
X91851498Y-55743133D02*
X91899117Y-55719323D01*
X92065784Y-55600276D02*
X92256260Y-55600276D01*
X92137212Y-55433609D02*
X92137212Y-55862180D01*
X92137212Y-55862180D02*
X92161022Y-55909800D01*
X92161022Y-55909800D02*
X92208641Y-55933609D01*
X92208641Y-55933609D02*
X92256260Y-55933609D01*
X92351498Y-55600276D02*
X92541974Y-55600276D01*
X92422926Y-55433609D02*
X92422926Y-55862180D01*
X92422926Y-55862180D02*
X92446736Y-55909800D01*
X92446736Y-55909800D02*
X92494355Y-55933609D01*
X92494355Y-55933609D02*
X92541974Y-55933609D01*
X92922926Y-55933609D02*
X92922926Y-55671704D01*
X92922926Y-55671704D02*
X92899116Y-55624085D01*
X92899116Y-55624085D02*
X92851497Y-55600276D01*
X92851497Y-55600276D02*
X92756259Y-55600276D01*
X92756259Y-55600276D02*
X92708640Y-55624085D01*
X92922926Y-55909800D02*
X92875307Y-55933609D01*
X92875307Y-55933609D02*
X92756259Y-55933609D01*
X92756259Y-55933609D02*
X92708640Y-55909800D01*
X92708640Y-55909800D02*
X92684831Y-55862180D01*
X92684831Y-55862180D02*
X92684831Y-55814561D01*
X92684831Y-55814561D02*
X92708640Y-55766942D01*
X92708640Y-55766942D02*
X92756259Y-55743133D01*
X92756259Y-55743133D02*
X92875307Y-55743133D01*
X92875307Y-55743133D02*
X92922926Y-55719323D01*
X93375307Y-55909800D02*
X93327688Y-55933609D01*
X93327688Y-55933609D02*
X93232450Y-55933609D01*
X93232450Y-55933609D02*
X93184831Y-55909800D01*
X93184831Y-55909800D02*
X93161021Y-55885990D01*
X93161021Y-55885990D02*
X93137212Y-55838371D01*
X93137212Y-55838371D02*
X93137212Y-55695514D01*
X93137212Y-55695514D02*
X93161021Y-55647895D01*
X93161021Y-55647895D02*
X93184831Y-55624085D01*
X93184831Y-55624085D02*
X93232450Y-55600276D01*
X93232450Y-55600276D02*
X93327688Y-55600276D01*
X93327688Y-55600276D02*
X93375307Y-55624085D01*
X93589592Y-55933609D02*
X93589592Y-55433609D01*
X93803878Y-55933609D02*
X93803878Y-55671704D01*
X93803878Y-55671704D02*
X93780068Y-55624085D01*
X93780068Y-55624085D02*
X93732449Y-55600276D01*
X93732449Y-55600276D02*
X93661021Y-55600276D01*
X93661021Y-55600276D02*
X93613402Y-55624085D01*
X93613402Y-55624085D02*
X93589592Y-55647895D01*
X94041973Y-55933609D02*
X94041973Y-55600276D01*
X94041973Y-55433609D02*
X94018164Y-55457419D01*
X94018164Y-55457419D02*
X94041973Y-55481228D01*
X94041973Y-55481228D02*
X94065783Y-55457419D01*
X94065783Y-55457419D02*
X94041973Y-55433609D01*
X94041973Y-55433609D02*
X94041973Y-55481228D01*
X94280068Y-55600276D02*
X94280068Y-55933609D01*
X94280068Y-55647895D02*
X94303878Y-55624085D01*
X94303878Y-55624085D02*
X94351497Y-55600276D01*
X94351497Y-55600276D02*
X94422925Y-55600276D01*
X94422925Y-55600276D02*
X94470544Y-55624085D01*
X94470544Y-55624085D02*
X94494354Y-55671704D01*
X94494354Y-55671704D02*
X94494354Y-55933609D01*
X94946735Y-55600276D02*
X94946735Y-56005038D01*
X94946735Y-56005038D02*
X94922925Y-56052657D01*
X94922925Y-56052657D02*
X94899116Y-56076466D01*
X94899116Y-56076466D02*
X94851497Y-56100276D01*
X94851497Y-56100276D02*
X94780068Y-56100276D01*
X94780068Y-56100276D02*
X94732449Y-56076466D01*
X94946735Y-55909800D02*
X94899116Y-55933609D01*
X94899116Y-55933609D02*
X94803878Y-55933609D01*
X94803878Y-55933609D02*
X94756259Y-55909800D01*
X94756259Y-55909800D02*
X94732449Y-55885990D01*
X94732449Y-55885990D02*
X94708640Y-55838371D01*
X94708640Y-55838371D02*
X94708640Y-55695514D01*
X94708640Y-55695514D02*
X94732449Y-55647895D01*
X94732449Y-55647895D02*
X94756259Y-55624085D01*
X94756259Y-55624085D02*
X94803878Y-55600276D01*
X94803878Y-55600276D02*
X94899116Y-55600276D01*
X94899116Y-55600276D02*
X94946735Y-55624085D01*
X95780068Y-55933609D02*
X95780068Y-55433609D01*
X95780068Y-55909800D02*
X95732449Y-55933609D01*
X95732449Y-55933609D02*
X95637211Y-55933609D01*
X95637211Y-55933609D02*
X95589592Y-55909800D01*
X95589592Y-55909800D02*
X95565782Y-55885990D01*
X95565782Y-55885990D02*
X95541973Y-55838371D01*
X95541973Y-55838371D02*
X95541973Y-55695514D01*
X95541973Y-55695514D02*
X95565782Y-55647895D01*
X95565782Y-55647895D02*
X95589592Y-55624085D01*
X95589592Y-55624085D02*
X95637211Y-55600276D01*
X95637211Y-55600276D02*
X95732449Y-55600276D01*
X95732449Y-55600276D02*
X95780068Y-55624085D01*
X96018163Y-55933609D02*
X96018163Y-55600276D01*
X96018163Y-55433609D02*
X95994354Y-55457419D01*
X95994354Y-55457419D02*
X96018163Y-55481228D01*
X96018163Y-55481228D02*
X96041973Y-55457419D01*
X96041973Y-55457419D02*
X96018163Y-55433609D01*
X96018163Y-55433609D02*
X96018163Y-55481228D01*
X96232449Y-55909800D02*
X96280068Y-55933609D01*
X96280068Y-55933609D02*
X96375306Y-55933609D01*
X96375306Y-55933609D02*
X96422925Y-55909800D01*
X96422925Y-55909800D02*
X96446734Y-55862180D01*
X96446734Y-55862180D02*
X96446734Y-55838371D01*
X96446734Y-55838371D02*
X96422925Y-55790752D01*
X96422925Y-55790752D02*
X96375306Y-55766942D01*
X96375306Y-55766942D02*
X96303877Y-55766942D01*
X96303877Y-55766942D02*
X96256258Y-55743133D01*
X96256258Y-55743133D02*
X96232449Y-55695514D01*
X96232449Y-55695514D02*
X96232449Y-55671704D01*
X96232449Y-55671704D02*
X96256258Y-55624085D01*
X96256258Y-55624085D02*
X96303877Y-55600276D01*
X96303877Y-55600276D02*
X96375306Y-55600276D01*
X96375306Y-55600276D02*
X96422925Y-55624085D01*
X96661020Y-55600276D02*
X96661020Y-56100276D01*
X96661020Y-55624085D02*
X96708639Y-55600276D01*
X96708639Y-55600276D02*
X96803877Y-55600276D01*
X96803877Y-55600276D02*
X96851496Y-55624085D01*
X96851496Y-55624085D02*
X96875306Y-55647895D01*
X96875306Y-55647895D02*
X96899115Y-55695514D01*
X96899115Y-55695514D02*
X96899115Y-55838371D01*
X96899115Y-55838371D02*
X96875306Y-55885990D01*
X96875306Y-55885990D02*
X96851496Y-55909800D01*
X96851496Y-55909800D02*
X96803877Y-55933609D01*
X96803877Y-55933609D02*
X96708639Y-55933609D01*
X96708639Y-55933609D02*
X96661020Y-55909800D01*
X97184830Y-55933609D02*
X97137211Y-55909800D01*
X97137211Y-55909800D02*
X97113401Y-55862180D01*
X97113401Y-55862180D02*
X97113401Y-55433609D01*
X97589592Y-55933609D02*
X97589592Y-55671704D01*
X97589592Y-55671704D02*
X97565782Y-55624085D01*
X97565782Y-55624085D02*
X97518163Y-55600276D01*
X97518163Y-55600276D02*
X97422925Y-55600276D01*
X97422925Y-55600276D02*
X97375306Y-55624085D01*
X97589592Y-55909800D02*
X97541973Y-55933609D01*
X97541973Y-55933609D02*
X97422925Y-55933609D01*
X97422925Y-55933609D02*
X97375306Y-55909800D01*
X97375306Y-55909800D02*
X97351497Y-55862180D01*
X97351497Y-55862180D02*
X97351497Y-55814561D01*
X97351497Y-55814561D02*
X97375306Y-55766942D01*
X97375306Y-55766942D02*
X97422925Y-55743133D01*
X97422925Y-55743133D02*
X97541973Y-55743133D01*
X97541973Y-55743133D02*
X97589592Y-55719323D01*
X97780068Y-55600276D02*
X97899116Y-55933609D01*
X98018163Y-55600276D02*
X97899116Y-55933609D01*
X97899116Y-55933609D02*
X97851497Y-56052657D01*
X97851497Y-56052657D02*
X97827687Y-56076466D01*
X97827687Y-56076466D02*
X97780068Y-56100276D01*
D12*
X84976190Y-61954819D02*
X85166666Y-61954819D01*
X85166666Y-61954819D02*
X85261904Y-62002438D01*
X85261904Y-62002438D02*
X85357142Y-62097676D01*
X85357142Y-62097676D02*
X85404761Y-62288152D01*
X85404761Y-62288152D02*
X85404761Y-62621485D01*
X85404761Y-62621485D02*
X85357142Y-62811961D01*
X85357142Y-62811961D02*
X85261904Y-62907200D01*
X85261904Y-62907200D02*
X85166666Y-62954819D01*
X85166666Y-62954819D02*
X84976190Y-62954819D01*
X84976190Y-62954819D02*
X84880952Y-62907200D01*
X84880952Y-62907200D02*
X84785714Y-62811961D01*
X84785714Y-62811961D02*
X84738095Y-62621485D01*
X84738095Y-62621485D02*
X84738095Y-62288152D01*
X84738095Y-62288152D02*
X84785714Y-62097676D01*
X84785714Y-62097676D02*
X84880952Y-62002438D01*
X84880952Y-62002438D02*
X84976190Y-61954819D01*
X86309523Y-62954819D02*
X85833333Y-62954819D01*
X85833333Y-62954819D02*
X85833333Y-61954819D01*
X86642857Y-62431009D02*
X86976190Y-62431009D01*
X87119047Y-62954819D02*
X86642857Y-62954819D01*
X86642857Y-62954819D02*
X86642857Y-61954819D01*
X86642857Y-61954819D02*
X87119047Y-61954819D01*
X87547619Y-62954819D02*
X87547619Y-61954819D01*
X87547619Y-61954819D02*
X87785714Y-61954819D01*
X87785714Y-61954819D02*
X87928571Y-62002438D01*
X87928571Y-62002438D02*
X88023809Y-62097676D01*
X88023809Y-62097676D02*
X88071428Y-62192914D01*
X88071428Y-62192914D02*
X88119047Y-62383390D01*
X88119047Y-62383390D02*
X88119047Y-62526247D01*
X88119047Y-62526247D02*
X88071428Y-62716723D01*
X88071428Y-62716723D02*
X88023809Y-62811961D01*
X88023809Y-62811961D02*
X87928571Y-62907200D01*
X87928571Y-62907200D02*
X87785714Y-62954819D01*
X87785714Y-62954819D02*
X87547619Y-62954819D01*
X88309524Y-63050057D02*
X89071428Y-63050057D01*
X89309524Y-62954819D02*
X89309524Y-61954819D01*
X89738095Y-62050057D02*
X89785714Y-62002438D01*
X89785714Y-62002438D02*
X89880952Y-61954819D01*
X89880952Y-61954819D02*
X90119047Y-61954819D01*
X90119047Y-61954819D02*
X90214285Y-62002438D01*
X90214285Y-62002438D02*
X90261904Y-62050057D01*
X90261904Y-62050057D02*
X90309523Y-62145295D01*
X90309523Y-62145295D02*
X90309523Y-62240533D01*
X90309523Y-62240533D02*
X90261904Y-62383390D01*
X90261904Y-62383390D02*
X89690476Y-62954819D01*
X89690476Y-62954819D02*
X90309523Y-62954819D01*
X91309523Y-62859580D02*
X91261904Y-62907200D01*
X91261904Y-62907200D02*
X91119047Y-62954819D01*
X91119047Y-62954819D02*
X91023809Y-62954819D01*
X91023809Y-62954819D02*
X90880952Y-62907200D01*
X90880952Y-62907200D02*
X90785714Y-62811961D01*
X90785714Y-62811961D02*
X90738095Y-62716723D01*
X90738095Y-62716723D02*
X90690476Y-62526247D01*
X90690476Y-62526247D02*
X90690476Y-62383390D01*
X90690476Y-62383390D02*
X90738095Y-62192914D01*
X90738095Y-62192914D02*
X90785714Y-62097676D01*
X90785714Y-62097676D02*
X90880952Y-62002438D01*
X90880952Y-62002438D02*
X91023809Y-61954819D01*
X91023809Y-61954819D02*
X91119047Y-61954819D01*
X91119047Y-61954819D02*
X91261904Y-62002438D01*
X91261904Y-62002438D02*
X91309523Y-62050057D01*
X92261904Y-62954819D02*
X91690476Y-62954819D01*
X91976190Y-62954819D02*
X91976190Y-61954819D01*
X91976190Y-61954819D02*
X91880952Y-62097676D01*
X91880952Y-62097676D02*
X91785714Y-62192914D01*
X91785714Y-62192914D02*
X91690476Y-62240533D01*
X86047619Y-60954819D02*
X86047619Y-59954819D01*
X86047619Y-59954819D02*
X86285714Y-59954819D01*
X86285714Y-59954819D02*
X86428571Y-60002438D01*
X86428571Y-60002438D02*
X86523809Y-60097676D01*
X86523809Y-60097676D02*
X86571428Y-60192914D01*
X86571428Y-60192914D02*
X86619047Y-60383390D01*
X86619047Y-60383390D02*
X86619047Y-60526247D01*
X86619047Y-60526247D02*
X86571428Y-60716723D01*
X86571428Y-60716723D02*
X86523809Y-60811961D01*
X86523809Y-60811961D02*
X86428571Y-60907200D01*
X86428571Y-60907200D02*
X86285714Y-60954819D01*
X86285714Y-60954819D02*
X86047619Y-60954819D01*
X87047619Y-60954819D02*
X87047619Y-60288152D01*
X87047619Y-59954819D02*
X87000000Y-60002438D01*
X87000000Y-60002438D02*
X87047619Y-60050057D01*
X87047619Y-60050057D02*
X87095238Y-60002438D01*
X87095238Y-60002438D02*
X87047619Y-59954819D01*
X87047619Y-59954819D02*
X87047619Y-60050057D01*
X87476190Y-60907200D02*
X87571428Y-60954819D01*
X87571428Y-60954819D02*
X87761904Y-60954819D01*
X87761904Y-60954819D02*
X87857142Y-60907200D01*
X87857142Y-60907200D02*
X87904761Y-60811961D01*
X87904761Y-60811961D02*
X87904761Y-60764342D01*
X87904761Y-60764342D02*
X87857142Y-60669104D01*
X87857142Y-60669104D02*
X87761904Y-60621485D01*
X87761904Y-60621485D02*
X87619047Y-60621485D01*
X87619047Y-60621485D02*
X87523809Y-60573866D01*
X87523809Y-60573866D02*
X87476190Y-60478628D01*
X87476190Y-60478628D02*
X87476190Y-60431009D01*
X87476190Y-60431009D02*
X87523809Y-60335771D01*
X87523809Y-60335771D02*
X87619047Y-60288152D01*
X87619047Y-60288152D02*
X87761904Y-60288152D01*
X87761904Y-60288152D02*
X87857142Y-60335771D01*
X88333333Y-60288152D02*
X88333333Y-61288152D01*
X88333333Y-60335771D02*
X88428571Y-60288152D01*
X88428571Y-60288152D02*
X88619047Y-60288152D01*
X88619047Y-60288152D02*
X88714285Y-60335771D01*
X88714285Y-60335771D02*
X88761904Y-60383390D01*
X88761904Y-60383390D02*
X88809523Y-60478628D01*
X88809523Y-60478628D02*
X88809523Y-60764342D01*
X88809523Y-60764342D02*
X88761904Y-60859580D01*
X88761904Y-60859580D02*
X88714285Y-60907200D01*
X88714285Y-60907200D02*
X88619047Y-60954819D01*
X88619047Y-60954819D02*
X88428571Y-60954819D01*
X88428571Y-60954819D02*
X88333333Y-60907200D01*
X89380952Y-60954819D02*
X89285714Y-60907200D01*
X89285714Y-60907200D02*
X89238095Y-60811961D01*
X89238095Y-60811961D02*
X89238095Y-59954819D01*
X90190476Y-60954819D02*
X90190476Y-60431009D01*
X90190476Y-60431009D02*
X90142857Y-60335771D01*
X90142857Y-60335771D02*
X90047619Y-60288152D01*
X90047619Y-60288152D02*
X89857143Y-60288152D01*
X89857143Y-60288152D02*
X89761905Y-60335771D01*
X90190476Y-60907200D02*
X90095238Y-60954819D01*
X90095238Y-60954819D02*
X89857143Y-60954819D01*
X89857143Y-60954819D02*
X89761905Y-60907200D01*
X89761905Y-60907200D02*
X89714286Y-60811961D01*
X89714286Y-60811961D02*
X89714286Y-60716723D01*
X89714286Y-60716723D02*
X89761905Y-60621485D01*
X89761905Y-60621485D02*
X89857143Y-60573866D01*
X89857143Y-60573866D02*
X90095238Y-60573866D01*
X90095238Y-60573866D02*
X90190476Y-60526247D01*
X90571429Y-60288152D02*
X90809524Y-60954819D01*
X91047619Y-60288152D02*
X90809524Y-60954819D01*
X90809524Y-60954819D02*
X90714286Y-61192914D01*
X90714286Y-61192914D02*
X90666667Y-61240533D01*
X90666667Y-61240533D02*
X90571429Y-61288152D01*
D11*
X90330642Y-53743734D02*
X90378261Y-53600877D01*
X90378261Y-53600877D02*
X90378261Y-53362782D01*
X90378261Y-53362782D02*
X90330642Y-53267544D01*
X90330642Y-53267544D02*
X90283022Y-53219925D01*
X90283022Y-53219925D02*
X90187784Y-53172306D01*
X90187784Y-53172306D02*
X90092546Y-53172306D01*
X90092546Y-53172306D02*
X89997308Y-53219925D01*
X89997308Y-53219925D02*
X89949689Y-53267544D01*
X89949689Y-53267544D02*
X89902070Y-53362782D01*
X89902070Y-53362782D02*
X89854451Y-53553258D01*
X89854451Y-53553258D02*
X89806832Y-53648496D01*
X89806832Y-53648496D02*
X89759213Y-53696115D01*
X89759213Y-53696115D02*
X89663975Y-53743734D01*
X89663975Y-53743734D02*
X89568737Y-53743734D01*
X89568737Y-53743734D02*
X89473499Y-53696115D01*
X89473499Y-53696115D02*
X89425880Y-53648496D01*
X89425880Y-53648496D02*
X89378261Y-53553258D01*
X89378261Y-53553258D02*
X89378261Y-53315163D01*
X89378261Y-53315163D02*
X89425880Y-53172306D01*
X90283022Y-52172306D02*
X90330642Y-52219925D01*
X90330642Y-52219925D02*
X90378261Y-52362782D01*
X90378261Y-52362782D02*
X90378261Y-52458020D01*
X90378261Y-52458020D02*
X90330642Y-52600877D01*
X90330642Y-52600877D02*
X90235403Y-52696115D01*
X90235403Y-52696115D02*
X90140165Y-52743734D01*
X90140165Y-52743734D02*
X89949689Y-52791353D01*
X89949689Y-52791353D02*
X89806832Y-52791353D01*
X89806832Y-52791353D02*
X89616356Y-52743734D01*
X89616356Y-52743734D02*
X89521118Y-52696115D01*
X89521118Y-52696115D02*
X89425880Y-52600877D01*
X89425880Y-52600877D02*
X89378261Y-52458020D01*
X89378261Y-52458020D02*
X89378261Y-52362782D01*
X89378261Y-52362782D02*
X89425880Y-52219925D01*
X89425880Y-52219925D02*
X89473499Y-52172306D01*
X90378261Y-51267544D02*
X90378261Y-51743734D01*
X90378261Y-51743734D02*
X89378261Y-51743734D01*
X84200134Y-53172306D02*
X84152515Y-53267544D01*
X84152515Y-53267544D02*
X84152515Y-53410401D01*
X84152515Y-53410401D02*
X84200134Y-53553258D01*
X84200134Y-53553258D02*
X84295372Y-53648496D01*
X84295372Y-53648496D02*
X84390610Y-53696115D01*
X84390610Y-53696115D02*
X84581086Y-53743734D01*
X84581086Y-53743734D02*
X84723943Y-53743734D01*
X84723943Y-53743734D02*
X84914419Y-53696115D01*
X84914419Y-53696115D02*
X85009657Y-53648496D01*
X85009657Y-53648496D02*
X85104896Y-53553258D01*
X85104896Y-53553258D02*
X85152515Y-53410401D01*
X85152515Y-53410401D02*
X85152515Y-53315163D01*
X85152515Y-53315163D02*
X85104896Y-53172306D01*
X85104896Y-53172306D02*
X85057276Y-53124687D01*
X85057276Y-53124687D02*
X84723943Y-53124687D01*
X84723943Y-53124687D02*
X84723943Y-53315163D01*
X85152515Y-52696115D02*
X84152515Y-52696115D01*
X84152515Y-52696115D02*
X85152515Y-52124687D01*
X85152515Y-52124687D02*
X84152515Y-52124687D01*
X85152515Y-51648496D02*
X84152515Y-51648496D01*
X84152515Y-51648496D02*
X84152515Y-51410401D01*
X84152515Y-51410401D02*
X84200134Y-51267544D01*
X84200134Y-51267544D02*
X84295372Y-51172306D01*
X84295372Y-51172306D02*
X84390610Y-51124687D01*
X84390610Y-51124687D02*
X84581086Y-51077068D01*
X84581086Y-51077068D02*
X84723943Y-51077068D01*
X84723943Y-51077068D02*
X84914419Y-51124687D01*
X84914419Y-51124687D02*
X85009657Y-51172306D01*
X85009657Y-51172306D02*
X85104896Y-51267544D01*
X85104896Y-51267544D02*
X85152515Y-51410401D01*
X85152515Y-51410401D02*
X85152515Y-51648496D01*
X86738996Y-53838972D02*
X87738996Y-53505639D01*
X87738996Y-53505639D02*
X86738996Y-53172306D01*
X87643757Y-52267544D02*
X87691377Y-52315163D01*
X87691377Y-52315163D02*
X87738996Y-52458020D01*
X87738996Y-52458020D02*
X87738996Y-52553258D01*
X87738996Y-52553258D02*
X87691377Y-52696115D01*
X87691377Y-52696115D02*
X87596138Y-52791353D01*
X87596138Y-52791353D02*
X87500900Y-52838972D01*
X87500900Y-52838972D02*
X87310424Y-52886591D01*
X87310424Y-52886591D02*
X87167567Y-52886591D01*
X87167567Y-52886591D02*
X86977091Y-52838972D01*
X86977091Y-52838972D02*
X86881853Y-52791353D01*
X86881853Y-52791353D02*
X86786615Y-52696115D01*
X86786615Y-52696115D02*
X86738996Y-52553258D01*
X86738996Y-52553258D02*
X86738996Y-52458020D01*
X86738996Y-52458020D02*
X86786615Y-52315163D01*
X86786615Y-52315163D02*
X86834234Y-52267544D01*
X87643757Y-51267544D02*
X87691377Y-51315163D01*
X87691377Y-51315163D02*
X87738996Y-51458020D01*
X87738996Y-51458020D02*
X87738996Y-51553258D01*
X87738996Y-51553258D02*
X87691377Y-51696115D01*
X87691377Y-51696115D02*
X87596138Y-51791353D01*
X87596138Y-51791353D02*
X87500900Y-51838972D01*
X87500900Y-51838972D02*
X87310424Y-51886591D01*
X87310424Y-51886591D02*
X87167567Y-51886591D01*
X87167567Y-51886591D02*
X86977091Y-51838972D01*
X86977091Y-51838972D02*
X86881853Y-51791353D01*
X86881853Y-51791353D02*
X86786615Y-51696115D01*
X86786615Y-51696115D02*
X86738996Y-51553258D01*
X86738996Y-51553258D02*
X86738996Y-51458020D01*
X86738996Y-51458020D02*
X86786615Y-51315163D01*
X86786615Y-51315163D02*
X86834234Y-51267544D01*
X92758767Y-53743734D02*
X92806386Y-53600877D01*
X92806386Y-53600877D02*
X92806386Y-53362782D01*
X92806386Y-53362782D02*
X92758767Y-53267544D01*
X92758767Y-53267544D02*
X92711147Y-53219925D01*
X92711147Y-53219925D02*
X92615909Y-53172306D01*
X92615909Y-53172306D02*
X92520671Y-53172306D01*
X92520671Y-53172306D02*
X92425433Y-53219925D01*
X92425433Y-53219925D02*
X92377814Y-53267544D01*
X92377814Y-53267544D02*
X92330195Y-53362782D01*
X92330195Y-53362782D02*
X92282576Y-53553258D01*
X92282576Y-53553258D02*
X92234957Y-53648496D01*
X92234957Y-53648496D02*
X92187338Y-53696115D01*
X92187338Y-53696115D02*
X92092100Y-53743734D01*
X92092100Y-53743734D02*
X91996862Y-53743734D01*
X91996862Y-53743734D02*
X91901624Y-53696115D01*
X91901624Y-53696115D02*
X91854005Y-53648496D01*
X91854005Y-53648496D02*
X91806386Y-53553258D01*
X91806386Y-53553258D02*
X91806386Y-53315163D01*
X91806386Y-53315163D02*
X91854005Y-53172306D01*
X92806386Y-52743734D02*
X91806386Y-52743734D01*
X91806386Y-52743734D02*
X91806386Y-52505639D01*
X91806386Y-52505639D02*
X91854005Y-52362782D01*
X91854005Y-52362782D02*
X91949243Y-52267544D01*
X91949243Y-52267544D02*
X92044481Y-52219925D01*
X92044481Y-52219925D02*
X92234957Y-52172306D01*
X92234957Y-52172306D02*
X92377814Y-52172306D01*
X92377814Y-52172306D02*
X92568290Y-52219925D01*
X92568290Y-52219925D02*
X92663528Y-52267544D01*
X92663528Y-52267544D02*
X92758767Y-52362782D01*
X92758767Y-52362782D02*
X92806386Y-52505639D01*
X92806386Y-52505639D02*
X92806386Y-52743734D01*
X92520671Y-51791353D02*
X92520671Y-51315163D01*
X92806386Y-51886591D02*
X91806386Y-51553258D01*
X91806386Y-51553258D02*
X92806386Y-51219925D01*
D12*
X108257150Y-74085879D02*
X107780959Y-74419212D01*
X108257150Y-74657307D02*
X107257150Y-74657307D01*
X107257150Y-74657307D02*
X107257150Y-74276355D01*
X107257150Y-74276355D02*
X107304769Y-74181117D01*
X107304769Y-74181117D02*
X107352388Y-74133498D01*
X107352388Y-74133498D02*
X107447626Y-74085879D01*
X107447626Y-74085879D02*
X107590483Y-74085879D01*
X107590483Y-74085879D02*
X107685721Y-74133498D01*
X107685721Y-74133498D02*
X107733340Y-74181117D01*
X107733340Y-74181117D02*
X107780959Y-74276355D01*
X107780959Y-74276355D02*
X107780959Y-74657307D01*
X107352388Y-73704926D02*
X107304769Y-73657307D01*
X107304769Y-73657307D02*
X107257150Y-73562069D01*
X107257150Y-73562069D02*
X107257150Y-73323974D01*
X107257150Y-73323974D02*
X107304769Y-73228736D01*
X107304769Y-73228736D02*
X107352388Y-73181117D01*
X107352388Y-73181117D02*
X107447626Y-73133498D01*
X107447626Y-73133498D02*
X107542864Y-73133498D01*
X107542864Y-73133498D02*
X107685721Y-73181117D01*
X107685721Y-73181117D02*
X108257150Y-73752545D01*
X108257150Y-73752545D02*
X108257150Y-73133498D01*
X83169104Y-89988735D02*
X83169104Y-89512545D01*
X83454819Y-90083973D02*
X82454819Y-89750640D01*
X82454819Y-89750640D02*
X83454819Y-89417307D01*
X83454819Y-89083973D02*
X82788152Y-89083973D01*
X82883390Y-89083973D02*
X82835771Y-89036354D01*
X82835771Y-89036354D02*
X82788152Y-88941116D01*
X82788152Y-88941116D02*
X82788152Y-88798259D01*
X82788152Y-88798259D02*
X82835771Y-88703021D01*
X82835771Y-88703021D02*
X82931009Y-88655402D01*
X82931009Y-88655402D02*
X83454819Y-88655402D01*
X82931009Y-88655402D02*
X82835771Y-88607783D01*
X82835771Y-88607783D02*
X82788152Y-88512545D01*
X82788152Y-88512545D02*
X82788152Y-88369688D01*
X82788152Y-88369688D02*
X82835771Y-88274449D01*
X82835771Y-88274449D02*
X82931009Y-88226830D01*
X82931009Y-88226830D02*
X83454819Y-88226830D01*
X82788152Y-87750640D02*
X83788152Y-87750640D01*
X82835771Y-87750640D02*
X82788152Y-87655402D01*
X82788152Y-87655402D02*
X82788152Y-87464926D01*
X82788152Y-87464926D02*
X82835771Y-87369688D01*
X82835771Y-87369688D02*
X82883390Y-87322069D01*
X82883390Y-87322069D02*
X82978628Y-87274450D01*
X82978628Y-87274450D02*
X83264342Y-87274450D01*
X83264342Y-87274450D02*
X83359580Y-87322069D01*
X83359580Y-87322069D02*
X83407200Y-87369688D01*
X83407200Y-87369688D02*
X83454819Y-87464926D01*
X83454819Y-87464926D02*
X83454819Y-87655402D01*
X83454819Y-87655402D02*
X83407200Y-87750640D01*
X83550057Y-87083974D02*
X83550057Y-86322069D01*
X83454819Y-85560164D02*
X83454819Y-86131592D01*
X83454819Y-85845878D02*
X82454819Y-85845878D01*
X82454819Y-85845878D02*
X82597676Y-85941116D01*
X82597676Y-85941116D02*
X82692914Y-86036354D01*
X82692914Y-86036354D02*
X82740533Y-86131592D01*
X85073866Y-83852368D02*
X85026247Y-83804749D01*
X85026247Y-83804749D02*
X84978628Y-83709511D01*
X84978628Y-83709511D02*
X85073866Y-83519035D01*
X85073866Y-83519035D02*
X85026247Y-83423797D01*
X85026247Y-83423797D02*
X84978628Y-83376178D01*
D11*
X78161027Y-85345094D02*
X78494360Y-86345094D01*
X78494360Y-86345094D02*
X78827693Y-85345094D01*
X79161027Y-86345094D02*
X79161027Y-85678427D01*
X79161027Y-85345094D02*
X79113408Y-85392713D01*
X79113408Y-85392713D02*
X79161027Y-85440332D01*
X79161027Y-85440332D02*
X79208646Y-85392713D01*
X79208646Y-85392713D02*
X79161027Y-85345094D01*
X79161027Y-85345094D02*
X79161027Y-85440332D01*
X79637217Y-85678427D02*
X79637217Y-86345094D01*
X79637217Y-85773665D02*
X79684836Y-85726046D01*
X79684836Y-85726046D02*
X79780074Y-85678427D01*
X79780074Y-85678427D02*
X79922931Y-85678427D01*
X79922931Y-85678427D02*
X80018169Y-85726046D01*
X80018169Y-85726046D02*
X80065788Y-85821284D01*
X80065788Y-85821284D02*
X80065788Y-86345094D01*
X78256265Y-78340890D02*
X78732455Y-78340890D01*
X78161027Y-78626605D02*
X78494360Y-77626605D01*
X78494360Y-77626605D02*
X78827693Y-78626605D01*
X79161027Y-78245652D02*
X79922932Y-78245652D01*
X79541979Y-78626605D02*
X79541979Y-77864700D01*
X78827693Y-87893068D02*
X78732455Y-87845449D01*
X78732455Y-87845449D02*
X78589598Y-87845449D01*
X78589598Y-87845449D02*
X78446741Y-87893068D01*
X78446741Y-87893068D02*
X78351503Y-87988306D01*
X78351503Y-87988306D02*
X78303884Y-88083544D01*
X78303884Y-88083544D02*
X78256265Y-88274020D01*
X78256265Y-88274020D02*
X78256265Y-88416877D01*
X78256265Y-88416877D02*
X78303884Y-88607353D01*
X78303884Y-88607353D02*
X78351503Y-88702591D01*
X78351503Y-88702591D02*
X78446741Y-88797830D01*
X78446741Y-88797830D02*
X78589598Y-88845449D01*
X78589598Y-88845449D02*
X78684836Y-88845449D01*
X78684836Y-88845449D02*
X78827693Y-88797830D01*
X78827693Y-88797830D02*
X78875312Y-88750210D01*
X78875312Y-88750210D02*
X78875312Y-88416877D01*
X78875312Y-88416877D02*
X78684836Y-88416877D01*
X79303884Y-88845449D02*
X79303884Y-87845449D01*
X79303884Y-87845449D02*
X79875312Y-88845449D01*
X79875312Y-88845449D02*
X79875312Y-87845449D01*
X80351503Y-88845449D02*
X80351503Y-87845449D01*
X80351503Y-87845449D02*
X80589598Y-87845449D01*
X80589598Y-87845449D02*
X80732455Y-87893068D01*
X80732455Y-87893068D02*
X80827693Y-87988306D01*
X80827693Y-87988306D02*
X80875312Y-88083544D01*
X80875312Y-88083544D02*
X80922931Y-88274020D01*
X80922931Y-88274020D02*
X80922931Y-88416877D01*
X80922931Y-88416877D02*
X80875312Y-88607353D01*
X80875312Y-88607353D02*
X80827693Y-88702591D01*
X80827693Y-88702591D02*
X80732455Y-88797830D01*
X80732455Y-88797830D02*
X80589598Y-88845449D01*
X80589598Y-88845449D02*
X80351503Y-88845449D01*
X78256265Y-83760882D02*
X78399122Y-83808501D01*
X78399122Y-83808501D02*
X78637217Y-83808501D01*
X78637217Y-83808501D02*
X78732455Y-83760882D01*
X78732455Y-83760882D02*
X78780074Y-83713262D01*
X78780074Y-83713262D02*
X78827693Y-83618024D01*
X78827693Y-83618024D02*
X78827693Y-83522786D01*
X78827693Y-83522786D02*
X78780074Y-83427548D01*
X78780074Y-83427548D02*
X78732455Y-83379929D01*
X78732455Y-83379929D02*
X78637217Y-83332310D01*
X78637217Y-83332310D02*
X78446741Y-83284691D01*
X78446741Y-83284691D02*
X78351503Y-83237072D01*
X78351503Y-83237072D02*
X78303884Y-83189453D01*
X78303884Y-83189453D02*
X78256265Y-83094215D01*
X78256265Y-83094215D02*
X78256265Y-82998977D01*
X78256265Y-82998977D02*
X78303884Y-82903739D01*
X78303884Y-82903739D02*
X78351503Y-82856120D01*
X78351503Y-82856120D02*
X78446741Y-82808501D01*
X78446741Y-82808501D02*
X78684836Y-82808501D01*
X78684836Y-82808501D02*
X78827693Y-82856120D01*
X79256265Y-83808501D02*
X79256265Y-82808501D01*
X79256265Y-82808501D02*
X79494360Y-82808501D01*
X79494360Y-82808501D02*
X79637217Y-82856120D01*
X79637217Y-82856120D02*
X79732455Y-82951358D01*
X79732455Y-82951358D02*
X79780074Y-83046596D01*
X79780074Y-83046596D02*
X79827693Y-83237072D01*
X79827693Y-83237072D02*
X79827693Y-83379929D01*
X79827693Y-83379929D02*
X79780074Y-83570405D01*
X79780074Y-83570405D02*
X79732455Y-83665643D01*
X79732455Y-83665643D02*
X79637217Y-83760882D01*
X79637217Y-83760882D02*
X79494360Y-83808501D01*
X79494360Y-83808501D02*
X79256265Y-83808501D01*
X78256265Y-80949956D02*
X78732455Y-80949956D01*
X78161027Y-81235671D02*
X78494360Y-80235671D01*
X78494360Y-80235671D02*
X78827693Y-81235671D01*
X79161027Y-80854718D02*
X79922932Y-80854718D01*
D13*
X64690476Y-58456119D02*
X65023809Y-59456119D01*
X65023809Y-59456119D02*
X65357142Y-58456119D01*
X66261904Y-59456119D02*
X65928571Y-58979928D01*
X65690476Y-59456119D02*
X65690476Y-58456119D01*
X65690476Y-58456119D02*
X66071428Y-58456119D01*
X66071428Y-58456119D02*
X66166666Y-58503738D01*
X66166666Y-58503738D02*
X66214285Y-58551357D01*
X66214285Y-58551357D02*
X66261904Y-58646595D01*
X66261904Y-58646595D02*
X66261904Y-58789452D01*
X66261904Y-58789452D02*
X66214285Y-58884690D01*
X66214285Y-58884690D02*
X66166666Y-58932309D01*
X66166666Y-58932309D02*
X66071428Y-58979928D01*
X66071428Y-58979928D02*
X65690476Y-58979928D01*
X67214285Y-59456119D02*
X66642857Y-59456119D01*
X66928571Y-59456119D02*
X66928571Y-58456119D01*
X66928571Y-58456119D02*
X66833333Y-58598976D01*
X66833333Y-58598976D02*
X66738095Y-58694214D01*
X66738095Y-58694214D02*
X66642857Y-58741833D01*
D12*
X108257150Y-77637716D02*
X107780959Y-77971049D01*
X108257150Y-78209144D02*
X107257150Y-78209144D01*
X107257150Y-78209144D02*
X107257150Y-77828192D01*
X107257150Y-77828192D02*
X107304769Y-77732954D01*
X107304769Y-77732954D02*
X107352388Y-77685335D01*
X107352388Y-77685335D02*
X107447626Y-77637716D01*
X107447626Y-77637716D02*
X107590483Y-77637716D01*
X107590483Y-77637716D02*
X107685721Y-77685335D01*
X107685721Y-77685335D02*
X107733340Y-77732954D01*
X107733340Y-77732954D02*
X107780959Y-77828192D01*
X107780959Y-77828192D02*
X107780959Y-78209144D01*
X107257150Y-77304382D02*
X107257150Y-76685335D01*
X107257150Y-76685335D02*
X107638102Y-77018668D01*
X107638102Y-77018668D02*
X107638102Y-76875811D01*
X107638102Y-76875811D02*
X107685721Y-76780573D01*
X107685721Y-76780573D02*
X107733340Y-76732954D01*
X107733340Y-76732954D02*
X107828578Y-76685335D01*
X107828578Y-76685335D02*
X108066673Y-76685335D01*
X108066673Y-76685335D02*
X108161911Y-76732954D01*
X108161911Y-76732954D02*
X108209531Y-76780573D01*
X108209531Y-76780573D02*
X108257150Y-76875811D01*
X108257150Y-76875811D02*
X108257150Y-77161525D01*
X108257150Y-77161525D02*
X108209531Y-77256763D01*
X108209531Y-77256763D02*
X108161911Y-77304382D01*
D13*
X109760053Y-56432309D02*
X110093386Y-56432309D01*
X110236243Y-56956119D02*
X109760053Y-56956119D01*
X109760053Y-56956119D02*
X109760053Y-55956119D01*
X109760053Y-55956119D02*
X110236243Y-55956119D01*
X110664815Y-56956119D02*
X110664815Y-55956119D01*
X110664815Y-55956119D02*
X111236243Y-56956119D01*
X111236243Y-56956119D02*
X111236243Y-55956119D01*
X112236243Y-56956119D02*
X111664815Y-56956119D01*
X111950529Y-56956119D02*
X111950529Y-55956119D01*
X111950529Y-55956119D02*
X111855291Y-56098976D01*
X111855291Y-56098976D02*
X111760053Y-56194214D01*
X111760053Y-56194214D02*
X111664815Y-56241833D01*
D12*
X104281080Y-77051163D02*
X104281080Y-76051163D01*
X104281080Y-76051163D02*
X104519175Y-76051163D01*
X104519175Y-76051163D02*
X104662032Y-76098782D01*
X104662032Y-76098782D02*
X104757270Y-76194020D01*
X104757270Y-76194020D02*
X104804889Y-76289258D01*
X104804889Y-76289258D02*
X104852508Y-76479734D01*
X104852508Y-76479734D02*
X104852508Y-76622591D01*
X104852508Y-76622591D02*
X104804889Y-76813067D01*
X104804889Y-76813067D02*
X104757270Y-76908305D01*
X104757270Y-76908305D02*
X104662032Y-77003544D01*
X104662032Y-77003544D02*
X104519175Y-77051163D01*
X104519175Y-77051163D02*
X104281080Y-77051163D01*
X105804889Y-77051163D02*
X105233461Y-77051163D01*
X105519175Y-77051163D02*
X105519175Y-76051163D01*
X105519175Y-76051163D02*
X105423937Y-76194020D01*
X105423937Y-76194020D02*
X105328699Y-76289258D01*
X105328699Y-76289258D02*
X105233461Y-76336877D01*
X105454819Y-69661904D02*
X104454819Y-69661904D01*
X105454819Y-69090476D02*
X104883390Y-69519047D01*
X104454819Y-69090476D02*
X105026247Y-69661904D01*
D11*
%TO.C,OLED_I2C1*%
X74500000Y-48000000D02*
X74500000Y-49500000D01*
X74500000Y-48000000D02*
X76000000Y-48000000D01*
X74500000Y-74500000D02*
X74500000Y-73000000D01*
X74500000Y-74500000D02*
X76000000Y-74500000D01*
X76000000Y-48000000D02*
X74500000Y-48000000D01*
X102500000Y-48000000D02*
X101000000Y-48000000D01*
X102500000Y-48000000D02*
X102500000Y-49500000D01*
X102500000Y-74500000D02*
X101000000Y-74500000D01*
X102500000Y-74500000D02*
X102500000Y-73000000D01*
D14*
%TO.C,start/stop1*%
X107500000Y-82250000D02*
X107500000Y-83750000D01*
X108750000Y-86250000D02*
X113250000Y-86250000D01*
X113250000Y-79750000D02*
X108750000Y-79750000D01*
X114500000Y-83750000D02*
X114500000Y-82250000D01*
%TO.C,R2*%
X110000000Y-72675000D02*
X110000000Y-72605000D01*
X111370000Y-74045000D02*
G75*
G02*
X108630000Y-74045000I-1370000J0D01*
G01*
X108630000Y-74045000D02*
G75*
G02*
X111370000Y-74045000I1370000J0D01*
G01*
%TO.C,other1*%
X63000000Y-82250000D02*
X63000000Y-83750000D01*
X64250000Y-86250000D02*
X68750000Y-86250000D01*
X68750000Y-79750000D02*
X64250000Y-79750000D01*
X70000000Y-83750000D02*
X70000000Y-82250000D01*
D15*
%TO.C,Amp_1*%
X74000000Y-78300000D02*
G75*
G02*
X76540000Y-75760000I2540000J0D01*
G01*
X76540000Y-91000000D02*
G75*
G02*
X74000000Y-88460000I0J2540000D01*
G01*
X95590000Y-75760000D02*
G75*
G02*
X98130000Y-78300000I0J-2540000D01*
G01*
X98130000Y-88460000D02*
G75*
G02*
X95590000Y-91000000I-2540000J0D01*
G01*
D11*
%TO.C,VR1*%
X60650000Y-56175000D02*
X62000000Y-56175000D01*
X60650000Y-57500000D02*
X60650000Y-56175000D01*
X60650000Y-65975000D02*
X60650000Y-67500000D01*
X60650000Y-67500000D02*
X62175000Y-67500000D01*
D16*
X63400000Y-69725000D02*
X63400000Y-69725000D01*
X63600000Y-69725000D02*
X63600000Y-69725000D01*
D11*
X70000000Y-67500000D02*
X71350000Y-67500000D01*
X70001743Y-56174024D02*
X71351743Y-56174024D01*
X71350000Y-56175000D02*
X71350000Y-57500000D01*
X71350000Y-67500000D02*
X71350000Y-65975000D01*
D16*
X63400000Y-69725000D02*
G75*
G02*
X63600000Y-69725000I100000J0D01*
G01*
X63600000Y-69725000D02*
G75*
G02*
X63400000Y-69725000I-100000J0D01*
G01*
D14*
%TO.C,R3*%
X111330000Y-77500000D02*
X111400000Y-77500000D01*
X111330000Y-77500000D02*
G75*
G02*
X108590000Y-77500000I-1370000J0D01*
G01*
X108590000Y-77500000D02*
G75*
G02*
X111330000Y-77500000I1370000J0D01*
G01*
D11*
%TO.C,EN1*%
X105000000Y-54000000D02*
X105000000Y-55000000D01*
X105000000Y-54000000D02*
X106000000Y-54000000D01*
X105000000Y-68500000D02*
X105000000Y-67500000D01*
X105000000Y-68500000D02*
X106000000Y-68500000D01*
X117000000Y-54000000D02*
X116000000Y-54000000D01*
X117000000Y-54000000D02*
X117000000Y-55000000D01*
X117000000Y-68500000D02*
X116000000Y-68500000D01*
X117000000Y-68500000D02*
X117000000Y-67500000D01*
D14*
%TO.C,D1*%
X106220000Y-72784483D02*
G75*
G02*
X103780000Y-72784483I-1220000J-1255517D01*
G01*
%TD*%
M02*
