%TF.GenerationSoftware,KiCad,Pcbnew,8.0.8*%
%TF.CreationDate,2025-02-02T21:03:09-08:00*%
%TF.ProjectId,D1Mini,44314d69-6e69-42e6-9b69-6361645f7063,rev?*%
%TF.SameCoordinates,Original*%
%TF.FileFunction,Legend,Top*%
%TF.FilePolarity,Positive*%
%FSLAX46Y46*%
G04 Gerber Fmt 4.6, Leading zero omitted, Abs format (unit mm)*
G04 Created by KiCad (PCBNEW 8.0.8) date 2025-02-02 21:03:09*
%MOMM*%
%LPD*%
G01*
G04 APERTURE LIST*
%ADD10C,0.200000*%
%ADD11C,0.100000*%
%ADD12C,0.300000*%
%ADD13C,0.150000*%
%ADD14C,0.120000*%
%ADD15C,0.400000*%
G04 APERTURE END LIST*
D10*
X104417096Y-47189867D02*
X104417096Y-51149987D01*
X127962971Y-51131780D02*
X131923091Y-51131780D01*
X131923091Y-47171660D02*
X131923091Y-51131780D01*
X108377216Y-51149987D02*
X104417096Y-51149987D01*
X131919045Y-27102396D02*
X131919045Y-23142276D01*
X127958925Y-23142276D02*
X131919045Y-23142276D01*
X108373170Y-23160483D02*
X104413050Y-23160483D01*
X104413050Y-27120603D02*
X104413050Y-23160483D01*
D11*
X102135283Y-59013281D02*
X102135283Y-59165662D01*
X102135283Y-59165662D02*
X102173378Y-59241853D01*
X102173378Y-59241853D02*
X102211473Y-59279948D01*
X102211473Y-59279948D02*
X102325759Y-59356138D01*
X102325759Y-59356138D02*
X102478140Y-59394234D01*
X102478140Y-59394234D02*
X102782902Y-59394234D01*
X102782902Y-59394234D02*
X102859092Y-59356138D01*
X102859092Y-59356138D02*
X102897188Y-59318043D01*
X102897188Y-59318043D02*
X102935283Y-59241853D01*
X102935283Y-59241853D02*
X102935283Y-59089472D01*
X102935283Y-59089472D02*
X102897188Y-59013281D01*
X102897188Y-59013281D02*
X102859092Y-58975186D01*
X102859092Y-58975186D02*
X102782902Y-58937091D01*
X102782902Y-58937091D02*
X102592426Y-58937091D01*
X102592426Y-58937091D02*
X102516235Y-58975186D01*
X102516235Y-58975186D02*
X102478140Y-59013281D01*
X102478140Y-59013281D02*
X102440045Y-59089472D01*
X102440045Y-59089472D02*
X102440045Y-59241853D01*
X102440045Y-59241853D02*
X102478140Y-59318043D01*
X102478140Y-59318043D02*
X102516235Y-59356138D01*
X102516235Y-59356138D02*
X102592426Y-59394234D01*
X102401949Y-57984709D02*
X103201949Y-57984709D01*
X102440045Y-57984709D02*
X102401949Y-57908519D01*
X102401949Y-57908519D02*
X102401949Y-57756138D01*
X102401949Y-57756138D02*
X102440045Y-57679947D01*
X102440045Y-57679947D02*
X102478140Y-57641852D01*
X102478140Y-57641852D02*
X102554330Y-57603757D01*
X102554330Y-57603757D02*
X102782902Y-57603757D01*
X102782902Y-57603757D02*
X102859092Y-57641852D01*
X102859092Y-57641852D02*
X102897188Y-57679947D01*
X102897188Y-57679947D02*
X102935283Y-57756138D01*
X102935283Y-57756138D02*
X102935283Y-57908519D01*
X102935283Y-57908519D02*
X102897188Y-57984709D01*
X102935283Y-57260899D02*
X102401949Y-57260899D01*
X102135283Y-57260899D02*
X102173378Y-57298995D01*
X102173378Y-57298995D02*
X102211473Y-57260899D01*
X102211473Y-57260899D02*
X102173378Y-57222804D01*
X102173378Y-57222804D02*
X102135283Y-57260899D01*
X102135283Y-57260899D02*
X102211473Y-57260899D01*
X102401949Y-56879947D02*
X102935283Y-56879947D01*
X102478140Y-56879947D02*
X102440045Y-56841852D01*
X102440045Y-56841852D02*
X102401949Y-56765662D01*
X102401949Y-56765662D02*
X102401949Y-56651376D01*
X102401949Y-56651376D02*
X102440045Y-56575185D01*
X102440045Y-56575185D02*
X102516235Y-56537090D01*
X102516235Y-56537090D02*
X102935283Y-56537090D01*
X102935283Y-55546613D02*
X102401949Y-55546613D01*
X102554330Y-55546613D02*
X102478140Y-55508518D01*
X102478140Y-55508518D02*
X102440045Y-55470423D01*
X102440045Y-55470423D02*
X102401949Y-55394232D01*
X102401949Y-55394232D02*
X102401949Y-55318042D01*
X102897188Y-54746613D02*
X102935283Y-54822804D01*
X102935283Y-54822804D02*
X102935283Y-54975185D01*
X102935283Y-54975185D02*
X102897188Y-55051375D01*
X102897188Y-55051375D02*
X102820997Y-55089471D01*
X102820997Y-55089471D02*
X102516235Y-55089471D01*
X102516235Y-55089471D02*
X102440045Y-55051375D01*
X102440045Y-55051375D02*
X102401949Y-54975185D01*
X102401949Y-54975185D02*
X102401949Y-54822804D01*
X102401949Y-54822804D02*
X102440045Y-54746613D01*
X102440045Y-54746613D02*
X102516235Y-54708518D01*
X102516235Y-54708518D02*
X102592426Y-54708518D01*
X102592426Y-54708518D02*
X102668616Y-55089471D01*
X102935283Y-54251376D02*
X102897188Y-54327566D01*
X102897188Y-54327566D02*
X102820997Y-54365661D01*
X102820997Y-54365661D02*
X102135283Y-54365661D01*
X102935283Y-53603756D02*
X102516235Y-53603756D01*
X102516235Y-53603756D02*
X102440045Y-53641851D01*
X102440045Y-53641851D02*
X102401949Y-53718042D01*
X102401949Y-53718042D02*
X102401949Y-53870423D01*
X102401949Y-53870423D02*
X102440045Y-53946613D01*
X102897188Y-53603756D02*
X102935283Y-53679947D01*
X102935283Y-53679947D02*
X102935283Y-53870423D01*
X102935283Y-53870423D02*
X102897188Y-53946613D01*
X102897188Y-53946613D02*
X102820997Y-53984709D01*
X102820997Y-53984709D02*
X102744807Y-53984709D01*
X102744807Y-53984709D02*
X102668616Y-53946613D01*
X102668616Y-53946613D02*
X102630521Y-53870423D01*
X102630521Y-53870423D02*
X102630521Y-53679947D01*
X102630521Y-53679947D02*
X102592426Y-53603756D01*
X102401949Y-53298994D02*
X102935283Y-53108518D01*
X102401949Y-52918041D02*
X102935283Y-53108518D01*
X102935283Y-53108518D02*
X103125759Y-53184708D01*
X103125759Y-53184708D02*
X103163854Y-53222803D01*
X103163854Y-53222803D02*
X103201949Y-53298994D01*
X103240045Y-51775184D02*
X103201949Y-51813279D01*
X103201949Y-51813279D02*
X103087664Y-51889470D01*
X103087664Y-51889470D02*
X103011473Y-51927565D01*
X103011473Y-51927565D02*
X102897188Y-51965660D01*
X102897188Y-51965660D02*
X102706711Y-52003755D01*
X102706711Y-52003755D02*
X102554330Y-52003755D01*
X102554330Y-52003755D02*
X102363854Y-51965660D01*
X102363854Y-51965660D02*
X102249568Y-51927565D01*
X102249568Y-51927565D02*
X102173378Y-51889470D01*
X102173378Y-51889470D02*
X102059092Y-51813279D01*
X102059092Y-51813279D02*
X102020997Y-51775184D01*
X102897188Y-51127565D02*
X102935283Y-51203756D01*
X102935283Y-51203756D02*
X102935283Y-51356137D01*
X102935283Y-51356137D02*
X102897188Y-51432327D01*
X102897188Y-51432327D02*
X102859092Y-51470422D01*
X102859092Y-51470422D02*
X102782902Y-51508518D01*
X102782902Y-51508518D02*
X102554330Y-51508518D01*
X102554330Y-51508518D02*
X102478140Y-51470422D01*
X102478140Y-51470422D02*
X102440045Y-51432327D01*
X102440045Y-51432327D02*
X102401949Y-51356137D01*
X102401949Y-51356137D02*
X102401949Y-51203756D01*
X102401949Y-51203756D02*
X102440045Y-51127565D01*
X102401949Y-50441851D02*
X102935283Y-50441851D01*
X102401949Y-50784708D02*
X102820997Y-50784708D01*
X102820997Y-50784708D02*
X102897188Y-50746613D01*
X102897188Y-50746613D02*
X102935283Y-50670423D01*
X102935283Y-50670423D02*
X102935283Y-50556137D01*
X102935283Y-50556137D02*
X102897188Y-50479946D01*
X102897188Y-50479946D02*
X102859092Y-50441851D01*
X102401949Y-50175184D02*
X102401949Y-49870422D01*
X102135283Y-50060898D02*
X102820997Y-50060898D01*
X102820997Y-50060898D02*
X102897188Y-50022803D01*
X102897188Y-50022803D02*
X102935283Y-49946613D01*
X102935283Y-49946613D02*
X102935283Y-49870422D01*
X102401949Y-49108517D02*
X102401949Y-48803755D01*
X102135283Y-48994231D02*
X102820997Y-48994231D01*
X102820997Y-48994231D02*
X102897188Y-48956136D01*
X102897188Y-48956136D02*
X102935283Y-48879946D01*
X102935283Y-48879946D02*
X102935283Y-48803755D01*
X102935283Y-48537088D02*
X102401949Y-48537088D01*
X102554330Y-48537088D02*
X102478140Y-48498993D01*
X102478140Y-48498993D02*
X102440045Y-48460898D01*
X102440045Y-48460898D02*
X102401949Y-48384707D01*
X102401949Y-48384707D02*
X102401949Y-48308517D01*
X102935283Y-47698993D02*
X102516235Y-47698993D01*
X102516235Y-47698993D02*
X102440045Y-47737088D01*
X102440045Y-47737088D02*
X102401949Y-47813279D01*
X102401949Y-47813279D02*
X102401949Y-47965660D01*
X102401949Y-47965660D02*
X102440045Y-48041850D01*
X102897188Y-47698993D02*
X102935283Y-47775184D01*
X102935283Y-47775184D02*
X102935283Y-47965660D01*
X102935283Y-47965660D02*
X102897188Y-48041850D01*
X102897188Y-48041850D02*
X102820997Y-48079946D01*
X102820997Y-48079946D02*
X102744807Y-48079946D01*
X102744807Y-48079946D02*
X102668616Y-48041850D01*
X102668616Y-48041850D02*
X102630521Y-47965660D01*
X102630521Y-47965660D02*
X102630521Y-47775184D01*
X102630521Y-47775184D02*
X102592426Y-47698993D01*
X102897188Y-46975183D02*
X102935283Y-47051374D01*
X102935283Y-47051374D02*
X102935283Y-47203755D01*
X102935283Y-47203755D02*
X102897188Y-47279945D01*
X102897188Y-47279945D02*
X102859092Y-47318040D01*
X102859092Y-47318040D02*
X102782902Y-47356136D01*
X102782902Y-47356136D02*
X102554330Y-47356136D01*
X102554330Y-47356136D02*
X102478140Y-47318040D01*
X102478140Y-47318040D02*
X102440045Y-47279945D01*
X102440045Y-47279945D02*
X102401949Y-47203755D01*
X102401949Y-47203755D02*
X102401949Y-47051374D01*
X102401949Y-47051374D02*
X102440045Y-46975183D01*
X102897188Y-46327564D02*
X102935283Y-46403755D01*
X102935283Y-46403755D02*
X102935283Y-46556136D01*
X102935283Y-46556136D02*
X102897188Y-46632326D01*
X102897188Y-46632326D02*
X102820997Y-46670422D01*
X102820997Y-46670422D02*
X102516235Y-46670422D01*
X102516235Y-46670422D02*
X102440045Y-46632326D01*
X102440045Y-46632326D02*
X102401949Y-46556136D01*
X102401949Y-46556136D02*
X102401949Y-46403755D01*
X102401949Y-46403755D02*
X102440045Y-46327564D01*
X102440045Y-46327564D02*
X102516235Y-46289469D01*
X102516235Y-46289469D02*
X102592426Y-46289469D01*
X102592426Y-46289469D02*
X102668616Y-46670422D01*
X102935283Y-45222803D02*
X102897188Y-45298993D01*
X102897188Y-45298993D02*
X102859092Y-45337088D01*
X102859092Y-45337088D02*
X102782902Y-45375184D01*
X102782902Y-45375184D02*
X102554330Y-45375184D01*
X102554330Y-45375184D02*
X102478140Y-45337088D01*
X102478140Y-45337088D02*
X102440045Y-45298993D01*
X102440045Y-45298993D02*
X102401949Y-45222803D01*
X102401949Y-45222803D02*
X102401949Y-45108517D01*
X102401949Y-45108517D02*
X102440045Y-45032326D01*
X102440045Y-45032326D02*
X102478140Y-44994231D01*
X102478140Y-44994231D02*
X102554330Y-44956136D01*
X102554330Y-44956136D02*
X102782902Y-44956136D01*
X102782902Y-44956136D02*
X102859092Y-44994231D01*
X102859092Y-44994231D02*
X102897188Y-45032326D01*
X102897188Y-45032326D02*
X102935283Y-45108517D01*
X102935283Y-45108517D02*
X102935283Y-45222803D01*
X102401949Y-44613278D02*
X102935283Y-44613278D01*
X102478140Y-44613278D02*
X102440045Y-44575183D01*
X102440045Y-44575183D02*
X102401949Y-44498993D01*
X102401949Y-44498993D02*
X102401949Y-44384707D01*
X102401949Y-44384707D02*
X102440045Y-44308516D01*
X102440045Y-44308516D02*
X102516235Y-44270421D01*
X102516235Y-44270421D02*
X102935283Y-44270421D01*
X102935283Y-43279944D02*
X102135283Y-43279944D01*
X102440045Y-43279944D02*
X102401949Y-43203754D01*
X102401949Y-43203754D02*
X102401949Y-43051373D01*
X102401949Y-43051373D02*
X102440045Y-42975182D01*
X102440045Y-42975182D02*
X102478140Y-42937087D01*
X102478140Y-42937087D02*
X102554330Y-42898992D01*
X102554330Y-42898992D02*
X102782902Y-42898992D01*
X102782902Y-42898992D02*
X102859092Y-42937087D01*
X102859092Y-42937087D02*
X102897188Y-42975182D01*
X102897188Y-42975182D02*
X102935283Y-43051373D01*
X102935283Y-43051373D02*
X102935283Y-43203754D01*
X102935283Y-43203754D02*
X102897188Y-43279944D01*
X102935283Y-42213277D02*
X102516235Y-42213277D01*
X102516235Y-42213277D02*
X102440045Y-42251372D01*
X102440045Y-42251372D02*
X102401949Y-42327563D01*
X102401949Y-42327563D02*
X102401949Y-42479944D01*
X102401949Y-42479944D02*
X102440045Y-42556134D01*
X102897188Y-42213277D02*
X102935283Y-42289468D01*
X102935283Y-42289468D02*
X102935283Y-42479944D01*
X102935283Y-42479944D02*
X102897188Y-42556134D01*
X102897188Y-42556134D02*
X102820997Y-42594230D01*
X102820997Y-42594230D02*
X102744807Y-42594230D01*
X102744807Y-42594230D02*
X102668616Y-42556134D01*
X102668616Y-42556134D02*
X102630521Y-42479944D01*
X102630521Y-42479944D02*
X102630521Y-42289468D01*
X102630521Y-42289468D02*
X102592426Y-42213277D01*
X102897188Y-41489467D02*
X102935283Y-41565658D01*
X102935283Y-41565658D02*
X102935283Y-41718039D01*
X102935283Y-41718039D02*
X102897188Y-41794229D01*
X102897188Y-41794229D02*
X102859092Y-41832324D01*
X102859092Y-41832324D02*
X102782902Y-41870420D01*
X102782902Y-41870420D02*
X102554330Y-41870420D01*
X102554330Y-41870420D02*
X102478140Y-41832324D01*
X102478140Y-41832324D02*
X102440045Y-41794229D01*
X102440045Y-41794229D02*
X102401949Y-41718039D01*
X102401949Y-41718039D02*
X102401949Y-41565658D01*
X102401949Y-41565658D02*
X102440045Y-41489467D01*
X102935283Y-41146610D02*
X102135283Y-41146610D01*
X102630521Y-41070420D02*
X102935283Y-40841848D01*
X102401949Y-40841848D02*
X102706711Y-41146610D01*
X103240045Y-40575182D02*
X103201949Y-40537087D01*
X103201949Y-40537087D02*
X103087664Y-40460896D01*
X103087664Y-40460896D02*
X103011473Y-40422801D01*
X103011473Y-40422801D02*
X102897188Y-40384706D01*
X102897188Y-40384706D02*
X102706711Y-40346610D01*
X102706711Y-40346610D02*
X102554330Y-40346610D01*
X102554330Y-40346610D02*
X102363854Y-40384706D01*
X102363854Y-40384706D02*
X102249568Y-40422801D01*
X102249568Y-40422801D02*
X102173378Y-40460896D01*
X102173378Y-40460896D02*
X102059092Y-40537087D01*
X102059092Y-40537087D02*
X102020997Y-40575182D01*
X103584611Y-56400000D02*
X103300673Y-56400000D01*
X103595153Y-60328437D02*
X104034611Y-60328437D01*
X103584611Y-52529707D02*
X103584611Y-60328437D01*
X103584611Y-52529707D02*
X104034611Y-52529707D01*
X112807777Y-33203782D02*
X112998253Y-33203782D01*
X112998253Y-33203782D02*
X113093491Y-33251401D01*
X113093491Y-33251401D02*
X113188729Y-33346639D01*
X113188729Y-33346639D02*
X113236348Y-33537115D01*
X113236348Y-33537115D02*
X113236348Y-33870448D01*
X113236348Y-33870448D02*
X113188729Y-34060924D01*
X113188729Y-34060924D02*
X113093491Y-34156163D01*
X113093491Y-34156163D02*
X112998253Y-34203782D01*
X112998253Y-34203782D02*
X112807777Y-34203782D01*
X112807777Y-34203782D02*
X112712539Y-34156163D01*
X112712539Y-34156163D02*
X112617301Y-34060924D01*
X112617301Y-34060924D02*
X112569682Y-33870448D01*
X112569682Y-33870448D02*
X112569682Y-33537115D01*
X112569682Y-33537115D02*
X112617301Y-33346639D01*
X112617301Y-33346639D02*
X112712539Y-33251401D01*
X112712539Y-33251401D02*
X112807777Y-33203782D01*
X114141110Y-34203782D02*
X113664920Y-34203782D01*
X113664920Y-34203782D02*
X113664920Y-33203782D01*
X114474444Y-33679972D02*
X114807777Y-33679972D01*
X114950634Y-34203782D02*
X114474444Y-34203782D01*
X114474444Y-34203782D02*
X114474444Y-33203782D01*
X114474444Y-33203782D02*
X114950634Y-33203782D01*
X115379206Y-34203782D02*
X115379206Y-33203782D01*
X115379206Y-33203782D02*
X115617301Y-33203782D01*
X115617301Y-33203782D02*
X115760158Y-33251401D01*
X115760158Y-33251401D02*
X115855396Y-33346639D01*
X115855396Y-33346639D02*
X115903015Y-33441877D01*
X115903015Y-33441877D02*
X115950634Y-33632353D01*
X115950634Y-33632353D02*
X115950634Y-33775210D01*
X115950634Y-33775210D02*
X115903015Y-33965686D01*
X115903015Y-33965686D02*
X115855396Y-34060924D01*
X115855396Y-34060924D02*
X115760158Y-34156163D01*
X115760158Y-34156163D02*
X115617301Y-34203782D01*
X115617301Y-34203782D02*
X115379206Y-34203782D01*
X117141111Y-34203782D02*
X117141111Y-33203782D01*
X117141111Y-33203782D02*
X117379206Y-33203782D01*
X117379206Y-33203782D02*
X117522063Y-33251401D01*
X117522063Y-33251401D02*
X117617301Y-33346639D01*
X117617301Y-33346639D02*
X117664920Y-33441877D01*
X117664920Y-33441877D02*
X117712539Y-33632353D01*
X117712539Y-33632353D02*
X117712539Y-33775210D01*
X117712539Y-33775210D02*
X117664920Y-33965686D01*
X117664920Y-33965686D02*
X117617301Y-34060924D01*
X117617301Y-34060924D02*
X117522063Y-34156163D01*
X117522063Y-34156163D02*
X117379206Y-34203782D01*
X117379206Y-34203782D02*
X117141111Y-34203782D01*
X118141111Y-34203782D02*
X118141111Y-33537115D01*
X118141111Y-33203782D02*
X118093492Y-33251401D01*
X118093492Y-33251401D02*
X118141111Y-33299020D01*
X118141111Y-33299020D02*
X118188730Y-33251401D01*
X118188730Y-33251401D02*
X118141111Y-33203782D01*
X118141111Y-33203782D02*
X118141111Y-33299020D01*
X118569682Y-34156163D02*
X118664920Y-34203782D01*
X118664920Y-34203782D02*
X118855396Y-34203782D01*
X118855396Y-34203782D02*
X118950634Y-34156163D01*
X118950634Y-34156163D02*
X118998253Y-34060924D01*
X118998253Y-34060924D02*
X118998253Y-34013305D01*
X118998253Y-34013305D02*
X118950634Y-33918067D01*
X118950634Y-33918067D02*
X118855396Y-33870448D01*
X118855396Y-33870448D02*
X118712539Y-33870448D01*
X118712539Y-33870448D02*
X118617301Y-33822829D01*
X118617301Y-33822829D02*
X118569682Y-33727591D01*
X118569682Y-33727591D02*
X118569682Y-33679972D01*
X118569682Y-33679972D02*
X118617301Y-33584734D01*
X118617301Y-33584734D02*
X118712539Y-33537115D01*
X118712539Y-33537115D02*
X118855396Y-33537115D01*
X118855396Y-33537115D02*
X118950634Y-33584734D01*
X119426825Y-33537115D02*
X119426825Y-34537115D01*
X119426825Y-33584734D02*
X119522063Y-33537115D01*
X119522063Y-33537115D02*
X119712539Y-33537115D01*
X119712539Y-33537115D02*
X119807777Y-33584734D01*
X119807777Y-33584734D02*
X119855396Y-33632353D01*
X119855396Y-33632353D02*
X119903015Y-33727591D01*
X119903015Y-33727591D02*
X119903015Y-34013305D01*
X119903015Y-34013305D02*
X119855396Y-34108543D01*
X119855396Y-34108543D02*
X119807777Y-34156163D01*
X119807777Y-34156163D02*
X119712539Y-34203782D01*
X119712539Y-34203782D02*
X119522063Y-34203782D01*
X119522063Y-34203782D02*
X119426825Y-34156163D01*
X120474444Y-34203782D02*
X120379206Y-34156163D01*
X120379206Y-34156163D02*
X120331587Y-34060924D01*
X120331587Y-34060924D02*
X120331587Y-33203782D01*
X121283968Y-34203782D02*
X121283968Y-33679972D01*
X121283968Y-33679972D02*
X121236349Y-33584734D01*
X121236349Y-33584734D02*
X121141111Y-33537115D01*
X121141111Y-33537115D02*
X120950635Y-33537115D01*
X120950635Y-33537115D02*
X120855397Y-33584734D01*
X121283968Y-34156163D02*
X121188730Y-34203782D01*
X121188730Y-34203782D02*
X120950635Y-34203782D01*
X120950635Y-34203782D02*
X120855397Y-34156163D01*
X120855397Y-34156163D02*
X120807778Y-34060924D01*
X120807778Y-34060924D02*
X120807778Y-33965686D01*
X120807778Y-33965686D02*
X120855397Y-33870448D01*
X120855397Y-33870448D02*
X120950635Y-33822829D01*
X120950635Y-33822829D02*
X121188730Y-33822829D01*
X121188730Y-33822829D02*
X121283968Y-33775210D01*
X121664921Y-33537115D02*
X121903016Y-34203782D01*
X122141111Y-33537115D02*
X121903016Y-34203782D01*
X121903016Y-34203782D02*
X121807778Y-34441877D01*
X121807778Y-34441877D02*
X121760159Y-34489496D01*
X121760159Y-34489496D02*
X121664921Y-34537115D01*
D10*
X105068518Y-34968114D02*
X100619451Y-34968114D01*
X105068518Y-29496675D02*
X105068518Y-34876976D01*
X100619451Y-29488114D02*
X105068518Y-29488114D01*
D11*
X101627693Y-33059612D02*
X101532455Y-33011993D01*
X101532455Y-33011993D02*
X101389598Y-33011993D01*
X101389598Y-33011993D02*
X101246741Y-33059612D01*
X101246741Y-33059612D02*
X101151503Y-33154850D01*
X101151503Y-33154850D02*
X101103884Y-33250088D01*
X101103884Y-33250088D02*
X101056265Y-33440564D01*
X101056265Y-33440564D02*
X101056265Y-33583421D01*
X101056265Y-33583421D02*
X101103884Y-33773897D01*
X101103884Y-33773897D02*
X101151503Y-33869135D01*
X101151503Y-33869135D02*
X101246741Y-33964374D01*
X101246741Y-33964374D02*
X101389598Y-34011993D01*
X101389598Y-34011993D02*
X101484836Y-34011993D01*
X101484836Y-34011993D02*
X101627693Y-33964374D01*
X101627693Y-33964374D02*
X101675312Y-33916754D01*
X101675312Y-33916754D02*
X101675312Y-33583421D01*
X101675312Y-33583421D02*
X101484836Y-33583421D01*
X102103884Y-34011993D02*
X102103884Y-33011993D01*
X102103884Y-33011993D02*
X102675312Y-34011993D01*
X102675312Y-34011993D02*
X102675312Y-33011993D01*
X103151503Y-34011993D02*
X103151503Y-33011993D01*
X103151503Y-33011993D02*
X103389598Y-33011993D01*
X103389598Y-33011993D02*
X103532455Y-33059612D01*
X103532455Y-33059612D02*
X103627693Y-33154850D01*
X103627693Y-33154850D02*
X103675312Y-33250088D01*
X103675312Y-33250088D02*
X103722931Y-33440564D01*
X103722931Y-33440564D02*
X103722931Y-33583421D01*
X103722931Y-33583421D02*
X103675312Y-33773897D01*
X103675312Y-33773897D02*
X103627693Y-33869135D01*
X103627693Y-33869135D02*
X103532455Y-33964374D01*
X103532455Y-33964374D02*
X103389598Y-34011993D01*
X103389598Y-34011993D02*
X103151503Y-34011993D01*
X101103884Y-30736056D02*
X101865789Y-30736056D01*
X101484836Y-31117009D02*
X101484836Y-30355104D01*
X102865788Y-31117009D02*
X102294360Y-31117009D01*
X102580074Y-31117009D02*
X102580074Y-30117009D01*
X102580074Y-30117009D02*
X102484836Y-30259866D01*
X102484836Y-30259866D02*
X102389598Y-30355104D01*
X102389598Y-30355104D02*
X102294360Y-30402723D01*
X103246741Y-30212247D02*
X103294360Y-30164628D01*
X103294360Y-30164628D02*
X103389598Y-30117009D01*
X103389598Y-30117009D02*
X103627693Y-30117009D01*
X103627693Y-30117009D02*
X103722931Y-30164628D01*
X103722931Y-30164628D02*
X103770550Y-30212247D01*
X103770550Y-30212247D02*
X103818169Y-30307485D01*
X103818169Y-30307485D02*
X103818169Y-30402723D01*
X103818169Y-30402723D02*
X103770550Y-30545580D01*
X103770550Y-30545580D02*
X103199122Y-31117009D01*
X103199122Y-31117009D02*
X103818169Y-31117009D01*
X104103884Y-30117009D02*
X104437217Y-31117009D01*
X104437217Y-31117009D02*
X104770550Y-30117009D01*
X133145821Y-62466718D02*
X132669630Y-62800051D01*
X133145821Y-63038146D02*
X132145821Y-63038146D01*
X132145821Y-63038146D02*
X132145821Y-62657194D01*
X132145821Y-62657194D02*
X132193440Y-62561956D01*
X132193440Y-62561956D02*
X132241059Y-62514337D01*
X132241059Y-62514337D02*
X132336297Y-62466718D01*
X132336297Y-62466718D02*
X132479154Y-62466718D01*
X132479154Y-62466718D02*
X132574392Y-62514337D01*
X132574392Y-62514337D02*
X132622011Y-62561956D01*
X132622011Y-62561956D02*
X132669630Y-62657194D01*
X132669630Y-62657194D02*
X132669630Y-63038146D01*
X133145821Y-61514337D02*
X133145821Y-62085765D01*
X133145821Y-61800051D02*
X132145821Y-61800051D01*
X132145821Y-61800051D02*
X132288678Y-61895289D01*
X132288678Y-61895289D02*
X132383916Y-61990527D01*
X132383916Y-61990527D02*
X132431535Y-62085765D01*
X139322302Y-71055606D02*
X138988969Y-70579415D01*
X138750874Y-71055606D02*
X138750874Y-70055606D01*
X138750874Y-70055606D02*
X139131826Y-70055606D01*
X139131826Y-70055606D02*
X139227064Y-70103225D01*
X139227064Y-70103225D02*
X139274683Y-70150844D01*
X139274683Y-70150844D02*
X139322302Y-70246082D01*
X139322302Y-70246082D02*
X139322302Y-70388939D01*
X139322302Y-70388939D02*
X139274683Y-70484177D01*
X139274683Y-70484177D02*
X139227064Y-70531796D01*
X139227064Y-70531796D02*
X139131826Y-70579415D01*
X139131826Y-70579415D02*
X138750874Y-70579415D01*
X139703255Y-70150844D02*
X139750874Y-70103225D01*
X139750874Y-70103225D02*
X139846112Y-70055606D01*
X139846112Y-70055606D02*
X140084207Y-70055606D01*
X140084207Y-70055606D02*
X140179445Y-70103225D01*
X140179445Y-70103225D02*
X140227064Y-70150844D01*
X140227064Y-70150844D02*
X140274683Y-70246082D01*
X140274683Y-70246082D02*
X140274683Y-70341320D01*
X140274683Y-70341320D02*
X140227064Y-70484177D01*
X140227064Y-70484177D02*
X139655636Y-71055606D01*
X139655636Y-71055606D02*
X140274683Y-71055606D01*
X117880074Y-65670221D02*
X118032455Y-66203555D01*
X118032455Y-66203555D02*
X118184836Y-65822602D01*
X118184836Y-65822602D02*
X118337217Y-66203555D01*
X118337217Y-66203555D02*
X118489598Y-65670221D01*
X118794360Y-66203555D02*
X118794360Y-65670221D01*
X118794360Y-65403555D02*
X118756264Y-65441650D01*
X118756264Y-65441650D02*
X118794360Y-65479745D01*
X118794360Y-65479745D02*
X118832455Y-65441650D01*
X118832455Y-65441650D02*
X118794360Y-65403555D01*
X118794360Y-65403555D02*
X118794360Y-65479745D01*
X119289597Y-66203555D02*
X119213407Y-66165460D01*
X119213407Y-66165460D02*
X119175312Y-66089269D01*
X119175312Y-66089269D02*
X119175312Y-65403555D01*
X119708645Y-66203555D02*
X119632455Y-66165460D01*
X119632455Y-66165460D02*
X119594360Y-66089269D01*
X119594360Y-66089269D02*
X119594360Y-65403555D01*
X120546741Y-65670221D02*
X120699122Y-66203555D01*
X120699122Y-66203555D02*
X120851503Y-65822602D01*
X120851503Y-65822602D02*
X121003884Y-66203555D01*
X121003884Y-66203555D02*
X121156265Y-65670221D01*
X121575312Y-66203555D02*
X121499122Y-66165460D01*
X121499122Y-66165460D02*
X121461027Y-66127364D01*
X121461027Y-66127364D02*
X121422931Y-66051174D01*
X121422931Y-66051174D02*
X121422931Y-65822602D01*
X121422931Y-65822602D02*
X121461027Y-65746412D01*
X121461027Y-65746412D02*
X121499122Y-65708317D01*
X121499122Y-65708317D02*
X121575312Y-65670221D01*
X121575312Y-65670221D02*
X121689598Y-65670221D01*
X121689598Y-65670221D02*
X121765789Y-65708317D01*
X121765789Y-65708317D02*
X121803884Y-65746412D01*
X121803884Y-65746412D02*
X121841979Y-65822602D01*
X121841979Y-65822602D02*
X121841979Y-66051174D01*
X121841979Y-66051174D02*
X121803884Y-66127364D01*
X121803884Y-66127364D02*
X121765789Y-66165460D01*
X121765789Y-66165460D02*
X121689598Y-66203555D01*
X121689598Y-66203555D02*
X121575312Y-66203555D01*
X122184837Y-66203555D02*
X122184837Y-65670221D01*
X122184837Y-65822602D02*
X122222932Y-65746412D01*
X122222932Y-65746412D02*
X122261027Y-65708317D01*
X122261027Y-65708317D02*
X122337218Y-65670221D01*
X122337218Y-65670221D02*
X122413408Y-65670221D01*
X122680075Y-66203555D02*
X122680075Y-65403555D01*
X122756265Y-65898793D02*
X122984837Y-66203555D01*
X122984837Y-65670221D02*
X122680075Y-65974983D01*
X118337217Y-65030642D02*
X117956265Y-65030642D01*
X117956265Y-65030642D02*
X117956265Y-64230642D01*
X119175312Y-64192547D02*
X118489598Y-65221118D01*
X119899122Y-65030642D02*
X119632455Y-64649689D01*
X119441979Y-65030642D02*
X119441979Y-64230642D01*
X119441979Y-64230642D02*
X119746741Y-64230642D01*
X119746741Y-64230642D02*
X119822931Y-64268737D01*
X119822931Y-64268737D02*
X119861026Y-64306832D01*
X119861026Y-64306832D02*
X119899122Y-64383023D01*
X119899122Y-64383023D02*
X119899122Y-64497308D01*
X119899122Y-64497308D02*
X119861026Y-64573499D01*
X119861026Y-64573499D02*
X119822931Y-64611594D01*
X119822931Y-64611594D02*
X119746741Y-64649689D01*
X119746741Y-64649689D02*
X119441979Y-64649689D01*
X120241979Y-64954451D02*
X120280074Y-64992547D01*
X120280074Y-64992547D02*
X120241979Y-65030642D01*
X120241979Y-65030642D02*
X120203883Y-64992547D01*
X120203883Y-64992547D02*
X120241979Y-64954451D01*
X120241979Y-64954451D02*
X120241979Y-65030642D01*
X120241979Y-64535404D02*
X120280074Y-64573499D01*
X120280074Y-64573499D02*
X120241979Y-64611594D01*
X120241979Y-64611594D02*
X120203883Y-64573499D01*
X120203883Y-64573499D02*
X120241979Y-64535404D01*
X120241979Y-64535404D02*
X120241979Y-64611594D01*
X121232455Y-64725880D02*
X121841979Y-64725880D01*
X122375312Y-64230642D02*
X122451502Y-64230642D01*
X122451502Y-64230642D02*
X122527693Y-64268737D01*
X122527693Y-64268737D02*
X122565788Y-64306832D01*
X122565788Y-64306832D02*
X122603883Y-64383023D01*
X122603883Y-64383023D02*
X122641978Y-64535404D01*
X122641978Y-64535404D02*
X122641978Y-64725880D01*
X122641978Y-64725880D02*
X122603883Y-64878261D01*
X122603883Y-64878261D02*
X122565788Y-64954451D01*
X122565788Y-64954451D02*
X122527693Y-64992547D01*
X122527693Y-64992547D02*
X122451502Y-65030642D01*
X122451502Y-65030642D02*
X122375312Y-65030642D01*
X122375312Y-65030642D02*
X122299121Y-64992547D01*
X122299121Y-64992547D02*
X122261026Y-64954451D01*
X122261026Y-64954451D02*
X122222931Y-64878261D01*
X122222931Y-64878261D02*
X122184835Y-64725880D01*
X122184835Y-64725880D02*
X122184835Y-64535404D01*
X122184835Y-64535404D02*
X122222931Y-64383023D01*
X122222931Y-64383023D02*
X122261026Y-64306832D01*
X122261026Y-64306832D02*
X122299121Y-64268737D01*
X122299121Y-64268737D02*
X122375312Y-64230642D01*
X122984836Y-64954451D02*
X123022931Y-64992547D01*
X123022931Y-64992547D02*
X122984836Y-65030642D01*
X122984836Y-65030642D02*
X122946740Y-64992547D01*
X122946740Y-64992547D02*
X122984836Y-64954451D01*
X122984836Y-64954451D02*
X122984836Y-65030642D01*
X123289597Y-64230642D02*
X123784835Y-64230642D01*
X123784835Y-64230642D02*
X123518169Y-64535404D01*
X123518169Y-64535404D02*
X123632454Y-64535404D01*
X123632454Y-64535404D02*
X123708645Y-64573499D01*
X123708645Y-64573499D02*
X123746740Y-64611594D01*
X123746740Y-64611594D02*
X123784835Y-64687785D01*
X123784835Y-64687785D02*
X123784835Y-64878261D01*
X123784835Y-64878261D02*
X123746740Y-64954451D01*
X123746740Y-64954451D02*
X123708645Y-64992547D01*
X123708645Y-64992547D02*
X123632454Y-65030642D01*
X123632454Y-65030642D02*
X123403883Y-65030642D01*
X123403883Y-65030642D02*
X123327692Y-64992547D01*
X123327692Y-64992547D02*
X123289597Y-64954451D01*
X124622931Y-64497308D02*
X124927693Y-64497308D01*
X124737217Y-64230642D02*
X124737217Y-64916356D01*
X124737217Y-64916356D02*
X124775312Y-64992547D01*
X124775312Y-64992547D02*
X124851502Y-65030642D01*
X124851502Y-65030642D02*
X124927693Y-65030642D01*
X125308645Y-65030642D02*
X125232455Y-64992547D01*
X125232455Y-64992547D02*
X125194360Y-64954451D01*
X125194360Y-64954451D02*
X125156264Y-64878261D01*
X125156264Y-64878261D02*
X125156264Y-64649689D01*
X125156264Y-64649689D02*
X125194360Y-64573499D01*
X125194360Y-64573499D02*
X125232455Y-64535404D01*
X125232455Y-64535404D02*
X125308645Y-64497308D01*
X125308645Y-64497308D02*
X125422931Y-64497308D01*
X125422931Y-64497308D02*
X125499122Y-64535404D01*
X125499122Y-64535404D02*
X125537217Y-64573499D01*
X125537217Y-64573499D02*
X125575312Y-64649689D01*
X125575312Y-64649689D02*
X125575312Y-64878261D01*
X125575312Y-64878261D02*
X125537217Y-64954451D01*
X125537217Y-64954451D02*
X125499122Y-64992547D01*
X125499122Y-64992547D02*
X125422931Y-65030642D01*
X125422931Y-65030642D02*
X125308645Y-65030642D01*
X126527694Y-64725880D02*
X127137218Y-64725880D01*
X126832456Y-65030642D02*
X126832456Y-64421118D01*
X127670551Y-64230642D02*
X127746741Y-64230642D01*
X127746741Y-64230642D02*
X127822932Y-64268737D01*
X127822932Y-64268737D02*
X127861027Y-64306832D01*
X127861027Y-64306832D02*
X127899122Y-64383023D01*
X127899122Y-64383023D02*
X127937217Y-64535404D01*
X127937217Y-64535404D02*
X127937217Y-64725880D01*
X127937217Y-64725880D02*
X127899122Y-64878261D01*
X127899122Y-64878261D02*
X127861027Y-64954451D01*
X127861027Y-64954451D02*
X127822932Y-64992547D01*
X127822932Y-64992547D02*
X127746741Y-65030642D01*
X127746741Y-65030642D02*
X127670551Y-65030642D01*
X127670551Y-65030642D02*
X127594360Y-64992547D01*
X127594360Y-64992547D02*
X127556265Y-64954451D01*
X127556265Y-64954451D02*
X127518170Y-64878261D01*
X127518170Y-64878261D02*
X127480074Y-64725880D01*
X127480074Y-64725880D02*
X127480074Y-64535404D01*
X127480074Y-64535404D02*
X127518170Y-64383023D01*
X127518170Y-64383023D02*
X127556265Y-64306832D01*
X127556265Y-64306832D02*
X127594360Y-64268737D01*
X127594360Y-64268737D02*
X127670551Y-64230642D01*
X128280075Y-64954451D02*
X128318170Y-64992547D01*
X128318170Y-64992547D02*
X128280075Y-65030642D01*
X128280075Y-65030642D02*
X128241979Y-64992547D01*
X128241979Y-64992547D02*
X128280075Y-64954451D01*
X128280075Y-64954451D02*
X128280075Y-65030642D01*
X128584836Y-64230642D02*
X129080074Y-64230642D01*
X129080074Y-64230642D02*
X128813408Y-64535404D01*
X128813408Y-64535404D02*
X128927693Y-64535404D01*
X128927693Y-64535404D02*
X129003884Y-64573499D01*
X129003884Y-64573499D02*
X129041979Y-64611594D01*
X129041979Y-64611594D02*
X129080074Y-64687785D01*
X129080074Y-64687785D02*
X129080074Y-64878261D01*
X129080074Y-64878261D02*
X129041979Y-64954451D01*
X129041979Y-64954451D02*
X129003884Y-64992547D01*
X129003884Y-64992547D02*
X128927693Y-65030642D01*
X128927693Y-65030642D02*
X128699122Y-65030642D01*
X128699122Y-65030642D02*
X128622931Y-64992547D01*
X128622931Y-64992547D02*
X128584836Y-64954451D01*
X129308646Y-64230642D02*
X129575313Y-65030642D01*
X129575313Y-65030642D02*
X129841979Y-64230642D01*
X117841979Y-63046117D02*
X118108646Y-63846117D01*
X118108646Y-63846117D02*
X118375312Y-63046117D01*
X118984836Y-63808022D02*
X118908645Y-63846117D01*
X118908645Y-63846117D02*
X118756264Y-63846117D01*
X118756264Y-63846117D02*
X118680074Y-63808022D01*
X118680074Y-63808022D02*
X118641979Y-63769926D01*
X118641979Y-63769926D02*
X118603883Y-63693736D01*
X118603883Y-63693736D02*
X118603883Y-63465164D01*
X118603883Y-63465164D02*
X118641979Y-63388974D01*
X118641979Y-63388974D02*
X118680074Y-63350879D01*
X118680074Y-63350879D02*
X118756264Y-63312783D01*
X118756264Y-63312783D02*
X118908645Y-63312783D01*
X118908645Y-63312783D02*
X118984836Y-63350879D01*
X119670550Y-63808022D02*
X119594359Y-63846117D01*
X119594359Y-63846117D02*
X119441978Y-63846117D01*
X119441978Y-63846117D02*
X119365788Y-63808022D01*
X119365788Y-63808022D02*
X119327693Y-63769926D01*
X119327693Y-63769926D02*
X119289597Y-63693736D01*
X119289597Y-63693736D02*
X119289597Y-63465164D01*
X119289597Y-63465164D02*
X119327693Y-63388974D01*
X119327693Y-63388974D02*
X119365788Y-63350879D01*
X119365788Y-63350879D02*
X119441978Y-63312783D01*
X119441978Y-63312783D02*
X119594359Y-63312783D01*
X119594359Y-63312783D02*
X119670550Y-63350879D01*
X120013407Y-63769926D02*
X120051502Y-63808022D01*
X120051502Y-63808022D02*
X120013407Y-63846117D01*
X120013407Y-63846117D02*
X119975311Y-63808022D01*
X119975311Y-63808022D02*
X120013407Y-63769926D01*
X120013407Y-63769926D02*
X120013407Y-63846117D01*
X120013407Y-63350879D02*
X120051502Y-63388974D01*
X120051502Y-63388974D02*
X120013407Y-63427069D01*
X120013407Y-63427069D02*
X119975311Y-63388974D01*
X119975311Y-63388974D02*
X120013407Y-63350879D01*
X120013407Y-63350879D02*
X120013407Y-63427069D01*
X121003883Y-63541355D02*
X121613407Y-63541355D01*
X121308645Y-63846117D02*
X121308645Y-63236593D01*
X122375311Y-63046117D02*
X121994359Y-63046117D01*
X121994359Y-63046117D02*
X121956263Y-63427069D01*
X121956263Y-63427069D02*
X121994359Y-63388974D01*
X121994359Y-63388974D02*
X122070549Y-63350879D01*
X122070549Y-63350879D02*
X122261025Y-63350879D01*
X122261025Y-63350879D02*
X122337216Y-63388974D01*
X122337216Y-63388974D02*
X122375311Y-63427069D01*
X122375311Y-63427069D02*
X122413406Y-63503260D01*
X122413406Y-63503260D02*
X122413406Y-63693736D01*
X122413406Y-63693736D02*
X122375311Y-63769926D01*
X122375311Y-63769926D02*
X122337216Y-63808022D01*
X122337216Y-63808022D02*
X122261025Y-63846117D01*
X122261025Y-63846117D02*
X122070549Y-63846117D01*
X122070549Y-63846117D02*
X121994359Y-63808022D01*
X121994359Y-63808022D02*
X121956263Y-63769926D01*
X122680073Y-63312783D02*
X122870549Y-63846117D01*
X122870549Y-63846117D02*
X123061026Y-63312783D01*
X117918169Y-62287654D02*
X118299122Y-62287654D01*
X117841979Y-62516226D02*
X118108646Y-61716226D01*
X118108646Y-61716226D02*
X118375312Y-62516226D01*
X118641979Y-61982892D02*
X118641979Y-62516226D01*
X118641979Y-62059083D02*
X118680074Y-62020988D01*
X118680074Y-62020988D02*
X118756264Y-61982892D01*
X118756264Y-61982892D02*
X118870550Y-61982892D01*
X118870550Y-61982892D02*
X118946741Y-62020988D01*
X118946741Y-62020988D02*
X118984836Y-62097178D01*
X118984836Y-62097178D02*
X118984836Y-62516226D01*
X119289598Y-61982892D02*
X119480074Y-62516226D01*
X119670551Y-61982892D02*
X119480074Y-62516226D01*
X119480074Y-62516226D02*
X119403884Y-62706702D01*
X119403884Y-62706702D02*
X119365789Y-62744797D01*
X119365789Y-62744797D02*
X119289598Y-62782892D01*
X120927694Y-62516226D02*
X120927694Y-62097178D01*
X120927694Y-62097178D02*
X120889599Y-62020988D01*
X120889599Y-62020988D02*
X120813408Y-61982892D01*
X120813408Y-61982892D02*
X120661027Y-61982892D01*
X120661027Y-61982892D02*
X120584837Y-62020988D01*
X120927694Y-62478131D02*
X120851503Y-62516226D01*
X120851503Y-62516226D02*
X120661027Y-62516226D01*
X120661027Y-62516226D02*
X120584837Y-62478131D01*
X120584837Y-62478131D02*
X120546741Y-62401940D01*
X120546741Y-62401940D02*
X120546741Y-62325750D01*
X120546741Y-62325750D02*
X120584837Y-62249559D01*
X120584837Y-62249559D02*
X120661027Y-62211464D01*
X120661027Y-62211464D02*
X120851503Y-62211464D01*
X120851503Y-62211464D02*
X120927694Y-62173369D01*
X121308647Y-62516226D02*
X121308647Y-61982892D01*
X121308647Y-62059083D02*
X121346742Y-62020988D01*
X121346742Y-62020988D02*
X121422932Y-61982892D01*
X121422932Y-61982892D02*
X121537218Y-61982892D01*
X121537218Y-61982892D02*
X121613409Y-62020988D01*
X121613409Y-62020988D02*
X121651504Y-62097178D01*
X121651504Y-62097178D02*
X121651504Y-62516226D01*
X121651504Y-62097178D02*
X121689599Y-62020988D01*
X121689599Y-62020988D02*
X121765790Y-61982892D01*
X121765790Y-61982892D02*
X121880075Y-61982892D01*
X121880075Y-61982892D02*
X121956266Y-62020988D01*
X121956266Y-62020988D02*
X121994361Y-62097178D01*
X121994361Y-62097178D02*
X121994361Y-62516226D01*
X122375314Y-61982892D02*
X122375314Y-62782892D01*
X122375314Y-62020988D02*
X122451504Y-61982892D01*
X122451504Y-61982892D02*
X122603885Y-61982892D01*
X122603885Y-61982892D02*
X122680076Y-62020988D01*
X122680076Y-62020988D02*
X122718171Y-62059083D01*
X122718171Y-62059083D02*
X122756266Y-62135273D01*
X122756266Y-62135273D02*
X122756266Y-62363845D01*
X122756266Y-62363845D02*
X122718171Y-62440035D01*
X122718171Y-62440035D02*
X122680076Y-62478131D01*
X122680076Y-62478131D02*
X122603885Y-62516226D01*
X122603885Y-62516226D02*
X122451504Y-62516226D01*
X122451504Y-62516226D02*
X122375314Y-62478131D01*
X123632457Y-61982892D02*
X123784838Y-62516226D01*
X123784838Y-62516226D02*
X123937219Y-62135273D01*
X123937219Y-62135273D02*
X124089600Y-62516226D01*
X124089600Y-62516226D02*
X124241981Y-61982892D01*
X124546743Y-62516226D02*
X124546743Y-61982892D01*
X124546743Y-61716226D02*
X124508647Y-61754321D01*
X124508647Y-61754321D02*
X124546743Y-61792416D01*
X124546743Y-61792416D02*
X124584838Y-61754321D01*
X124584838Y-61754321D02*
X124546743Y-61716226D01*
X124546743Y-61716226D02*
X124546743Y-61792416D01*
X124813409Y-61982892D02*
X125118171Y-61982892D01*
X124927695Y-61716226D02*
X124927695Y-62401940D01*
X124927695Y-62401940D02*
X124965790Y-62478131D01*
X124965790Y-62478131D02*
X125041980Y-62516226D01*
X125041980Y-62516226D02*
X125118171Y-62516226D01*
X125384838Y-62516226D02*
X125384838Y-61716226D01*
X125727695Y-62516226D02*
X125727695Y-62097178D01*
X125727695Y-62097178D02*
X125689600Y-62020988D01*
X125689600Y-62020988D02*
X125613409Y-61982892D01*
X125613409Y-61982892D02*
X125499123Y-61982892D01*
X125499123Y-61982892D02*
X125422933Y-62020988D01*
X125422933Y-62020988D02*
X125384838Y-62059083D01*
X126108648Y-62440035D02*
X126146743Y-62478131D01*
X126146743Y-62478131D02*
X126108648Y-62516226D01*
X126108648Y-62516226D02*
X126070552Y-62478131D01*
X126070552Y-62478131D02*
X126108648Y-62440035D01*
X126108648Y-62440035D02*
X126108648Y-62516226D01*
X126108648Y-62020988D02*
X126146743Y-62059083D01*
X126146743Y-62059083D02*
X126108648Y-62097178D01*
X126108648Y-62097178D02*
X126070552Y-62059083D01*
X126070552Y-62059083D02*
X126108648Y-62020988D01*
X126108648Y-62020988D02*
X126108648Y-62097178D01*
X94401657Y-67776021D02*
X94363561Y-67814116D01*
X94363561Y-67814116D02*
X94249276Y-67890307D01*
X94249276Y-67890307D02*
X94173085Y-67928402D01*
X94173085Y-67928402D02*
X94058800Y-67966497D01*
X94058800Y-67966497D02*
X93868323Y-68004592D01*
X93868323Y-68004592D02*
X93715942Y-68004592D01*
X93715942Y-68004592D02*
X93525466Y-67966497D01*
X93525466Y-67966497D02*
X93411180Y-67928402D01*
X93411180Y-67928402D02*
X93334990Y-67890307D01*
X93334990Y-67890307D02*
X93220704Y-67814116D01*
X93220704Y-67814116D02*
X93182609Y-67776021D01*
X94096895Y-67090307D02*
X94096895Y-67471259D01*
X94096895Y-67471259D02*
X93296895Y-67471259D01*
X93296895Y-66899831D02*
X93296895Y-66366497D01*
X93296895Y-66366497D02*
X94096895Y-66709355D01*
X93639752Y-65947450D02*
X93601657Y-66023640D01*
X93601657Y-66023640D02*
X93563561Y-66061735D01*
X93563561Y-66061735D02*
X93487371Y-66099831D01*
X93487371Y-66099831D02*
X93449276Y-66099831D01*
X93449276Y-66099831D02*
X93373085Y-66061735D01*
X93373085Y-66061735D02*
X93334990Y-66023640D01*
X93334990Y-66023640D02*
X93296895Y-65947450D01*
X93296895Y-65947450D02*
X93296895Y-65795069D01*
X93296895Y-65795069D02*
X93334990Y-65718878D01*
X93334990Y-65718878D02*
X93373085Y-65680783D01*
X93373085Y-65680783D02*
X93449276Y-65642688D01*
X93449276Y-65642688D02*
X93487371Y-65642688D01*
X93487371Y-65642688D02*
X93563561Y-65680783D01*
X93563561Y-65680783D02*
X93601657Y-65718878D01*
X93601657Y-65718878D02*
X93639752Y-65795069D01*
X93639752Y-65795069D02*
X93639752Y-65947450D01*
X93639752Y-65947450D02*
X93677847Y-66023640D01*
X93677847Y-66023640D02*
X93715942Y-66061735D01*
X93715942Y-66061735D02*
X93792133Y-66099831D01*
X93792133Y-66099831D02*
X93944514Y-66099831D01*
X93944514Y-66099831D02*
X94020704Y-66061735D01*
X94020704Y-66061735D02*
X94058800Y-66023640D01*
X94058800Y-66023640D02*
X94096895Y-65947450D01*
X94096895Y-65947450D02*
X94096895Y-65795069D01*
X94096895Y-65795069D02*
X94058800Y-65718878D01*
X94058800Y-65718878D02*
X94020704Y-65680783D01*
X94020704Y-65680783D02*
X93944514Y-65642688D01*
X93944514Y-65642688D02*
X93792133Y-65642688D01*
X93792133Y-65642688D02*
X93715942Y-65680783D01*
X93715942Y-65680783D02*
X93677847Y-65718878D01*
X93677847Y-65718878D02*
X93639752Y-65795069D01*
X93296895Y-65147449D02*
X93296895Y-65071259D01*
X93296895Y-65071259D02*
X93334990Y-64995068D01*
X93334990Y-64995068D02*
X93373085Y-64956973D01*
X93373085Y-64956973D02*
X93449276Y-64918878D01*
X93449276Y-64918878D02*
X93601657Y-64880783D01*
X93601657Y-64880783D02*
X93792133Y-64880783D01*
X93792133Y-64880783D02*
X93944514Y-64918878D01*
X93944514Y-64918878D02*
X94020704Y-64956973D01*
X94020704Y-64956973D02*
X94058800Y-64995068D01*
X94058800Y-64995068D02*
X94096895Y-65071259D01*
X94096895Y-65071259D02*
X94096895Y-65147449D01*
X94096895Y-65147449D02*
X94058800Y-65223640D01*
X94058800Y-65223640D02*
X94020704Y-65261735D01*
X94020704Y-65261735D02*
X93944514Y-65299830D01*
X93944514Y-65299830D02*
X93792133Y-65337926D01*
X93792133Y-65337926D02*
X93601657Y-65337926D01*
X93601657Y-65337926D02*
X93449276Y-65299830D01*
X93449276Y-65299830D02*
X93373085Y-65261735D01*
X93373085Y-65261735D02*
X93334990Y-65223640D01*
X93334990Y-65223640D02*
X93296895Y-65147449D01*
X93296895Y-64156973D02*
X93296895Y-64537925D01*
X93296895Y-64537925D02*
X93677847Y-64576021D01*
X93677847Y-64576021D02*
X93639752Y-64537925D01*
X93639752Y-64537925D02*
X93601657Y-64461735D01*
X93601657Y-64461735D02*
X93601657Y-64271259D01*
X93601657Y-64271259D02*
X93639752Y-64195068D01*
X93639752Y-64195068D02*
X93677847Y-64156973D01*
X93677847Y-64156973D02*
X93754038Y-64118878D01*
X93754038Y-64118878D02*
X93944514Y-64118878D01*
X93944514Y-64118878D02*
X94020704Y-64156973D01*
X94020704Y-64156973D02*
X94058800Y-64195068D01*
X94058800Y-64195068D02*
X94096895Y-64271259D01*
X94096895Y-64271259D02*
X94096895Y-64461735D01*
X94096895Y-64461735D02*
X94058800Y-64537925D01*
X94058800Y-64537925D02*
X94020704Y-64576021D01*
X94096895Y-63052211D02*
X94058800Y-63128401D01*
X94058800Y-63128401D02*
X94020704Y-63166496D01*
X94020704Y-63166496D02*
X93944514Y-63204592D01*
X93944514Y-63204592D02*
X93715942Y-63204592D01*
X93715942Y-63204592D02*
X93639752Y-63166496D01*
X93639752Y-63166496D02*
X93601657Y-63128401D01*
X93601657Y-63128401D02*
X93563561Y-63052211D01*
X93563561Y-63052211D02*
X93563561Y-62937925D01*
X93563561Y-62937925D02*
X93601657Y-62861734D01*
X93601657Y-62861734D02*
X93639752Y-62823639D01*
X93639752Y-62823639D02*
X93715942Y-62785544D01*
X93715942Y-62785544D02*
X93944514Y-62785544D01*
X93944514Y-62785544D02*
X94020704Y-62823639D01*
X94020704Y-62823639D02*
X94058800Y-62861734D01*
X94058800Y-62861734D02*
X94096895Y-62937925D01*
X94096895Y-62937925D02*
X94096895Y-63052211D01*
X93563561Y-62442686D02*
X94096895Y-62442686D01*
X93639752Y-62442686D02*
X93601657Y-62404591D01*
X93601657Y-62404591D02*
X93563561Y-62328401D01*
X93563561Y-62328401D02*
X93563561Y-62214115D01*
X93563561Y-62214115D02*
X93601657Y-62137924D01*
X93601657Y-62137924D02*
X93677847Y-62099829D01*
X93677847Y-62099829D02*
X94096895Y-62099829D01*
X94096895Y-61109352D02*
X93296895Y-61109352D01*
X93601657Y-61109352D02*
X93563561Y-61033162D01*
X93563561Y-61033162D02*
X93563561Y-60880781D01*
X93563561Y-60880781D02*
X93601657Y-60804590D01*
X93601657Y-60804590D02*
X93639752Y-60766495D01*
X93639752Y-60766495D02*
X93715942Y-60728400D01*
X93715942Y-60728400D02*
X93944514Y-60728400D01*
X93944514Y-60728400D02*
X94020704Y-60766495D01*
X94020704Y-60766495D02*
X94058800Y-60804590D01*
X94058800Y-60804590D02*
X94096895Y-60880781D01*
X94096895Y-60880781D02*
X94096895Y-61033162D01*
X94096895Y-61033162D02*
X94058800Y-61109352D01*
X94096895Y-60042685D02*
X93677847Y-60042685D01*
X93677847Y-60042685D02*
X93601657Y-60080780D01*
X93601657Y-60080780D02*
X93563561Y-60156971D01*
X93563561Y-60156971D02*
X93563561Y-60309352D01*
X93563561Y-60309352D02*
X93601657Y-60385542D01*
X94058800Y-60042685D02*
X94096895Y-60118876D01*
X94096895Y-60118876D02*
X94096895Y-60309352D01*
X94096895Y-60309352D02*
X94058800Y-60385542D01*
X94058800Y-60385542D02*
X93982609Y-60423638D01*
X93982609Y-60423638D02*
X93906419Y-60423638D01*
X93906419Y-60423638D02*
X93830228Y-60385542D01*
X93830228Y-60385542D02*
X93792133Y-60309352D01*
X93792133Y-60309352D02*
X93792133Y-60118876D01*
X93792133Y-60118876D02*
X93754038Y-60042685D01*
X94058800Y-59318875D02*
X94096895Y-59395066D01*
X94096895Y-59395066D02*
X94096895Y-59547447D01*
X94096895Y-59547447D02*
X94058800Y-59623637D01*
X94058800Y-59623637D02*
X94020704Y-59661732D01*
X94020704Y-59661732D02*
X93944514Y-59699828D01*
X93944514Y-59699828D02*
X93715942Y-59699828D01*
X93715942Y-59699828D02*
X93639752Y-59661732D01*
X93639752Y-59661732D02*
X93601657Y-59623637D01*
X93601657Y-59623637D02*
X93563561Y-59547447D01*
X93563561Y-59547447D02*
X93563561Y-59395066D01*
X93563561Y-59395066D02*
X93601657Y-59318875D01*
X94096895Y-58976018D02*
X93296895Y-58976018D01*
X93792133Y-58899828D02*
X94096895Y-58671256D01*
X93563561Y-58671256D02*
X93868323Y-58976018D01*
X94058800Y-58366495D02*
X94096895Y-58290304D01*
X94096895Y-58290304D02*
X94096895Y-58137923D01*
X94096895Y-58137923D02*
X94058800Y-58061733D01*
X94058800Y-58061733D02*
X93982609Y-58023637D01*
X93982609Y-58023637D02*
X93944514Y-58023637D01*
X93944514Y-58023637D02*
X93868323Y-58061733D01*
X93868323Y-58061733D02*
X93830228Y-58137923D01*
X93830228Y-58137923D02*
X93830228Y-58252209D01*
X93830228Y-58252209D02*
X93792133Y-58328399D01*
X93792133Y-58328399D02*
X93715942Y-58366495D01*
X93715942Y-58366495D02*
X93677847Y-58366495D01*
X93677847Y-58366495D02*
X93601657Y-58328399D01*
X93601657Y-58328399D02*
X93563561Y-58252209D01*
X93563561Y-58252209D02*
X93563561Y-58137923D01*
X93563561Y-58137923D02*
X93601657Y-58061733D01*
X94096895Y-57680780D02*
X93563561Y-57680780D01*
X93296895Y-57680780D02*
X93334990Y-57718876D01*
X93334990Y-57718876D02*
X93373085Y-57680780D01*
X93373085Y-57680780D02*
X93334990Y-57642685D01*
X93334990Y-57642685D02*
X93296895Y-57680780D01*
X93296895Y-57680780D02*
X93373085Y-57680780D01*
X94096895Y-56956971D02*
X93296895Y-56956971D01*
X94058800Y-56956971D02*
X94096895Y-57033162D01*
X94096895Y-57033162D02*
X94096895Y-57185543D01*
X94096895Y-57185543D02*
X94058800Y-57261733D01*
X94058800Y-57261733D02*
X94020704Y-57299828D01*
X94020704Y-57299828D02*
X93944514Y-57337924D01*
X93944514Y-57337924D02*
X93715942Y-57337924D01*
X93715942Y-57337924D02*
X93639752Y-57299828D01*
X93639752Y-57299828D02*
X93601657Y-57261733D01*
X93601657Y-57261733D02*
X93563561Y-57185543D01*
X93563561Y-57185543D02*
X93563561Y-57033162D01*
X93563561Y-57033162D02*
X93601657Y-56956971D01*
X94058800Y-56271256D02*
X94096895Y-56347447D01*
X94096895Y-56347447D02*
X94096895Y-56499828D01*
X94096895Y-56499828D02*
X94058800Y-56576018D01*
X94058800Y-56576018D02*
X93982609Y-56614114D01*
X93982609Y-56614114D02*
X93677847Y-56614114D01*
X93677847Y-56614114D02*
X93601657Y-56576018D01*
X93601657Y-56576018D02*
X93563561Y-56499828D01*
X93563561Y-56499828D02*
X93563561Y-56347447D01*
X93563561Y-56347447D02*
X93601657Y-56271256D01*
X93601657Y-56271256D02*
X93677847Y-56233161D01*
X93677847Y-56233161D02*
X93754038Y-56233161D01*
X93754038Y-56233161D02*
X93830228Y-56614114D01*
X94020704Y-55890304D02*
X94058800Y-55852209D01*
X94058800Y-55852209D02*
X94096895Y-55890304D01*
X94096895Y-55890304D02*
X94058800Y-55928400D01*
X94058800Y-55928400D02*
X94020704Y-55890304D01*
X94020704Y-55890304D02*
X94096895Y-55890304D01*
X93792133Y-55890304D02*
X93334990Y-55928400D01*
X93334990Y-55928400D02*
X93296895Y-55890304D01*
X93296895Y-55890304D02*
X93334990Y-55852209D01*
X93334990Y-55852209D02*
X93792133Y-55890304D01*
X93792133Y-55890304D02*
X93296895Y-55890304D01*
X94401657Y-55585543D02*
X94363561Y-55547448D01*
X94363561Y-55547448D02*
X94249276Y-55471257D01*
X94249276Y-55471257D02*
X94173085Y-55433162D01*
X94173085Y-55433162D02*
X94058800Y-55395067D01*
X94058800Y-55395067D02*
X93868323Y-55356971D01*
X93868323Y-55356971D02*
X93715942Y-55356971D01*
X93715942Y-55356971D02*
X93525466Y-55395067D01*
X93525466Y-55395067D02*
X93411180Y-55433162D01*
X93411180Y-55433162D02*
X93334990Y-55471257D01*
X93334990Y-55471257D02*
X93220704Y-55547448D01*
X93220704Y-55547448D02*
X93182609Y-55585543D01*
X115250000Y-52508090D02*
X114800000Y-52508090D01*
X115250000Y-54484222D02*
X115533938Y-54484879D01*
X115239458Y-56470043D02*
X114800000Y-56470649D01*
X115250000Y-52508090D02*
X115250000Y-56470043D01*
X115831093Y-57778354D02*
X116364427Y-57778354D01*
X115526332Y-57968830D02*
X116097760Y-58159307D01*
X116097760Y-58159307D02*
X116097760Y-57664068D01*
X115831093Y-56749782D02*
X116631093Y-56749782D01*
X115869189Y-56749782D02*
X115831093Y-56673592D01*
X115831093Y-56673592D02*
X115831093Y-56521211D01*
X115831093Y-56521211D02*
X115869189Y-56445020D01*
X115869189Y-56445020D02*
X115907284Y-56406925D01*
X115907284Y-56406925D02*
X115983474Y-56368830D01*
X115983474Y-56368830D02*
X116212046Y-56368830D01*
X116212046Y-56368830D02*
X116288236Y-56406925D01*
X116288236Y-56406925D02*
X116326332Y-56445020D01*
X116326332Y-56445020D02*
X116364427Y-56521211D01*
X116364427Y-56521211D02*
X116364427Y-56673592D01*
X116364427Y-56673592D02*
X116326332Y-56749782D01*
X116364427Y-56025972D02*
X115831093Y-56025972D01*
X115564427Y-56025972D02*
X115602522Y-56064068D01*
X115602522Y-56064068D02*
X115640617Y-56025972D01*
X115640617Y-56025972D02*
X115602522Y-55987877D01*
X115602522Y-55987877D02*
X115564427Y-56025972D01*
X115564427Y-56025972D02*
X115640617Y-56025972D01*
X115831093Y-55645020D02*
X116364427Y-55645020D01*
X115907284Y-55645020D02*
X115869189Y-55606925D01*
X115869189Y-55606925D02*
X115831093Y-55530735D01*
X115831093Y-55530735D02*
X115831093Y-55416449D01*
X115831093Y-55416449D02*
X115869189Y-55340258D01*
X115869189Y-55340258D02*
X115945379Y-55302163D01*
X115945379Y-55302163D02*
X116364427Y-55302163D01*
X116364427Y-54311686D02*
X115831093Y-54311686D01*
X115983474Y-54311686D02*
X115907284Y-54273591D01*
X115907284Y-54273591D02*
X115869189Y-54235496D01*
X115869189Y-54235496D02*
X115831093Y-54159305D01*
X115831093Y-54159305D02*
X115831093Y-54083115D01*
X116326332Y-53511686D02*
X116364427Y-53587877D01*
X116364427Y-53587877D02*
X116364427Y-53740258D01*
X116364427Y-53740258D02*
X116326332Y-53816448D01*
X116326332Y-53816448D02*
X116250141Y-53854544D01*
X116250141Y-53854544D02*
X115945379Y-53854544D01*
X115945379Y-53854544D02*
X115869189Y-53816448D01*
X115869189Y-53816448D02*
X115831093Y-53740258D01*
X115831093Y-53740258D02*
X115831093Y-53587877D01*
X115831093Y-53587877D02*
X115869189Y-53511686D01*
X115869189Y-53511686D02*
X115945379Y-53473591D01*
X115945379Y-53473591D02*
X116021570Y-53473591D01*
X116021570Y-53473591D02*
X116097760Y-53854544D01*
X116364427Y-53016449D02*
X116326332Y-53092639D01*
X116326332Y-53092639D02*
X116250141Y-53130734D01*
X116250141Y-53130734D02*
X115564427Y-53130734D01*
X116364427Y-52368829D02*
X115945379Y-52368829D01*
X115945379Y-52368829D02*
X115869189Y-52406924D01*
X115869189Y-52406924D02*
X115831093Y-52483115D01*
X115831093Y-52483115D02*
X115831093Y-52635496D01*
X115831093Y-52635496D02*
X115869189Y-52711686D01*
X116326332Y-52368829D02*
X116364427Y-52445020D01*
X116364427Y-52445020D02*
X116364427Y-52635496D01*
X116364427Y-52635496D02*
X116326332Y-52711686D01*
X116326332Y-52711686D02*
X116250141Y-52749782D01*
X116250141Y-52749782D02*
X116173951Y-52749782D01*
X116173951Y-52749782D02*
X116097760Y-52711686D01*
X116097760Y-52711686D02*
X116059665Y-52635496D01*
X116059665Y-52635496D02*
X116059665Y-52445020D01*
X116059665Y-52445020D02*
X116021570Y-52368829D01*
X115831093Y-52064067D02*
X116364427Y-51873591D01*
X115831093Y-51683114D02*
X116364427Y-51873591D01*
X116364427Y-51873591D02*
X116554903Y-51949781D01*
X116554903Y-51949781D02*
X116592998Y-51987876D01*
X116592998Y-51987876D02*
X116631093Y-52064067D01*
X109758609Y-67362782D02*
X109758609Y-67743734D01*
X109758609Y-67743734D02*
X108958609Y-67743734D01*
X109339561Y-67096115D02*
X109339561Y-66829449D01*
X109758609Y-66715163D02*
X109758609Y-67096115D01*
X109758609Y-67096115D02*
X108958609Y-67096115D01*
X108958609Y-67096115D02*
X108958609Y-66715163D01*
X109758609Y-66372305D02*
X108958609Y-66372305D01*
X108958609Y-66372305D02*
X108958609Y-66181829D01*
X108958609Y-66181829D02*
X108996704Y-66067543D01*
X108996704Y-66067543D02*
X109072894Y-65991353D01*
X109072894Y-65991353D02*
X109149085Y-65953258D01*
X109149085Y-65953258D02*
X109301466Y-65915162D01*
X109301466Y-65915162D02*
X109415752Y-65915162D01*
X109415752Y-65915162D02*
X109568133Y-65953258D01*
X109568133Y-65953258D02*
X109644323Y-65991353D01*
X109644323Y-65991353D02*
X109720514Y-66067543D01*
X109720514Y-66067543D02*
X109758609Y-66181829D01*
X109758609Y-66181829D02*
X109758609Y-66372305D01*
X109453847Y-64962781D02*
X109453847Y-64353258D01*
X107145686Y-67362782D02*
X107145686Y-67743734D01*
X107145686Y-67743734D02*
X106345686Y-67743734D01*
X106726638Y-67096115D02*
X106726638Y-66829449D01*
X107145686Y-66715163D02*
X107145686Y-67096115D01*
X107145686Y-67096115D02*
X106345686Y-67096115D01*
X106345686Y-67096115D02*
X106345686Y-66715163D01*
X107145686Y-66372305D02*
X106345686Y-66372305D01*
X106345686Y-66372305D02*
X106345686Y-66181829D01*
X106345686Y-66181829D02*
X106383781Y-66067543D01*
X106383781Y-66067543D02*
X106459971Y-65991353D01*
X106459971Y-65991353D02*
X106536162Y-65953258D01*
X106536162Y-65953258D02*
X106688543Y-65915162D01*
X106688543Y-65915162D02*
X106802829Y-65915162D01*
X106802829Y-65915162D02*
X106955210Y-65953258D01*
X106955210Y-65953258D02*
X107031400Y-65991353D01*
X107031400Y-65991353D02*
X107107591Y-66067543D01*
X107107591Y-66067543D02*
X107145686Y-66181829D01*
X107145686Y-66181829D02*
X107145686Y-66372305D01*
X106840924Y-64962781D02*
X106840924Y-64353258D01*
X107145686Y-64658019D02*
X106536162Y-64658019D01*
X114859263Y-67781830D02*
X114897358Y-67667544D01*
X114897358Y-67667544D02*
X114897358Y-67477068D01*
X114897358Y-67477068D02*
X114859263Y-67400877D01*
X114859263Y-67400877D02*
X114821167Y-67362782D01*
X114821167Y-67362782D02*
X114744977Y-67324687D01*
X114744977Y-67324687D02*
X114668786Y-67324687D01*
X114668786Y-67324687D02*
X114592596Y-67362782D01*
X114592596Y-67362782D02*
X114554501Y-67400877D01*
X114554501Y-67400877D02*
X114516405Y-67477068D01*
X114516405Y-67477068D02*
X114478310Y-67629449D01*
X114478310Y-67629449D02*
X114440215Y-67705639D01*
X114440215Y-67705639D02*
X114402120Y-67743734D01*
X114402120Y-67743734D02*
X114325929Y-67781830D01*
X114325929Y-67781830D02*
X114249739Y-67781830D01*
X114249739Y-67781830D02*
X114173548Y-67743734D01*
X114173548Y-67743734D02*
X114135453Y-67705639D01*
X114135453Y-67705639D02*
X114097358Y-67629449D01*
X114097358Y-67629449D02*
X114097358Y-67438972D01*
X114097358Y-67438972D02*
X114135453Y-67324687D01*
X114364024Y-66981829D02*
X115164024Y-66981829D01*
X114402120Y-66981829D02*
X114364024Y-66905639D01*
X114364024Y-66905639D02*
X114364024Y-66753258D01*
X114364024Y-66753258D02*
X114402120Y-66677067D01*
X114402120Y-66677067D02*
X114440215Y-66638972D01*
X114440215Y-66638972D02*
X114516405Y-66600877D01*
X114516405Y-66600877D02*
X114744977Y-66600877D01*
X114744977Y-66600877D02*
X114821167Y-66638972D01*
X114821167Y-66638972D02*
X114859263Y-66677067D01*
X114859263Y-66677067D02*
X114897358Y-66753258D01*
X114897358Y-66753258D02*
X114897358Y-66905639D01*
X114897358Y-66905639D02*
X114859263Y-66981829D01*
X114897358Y-66258019D02*
X114097358Y-66258019D01*
X114592596Y-66181829D02*
X114897358Y-65953257D01*
X114364024Y-65953257D02*
X114668786Y-66258019D01*
X114897358Y-65610400D02*
X114364024Y-65610400D01*
X114516405Y-65610400D02*
X114440215Y-65572305D01*
X114440215Y-65572305D02*
X114402120Y-65534210D01*
X114402120Y-65534210D02*
X114364024Y-65458019D01*
X114364024Y-65458019D02*
X114364024Y-65381829D01*
X114592596Y-64505638D02*
X114592596Y-63896115D01*
X112368276Y-67781830D02*
X112406371Y-67667544D01*
X112406371Y-67667544D02*
X112406371Y-67477068D01*
X112406371Y-67477068D02*
X112368276Y-67400877D01*
X112368276Y-67400877D02*
X112330180Y-67362782D01*
X112330180Y-67362782D02*
X112253990Y-67324687D01*
X112253990Y-67324687D02*
X112177799Y-67324687D01*
X112177799Y-67324687D02*
X112101609Y-67362782D01*
X112101609Y-67362782D02*
X112063514Y-67400877D01*
X112063514Y-67400877D02*
X112025418Y-67477068D01*
X112025418Y-67477068D02*
X111987323Y-67629449D01*
X111987323Y-67629449D02*
X111949228Y-67705639D01*
X111949228Y-67705639D02*
X111911133Y-67743734D01*
X111911133Y-67743734D02*
X111834942Y-67781830D01*
X111834942Y-67781830D02*
X111758752Y-67781830D01*
X111758752Y-67781830D02*
X111682561Y-67743734D01*
X111682561Y-67743734D02*
X111644466Y-67705639D01*
X111644466Y-67705639D02*
X111606371Y-67629449D01*
X111606371Y-67629449D02*
X111606371Y-67438972D01*
X111606371Y-67438972D02*
X111644466Y-67324687D01*
X111873037Y-66981829D02*
X112673037Y-66981829D01*
X111911133Y-66981829D02*
X111873037Y-66905639D01*
X111873037Y-66905639D02*
X111873037Y-66753258D01*
X111873037Y-66753258D02*
X111911133Y-66677067D01*
X111911133Y-66677067D02*
X111949228Y-66638972D01*
X111949228Y-66638972D02*
X112025418Y-66600877D01*
X112025418Y-66600877D02*
X112253990Y-66600877D01*
X112253990Y-66600877D02*
X112330180Y-66638972D01*
X112330180Y-66638972D02*
X112368276Y-66677067D01*
X112368276Y-66677067D02*
X112406371Y-66753258D01*
X112406371Y-66753258D02*
X112406371Y-66905639D01*
X112406371Y-66905639D02*
X112368276Y-66981829D01*
X112406371Y-66258019D02*
X111606371Y-66258019D01*
X112101609Y-66181829D02*
X112406371Y-65953257D01*
X111873037Y-65953257D02*
X112177799Y-66258019D01*
X112406371Y-65610400D02*
X111873037Y-65610400D01*
X112025418Y-65610400D02*
X111949228Y-65572305D01*
X111949228Y-65572305D02*
X111911133Y-65534210D01*
X111911133Y-65534210D02*
X111873037Y-65458019D01*
X111873037Y-65458019D02*
X111873037Y-65381829D01*
X112101609Y-64505638D02*
X112101609Y-63896115D01*
X112406371Y-64200876D02*
X111796847Y-64200876D01*
X132582504Y-56913682D02*
X132582504Y-57180348D01*
X133001552Y-57180348D02*
X132201552Y-57180348D01*
X132201552Y-57180348D02*
X132201552Y-56799396D01*
X133001552Y-56380349D02*
X132963457Y-56456539D01*
X132963457Y-56456539D02*
X132925361Y-56494634D01*
X132925361Y-56494634D02*
X132849171Y-56532730D01*
X132849171Y-56532730D02*
X132620599Y-56532730D01*
X132620599Y-56532730D02*
X132544409Y-56494634D01*
X132544409Y-56494634D02*
X132506314Y-56456539D01*
X132506314Y-56456539D02*
X132468218Y-56380349D01*
X132468218Y-56380349D02*
X132468218Y-56266063D01*
X132468218Y-56266063D02*
X132506314Y-56189872D01*
X132506314Y-56189872D02*
X132544409Y-56151777D01*
X132544409Y-56151777D02*
X132620599Y-56113682D01*
X132620599Y-56113682D02*
X132849171Y-56113682D01*
X132849171Y-56113682D02*
X132925361Y-56151777D01*
X132925361Y-56151777D02*
X132963457Y-56189872D01*
X132963457Y-56189872D02*
X133001552Y-56266063D01*
X133001552Y-56266063D02*
X133001552Y-56380349D01*
X133001552Y-55770824D02*
X132468218Y-55770824D01*
X132620599Y-55770824D02*
X132544409Y-55732729D01*
X132544409Y-55732729D02*
X132506314Y-55694634D01*
X132506314Y-55694634D02*
X132468218Y-55618443D01*
X132468218Y-55618443D02*
X132468218Y-55542253D01*
X132468218Y-54742253D02*
X133001552Y-54551777D01*
X133001552Y-54551777D02*
X132468218Y-54361300D01*
X133001552Y-53942253D02*
X132963457Y-54018443D01*
X132963457Y-54018443D02*
X132925361Y-54056538D01*
X132925361Y-54056538D02*
X132849171Y-54094634D01*
X132849171Y-54094634D02*
X132620599Y-54094634D01*
X132620599Y-54094634D02*
X132544409Y-54056538D01*
X132544409Y-54056538D02*
X132506314Y-54018443D01*
X132506314Y-54018443D02*
X132468218Y-53942253D01*
X132468218Y-53942253D02*
X132468218Y-53827967D01*
X132468218Y-53827967D02*
X132506314Y-53751776D01*
X132506314Y-53751776D02*
X132544409Y-53713681D01*
X132544409Y-53713681D02*
X132620599Y-53675586D01*
X132620599Y-53675586D02*
X132849171Y-53675586D01*
X132849171Y-53675586D02*
X132925361Y-53713681D01*
X132925361Y-53713681D02*
X132963457Y-53751776D01*
X132963457Y-53751776D02*
X133001552Y-53827967D01*
X133001552Y-53827967D02*
X133001552Y-53942253D01*
X133001552Y-53218443D02*
X132963457Y-53294633D01*
X132963457Y-53294633D02*
X132887266Y-53332728D01*
X132887266Y-53332728D02*
X132201552Y-53332728D01*
X133001552Y-52304156D02*
X132468218Y-52304156D01*
X132544409Y-52304156D02*
X132506314Y-52266061D01*
X132506314Y-52266061D02*
X132468218Y-52189871D01*
X132468218Y-52189871D02*
X132468218Y-52075585D01*
X132468218Y-52075585D02*
X132506314Y-51999394D01*
X132506314Y-51999394D02*
X132582504Y-51961299D01*
X132582504Y-51961299D02*
X133001552Y-51961299D01*
X132582504Y-51961299D02*
X132506314Y-51923204D01*
X132506314Y-51923204D02*
X132468218Y-51847013D01*
X132468218Y-51847013D02*
X132468218Y-51732728D01*
X132468218Y-51732728D02*
X132506314Y-51656537D01*
X132506314Y-51656537D02*
X132582504Y-51618442D01*
X132582504Y-51618442D02*
X133001552Y-51618442D01*
X133001552Y-50894632D02*
X132582504Y-50894632D01*
X132582504Y-50894632D02*
X132506314Y-50932727D01*
X132506314Y-50932727D02*
X132468218Y-51008918D01*
X132468218Y-51008918D02*
X132468218Y-51161299D01*
X132468218Y-51161299D02*
X132506314Y-51237489D01*
X132963457Y-50894632D02*
X133001552Y-50970823D01*
X133001552Y-50970823D02*
X133001552Y-51161299D01*
X133001552Y-51161299D02*
X132963457Y-51237489D01*
X132963457Y-51237489D02*
X132887266Y-51275585D01*
X132887266Y-51275585D02*
X132811076Y-51275585D01*
X132811076Y-51275585D02*
X132734885Y-51237489D01*
X132734885Y-51237489D02*
X132696790Y-51161299D01*
X132696790Y-51161299D02*
X132696790Y-50970823D01*
X132696790Y-50970823D02*
X132658695Y-50894632D01*
X133001552Y-50589870D02*
X132468218Y-50170822D01*
X132468218Y-50589870D02*
X133001552Y-50170822D01*
X132468218Y-49370822D02*
X132468218Y-49066060D01*
X132201552Y-49256536D02*
X132887266Y-49256536D01*
X132887266Y-49256536D02*
X132963457Y-49218441D01*
X132963457Y-49218441D02*
X133001552Y-49142251D01*
X133001552Y-49142251D02*
X133001552Y-49066060D01*
X133001552Y-48685108D02*
X132963457Y-48761298D01*
X132963457Y-48761298D02*
X132925361Y-48799393D01*
X132925361Y-48799393D02*
X132849171Y-48837489D01*
X132849171Y-48837489D02*
X132620599Y-48837489D01*
X132620599Y-48837489D02*
X132544409Y-48799393D01*
X132544409Y-48799393D02*
X132506314Y-48761298D01*
X132506314Y-48761298D02*
X132468218Y-48685108D01*
X132468218Y-48685108D02*
X132468218Y-48570822D01*
X132468218Y-48570822D02*
X132506314Y-48494631D01*
X132506314Y-48494631D02*
X132544409Y-48456536D01*
X132544409Y-48456536D02*
X132620599Y-48418441D01*
X132620599Y-48418441D02*
X132849171Y-48418441D01*
X132849171Y-48418441D02*
X132925361Y-48456536D01*
X132925361Y-48456536D02*
X132963457Y-48494631D01*
X132963457Y-48494631D02*
X133001552Y-48570822D01*
X133001552Y-48570822D02*
X133001552Y-48685108D01*
X133001552Y-47123202D02*
X132201552Y-47123202D01*
X132963457Y-47123202D02*
X133001552Y-47199393D01*
X133001552Y-47199393D02*
X133001552Y-47351774D01*
X133001552Y-47351774D02*
X132963457Y-47427964D01*
X132963457Y-47427964D02*
X132925361Y-47466059D01*
X132925361Y-47466059D02*
X132849171Y-47504155D01*
X132849171Y-47504155D02*
X132620599Y-47504155D01*
X132620599Y-47504155D02*
X132544409Y-47466059D01*
X132544409Y-47466059D02*
X132506314Y-47427964D01*
X132506314Y-47427964D02*
X132468218Y-47351774D01*
X132468218Y-47351774D02*
X132468218Y-47199393D01*
X132468218Y-47199393D02*
X132506314Y-47123202D01*
X133001552Y-46627964D02*
X132963457Y-46704154D01*
X132963457Y-46704154D02*
X132925361Y-46742249D01*
X132925361Y-46742249D02*
X132849171Y-46780345D01*
X132849171Y-46780345D02*
X132620599Y-46780345D01*
X132620599Y-46780345D02*
X132544409Y-46742249D01*
X132544409Y-46742249D02*
X132506314Y-46704154D01*
X132506314Y-46704154D02*
X132468218Y-46627964D01*
X132468218Y-46627964D02*
X132468218Y-46513678D01*
X132468218Y-46513678D02*
X132506314Y-46437487D01*
X132506314Y-46437487D02*
X132544409Y-46399392D01*
X132544409Y-46399392D02*
X132620599Y-46361297D01*
X132620599Y-46361297D02*
X132849171Y-46361297D01*
X132849171Y-46361297D02*
X132925361Y-46399392D01*
X132925361Y-46399392D02*
X132963457Y-46437487D01*
X132963457Y-46437487D02*
X133001552Y-46513678D01*
X133001552Y-46513678D02*
X133001552Y-46627964D01*
X132468218Y-46018439D02*
X133268218Y-46018439D01*
X132506314Y-46018439D02*
X132468218Y-45942249D01*
X132468218Y-45942249D02*
X132468218Y-45789868D01*
X132468218Y-45789868D02*
X132506314Y-45713677D01*
X132506314Y-45713677D02*
X132544409Y-45675582D01*
X132544409Y-45675582D02*
X132620599Y-45637487D01*
X132620599Y-45637487D02*
X132849171Y-45637487D01*
X132849171Y-45637487D02*
X132925361Y-45675582D01*
X132925361Y-45675582D02*
X132963457Y-45713677D01*
X132963457Y-45713677D02*
X133001552Y-45789868D01*
X133001552Y-45789868D02*
X133001552Y-45942249D01*
X133001552Y-45942249D02*
X132963457Y-46018439D01*
X132468218Y-44799391D02*
X132468218Y-44494629D01*
X133001552Y-44685105D02*
X132315837Y-44685105D01*
X132315837Y-44685105D02*
X132239647Y-44647010D01*
X132239647Y-44647010D02*
X132201552Y-44570820D01*
X132201552Y-44570820D02*
X132201552Y-44494629D01*
X133001552Y-44227962D02*
X132468218Y-44227962D01*
X132620599Y-44227962D02*
X132544409Y-44189867D01*
X132544409Y-44189867D02*
X132506314Y-44151772D01*
X132506314Y-44151772D02*
X132468218Y-44075581D01*
X132468218Y-44075581D02*
X132468218Y-43999391D01*
X133001552Y-43618439D02*
X132963457Y-43694629D01*
X132963457Y-43694629D02*
X132925361Y-43732724D01*
X132925361Y-43732724D02*
X132849171Y-43770820D01*
X132849171Y-43770820D02*
X132620599Y-43770820D01*
X132620599Y-43770820D02*
X132544409Y-43732724D01*
X132544409Y-43732724D02*
X132506314Y-43694629D01*
X132506314Y-43694629D02*
X132468218Y-43618439D01*
X132468218Y-43618439D02*
X132468218Y-43504153D01*
X132468218Y-43504153D02*
X132506314Y-43427962D01*
X132506314Y-43427962D02*
X132544409Y-43389867D01*
X132544409Y-43389867D02*
X132620599Y-43351772D01*
X132620599Y-43351772D02*
X132849171Y-43351772D01*
X132849171Y-43351772D02*
X132925361Y-43389867D01*
X132925361Y-43389867D02*
X132963457Y-43427962D01*
X132963457Y-43427962D02*
X133001552Y-43504153D01*
X133001552Y-43504153D02*
X133001552Y-43618439D01*
X133001552Y-43008914D02*
X132468218Y-43008914D01*
X132544409Y-43008914D02*
X132506314Y-42970819D01*
X132506314Y-42970819D02*
X132468218Y-42894629D01*
X132468218Y-42894629D02*
X132468218Y-42780343D01*
X132468218Y-42780343D02*
X132506314Y-42704152D01*
X132506314Y-42704152D02*
X132582504Y-42666057D01*
X132582504Y-42666057D02*
X133001552Y-42666057D01*
X132582504Y-42666057D02*
X132506314Y-42627962D01*
X132506314Y-42627962D02*
X132468218Y-42551771D01*
X132468218Y-42551771D02*
X132468218Y-42437486D01*
X132468218Y-42437486D02*
X132506314Y-42361295D01*
X132506314Y-42361295D02*
X132582504Y-42323200D01*
X132582504Y-42323200D02*
X133001552Y-42323200D01*
X132201552Y-41408914D02*
X132201552Y-40913676D01*
X132201552Y-40913676D02*
X132506314Y-41180342D01*
X132506314Y-41180342D02*
X132506314Y-41066057D01*
X132506314Y-41066057D02*
X132544409Y-40989866D01*
X132544409Y-40989866D02*
X132582504Y-40951771D01*
X132582504Y-40951771D02*
X132658695Y-40913676D01*
X132658695Y-40913676D02*
X132849171Y-40913676D01*
X132849171Y-40913676D02*
X132925361Y-40951771D01*
X132925361Y-40951771D02*
X132963457Y-40989866D01*
X132963457Y-40989866D02*
X133001552Y-41066057D01*
X133001552Y-41066057D02*
X133001552Y-41294628D01*
X133001552Y-41294628D02*
X132963457Y-41370819D01*
X132963457Y-41370819D02*
X132925361Y-41408914D01*
X132925361Y-40570818D02*
X132963457Y-40532723D01*
X132963457Y-40532723D02*
X133001552Y-40570818D01*
X133001552Y-40570818D02*
X132963457Y-40608914D01*
X132963457Y-40608914D02*
X132925361Y-40570818D01*
X132925361Y-40570818D02*
X133001552Y-40570818D01*
X132201552Y-40266057D02*
X132201552Y-39770819D01*
X132201552Y-39770819D02*
X132506314Y-40037485D01*
X132506314Y-40037485D02*
X132506314Y-39923200D01*
X132506314Y-39923200D02*
X132544409Y-39847009D01*
X132544409Y-39847009D02*
X132582504Y-39808914D01*
X132582504Y-39808914D02*
X132658695Y-39770819D01*
X132658695Y-39770819D02*
X132849171Y-39770819D01*
X132849171Y-39770819D02*
X132925361Y-39808914D01*
X132925361Y-39808914D02*
X132963457Y-39847009D01*
X132963457Y-39847009D02*
X133001552Y-39923200D01*
X133001552Y-39923200D02*
X133001552Y-40151771D01*
X133001552Y-40151771D02*
X132963457Y-40227962D01*
X132963457Y-40227962D02*
X132925361Y-40266057D01*
X132201552Y-39542247D02*
X133001552Y-39275580D01*
X133001552Y-39275580D02*
X132201552Y-39008914D01*
X132468218Y-38247009D02*
X132468218Y-37942247D01*
X132201552Y-38132723D02*
X132887266Y-38132723D01*
X132887266Y-38132723D02*
X132963457Y-38094628D01*
X132963457Y-38094628D02*
X133001552Y-38018438D01*
X133001552Y-38018438D02*
X133001552Y-37942247D01*
X133001552Y-37561295D02*
X132963457Y-37637485D01*
X132963457Y-37637485D02*
X132925361Y-37675580D01*
X132925361Y-37675580D02*
X132849171Y-37713676D01*
X132849171Y-37713676D02*
X132620599Y-37713676D01*
X132620599Y-37713676D02*
X132544409Y-37675580D01*
X132544409Y-37675580D02*
X132506314Y-37637485D01*
X132506314Y-37637485D02*
X132468218Y-37561295D01*
X132468218Y-37561295D02*
X132468218Y-37447009D01*
X132468218Y-37447009D02*
X132506314Y-37370818D01*
X132506314Y-37370818D02*
X132544409Y-37332723D01*
X132544409Y-37332723D02*
X132620599Y-37294628D01*
X132620599Y-37294628D02*
X132849171Y-37294628D01*
X132849171Y-37294628D02*
X132925361Y-37332723D01*
X132925361Y-37332723D02*
X132963457Y-37370818D01*
X132963457Y-37370818D02*
X133001552Y-37447009D01*
X133001552Y-37447009D02*
X133001552Y-37561295D01*
X132201552Y-36189865D02*
X132201552Y-36113675D01*
X132201552Y-36113675D02*
X132239647Y-36037484D01*
X132239647Y-36037484D02*
X132277742Y-35999389D01*
X132277742Y-35999389D02*
X132353933Y-35961294D01*
X132353933Y-35961294D02*
X132506314Y-35923199D01*
X132506314Y-35923199D02*
X132696790Y-35923199D01*
X132696790Y-35923199D02*
X132849171Y-35961294D01*
X132849171Y-35961294D02*
X132925361Y-35999389D01*
X132925361Y-35999389D02*
X132963457Y-36037484D01*
X132963457Y-36037484D02*
X133001552Y-36113675D01*
X133001552Y-36113675D02*
X133001552Y-36189865D01*
X133001552Y-36189865D02*
X132963457Y-36266056D01*
X132963457Y-36266056D02*
X132925361Y-36304151D01*
X132925361Y-36304151D02*
X132849171Y-36342246D01*
X132849171Y-36342246D02*
X132696790Y-36380342D01*
X132696790Y-36380342D02*
X132506314Y-36380342D01*
X132506314Y-36380342D02*
X132353933Y-36342246D01*
X132353933Y-36342246D02*
X132277742Y-36304151D01*
X132277742Y-36304151D02*
X132239647Y-36266056D01*
X132239647Y-36266056D02*
X132201552Y-36189865D01*
X132925361Y-35580341D02*
X132963457Y-35542246D01*
X132963457Y-35542246D02*
X133001552Y-35580341D01*
X133001552Y-35580341D02*
X132963457Y-35618437D01*
X132963457Y-35618437D02*
X132925361Y-35580341D01*
X132925361Y-35580341D02*
X133001552Y-35580341D01*
X132201552Y-35275580D02*
X132201552Y-34780342D01*
X132201552Y-34780342D02*
X132506314Y-35047008D01*
X132506314Y-35047008D02*
X132506314Y-34932723D01*
X132506314Y-34932723D02*
X132544409Y-34856532D01*
X132544409Y-34856532D02*
X132582504Y-34818437D01*
X132582504Y-34818437D02*
X132658695Y-34780342D01*
X132658695Y-34780342D02*
X132849171Y-34780342D01*
X132849171Y-34780342D02*
X132925361Y-34818437D01*
X132925361Y-34818437D02*
X132963457Y-34856532D01*
X132963457Y-34856532D02*
X133001552Y-34932723D01*
X133001552Y-34932723D02*
X133001552Y-35161294D01*
X133001552Y-35161294D02*
X132963457Y-35237485D01*
X132963457Y-35237485D02*
X132925361Y-35275580D01*
X132201552Y-34551770D02*
X133001552Y-34285103D01*
X133001552Y-34285103D02*
X132201552Y-34018437D01*
X132925361Y-33751770D02*
X132963457Y-33713675D01*
X132963457Y-33713675D02*
X133001552Y-33751770D01*
X133001552Y-33751770D02*
X132963457Y-33789866D01*
X132963457Y-33789866D02*
X132925361Y-33751770D01*
X132925361Y-33751770D02*
X133001552Y-33751770D01*
X132506314Y-33751770D02*
X132544409Y-33713675D01*
X132544409Y-33713675D02*
X132582504Y-33751770D01*
X132582504Y-33751770D02*
X132544409Y-33789866D01*
X132544409Y-33789866D02*
X132506314Y-33751770D01*
X132506314Y-33751770D02*
X132582504Y-33751770D01*
X134236158Y-56664414D02*
X133855205Y-56931081D01*
X134236158Y-57121557D02*
X133436158Y-57121557D01*
X133436158Y-57121557D02*
X133436158Y-56816795D01*
X133436158Y-56816795D02*
X133474253Y-56740605D01*
X133474253Y-56740605D02*
X133512348Y-56702510D01*
X133512348Y-56702510D02*
X133588539Y-56664414D01*
X133588539Y-56664414D02*
X133702824Y-56664414D01*
X133702824Y-56664414D02*
X133779015Y-56702510D01*
X133779015Y-56702510D02*
X133817110Y-56740605D01*
X133817110Y-56740605D02*
X133855205Y-56816795D01*
X133855205Y-56816795D02*
X133855205Y-57121557D01*
X134236158Y-55902510D02*
X134236158Y-56359653D01*
X134236158Y-56131081D02*
X133436158Y-56131081D01*
X133436158Y-56131081D02*
X133550443Y-56207272D01*
X133550443Y-56207272D02*
X133626634Y-56283462D01*
X133626634Y-56283462D02*
X133664729Y-56359653D01*
X133817110Y-54950128D02*
X133817110Y-54340605D01*
X134045682Y-54340605D02*
X134045682Y-54950128D01*
X134236158Y-52931081D02*
X134236158Y-53388224D01*
X134236158Y-53159652D02*
X133436158Y-53159652D01*
X133436158Y-53159652D02*
X133550443Y-53235843D01*
X133550443Y-53235843D02*
X133626634Y-53312033D01*
X133626634Y-53312033D02*
X133664729Y-53388224D01*
X133436158Y-52435842D02*
X133436158Y-52359652D01*
X133436158Y-52359652D02*
X133474253Y-52283461D01*
X133474253Y-52283461D02*
X133512348Y-52245366D01*
X133512348Y-52245366D02*
X133588539Y-52207271D01*
X133588539Y-52207271D02*
X133740920Y-52169176D01*
X133740920Y-52169176D02*
X133931396Y-52169176D01*
X133931396Y-52169176D02*
X134083777Y-52207271D01*
X134083777Y-52207271D02*
X134159967Y-52245366D01*
X134159967Y-52245366D02*
X134198063Y-52283461D01*
X134198063Y-52283461D02*
X134236158Y-52359652D01*
X134236158Y-52359652D02*
X134236158Y-52435842D01*
X134236158Y-52435842D02*
X134198063Y-52512033D01*
X134198063Y-52512033D02*
X134159967Y-52550128D01*
X134159967Y-52550128D02*
X134083777Y-52588223D01*
X134083777Y-52588223D02*
X133931396Y-52626319D01*
X133931396Y-52626319D02*
X133740920Y-52626319D01*
X133740920Y-52626319D02*
X133588539Y-52588223D01*
X133588539Y-52588223D02*
X133512348Y-52550128D01*
X133512348Y-52550128D02*
X133474253Y-52512033D01*
X133474253Y-52512033D02*
X133436158Y-52435842D01*
X134236158Y-51902509D02*
X133702824Y-51483461D01*
X133702824Y-51902509D02*
X134236158Y-51483461D01*
X133702824Y-50645366D02*
X134236158Y-50454890D01*
X134236158Y-50454890D02*
X133702824Y-50264413D01*
X134236158Y-49845366D02*
X134198063Y-49921556D01*
X134198063Y-49921556D02*
X134159967Y-49959651D01*
X134159967Y-49959651D02*
X134083777Y-49997747D01*
X134083777Y-49997747D02*
X133855205Y-49997747D01*
X133855205Y-49997747D02*
X133779015Y-49959651D01*
X133779015Y-49959651D02*
X133740920Y-49921556D01*
X133740920Y-49921556D02*
X133702824Y-49845366D01*
X133702824Y-49845366D02*
X133702824Y-49731080D01*
X133702824Y-49731080D02*
X133740920Y-49654889D01*
X133740920Y-49654889D02*
X133779015Y-49616794D01*
X133779015Y-49616794D02*
X133855205Y-49578699D01*
X133855205Y-49578699D02*
X134083777Y-49578699D01*
X134083777Y-49578699D02*
X134159967Y-49616794D01*
X134159967Y-49616794D02*
X134198063Y-49654889D01*
X134198063Y-49654889D02*
X134236158Y-49731080D01*
X134236158Y-49731080D02*
X134236158Y-49845366D01*
X134236158Y-49121556D02*
X134198063Y-49197746D01*
X134198063Y-49197746D02*
X134121872Y-49235841D01*
X134121872Y-49235841D02*
X133436158Y-49235841D01*
X133702824Y-48207269D02*
X134502824Y-48207269D01*
X133740920Y-48207269D02*
X133702824Y-48131079D01*
X133702824Y-48131079D02*
X133702824Y-47978698D01*
X133702824Y-47978698D02*
X133740920Y-47902507D01*
X133740920Y-47902507D02*
X133779015Y-47864412D01*
X133779015Y-47864412D02*
X133855205Y-47826317D01*
X133855205Y-47826317D02*
X134083777Y-47826317D01*
X134083777Y-47826317D02*
X134159967Y-47864412D01*
X134159967Y-47864412D02*
X134198063Y-47902507D01*
X134198063Y-47902507D02*
X134236158Y-47978698D01*
X134236158Y-47978698D02*
X134236158Y-48131079D01*
X134236158Y-48131079D02*
X134198063Y-48207269D01*
X134236158Y-47369174D02*
X134198063Y-47445364D01*
X134198063Y-47445364D02*
X134159967Y-47483459D01*
X134159967Y-47483459D02*
X134083777Y-47521555D01*
X134083777Y-47521555D02*
X133855205Y-47521555D01*
X133855205Y-47521555D02*
X133779015Y-47483459D01*
X133779015Y-47483459D02*
X133740920Y-47445364D01*
X133740920Y-47445364D02*
X133702824Y-47369174D01*
X133702824Y-47369174D02*
X133702824Y-47254888D01*
X133702824Y-47254888D02*
X133740920Y-47178697D01*
X133740920Y-47178697D02*
X133779015Y-47140602D01*
X133779015Y-47140602D02*
X133855205Y-47102507D01*
X133855205Y-47102507D02*
X134083777Y-47102507D01*
X134083777Y-47102507D02*
X134159967Y-47140602D01*
X134159967Y-47140602D02*
X134198063Y-47178697D01*
X134198063Y-47178697D02*
X134236158Y-47254888D01*
X134236158Y-47254888D02*
X134236158Y-47369174D01*
X133702824Y-46873935D02*
X133702824Y-46569173D01*
X133436158Y-46759649D02*
X134121872Y-46759649D01*
X134121872Y-46759649D02*
X134198063Y-46721554D01*
X134198063Y-46721554D02*
X134236158Y-46645364D01*
X134236158Y-46645364D02*
X134236158Y-46569173D01*
X133702824Y-45769173D02*
X134236158Y-45578697D01*
X134236158Y-45578697D02*
X133702824Y-45388220D01*
X134236158Y-44740601D02*
X133817110Y-44740601D01*
X133817110Y-44740601D02*
X133740920Y-44778696D01*
X133740920Y-44778696D02*
X133702824Y-44854887D01*
X133702824Y-44854887D02*
X133702824Y-45007268D01*
X133702824Y-45007268D02*
X133740920Y-45083458D01*
X134198063Y-44740601D02*
X134236158Y-44816792D01*
X134236158Y-44816792D02*
X134236158Y-45007268D01*
X134236158Y-45007268D02*
X134198063Y-45083458D01*
X134198063Y-45083458D02*
X134121872Y-45121554D01*
X134121872Y-45121554D02*
X134045682Y-45121554D01*
X134045682Y-45121554D02*
X133969491Y-45083458D01*
X133969491Y-45083458D02*
X133931396Y-45007268D01*
X133931396Y-45007268D02*
X133931396Y-44816792D01*
X133931396Y-44816792D02*
X133893301Y-44740601D01*
X134236158Y-44245363D02*
X134198063Y-44321553D01*
X134198063Y-44321553D02*
X134121872Y-44359648D01*
X134121872Y-44359648D02*
X133436158Y-44359648D01*
X134159967Y-43940600D02*
X134198063Y-43902505D01*
X134198063Y-43902505D02*
X134236158Y-43940600D01*
X134236158Y-43940600D02*
X134198063Y-43978696D01*
X134198063Y-43978696D02*
X134159967Y-43940600D01*
X134159967Y-43940600D02*
X134236158Y-43940600D01*
X134186766Y-74704025D02*
X133920099Y-74323072D01*
X133729623Y-74704025D02*
X133729623Y-73904025D01*
X133729623Y-73904025D02*
X134034385Y-73904025D01*
X134034385Y-73904025D02*
X134110575Y-73942120D01*
X134110575Y-73942120D02*
X134148670Y-73980215D01*
X134148670Y-73980215D02*
X134186766Y-74056406D01*
X134186766Y-74056406D02*
X134186766Y-74170691D01*
X134186766Y-74170691D02*
X134148670Y-74246882D01*
X134148670Y-74246882D02*
X134110575Y-74284977D01*
X134110575Y-74284977D02*
X134034385Y-74323072D01*
X134034385Y-74323072D02*
X133729623Y-74323072D01*
X134491527Y-73980215D02*
X134529623Y-73942120D01*
X134529623Y-73942120D02*
X134605813Y-73904025D01*
X134605813Y-73904025D02*
X134796289Y-73904025D01*
X134796289Y-73904025D02*
X134872480Y-73942120D01*
X134872480Y-73942120D02*
X134910575Y-73980215D01*
X134910575Y-73980215D02*
X134948670Y-74056406D01*
X134948670Y-74056406D02*
X134948670Y-74132596D01*
X134948670Y-74132596D02*
X134910575Y-74246882D01*
X134910575Y-74246882D02*
X134453432Y-74704025D01*
X134453432Y-74704025D02*
X134948670Y-74704025D01*
X135901052Y-74284977D02*
X136510576Y-74284977D01*
X136510576Y-74513549D02*
X135901052Y-74513549D01*
X137386766Y-74399263D02*
X137424861Y-74361168D01*
X137424861Y-74361168D02*
X137501052Y-74323072D01*
X137501052Y-74323072D02*
X137653433Y-74399263D01*
X137653433Y-74399263D02*
X137729623Y-74361168D01*
X137729623Y-74361168D02*
X137767718Y-74323072D01*
X138491528Y-74704025D02*
X138034385Y-74704025D01*
X138262957Y-74704025D02*
X138262957Y-73904025D01*
X138262957Y-73904025D02*
X138186766Y-74018310D01*
X138186766Y-74018310D02*
X138110576Y-74094501D01*
X138110576Y-74094501D02*
X138034385Y-74132596D01*
X139215338Y-73904025D02*
X138834386Y-73904025D01*
X138834386Y-73904025D02*
X138796290Y-74284977D01*
X138796290Y-74284977D02*
X138834386Y-74246882D01*
X138834386Y-74246882D02*
X138910576Y-74208787D01*
X138910576Y-74208787D02*
X139101052Y-74208787D01*
X139101052Y-74208787D02*
X139177243Y-74246882D01*
X139177243Y-74246882D02*
X139215338Y-74284977D01*
X139215338Y-74284977D02*
X139253433Y-74361168D01*
X139253433Y-74361168D02*
X139253433Y-74551644D01*
X139253433Y-74551644D02*
X139215338Y-74627834D01*
X139215338Y-74627834D02*
X139177243Y-74665930D01*
X139177243Y-74665930D02*
X139101052Y-74704025D01*
X139101052Y-74704025D02*
X138910576Y-74704025D01*
X138910576Y-74704025D02*
X138834386Y-74665930D01*
X138834386Y-74665930D02*
X138796290Y-74627834D01*
X139558195Y-74704025D02*
X140167719Y-73904025D01*
X139672481Y-73904025D02*
X139748672Y-73942120D01*
X139748672Y-73942120D02*
X139786767Y-74018310D01*
X139786767Y-74018310D02*
X139748672Y-74094501D01*
X139748672Y-74094501D02*
X139672481Y-74132596D01*
X139672481Y-74132596D02*
X139596291Y-74094501D01*
X139596291Y-74094501D02*
X139558195Y-74018310D01*
X139558195Y-74018310D02*
X139596291Y-73942120D01*
X139596291Y-73942120D02*
X139672481Y-73904025D01*
X140129624Y-74665930D02*
X140167719Y-74589739D01*
X140167719Y-74589739D02*
X140129624Y-74513549D01*
X140129624Y-74513549D02*
X140053434Y-74475453D01*
X140053434Y-74475453D02*
X139977243Y-74513549D01*
X139977243Y-74513549D02*
X139939148Y-74589739D01*
X139939148Y-74589739D02*
X139977243Y-74665930D01*
X139977243Y-74665930D02*
X140053434Y-74704025D01*
X140053434Y-74704025D02*
X140129624Y-74665930D01*
X141234386Y-74704025D02*
X141158196Y-74665930D01*
X141158196Y-74665930D02*
X141120101Y-74627834D01*
X141120101Y-74627834D02*
X141082005Y-74551644D01*
X141082005Y-74551644D02*
X141082005Y-74323072D01*
X141082005Y-74323072D02*
X141120101Y-74246882D01*
X141120101Y-74246882D02*
X141158196Y-74208787D01*
X141158196Y-74208787D02*
X141234386Y-74170691D01*
X141234386Y-74170691D02*
X141348672Y-74170691D01*
X141348672Y-74170691D02*
X141424863Y-74208787D01*
X141424863Y-74208787D02*
X141462958Y-74246882D01*
X141462958Y-74246882D02*
X141501053Y-74323072D01*
X141501053Y-74323072D02*
X141501053Y-74551644D01*
X141501053Y-74551644D02*
X141462958Y-74627834D01*
X141462958Y-74627834D02*
X141424863Y-74665930D01*
X141424863Y-74665930D02*
X141348672Y-74704025D01*
X141348672Y-74704025D02*
X141234386Y-74704025D01*
X141729625Y-74170691D02*
X142034387Y-74170691D01*
X141843911Y-74704025D02*
X141843911Y-74018310D01*
X141843911Y-74018310D02*
X141882006Y-73942120D01*
X141882006Y-73942120D02*
X141958196Y-73904025D01*
X141958196Y-73904025D02*
X142034387Y-73904025D01*
X142834387Y-74170691D02*
X143024863Y-74704025D01*
X143024863Y-74704025D02*
X143215340Y-74170691D01*
X143634387Y-74704025D02*
X143558197Y-74665930D01*
X143558197Y-74665930D02*
X143520102Y-74627834D01*
X143520102Y-74627834D02*
X143482006Y-74551644D01*
X143482006Y-74551644D02*
X143482006Y-74323072D01*
X143482006Y-74323072D02*
X143520102Y-74246882D01*
X143520102Y-74246882D02*
X143558197Y-74208787D01*
X143558197Y-74208787D02*
X143634387Y-74170691D01*
X143634387Y-74170691D02*
X143748673Y-74170691D01*
X143748673Y-74170691D02*
X143824864Y-74208787D01*
X143824864Y-74208787D02*
X143862959Y-74246882D01*
X143862959Y-74246882D02*
X143901054Y-74323072D01*
X143901054Y-74323072D02*
X143901054Y-74551644D01*
X143901054Y-74551644D02*
X143862959Y-74627834D01*
X143862959Y-74627834D02*
X143824864Y-74665930D01*
X143824864Y-74665930D02*
X143748673Y-74704025D01*
X143748673Y-74704025D02*
X143634387Y-74704025D01*
X144358197Y-74704025D02*
X144282007Y-74665930D01*
X144282007Y-74665930D02*
X144243912Y-74589739D01*
X144243912Y-74589739D02*
X144243912Y-73904025D01*
X145272484Y-74170691D02*
X145272484Y-74970691D01*
X145272484Y-74208787D02*
X145348674Y-74170691D01*
X145348674Y-74170691D02*
X145501055Y-74170691D01*
X145501055Y-74170691D02*
X145577246Y-74208787D01*
X145577246Y-74208787D02*
X145615341Y-74246882D01*
X145615341Y-74246882D02*
X145653436Y-74323072D01*
X145653436Y-74323072D02*
X145653436Y-74551644D01*
X145653436Y-74551644D02*
X145615341Y-74627834D01*
X145615341Y-74627834D02*
X145577246Y-74665930D01*
X145577246Y-74665930D02*
X145501055Y-74704025D01*
X145501055Y-74704025D02*
X145348674Y-74704025D01*
X145348674Y-74704025D02*
X145272484Y-74665930D01*
X146110579Y-74704025D02*
X146034389Y-74665930D01*
X146034389Y-74665930D02*
X145996294Y-74627834D01*
X145996294Y-74627834D02*
X145958198Y-74551644D01*
X145958198Y-74551644D02*
X145958198Y-74323072D01*
X145958198Y-74323072D02*
X145996294Y-74246882D01*
X145996294Y-74246882D02*
X146034389Y-74208787D01*
X146034389Y-74208787D02*
X146110579Y-74170691D01*
X146110579Y-74170691D02*
X146224865Y-74170691D01*
X146224865Y-74170691D02*
X146301056Y-74208787D01*
X146301056Y-74208787D02*
X146339151Y-74246882D01*
X146339151Y-74246882D02*
X146377246Y-74323072D01*
X146377246Y-74323072D02*
X146377246Y-74551644D01*
X146377246Y-74551644D02*
X146339151Y-74627834D01*
X146339151Y-74627834D02*
X146301056Y-74665930D01*
X146301056Y-74665930D02*
X146224865Y-74704025D01*
X146224865Y-74704025D02*
X146110579Y-74704025D01*
X146605818Y-74170691D02*
X146910580Y-74170691D01*
X146720104Y-73904025D02*
X146720104Y-74589739D01*
X146720104Y-74589739D02*
X146758199Y-74665930D01*
X146758199Y-74665930D02*
X146834389Y-74704025D01*
X146834389Y-74704025D02*
X146910580Y-74704025D01*
X147710580Y-74170691D02*
X147901056Y-74704025D01*
X147901056Y-74704025D02*
X148091533Y-74170691D01*
X148739152Y-74704025D02*
X148739152Y-74284977D01*
X148739152Y-74284977D02*
X148701057Y-74208787D01*
X148701057Y-74208787D02*
X148624866Y-74170691D01*
X148624866Y-74170691D02*
X148472485Y-74170691D01*
X148472485Y-74170691D02*
X148396295Y-74208787D01*
X148739152Y-74665930D02*
X148662961Y-74704025D01*
X148662961Y-74704025D02*
X148472485Y-74704025D01*
X148472485Y-74704025D02*
X148396295Y-74665930D01*
X148396295Y-74665930D02*
X148358199Y-74589739D01*
X148358199Y-74589739D02*
X148358199Y-74513549D01*
X148358199Y-74513549D02*
X148396295Y-74437358D01*
X148396295Y-74437358D02*
X148472485Y-74399263D01*
X148472485Y-74399263D02*
X148662961Y-74399263D01*
X148662961Y-74399263D02*
X148739152Y-74361168D01*
X149234390Y-74704025D02*
X149158200Y-74665930D01*
X149158200Y-74665930D02*
X149120105Y-74589739D01*
X149120105Y-74589739D02*
X149120105Y-73904025D01*
X149539153Y-74627834D02*
X149577248Y-74665930D01*
X149577248Y-74665930D02*
X149539153Y-74704025D01*
X149539153Y-74704025D02*
X149501057Y-74665930D01*
X149501057Y-74665930D02*
X149539153Y-74627834D01*
X149539153Y-74627834D02*
X149539153Y-74704025D01*
X133996289Y-72932790D02*
X133729623Y-72932790D01*
X133729623Y-73351838D02*
X133729623Y-72551838D01*
X133729623Y-72551838D02*
X134110575Y-72551838D01*
X134529622Y-73351838D02*
X134453432Y-73313743D01*
X134453432Y-73313743D02*
X134415337Y-73275647D01*
X134415337Y-73275647D02*
X134377241Y-73199457D01*
X134377241Y-73199457D02*
X134377241Y-72970885D01*
X134377241Y-72970885D02*
X134415337Y-72894695D01*
X134415337Y-72894695D02*
X134453432Y-72856600D01*
X134453432Y-72856600D02*
X134529622Y-72818504D01*
X134529622Y-72818504D02*
X134643908Y-72818504D01*
X134643908Y-72818504D02*
X134720099Y-72856600D01*
X134720099Y-72856600D02*
X134758194Y-72894695D01*
X134758194Y-72894695D02*
X134796289Y-72970885D01*
X134796289Y-72970885D02*
X134796289Y-73199457D01*
X134796289Y-73199457D02*
X134758194Y-73275647D01*
X134758194Y-73275647D02*
X134720099Y-73313743D01*
X134720099Y-73313743D02*
X134643908Y-73351838D01*
X134643908Y-73351838D02*
X134529622Y-73351838D01*
X135139147Y-73351838D02*
X135139147Y-72818504D01*
X135139147Y-72970885D02*
X135177242Y-72894695D01*
X135177242Y-72894695D02*
X135215337Y-72856600D01*
X135215337Y-72856600D02*
X135291528Y-72818504D01*
X135291528Y-72818504D02*
X135367718Y-72818504D01*
X136624861Y-73351838D02*
X136243909Y-73351838D01*
X136243909Y-73351838D02*
X136243909Y-72551838D01*
X136891528Y-73351838D02*
X136891528Y-72818504D01*
X136891528Y-72551838D02*
X136853432Y-72589933D01*
X136853432Y-72589933D02*
X136891528Y-72628028D01*
X136891528Y-72628028D02*
X136929623Y-72589933D01*
X136929623Y-72589933D02*
X136891528Y-72551838D01*
X136891528Y-72551838D02*
X136891528Y-72628028D01*
X137272480Y-72818504D02*
X137272480Y-73351838D01*
X137272480Y-72894695D02*
X137310575Y-72856600D01*
X137310575Y-72856600D02*
X137386765Y-72818504D01*
X137386765Y-72818504D02*
X137501051Y-72818504D01*
X137501051Y-72818504D02*
X137577242Y-72856600D01*
X137577242Y-72856600D02*
X137615337Y-72932790D01*
X137615337Y-72932790D02*
X137615337Y-73351838D01*
X138301052Y-73313743D02*
X138224861Y-73351838D01*
X138224861Y-73351838D02*
X138072480Y-73351838D01*
X138072480Y-73351838D02*
X137996290Y-73313743D01*
X137996290Y-73313743D02*
X137958194Y-73237552D01*
X137958194Y-73237552D02*
X137958194Y-72932790D01*
X137958194Y-72932790D02*
X137996290Y-72856600D01*
X137996290Y-72856600D02*
X138072480Y-72818504D01*
X138072480Y-72818504D02*
X138224861Y-72818504D01*
X138224861Y-72818504D02*
X138301052Y-72856600D01*
X138301052Y-72856600D02*
X138339147Y-72932790D01*
X138339147Y-72932790D02*
X138339147Y-73008981D01*
X138339147Y-73008981D02*
X137958194Y-73085171D01*
X139024861Y-73351838D02*
X139024861Y-72932790D01*
X139024861Y-72932790D02*
X138986766Y-72856600D01*
X138986766Y-72856600D02*
X138910575Y-72818504D01*
X138910575Y-72818504D02*
X138758194Y-72818504D01*
X138758194Y-72818504D02*
X138682004Y-72856600D01*
X139024861Y-73313743D02*
X138948670Y-73351838D01*
X138948670Y-73351838D02*
X138758194Y-73351838D01*
X138758194Y-73351838D02*
X138682004Y-73313743D01*
X138682004Y-73313743D02*
X138643908Y-73237552D01*
X138643908Y-73237552D02*
X138643908Y-73161362D01*
X138643908Y-73161362D02*
X138682004Y-73085171D01*
X138682004Y-73085171D02*
X138758194Y-73047076D01*
X138758194Y-73047076D02*
X138948670Y-73047076D01*
X138948670Y-73047076D02*
X139024861Y-73008981D01*
X139405814Y-73351838D02*
X139405814Y-72818504D01*
X139405814Y-72970885D02*
X139443909Y-72894695D01*
X139443909Y-72894695D02*
X139482004Y-72856600D01*
X139482004Y-72856600D02*
X139558195Y-72818504D01*
X139558195Y-72818504D02*
X139634385Y-72818504D01*
X140396290Y-72818504D02*
X140701052Y-72818504D01*
X140510576Y-72551838D02*
X140510576Y-73237552D01*
X140510576Y-73237552D02*
X140548671Y-73313743D01*
X140548671Y-73313743D02*
X140624861Y-73351838D01*
X140624861Y-73351838D02*
X140701052Y-73351838D01*
X141082004Y-73351838D02*
X141005814Y-73313743D01*
X141005814Y-73313743D02*
X140967719Y-73275647D01*
X140967719Y-73275647D02*
X140929623Y-73199457D01*
X140929623Y-73199457D02*
X140929623Y-72970885D01*
X140929623Y-72970885D02*
X140967719Y-72894695D01*
X140967719Y-72894695D02*
X141005814Y-72856600D01*
X141005814Y-72856600D02*
X141082004Y-72818504D01*
X141082004Y-72818504D02*
X141196290Y-72818504D01*
X141196290Y-72818504D02*
X141272481Y-72856600D01*
X141272481Y-72856600D02*
X141310576Y-72894695D01*
X141310576Y-72894695D02*
X141348671Y-72970885D01*
X141348671Y-72970885D02*
X141348671Y-73199457D01*
X141348671Y-73199457D02*
X141310576Y-73275647D01*
X141310576Y-73275647D02*
X141272481Y-73313743D01*
X141272481Y-73313743D02*
X141196290Y-73351838D01*
X141196290Y-73351838D02*
X141082004Y-73351838D01*
X142682005Y-73351838D02*
X142301053Y-73351838D01*
X142301053Y-73351838D02*
X142301053Y-72551838D01*
X143062957Y-73351838D02*
X142986767Y-73313743D01*
X142986767Y-73313743D02*
X142948672Y-73275647D01*
X142948672Y-73275647D02*
X142910576Y-73199457D01*
X142910576Y-73199457D02*
X142910576Y-72970885D01*
X142910576Y-72970885D02*
X142948672Y-72894695D01*
X142948672Y-72894695D02*
X142986767Y-72856600D01*
X142986767Y-72856600D02*
X143062957Y-72818504D01*
X143062957Y-72818504D02*
X143177243Y-72818504D01*
X143177243Y-72818504D02*
X143253434Y-72856600D01*
X143253434Y-72856600D02*
X143291529Y-72894695D01*
X143291529Y-72894695D02*
X143329624Y-72970885D01*
X143329624Y-72970885D02*
X143329624Y-73199457D01*
X143329624Y-73199457D02*
X143291529Y-73275647D01*
X143291529Y-73275647D02*
X143253434Y-73313743D01*
X143253434Y-73313743D02*
X143177243Y-73351838D01*
X143177243Y-73351838D02*
X143062957Y-73351838D01*
X144015339Y-72818504D02*
X144015339Y-73466123D01*
X144015339Y-73466123D02*
X143977244Y-73542314D01*
X143977244Y-73542314D02*
X143939148Y-73580409D01*
X143939148Y-73580409D02*
X143862958Y-73618504D01*
X143862958Y-73618504D02*
X143748672Y-73618504D01*
X143748672Y-73618504D02*
X143672482Y-73580409D01*
X144015339Y-73313743D02*
X143939148Y-73351838D01*
X143939148Y-73351838D02*
X143786767Y-73351838D01*
X143786767Y-73351838D02*
X143710577Y-73313743D01*
X143710577Y-73313743D02*
X143672482Y-73275647D01*
X143672482Y-73275647D02*
X143634386Y-73199457D01*
X143634386Y-73199457D02*
X143634386Y-72970885D01*
X143634386Y-72970885D02*
X143672482Y-72894695D01*
X143672482Y-72894695D02*
X143710577Y-72856600D01*
X143710577Y-72856600D02*
X143786767Y-72818504D01*
X143786767Y-72818504D02*
X143939148Y-72818504D01*
X143939148Y-72818504D02*
X144015339Y-72856600D01*
X144396292Y-73275647D02*
X144434387Y-73313743D01*
X144434387Y-73313743D02*
X144396292Y-73351838D01*
X144396292Y-73351838D02*
X144358196Y-73313743D01*
X144358196Y-73313743D02*
X144396292Y-73275647D01*
X144396292Y-73275647D02*
X144396292Y-73351838D01*
X144396292Y-72856600D02*
X144434387Y-72894695D01*
X144434387Y-72894695D02*
X144396292Y-72932790D01*
X144396292Y-72932790D02*
X144358196Y-72894695D01*
X144358196Y-72894695D02*
X144396292Y-72856600D01*
X144396292Y-72856600D02*
X144396292Y-72932790D01*
X146089268Y-65957462D02*
X146422601Y-66957462D01*
X146422601Y-66957462D02*
X146755934Y-65957462D01*
X147232125Y-66957462D02*
X147136887Y-66909843D01*
X147136887Y-66909843D02*
X147089268Y-66862223D01*
X147089268Y-66862223D02*
X147041649Y-66766985D01*
X147041649Y-66766985D02*
X147041649Y-66481271D01*
X147041649Y-66481271D02*
X147089268Y-66386033D01*
X147089268Y-66386033D02*
X147136887Y-66338414D01*
X147136887Y-66338414D02*
X147232125Y-66290795D01*
X147232125Y-66290795D02*
X147374982Y-66290795D01*
X147374982Y-66290795D02*
X147470220Y-66338414D01*
X147470220Y-66338414D02*
X147517839Y-66386033D01*
X147517839Y-66386033D02*
X147565458Y-66481271D01*
X147565458Y-66481271D02*
X147565458Y-66766985D01*
X147565458Y-66766985D02*
X147517839Y-66862223D01*
X147517839Y-66862223D02*
X147470220Y-66909843D01*
X147470220Y-66909843D02*
X147374982Y-66957462D01*
X147374982Y-66957462D02*
X147232125Y-66957462D01*
X148136887Y-66957462D02*
X148041649Y-66909843D01*
X148041649Y-66909843D02*
X147994030Y-66814604D01*
X147994030Y-66814604D02*
X147994030Y-65957462D01*
X148946411Y-66290795D02*
X148946411Y-66957462D01*
X148517840Y-66290795D02*
X148517840Y-66814604D01*
X148517840Y-66814604D02*
X148565459Y-66909843D01*
X148565459Y-66909843D02*
X148660697Y-66957462D01*
X148660697Y-66957462D02*
X148803554Y-66957462D01*
X148803554Y-66957462D02*
X148898792Y-66909843D01*
X148898792Y-66909843D02*
X148946411Y-66862223D01*
X149422602Y-66957462D02*
X149422602Y-66290795D01*
X149422602Y-66386033D02*
X149470221Y-66338414D01*
X149470221Y-66338414D02*
X149565459Y-66290795D01*
X149565459Y-66290795D02*
X149708316Y-66290795D01*
X149708316Y-66290795D02*
X149803554Y-66338414D01*
X149803554Y-66338414D02*
X149851173Y-66433652D01*
X149851173Y-66433652D02*
X149851173Y-66957462D01*
X149851173Y-66433652D02*
X149898792Y-66338414D01*
X149898792Y-66338414D02*
X149994030Y-66290795D01*
X149994030Y-66290795D02*
X150136887Y-66290795D01*
X150136887Y-66290795D02*
X150232126Y-66338414D01*
X150232126Y-66338414D02*
X150279745Y-66433652D01*
X150279745Y-66433652D02*
X150279745Y-66957462D01*
X151136887Y-66909843D02*
X151041649Y-66957462D01*
X151041649Y-66957462D02*
X150851173Y-66957462D01*
X150851173Y-66957462D02*
X150755935Y-66909843D01*
X150755935Y-66909843D02*
X150708316Y-66814604D01*
X150708316Y-66814604D02*
X150708316Y-66433652D01*
X150708316Y-66433652D02*
X150755935Y-66338414D01*
X150755935Y-66338414D02*
X150851173Y-66290795D01*
X150851173Y-66290795D02*
X151041649Y-66290795D01*
X151041649Y-66290795D02*
X151136887Y-66338414D01*
X151136887Y-66338414D02*
X151184506Y-66433652D01*
X151184506Y-66433652D02*
X151184506Y-66528890D01*
X151184506Y-66528890D02*
X150708316Y-66624128D01*
X145938171Y-49261440D02*
X145938171Y-48261440D01*
X145938171Y-48261440D02*
X146176266Y-48261440D01*
X146176266Y-48261440D02*
X146319123Y-48309059D01*
X146319123Y-48309059D02*
X146414361Y-48404297D01*
X146414361Y-48404297D02*
X146461980Y-48499535D01*
X146461980Y-48499535D02*
X146509599Y-48690011D01*
X146509599Y-48690011D02*
X146509599Y-48832868D01*
X146509599Y-48832868D02*
X146461980Y-49023344D01*
X146461980Y-49023344D02*
X146414361Y-49118582D01*
X146414361Y-49118582D02*
X146319123Y-49213821D01*
X146319123Y-49213821D02*
X146176266Y-49261440D01*
X146176266Y-49261440D02*
X145938171Y-49261440D01*
X146938171Y-49261440D02*
X146938171Y-48594773D01*
X146938171Y-48261440D02*
X146890552Y-48309059D01*
X146890552Y-48309059D02*
X146938171Y-48356678D01*
X146938171Y-48356678D02*
X146985790Y-48309059D01*
X146985790Y-48309059D02*
X146938171Y-48261440D01*
X146938171Y-48261440D02*
X146938171Y-48356678D01*
X147414361Y-49261440D02*
X147414361Y-48594773D01*
X147414361Y-48690011D02*
X147461980Y-48642392D01*
X147461980Y-48642392D02*
X147557218Y-48594773D01*
X147557218Y-48594773D02*
X147700075Y-48594773D01*
X147700075Y-48594773D02*
X147795313Y-48642392D01*
X147795313Y-48642392D02*
X147842932Y-48737630D01*
X147842932Y-48737630D02*
X147842932Y-49261440D01*
X147842932Y-48737630D02*
X147890551Y-48642392D01*
X147890551Y-48642392D02*
X147985789Y-48594773D01*
X147985789Y-48594773D02*
X148128646Y-48594773D01*
X148128646Y-48594773D02*
X148223885Y-48642392D01*
X148223885Y-48642392D02*
X148271504Y-48737630D01*
X148271504Y-48737630D02*
X148271504Y-49261440D01*
X148747694Y-49261440D02*
X148747694Y-48594773D01*
X148747694Y-48690011D02*
X148795313Y-48642392D01*
X148795313Y-48642392D02*
X148890551Y-48594773D01*
X148890551Y-48594773D02*
X149033408Y-48594773D01*
X149033408Y-48594773D02*
X149128646Y-48642392D01*
X149128646Y-48642392D02*
X149176265Y-48737630D01*
X149176265Y-48737630D02*
X149176265Y-49261440D01*
X149176265Y-48737630D02*
X149223884Y-48642392D01*
X149223884Y-48642392D02*
X149319122Y-48594773D01*
X149319122Y-48594773D02*
X149461979Y-48594773D01*
X149461979Y-48594773D02*
X149557218Y-48642392D01*
X149557218Y-48642392D02*
X149604837Y-48737630D01*
X149604837Y-48737630D02*
X149604837Y-49261440D01*
X150461979Y-49213821D02*
X150366741Y-49261440D01*
X150366741Y-49261440D02*
X150176265Y-49261440D01*
X150176265Y-49261440D02*
X150081027Y-49213821D01*
X150081027Y-49213821D02*
X150033408Y-49118582D01*
X150033408Y-49118582D02*
X150033408Y-48737630D01*
X150033408Y-48737630D02*
X150081027Y-48642392D01*
X150081027Y-48642392D02*
X150176265Y-48594773D01*
X150176265Y-48594773D02*
X150366741Y-48594773D01*
X150366741Y-48594773D02*
X150461979Y-48642392D01*
X150461979Y-48642392D02*
X150509598Y-48737630D01*
X150509598Y-48737630D02*
X150509598Y-48832868D01*
X150509598Y-48832868D02*
X150033408Y-48928106D01*
X150938170Y-49261440D02*
X150938170Y-48594773D01*
X150938170Y-48785249D02*
X150985789Y-48690011D01*
X150985789Y-48690011D02*
X151033408Y-48642392D01*
X151033408Y-48642392D02*
X151128646Y-48594773D01*
X151128646Y-48594773D02*
X151223884Y-48594773D01*
D10*
X105281131Y-63461999D02*
X116041131Y-63461999D01*
X116041131Y-68194778D01*
X105281131Y-68194778D01*
X105281131Y-63461999D01*
D11*
X105281131Y-63461999D02*
X116041131Y-63461999D01*
X116041131Y-74894778D01*
X105281131Y-74894778D01*
X105281131Y-63461999D01*
X109278160Y-37335743D02*
X109230541Y-37288124D01*
X109230541Y-37288124D02*
X109135303Y-37145267D01*
X109135303Y-37145267D02*
X109087684Y-37050029D01*
X109087684Y-37050029D02*
X109040065Y-36907172D01*
X109040065Y-36907172D02*
X108992446Y-36669076D01*
X108992446Y-36669076D02*
X108992446Y-36478600D01*
X108992446Y-36478600D02*
X109040065Y-36240505D01*
X109040065Y-36240505D02*
X109087684Y-36097648D01*
X109087684Y-36097648D02*
X109135303Y-36002410D01*
X109135303Y-36002410D02*
X109230541Y-35859552D01*
X109230541Y-35859552D02*
X109278160Y-35811933D01*
X109659113Y-36954791D02*
X109659113Y-35954791D01*
X109659113Y-35954791D02*
X109992446Y-36669076D01*
X109992446Y-36669076D02*
X110325779Y-35954791D01*
X110325779Y-35954791D02*
X110325779Y-36954791D01*
X110801970Y-36954791D02*
X110801970Y-36288124D01*
X110801970Y-35954791D02*
X110754351Y-36002410D01*
X110754351Y-36002410D02*
X110801970Y-36050029D01*
X110801970Y-36050029D02*
X110849589Y-36002410D01*
X110849589Y-36002410D02*
X110801970Y-35954791D01*
X110801970Y-35954791D02*
X110801970Y-36050029D01*
X111278160Y-36288124D02*
X111278160Y-36954791D01*
X111278160Y-36383362D02*
X111325779Y-36335743D01*
X111325779Y-36335743D02*
X111421017Y-36288124D01*
X111421017Y-36288124D02*
X111563874Y-36288124D01*
X111563874Y-36288124D02*
X111659112Y-36335743D01*
X111659112Y-36335743D02*
X111706731Y-36430981D01*
X111706731Y-36430981D02*
X111706731Y-36954791D01*
X112182922Y-36954791D02*
X112182922Y-36288124D01*
X112182922Y-35954791D02*
X112135303Y-36002410D01*
X112135303Y-36002410D02*
X112182922Y-36050029D01*
X112182922Y-36050029D02*
X112230541Y-36002410D01*
X112230541Y-36002410D02*
X112182922Y-35954791D01*
X112182922Y-35954791D02*
X112182922Y-36050029D01*
X113421017Y-36954791D02*
X113421017Y-35954791D01*
X113421017Y-36335743D02*
X113516255Y-36288124D01*
X113516255Y-36288124D02*
X113706731Y-36288124D01*
X113706731Y-36288124D02*
X113801969Y-36335743D01*
X113801969Y-36335743D02*
X113849588Y-36383362D01*
X113849588Y-36383362D02*
X113897207Y-36478600D01*
X113897207Y-36478600D02*
X113897207Y-36764314D01*
X113897207Y-36764314D02*
X113849588Y-36859552D01*
X113849588Y-36859552D02*
X113801969Y-36907172D01*
X113801969Y-36907172D02*
X113706731Y-36954791D01*
X113706731Y-36954791D02*
X113516255Y-36954791D01*
X113516255Y-36954791D02*
X113421017Y-36907172D01*
X114468636Y-36954791D02*
X114373398Y-36907172D01*
X114373398Y-36907172D02*
X114325779Y-36859552D01*
X114325779Y-36859552D02*
X114278160Y-36764314D01*
X114278160Y-36764314D02*
X114278160Y-36478600D01*
X114278160Y-36478600D02*
X114325779Y-36383362D01*
X114325779Y-36383362D02*
X114373398Y-36335743D01*
X114373398Y-36335743D02*
X114468636Y-36288124D01*
X114468636Y-36288124D02*
X114611493Y-36288124D01*
X114611493Y-36288124D02*
X114706731Y-36335743D01*
X114706731Y-36335743D02*
X114754350Y-36383362D01*
X114754350Y-36383362D02*
X114801969Y-36478600D01*
X114801969Y-36478600D02*
X114801969Y-36764314D01*
X114801969Y-36764314D02*
X114754350Y-36859552D01*
X114754350Y-36859552D02*
X114706731Y-36907172D01*
X114706731Y-36907172D02*
X114611493Y-36954791D01*
X114611493Y-36954791D02*
X114468636Y-36954791D01*
X115659112Y-36954791D02*
X115659112Y-36430981D01*
X115659112Y-36430981D02*
X115611493Y-36335743D01*
X115611493Y-36335743D02*
X115516255Y-36288124D01*
X115516255Y-36288124D02*
X115325779Y-36288124D01*
X115325779Y-36288124D02*
X115230541Y-36335743D01*
X115659112Y-36907172D02*
X115563874Y-36954791D01*
X115563874Y-36954791D02*
X115325779Y-36954791D01*
X115325779Y-36954791D02*
X115230541Y-36907172D01*
X115230541Y-36907172D02*
X115182922Y-36811933D01*
X115182922Y-36811933D02*
X115182922Y-36716695D01*
X115182922Y-36716695D02*
X115230541Y-36621457D01*
X115230541Y-36621457D02*
X115325779Y-36573838D01*
X115325779Y-36573838D02*
X115563874Y-36573838D01*
X115563874Y-36573838D02*
X115659112Y-36526219D01*
X116135303Y-36954791D02*
X116135303Y-36288124D01*
X116135303Y-36478600D02*
X116182922Y-36383362D01*
X116182922Y-36383362D02*
X116230541Y-36335743D01*
X116230541Y-36335743D02*
X116325779Y-36288124D01*
X116325779Y-36288124D02*
X116421017Y-36288124D01*
X117182922Y-36954791D02*
X117182922Y-35954791D01*
X117182922Y-36907172D02*
X117087684Y-36954791D01*
X117087684Y-36954791D02*
X116897208Y-36954791D01*
X116897208Y-36954791D02*
X116801970Y-36907172D01*
X116801970Y-36907172D02*
X116754351Y-36859552D01*
X116754351Y-36859552D02*
X116706732Y-36764314D01*
X116706732Y-36764314D02*
X116706732Y-36478600D01*
X116706732Y-36478600D02*
X116754351Y-36383362D01*
X116754351Y-36383362D02*
X116801970Y-36335743D01*
X116801970Y-36335743D02*
X116897208Y-36288124D01*
X116897208Y-36288124D02*
X117087684Y-36288124D01*
X117087684Y-36288124D02*
X117182922Y-36335743D01*
X118563875Y-36954791D02*
X118468637Y-36907172D01*
X118468637Y-36907172D02*
X118421018Y-36859552D01*
X118421018Y-36859552D02*
X118373399Y-36764314D01*
X118373399Y-36764314D02*
X118373399Y-36478600D01*
X118373399Y-36478600D02*
X118421018Y-36383362D01*
X118421018Y-36383362D02*
X118468637Y-36335743D01*
X118468637Y-36335743D02*
X118563875Y-36288124D01*
X118563875Y-36288124D02*
X118706732Y-36288124D01*
X118706732Y-36288124D02*
X118801970Y-36335743D01*
X118801970Y-36335743D02*
X118849589Y-36383362D01*
X118849589Y-36383362D02*
X118897208Y-36478600D01*
X118897208Y-36478600D02*
X118897208Y-36764314D01*
X118897208Y-36764314D02*
X118849589Y-36859552D01*
X118849589Y-36859552D02*
X118801970Y-36907172D01*
X118801970Y-36907172D02*
X118706732Y-36954791D01*
X118706732Y-36954791D02*
X118563875Y-36954791D01*
X119325780Y-36288124D02*
X119325780Y-36954791D01*
X119325780Y-36383362D02*
X119373399Y-36335743D01*
X119373399Y-36335743D02*
X119468637Y-36288124D01*
X119468637Y-36288124D02*
X119611494Y-36288124D01*
X119611494Y-36288124D02*
X119706732Y-36335743D01*
X119706732Y-36335743D02*
X119754351Y-36430981D01*
X119754351Y-36430981D02*
X119754351Y-36954791D01*
X120992447Y-36954791D02*
X120992447Y-35954791D01*
X120992447Y-36335743D02*
X121087685Y-36288124D01*
X121087685Y-36288124D02*
X121278161Y-36288124D01*
X121278161Y-36288124D02*
X121373399Y-36335743D01*
X121373399Y-36335743D02*
X121421018Y-36383362D01*
X121421018Y-36383362D02*
X121468637Y-36478600D01*
X121468637Y-36478600D02*
X121468637Y-36764314D01*
X121468637Y-36764314D02*
X121421018Y-36859552D01*
X121421018Y-36859552D02*
X121373399Y-36907172D01*
X121373399Y-36907172D02*
X121278161Y-36954791D01*
X121278161Y-36954791D02*
X121087685Y-36954791D01*
X121087685Y-36954791D02*
X120992447Y-36907172D01*
X122325780Y-36954791D02*
X122325780Y-36430981D01*
X122325780Y-36430981D02*
X122278161Y-36335743D01*
X122278161Y-36335743D02*
X122182923Y-36288124D01*
X122182923Y-36288124D02*
X121992447Y-36288124D01*
X121992447Y-36288124D02*
X121897209Y-36335743D01*
X122325780Y-36907172D02*
X122230542Y-36954791D01*
X122230542Y-36954791D02*
X121992447Y-36954791D01*
X121992447Y-36954791D02*
X121897209Y-36907172D01*
X121897209Y-36907172D02*
X121849590Y-36811933D01*
X121849590Y-36811933D02*
X121849590Y-36716695D01*
X121849590Y-36716695D02*
X121897209Y-36621457D01*
X121897209Y-36621457D02*
X121992447Y-36573838D01*
X121992447Y-36573838D02*
X122230542Y-36573838D01*
X122230542Y-36573838D02*
X122325780Y-36526219D01*
X123230542Y-36907172D02*
X123135304Y-36954791D01*
X123135304Y-36954791D02*
X122944828Y-36954791D01*
X122944828Y-36954791D02*
X122849590Y-36907172D01*
X122849590Y-36907172D02*
X122801971Y-36859552D01*
X122801971Y-36859552D02*
X122754352Y-36764314D01*
X122754352Y-36764314D02*
X122754352Y-36478600D01*
X122754352Y-36478600D02*
X122801971Y-36383362D01*
X122801971Y-36383362D02*
X122849590Y-36335743D01*
X122849590Y-36335743D02*
X122944828Y-36288124D01*
X122944828Y-36288124D02*
X123135304Y-36288124D01*
X123135304Y-36288124D02*
X123230542Y-36335743D01*
X123659114Y-36954791D02*
X123659114Y-35954791D01*
X123754352Y-36573838D02*
X124040066Y-36954791D01*
X124040066Y-36288124D02*
X123659114Y-36669076D01*
X124421019Y-36907172D02*
X124516257Y-36954791D01*
X124516257Y-36954791D02*
X124706733Y-36954791D01*
X124706733Y-36954791D02*
X124801971Y-36907172D01*
X124801971Y-36907172D02*
X124849590Y-36811933D01*
X124849590Y-36811933D02*
X124849590Y-36764314D01*
X124849590Y-36764314D02*
X124801971Y-36669076D01*
X124801971Y-36669076D02*
X124706733Y-36621457D01*
X124706733Y-36621457D02*
X124563876Y-36621457D01*
X124563876Y-36621457D02*
X124468638Y-36573838D01*
X124468638Y-36573838D02*
X124421019Y-36478600D01*
X124421019Y-36478600D02*
X124421019Y-36430981D01*
X124421019Y-36430981D02*
X124468638Y-36335743D01*
X124468638Y-36335743D02*
X124563876Y-36288124D01*
X124563876Y-36288124D02*
X124706733Y-36288124D01*
X124706733Y-36288124D02*
X124801971Y-36335743D01*
X125278162Y-36954791D02*
X125278162Y-36288124D01*
X125278162Y-35954791D02*
X125230543Y-36002410D01*
X125230543Y-36002410D02*
X125278162Y-36050029D01*
X125278162Y-36050029D02*
X125325781Y-36002410D01*
X125325781Y-36002410D02*
X125278162Y-35954791D01*
X125278162Y-35954791D02*
X125278162Y-36050029D01*
X126182923Y-36954791D02*
X126182923Y-35954791D01*
X126182923Y-36907172D02*
X126087685Y-36954791D01*
X126087685Y-36954791D02*
X125897209Y-36954791D01*
X125897209Y-36954791D02*
X125801971Y-36907172D01*
X125801971Y-36907172D02*
X125754352Y-36859552D01*
X125754352Y-36859552D02*
X125706733Y-36764314D01*
X125706733Y-36764314D02*
X125706733Y-36478600D01*
X125706733Y-36478600D02*
X125754352Y-36383362D01*
X125754352Y-36383362D02*
X125801971Y-36335743D01*
X125801971Y-36335743D02*
X125897209Y-36288124D01*
X125897209Y-36288124D02*
X126087685Y-36288124D01*
X126087685Y-36288124D02*
X126182923Y-36335743D01*
X127040066Y-36907172D02*
X126944828Y-36954791D01*
X126944828Y-36954791D02*
X126754352Y-36954791D01*
X126754352Y-36954791D02*
X126659114Y-36907172D01*
X126659114Y-36907172D02*
X126611495Y-36811933D01*
X126611495Y-36811933D02*
X126611495Y-36430981D01*
X126611495Y-36430981D02*
X126659114Y-36335743D01*
X126659114Y-36335743D02*
X126754352Y-36288124D01*
X126754352Y-36288124D02*
X126944828Y-36288124D01*
X126944828Y-36288124D02*
X127040066Y-36335743D01*
X127040066Y-36335743D02*
X127087685Y-36430981D01*
X127087685Y-36430981D02*
X127087685Y-36526219D01*
X127087685Y-36526219D02*
X126611495Y-36621457D01*
X127516257Y-36859552D02*
X127563876Y-36907172D01*
X127563876Y-36907172D02*
X127516257Y-36954791D01*
X127516257Y-36954791D02*
X127468638Y-36907172D01*
X127468638Y-36907172D02*
X127516257Y-36859552D01*
X127516257Y-36859552D02*
X127516257Y-36954791D01*
X127516257Y-36573838D02*
X127468638Y-36002410D01*
X127468638Y-36002410D02*
X127516257Y-35954791D01*
X127516257Y-35954791D02*
X127563876Y-36002410D01*
X127563876Y-36002410D02*
X127516257Y-36573838D01*
X127516257Y-36573838D02*
X127516257Y-35954791D01*
X127897209Y-37335743D02*
X127944828Y-37288124D01*
X127944828Y-37288124D02*
X128040066Y-37145267D01*
X128040066Y-37145267D02*
X128087685Y-37050029D01*
X128087685Y-37050029D02*
X128135304Y-36907172D01*
X128135304Y-36907172D02*
X128182923Y-36669076D01*
X128182923Y-36669076D02*
X128182923Y-36478600D01*
X128182923Y-36478600D02*
X128135304Y-36240505D01*
X128135304Y-36240505D02*
X128087685Y-36097648D01*
X128087685Y-36097648D02*
X128040066Y-36002410D01*
X128040066Y-36002410D02*
X127944828Y-35859552D01*
X127944828Y-35859552D02*
X127897209Y-35811933D01*
X119150806Y-57295658D02*
X118350806Y-57562325D01*
X118350806Y-57562325D02*
X119150806Y-57828991D01*
X118426997Y-58552801D02*
X118388902Y-58514705D01*
X118388902Y-58514705D02*
X118350806Y-58400420D01*
X118350806Y-58400420D02*
X118350806Y-58324229D01*
X118350806Y-58324229D02*
X118388902Y-58209943D01*
X118388902Y-58209943D02*
X118465092Y-58133753D01*
X118465092Y-58133753D02*
X118541282Y-58095658D01*
X118541282Y-58095658D02*
X118693663Y-58057562D01*
X118693663Y-58057562D02*
X118807949Y-58057562D01*
X118807949Y-58057562D02*
X118960330Y-58095658D01*
X118960330Y-58095658D02*
X119036521Y-58133753D01*
X119036521Y-58133753D02*
X119112711Y-58209943D01*
X119112711Y-58209943D02*
X119150806Y-58324229D01*
X119150806Y-58324229D02*
X119150806Y-58400420D01*
X119150806Y-58400420D02*
X119112711Y-58514705D01*
X119112711Y-58514705D02*
X119074616Y-58552801D01*
X118426997Y-59352801D02*
X118388902Y-59314705D01*
X118388902Y-59314705D02*
X118350806Y-59200420D01*
X118350806Y-59200420D02*
X118350806Y-59124229D01*
X118350806Y-59124229D02*
X118388902Y-59009943D01*
X118388902Y-59009943D02*
X118465092Y-58933753D01*
X118465092Y-58933753D02*
X118541282Y-58895658D01*
X118541282Y-58895658D02*
X118693663Y-58857562D01*
X118693663Y-58857562D02*
X118807949Y-58857562D01*
X118807949Y-58857562D02*
X118960330Y-58895658D01*
X118960330Y-58895658D02*
X119036521Y-58933753D01*
X119036521Y-58933753D02*
X119112711Y-59009943D01*
X119112711Y-59009943D02*
X119150806Y-59124229D01*
X119150806Y-59124229D02*
X119150806Y-59200420D01*
X119150806Y-59200420D02*
X119112711Y-59314705D01*
X119112711Y-59314705D02*
X119074616Y-59352801D01*
X121612711Y-57828991D02*
X121650806Y-57752801D01*
X121650806Y-57752801D02*
X121650806Y-57638515D01*
X121650806Y-57638515D02*
X121612711Y-57524229D01*
X121612711Y-57524229D02*
X121536521Y-57448039D01*
X121536521Y-57448039D02*
X121460330Y-57409944D01*
X121460330Y-57409944D02*
X121307949Y-57371848D01*
X121307949Y-57371848D02*
X121193663Y-57371848D01*
X121193663Y-57371848D02*
X121041282Y-57409944D01*
X121041282Y-57409944D02*
X120965092Y-57448039D01*
X120965092Y-57448039D02*
X120888902Y-57524229D01*
X120888902Y-57524229D02*
X120850806Y-57638515D01*
X120850806Y-57638515D02*
X120850806Y-57714706D01*
X120850806Y-57714706D02*
X120888902Y-57828991D01*
X120888902Y-57828991D02*
X120926997Y-57867087D01*
X120926997Y-57867087D02*
X121193663Y-57867087D01*
X121193663Y-57867087D02*
X121193663Y-57714706D01*
X120850806Y-58209944D02*
X121650806Y-58209944D01*
X121650806Y-58209944D02*
X120850806Y-58667087D01*
X120850806Y-58667087D02*
X121650806Y-58667087D01*
X120850806Y-59048039D02*
X121650806Y-59048039D01*
X121650806Y-59048039D02*
X121650806Y-59238515D01*
X121650806Y-59238515D02*
X121612711Y-59352801D01*
X121612711Y-59352801D02*
X121536521Y-59428991D01*
X121536521Y-59428991D02*
X121460330Y-59467086D01*
X121460330Y-59467086D02*
X121307949Y-59505182D01*
X121307949Y-59505182D02*
X121193663Y-59505182D01*
X121193663Y-59505182D02*
X121041282Y-59467086D01*
X121041282Y-59467086D02*
X120965092Y-59428991D01*
X120965092Y-59428991D02*
X120888902Y-59352801D01*
X120888902Y-59352801D02*
X120850806Y-59238515D01*
X120850806Y-59238515D02*
X120850806Y-59048039D01*
X124375282Y-69314706D02*
X123375282Y-69648039D01*
X123375282Y-69648039D02*
X124375282Y-69981372D01*
X123375282Y-70838515D02*
X123375282Y-70267087D01*
X123375282Y-70552801D02*
X124375282Y-70552801D01*
X124375282Y-70552801D02*
X124232425Y-70457563D01*
X124232425Y-70457563D02*
X124137187Y-70362325D01*
X124137187Y-70362325D02*
X124089568Y-70267087D01*
X126612711Y-57828991D02*
X126650806Y-57752801D01*
X126650806Y-57752801D02*
X126650806Y-57638515D01*
X126650806Y-57638515D02*
X126612711Y-57524229D01*
X126612711Y-57524229D02*
X126536521Y-57448039D01*
X126536521Y-57448039D02*
X126460330Y-57409944D01*
X126460330Y-57409944D02*
X126307949Y-57371848D01*
X126307949Y-57371848D02*
X126193663Y-57371848D01*
X126193663Y-57371848D02*
X126041282Y-57409944D01*
X126041282Y-57409944D02*
X125965092Y-57448039D01*
X125965092Y-57448039D02*
X125888902Y-57524229D01*
X125888902Y-57524229D02*
X125850806Y-57638515D01*
X125850806Y-57638515D02*
X125850806Y-57714706D01*
X125850806Y-57714706D02*
X125888902Y-57828991D01*
X125888902Y-57828991D02*
X125926997Y-57867087D01*
X125926997Y-57867087D02*
X126193663Y-57867087D01*
X126193663Y-57867087D02*
X126193663Y-57714706D01*
X125850806Y-58209944D02*
X126650806Y-58209944D01*
X126650806Y-58209944D02*
X125850806Y-58667087D01*
X125850806Y-58667087D02*
X126650806Y-58667087D01*
X125850806Y-59048039D02*
X126650806Y-59048039D01*
X126650806Y-59048039D02*
X126650806Y-59238515D01*
X126650806Y-59238515D02*
X126612711Y-59352801D01*
X126612711Y-59352801D02*
X126536521Y-59428991D01*
X126536521Y-59428991D02*
X126460330Y-59467086D01*
X126460330Y-59467086D02*
X126307949Y-59505182D01*
X126307949Y-59505182D02*
X126193663Y-59505182D01*
X126193663Y-59505182D02*
X126041282Y-59467086D01*
X126041282Y-59467086D02*
X125965092Y-59428991D01*
X125965092Y-59428991D02*
X125888902Y-59352801D01*
X125888902Y-59352801D02*
X125850806Y-59238515D01*
X125850806Y-59238515D02*
X125850806Y-59048039D01*
X121875282Y-69314706D02*
X120875282Y-69648039D01*
X120875282Y-69648039D02*
X121875282Y-69981372D01*
X121780044Y-70267087D02*
X121827663Y-70314706D01*
X121827663Y-70314706D02*
X121875282Y-70409944D01*
X121875282Y-70409944D02*
X121875282Y-70648039D01*
X121875282Y-70648039D02*
X121827663Y-70743277D01*
X121827663Y-70743277D02*
X121780044Y-70790896D01*
X121780044Y-70790896D02*
X121684806Y-70838515D01*
X121684806Y-70838515D02*
X121589568Y-70838515D01*
X121589568Y-70838515D02*
X121446711Y-70790896D01*
X121446711Y-70790896D02*
X120875282Y-70219468D01*
X120875282Y-70219468D02*
X120875282Y-70838515D01*
X128375282Y-57933753D02*
X128375282Y-57457563D01*
X128375282Y-57457563D02*
X129375282Y-57457563D01*
X123350806Y-57867087D02*
X123731759Y-57600420D01*
X123350806Y-57409944D02*
X124150806Y-57409944D01*
X124150806Y-57409944D02*
X124150806Y-57714706D01*
X124150806Y-57714706D02*
X124112711Y-57790896D01*
X124112711Y-57790896D02*
X124074616Y-57828991D01*
X124074616Y-57828991D02*
X123998425Y-57867087D01*
X123998425Y-57867087D02*
X123884140Y-57867087D01*
X123884140Y-57867087D02*
X123807949Y-57828991D01*
X123807949Y-57828991D02*
X123769854Y-57790896D01*
X123769854Y-57790896D02*
X123731759Y-57714706D01*
X123731759Y-57714706D02*
X123731759Y-57409944D01*
D12*
X112459477Y-30289677D02*
X113959477Y-29789677D01*
X113959477Y-29789677D02*
X112459477Y-29289677D01*
X113816620Y-27932535D02*
X113888049Y-28003963D01*
X113888049Y-28003963D02*
X113959477Y-28218249D01*
X113959477Y-28218249D02*
X113959477Y-28361106D01*
X113959477Y-28361106D02*
X113888049Y-28575392D01*
X113888049Y-28575392D02*
X113745191Y-28718249D01*
X113745191Y-28718249D02*
X113602334Y-28789678D01*
X113602334Y-28789678D02*
X113316620Y-28861106D01*
X113316620Y-28861106D02*
X113102334Y-28861106D01*
X113102334Y-28861106D02*
X112816620Y-28789678D01*
X112816620Y-28789678D02*
X112673763Y-28718249D01*
X112673763Y-28718249D02*
X112530906Y-28575392D01*
X112530906Y-28575392D02*
X112459477Y-28361106D01*
X112459477Y-28361106D02*
X112459477Y-28218249D01*
X112459477Y-28218249D02*
X112530906Y-28003963D01*
X112530906Y-28003963D02*
X112602334Y-27932535D01*
X113816620Y-26432535D02*
X113888049Y-26503963D01*
X113888049Y-26503963D02*
X113959477Y-26718249D01*
X113959477Y-26718249D02*
X113959477Y-26861106D01*
X113959477Y-26861106D02*
X113888049Y-27075392D01*
X113888049Y-27075392D02*
X113745191Y-27218249D01*
X113745191Y-27218249D02*
X113602334Y-27289678D01*
X113602334Y-27289678D02*
X113316620Y-27361106D01*
X113316620Y-27361106D02*
X113102334Y-27361106D01*
X113102334Y-27361106D02*
X112816620Y-27289678D01*
X112816620Y-27289678D02*
X112673763Y-27218249D01*
X112673763Y-27218249D02*
X112530906Y-27075392D01*
X112530906Y-27075392D02*
X112459477Y-26861106D01*
X112459477Y-26861106D02*
X112459477Y-26718249D01*
X112459477Y-26718249D02*
X112530906Y-26503963D01*
X112530906Y-26503963D02*
X112602334Y-26432535D01*
X116459477Y-28575392D02*
X114959477Y-28575392D01*
X114959477Y-28575392D02*
X114959477Y-28218249D01*
X114959477Y-28218249D02*
X115030906Y-28003963D01*
X115030906Y-28003963D02*
X115173763Y-27861106D01*
X115173763Y-27861106D02*
X115316620Y-27789677D01*
X115316620Y-27789677D02*
X115602334Y-27718249D01*
X115602334Y-27718249D02*
X115816620Y-27718249D01*
X115816620Y-27718249D02*
X116102334Y-27789677D01*
X116102334Y-27789677D02*
X116245191Y-27861106D01*
X116245191Y-27861106D02*
X116388049Y-28003963D01*
X116388049Y-28003963D02*
X116459477Y-28218249D01*
X116459477Y-28218249D02*
X116459477Y-28575392D01*
X114959477Y-26789677D02*
X114959477Y-26646820D01*
X114959477Y-26646820D02*
X115030906Y-26503963D01*
X115030906Y-26503963D02*
X115102334Y-26432535D01*
X115102334Y-26432535D02*
X115245191Y-26361106D01*
X115245191Y-26361106D02*
X115530906Y-26289677D01*
X115530906Y-26289677D02*
X115888049Y-26289677D01*
X115888049Y-26289677D02*
X116173763Y-26361106D01*
X116173763Y-26361106D02*
X116316620Y-26432535D01*
X116316620Y-26432535D02*
X116388049Y-26503963D01*
X116388049Y-26503963D02*
X116459477Y-26646820D01*
X116459477Y-26646820D02*
X116459477Y-26789677D01*
X116459477Y-26789677D02*
X116388049Y-26932535D01*
X116388049Y-26932535D02*
X116316620Y-27003963D01*
X116316620Y-27003963D02*
X116173763Y-27075392D01*
X116173763Y-27075392D02*
X115888049Y-27146820D01*
X115888049Y-27146820D02*
X115530906Y-27146820D01*
X115530906Y-27146820D02*
X115245191Y-27075392D01*
X115245191Y-27075392D02*
X115102334Y-27003963D01*
X115102334Y-27003963D02*
X115030906Y-26932535D01*
X115030906Y-26932535D02*
X114959477Y-26789677D01*
X123959477Y-28575392D02*
X122459477Y-28575392D01*
X122459477Y-28575392D02*
X122459477Y-28218249D01*
X122459477Y-28218249D02*
X122530906Y-28003963D01*
X122530906Y-28003963D02*
X122673763Y-27861106D01*
X122673763Y-27861106D02*
X122816620Y-27789677D01*
X122816620Y-27789677D02*
X123102334Y-27718249D01*
X123102334Y-27718249D02*
X123316620Y-27718249D01*
X123316620Y-27718249D02*
X123602334Y-27789677D01*
X123602334Y-27789677D02*
X123745191Y-27861106D01*
X123745191Y-27861106D02*
X123888049Y-28003963D01*
X123888049Y-28003963D02*
X123959477Y-28218249D01*
X123959477Y-28218249D02*
X123959477Y-28575392D01*
X123816620Y-26218249D02*
X123888049Y-26289677D01*
X123888049Y-26289677D02*
X123959477Y-26503963D01*
X123959477Y-26503963D02*
X123959477Y-26646820D01*
X123959477Y-26646820D02*
X123888049Y-26861106D01*
X123888049Y-26861106D02*
X123745191Y-27003963D01*
X123745191Y-27003963D02*
X123602334Y-27075392D01*
X123602334Y-27075392D02*
X123316620Y-27146820D01*
X123316620Y-27146820D02*
X123102334Y-27146820D01*
X123102334Y-27146820D02*
X122816620Y-27075392D01*
X122816620Y-27075392D02*
X122673763Y-27003963D01*
X122673763Y-27003963D02*
X122530906Y-26861106D01*
X122530906Y-26861106D02*
X122459477Y-26646820D01*
X122459477Y-26646820D02*
X122459477Y-26503963D01*
X122459477Y-26503963D02*
X122530906Y-26289677D01*
X122530906Y-26289677D02*
X122602334Y-26218249D01*
X118959477Y-28575392D02*
X117459477Y-28575392D01*
X117459477Y-28575392D02*
X117459477Y-28218249D01*
X117459477Y-28218249D02*
X117530906Y-28003963D01*
X117530906Y-28003963D02*
X117673763Y-27861106D01*
X117673763Y-27861106D02*
X117816620Y-27789677D01*
X117816620Y-27789677D02*
X118102334Y-27718249D01*
X118102334Y-27718249D02*
X118316620Y-27718249D01*
X118316620Y-27718249D02*
X118602334Y-27789677D01*
X118602334Y-27789677D02*
X118745191Y-27861106D01*
X118745191Y-27861106D02*
X118888049Y-28003963D01*
X118888049Y-28003963D02*
X118959477Y-28218249D01*
X118959477Y-28218249D02*
X118959477Y-28575392D01*
X118959477Y-26289677D02*
X118959477Y-27146820D01*
X118959477Y-26718249D02*
X117459477Y-26718249D01*
X117459477Y-26718249D02*
X117673763Y-26861106D01*
X117673763Y-26861106D02*
X117816620Y-27003963D01*
X117816620Y-27003963D02*
X117888049Y-27146820D01*
X109530906Y-29289677D02*
X109459477Y-29432535D01*
X109459477Y-29432535D02*
X109459477Y-29646820D01*
X109459477Y-29646820D02*
X109530906Y-29861106D01*
X109530906Y-29861106D02*
X109673763Y-30003963D01*
X109673763Y-30003963D02*
X109816620Y-30075392D01*
X109816620Y-30075392D02*
X110102334Y-30146820D01*
X110102334Y-30146820D02*
X110316620Y-30146820D01*
X110316620Y-30146820D02*
X110602334Y-30075392D01*
X110602334Y-30075392D02*
X110745191Y-30003963D01*
X110745191Y-30003963D02*
X110888049Y-29861106D01*
X110888049Y-29861106D02*
X110959477Y-29646820D01*
X110959477Y-29646820D02*
X110959477Y-29503963D01*
X110959477Y-29503963D02*
X110888049Y-29289677D01*
X110888049Y-29289677D02*
X110816620Y-29218249D01*
X110816620Y-29218249D02*
X110316620Y-29218249D01*
X110316620Y-29218249D02*
X110316620Y-29503963D01*
X110959477Y-28575392D02*
X109459477Y-28575392D01*
X109459477Y-28575392D02*
X110959477Y-27718249D01*
X110959477Y-27718249D02*
X109459477Y-27718249D01*
X110959477Y-27003963D02*
X109459477Y-27003963D01*
X109459477Y-27003963D02*
X109459477Y-26646820D01*
X109459477Y-26646820D02*
X109530906Y-26432534D01*
X109530906Y-26432534D02*
X109673763Y-26289677D01*
X109673763Y-26289677D02*
X109816620Y-26218248D01*
X109816620Y-26218248D02*
X110102334Y-26146820D01*
X110102334Y-26146820D02*
X110316620Y-26146820D01*
X110316620Y-26146820D02*
X110602334Y-26218248D01*
X110602334Y-26218248D02*
X110745191Y-26289677D01*
X110745191Y-26289677D02*
X110888049Y-26432534D01*
X110888049Y-26432534D02*
X110959477Y-26646820D01*
X110959477Y-26646820D02*
X110959477Y-27003963D01*
X126316620Y-27718249D02*
X126388049Y-27789677D01*
X126388049Y-27789677D02*
X126459477Y-28003963D01*
X126459477Y-28003963D02*
X126459477Y-28146820D01*
X126459477Y-28146820D02*
X126388049Y-28361106D01*
X126388049Y-28361106D02*
X126245191Y-28503963D01*
X126245191Y-28503963D02*
X126102334Y-28575392D01*
X126102334Y-28575392D02*
X125816620Y-28646820D01*
X125816620Y-28646820D02*
X125602334Y-28646820D01*
X125602334Y-28646820D02*
X125316620Y-28575392D01*
X125316620Y-28575392D02*
X125173763Y-28503963D01*
X125173763Y-28503963D02*
X125030906Y-28361106D01*
X125030906Y-28361106D02*
X124959477Y-28146820D01*
X124959477Y-28146820D02*
X124959477Y-28003963D01*
X124959477Y-28003963D02*
X125030906Y-27789677D01*
X125030906Y-27789677D02*
X125102334Y-27718249D01*
X126388049Y-27146820D02*
X126459477Y-26932535D01*
X126459477Y-26932535D02*
X126459477Y-26575392D01*
X126459477Y-26575392D02*
X126388049Y-26432535D01*
X126388049Y-26432535D02*
X126316620Y-26361106D01*
X126316620Y-26361106D02*
X126173763Y-26289677D01*
X126173763Y-26289677D02*
X126030906Y-26289677D01*
X126030906Y-26289677D02*
X125888049Y-26361106D01*
X125888049Y-26361106D02*
X125816620Y-26432535D01*
X125816620Y-26432535D02*
X125745191Y-26575392D01*
X125745191Y-26575392D02*
X125673763Y-26861106D01*
X125673763Y-26861106D02*
X125602334Y-27003963D01*
X125602334Y-27003963D02*
X125530906Y-27075392D01*
X125530906Y-27075392D02*
X125388049Y-27146820D01*
X125388049Y-27146820D02*
X125245191Y-27146820D01*
X125245191Y-27146820D02*
X125102334Y-27075392D01*
X125102334Y-27075392D02*
X125030906Y-27003963D01*
X125030906Y-27003963D02*
X124959477Y-26861106D01*
X124959477Y-26861106D02*
X124959477Y-26503963D01*
X124959477Y-26503963D02*
X125030906Y-26289677D01*
X121459477Y-29218249D02*
X120745191Y-29718249D01*
X121459477Y-30075392D02*
X119959477Y-30075392D01*
X119959477Y-30075392D02*
X119959477Y-29503963D01*
X119959477Y-29503963D02*
X120030906Y-29361106D01*
X120030906Y-29361106D02*
X120102334Y-29289677D01*
X120102334Y-29289677D02*
X120245191Y-29218249D01*
X120245191Y-29218249D02*
X120459477Y-29218249D01*
X120459477Y-29218249D02*
X120602334Y-29289677D01*
X120602334Y-29289677D02*
X120673763Y-29361106D01*
X120673763Y-29361106D02*
X120745191Y-29503963D01*
X120745191Y-29503963D02*
X120745191Y-30075392D01*
X120673763Y-28575392D02*
X120673763Y-28075392D01*
X121459477Y-27861106D02*
X121459477Y-28575392D01*
X121459477Y-28575392D02*
X119959477Y-28575392D01*
X119959477Y-28575392D02*
X119959477Y-27861106D01*
X121388049Y-27289677D02*
X121459477Y-27075392D01*
X121459477Y-27075392D02*
X121459477Y-26718249D01*
X121459477Y-26718249D02*
X121388049Y-26575392D01*
X121388049Y-26575392D02*
X121316620Y-26503963D01*
X121316620Y-26503963D02*
X121173763Y-26432534D01*
X121173763Y-26432534D02*
X121030906Y-26432534D01*
X121030906Y-26432534D02*
X120888049Y-26503963D01*
X120888049Y-26503963D02*
X120816620Y-26575392D01*
X120816620Y-26575392D02*
X120745191Y-26718249D01*
X120745191Y-26718249D02*
X120673763Y-27003963D01*
X120673763Y-27003963D02*
X120602334Y-27146820D01*
X120602334Y-27146820D02*
X120530906Y-27218249D01*
X120530906Y-27218249D02*
X120388049Y-27289677D01*
X120388049Y-27289677D02*
X120245191Y-27289677D01*
X120245191Y-27289677D02*
X120102334Y-27218249D01*
X120102334Y-27218249D02*
X120030906Y-27146820D01*
X120030906Y-27146820D02*
X119959477Y-27003963D01*
X119959477Y-27003963D02*
X119959477Y-26646820D01*
X119959477Y-26646820D02*
X120030906Y-26432534D01*
D13*
X99814597Y-61892646D02*
X99890787Y-61892646D01*
X99890787Y-61892646D02*
X99966978Y-61930741D01*
X99966978Y-61930741D02*
X100005073Y-61968836D01*
X100005073Y-61968836D02*
X100043168Y-62045027D01*
X100043168Y-62045027D02*
X100081263Y-62197408D01*
X100081263Y-62197408D02*
X100081263Y-62387884D01*
X100081263Y-62387884D02*
X100043168Y-62540265D01*
X100043168Y-62540265D02*
X100005073Y-62616455D01*
X100005073Y-62616455D02*
X99966978Y-62654551D01*
X99966978Y-62654551D02*
X99890787Y-62692646D01*
X99890787Y-62692646D02*
X99814597Y-62692646D01*
X99814597Y-62692646D02*
X99738406Y-62654551D01*
X99738406Y-62654551D02*
X99700311Y-62616455D01*
X99700311Y-62616455D02*
X99662216Y-62540265D01*
X99662216Y-62540265D02*
X99624120Y-62387884D01*
X99624120Y-62387884D02*
X99624120Y-62197408D01*
X99624120Y-62197408D02*
X99662216Y-62045027D01*
X99662216Y-62045027D02*
X99700311Y-61968836D01*
X99700311Y-61968836D02*
X99738406Y-61930741D01*
X99738406Y-61930741D02*
X99814597Y-61892646D01*
X100424121Y-62616455D02*
X100462216Y-62654551D01*
X100462216Y-62654551D02*
X100424121Y-62692646D01*
X100424121Y-62692646D02*
X100386025Y-62654551D01*
X100386025Y-62654551D02*
X100424121Y-62616455D01*
X100424121Y-62616455D02*
X100424121Y-62692646D01*
X101224120Y-62692646D02*
X100766977Y-62692646D01*
X100995549Y-62692646D02*
X100995549Y-61892646D01*
X100995549Y-61892646D02*
X100919358Y-62006931D01*
X100919358Y-62006931D02*
X100843168Y-62083122D01*
X100843168Y-62083122D02*
X100766977Y-62121217D01*
X101909835Y-62159312D02*
X101909835Y-62692646D01*
X101566978Y-62159312D02*
X101566978Y-62578360D01*
X101566978Y-62578360D02*
X101605073Y-62654551D01*
X101605073Y-62654551D02*
X101681263Y-62692646D01*
X101681263Y-62692646D02*
X101795549Y-62692646D01*
X101795549Y-62692646D02*
X101871740Y-62654551D01*
X101871740Y-62654551D02*
X101909835Y-62616455D01*
X137516825Y-31093215D02*
X137564444Y-30950358D01*
X137564444Y-30950358D02*
X137564444Y-30712263D01*
X137564444Y-30712263D02*
X137516825Y-30617025D01*
X137516825Y-30617025D02*
X137469205Y-30569406D01*
X137469205Y-30569406D02*
X137373967Y-30521787D01*
X137373967Y-30521787D02*
X137278729Y-30521787D01*
X137278729Y-30521787D02*
X137183491Y-30569406D01*
X137183491Y-30569406D02*
X137135872Y-30617025D01*
X137135872Y-30617025D02*
X137088253Y-30712263D01*
X137088253Y-30712263D02*
X137040634Y-30902739D01*
X137040634Y-30902739D02*
X136993015Y-30997977D01*
X136993015Y-30997977D02*
X136945396Y-31045596D01*
X136945396Y-31045596D02*
X136850158Y-31093215D01*
X136850158Y-31093215D02*
X136754920Y-31093215D01*
X136754920Y-31093215D02*
X136659682Y-31045596D01*
X136659682Y-31045596D02*
X136612063Y-30997977D01*
X136612063Y-30997977D02*
X136564444Y-30902739D01*
X136564444Y-30902739D02*
X136564444Y-30664644D01*
X136564444Y-30664644D02*
X136612063Y-30521787D01*
X136897777Y-30236072D02*
X136897777Y-29855120D01*
X136564444Y-30093215D02*
X137421586Y-30093215D01*
X137421586Y-30093215D02*
X137516825Y-30045596D01*
X137516825Y-30045596D02*
X137564444Y-29950358D01*
X137564444Y-29950358D02*
X137564444Y-29855120D01*
X137564444Y-29093215D02*
X137040634Y-29093215D01*
X137040634Y-29093215D02*
X136945396Y-29140834D01*
X136945396Y-29140834D02*
X136897777Y-29236072D01*
X136897777Y-29236072D02*
X136897777Y-29426548D01*
X136897777Y-29426548D02*
X136945396Y-29521786D01*
X137516825Y-29093215D02*
X137564444Y-29188453D01*
X137564444Y-29188453D02*
X137564444Y-29426548D01*
X137564444Y-29426548D02*
X137516825Y-29521786D01*
X137516825Y-29521786D02*
X137421586Y-29569405D01*
X137421586Y-29569405D02*
X137326348Y-29569405D01*
X137326348Y-29569405D02*
X137231110Y-29521786D01*
X137231110Y-29521786D02*
X137183491Y-29426548D01*
X137183491Y-29426548D02*
X137183491Y-29188453D01*
X137183491Y-29188453D02*
X137135872Y-29093215D01*
X137564444Y-28617024D02*
X136897777Y-28617024D01*
X137088253Y-28617024D02*
X136993015Y-28569405D01*
X136993015Y-28569405D02*
X136945396Y-28521786D01*
X136945396Y-28521786D02*
X136897777Y-28426548D01*
X136897777Y-28426548D02*
X136897777Y-28331310D01*
X136897777Y-28140833D02*
X136897777Y-27759881D01*
X136564444Y-27997976D02*
X137421586Y-27997976D01*
X137421586Y-27997976D02*
X137516825Y-27950357D01*
X137516825Y-27950357D02*
X137564444Y-27855119D01*
X137564444Y-27855119D02*
X137564444Y-27759881D01*
X136516825Y-26712262D02*
X137802539Y-27569404D01*
X137516825Y-26426547D02*
X137564444Y-26283690D01*
X137564444Y-26283690D02*
X137564444Y-26045595D01*
X137564444Y-26045595D02*
X137516825Y-25950357D01*
X137516825Y-25950357D02*
X137469205Y-25902738D01*
X137469205Y-25902738D02*
X137373967Y-25855119D01*
X137373967Y-25855119D02*
X137278729Y-25855119D01*
X137278729Y-25855119D02*
X137183491Y-25902738D01*
X137183491Y-25902738D02*
X137135872Y-25950357D01*
X137135872Y-25950357D02*
X137088253Y-26045595D01*
X137088253Y-26045595D02*
X137040634Y-26236071D01*
X137040634Y-26236071D02*
X136993015Y-26331309D01*
X136993015Y-26331309D02*
X136945396Y-26378928D01*
X136945396Y-26378928D02*
X136850158Y-26426547D01*
X136850158Y-26426547D02*
X136754920Y-26426547D01*
X136754920Y-26426547D02*
X136659682Y-26378928D01*
X136659682Y-26378928D02*
X136612063Y-26331309D01*
X136612063Y-26331309D02*
X136564444Y-26236071D01*
X136564444Y-26236071D02*
X136564444Y-25997976D01*
X136564444Y-25997976D02*
X136612063Y-25855119D01*
X136897777Y-25569404D02*
X136897777Y-25188452D01*
X136564444Y-25426547D02*
X137421586Y-25426547D01*
X137421586Y-25426547D02*
X137516825Y-25378928D01*
X137516825Y-25378928D02*
X137564444Y-25283690D01*
X137564444Y-25283690D02*
X137564444Y-25188452D01*
X137564444Y-24712261D02*
X137516825Y-24807499D01*
X137516825Y-24807499D02*
X137469205Y-24855118D01*
X137469205Y-24855118D02*
X137373967Y-24902737D01*
X137373967Y-24902737D02*
X137088253Y-24902737D01*
X137088253Y-24902737D02*
X136993015Y-24855118D01*
X136993015Y-24855118D02*
X136945396Y-24807499D01*
X136945396Y-24807499D02*
X136897777Y-24712261D01*
X136897777Y-24712261D02*
X136897777Y-24569404D01*
X136897777Y-24569404D02*
X136945396Y-24474166D01*
X136945396Y-24474166D02*
X136993015Y-24426547D01*
X136993015Y-24426547D02*
X137088253Y-24378928D01*
X137088253Y-24378928D02*
X137373967Y-24378928D01*
X137373967Y-24378928D02*
X137469205Y-24426547D01*
X137469205Y-24426547D02*
X137516825Y-24474166D01*
X137516825Y-24474166D02*
X137564444Y-24569404D01*
X137564444Y-24569404D02*
X137564444Y-24712261D01*
X136897777Y-23950356D02*
X137897777Y-23950356D01*
X136945396Y-23950356D02*
X136897777Y-23855118D01*
X136897777Y-23855118D02*
X136897777Y-23664642D01*
X136897777Y-23664642D02*
X136945396Y-23569404D01*
X136945396Y-23569404D02*
X136993015Y-23521785D01*
X136993015Y-23521785D02*
X137088253Y-23474166D01*
X137088253Y-23474166D02*
X137373967Y-23474166D01*
X137373967Y-23474166D02*
X137469205Y-23521785D01*
X137469205Y-23521785D02*
X137516825Y-23569404D01*
X137516825Y-23569404D02*
X137564444Y-23664642D01*
X137564444Y-23664642D02*
X137564444Y-23855118D01*
X137564444Y-23855118D02*
X137516825Y-23950356D01*
X95853554Y-50159990D02*
X95929744Y-50159990D01*
X95929744Y-50159990D02*
X96005935Y-50198085D01*
X96005935Y-50198085D02*
X96044030Y-50236180D01*
X96044030Y-50236180D02*
X96082125Y-50312371D01*
X96082125Y-50312371D02*
X96120220Y-50464752D01*
X96120220Y-50464752D02*
X96120220Y-50655228D01*
X96120220Y-50655228D02*
X96082125Y-50807609D01*
X96082125Y-50807609D02*
X96044030Y-50883799D01*
X96044030Y-50883799D02*
X96005935Y-50921895D01*
X96005935Y-50921895D02*
X95929744Y-50959990D01*
X95929744Y-50959990D02*
X95853554Y-50959990D01*
X95853554Y-50959990D02*
X95777363Y-50921895D01*
X95777363Y-50921895D02*
X95739268Y-50883799D01*
X95739268Y-50883799D02*
X95701173Y-50807609D01*
X95701173Y-50807609D02*
X95663077Y-50655228D01*
X95663077Y-50655228D02*
X95663077Y-50464752D01*
X95663077Y-50464752D02*
X95701173Y-50312371D01*
X95701173Y-50312371D02*
X95739268Y-50236180D01*
X95739268Y-50236180D02*
X95777363Y-50198085D01*
X95777363Y-50198085D02*
X95853554Y-50159990D01*
X96463078Y-50883799D02*
X96501173Y-50921895D01*
X96501173Y-50921895D02*
X96463078Y-50959990D01*
X96463078Y-50959990D02*
X96424982Y-50921895D01*
X96424982Y-50921895D02*
X96463078Y-50883799D01*
X96463078Y-50883799D02*
X96463078Y-50959990D01*
X96805934Y-50236180D02*
X96844030Y-50198085D01*
X96844030Y-50198085D02*
X96920220Y-50159990D01*
X96920220Y-50159990D02*
X97110696Y-50159990D01*
X97110696Y-50159990D02*
X97186887Y-50198085D01*
X97186887Y-50198085D02*
X97224982Y-50236180D01*
X97224982Y-50236180D02*
X97263077Y-50312371D01*
X97263077Y-50312371D02*
X97263077Y-50388561D01*
X97263077Y-50388561D02*
X97224982Y-50502847D01*
X97224982Y-50502847D02*
X96767839Y-50959990D01*
X96767839Y-50959990D02*
X97263077Y-50959990D01*
X97567839Y-50236180D02*
X97605935Y-50198085D01*
X97605935Y-50198085D02*
X97682125Y-50159990D01*
X97682125Y-50159990D02*
X97872601Y-50159990D01*
X97872601Y-50159990D02*
X97948792Y-50198085D01*
X97948792Y-50198085D02*
X97986887Y-50236180D01*
X97986887Y-50236180D02*
X98024982Y-50312371D01*
X98024982Y-50312371D02*
X98024982Y-50388561D01*
X98024982Y-50388561D02*
X97986887Y-50502847D01*
X97986887Y-50502847D02*
X97529744Y-50959990D01*
X97529744Y-50959990D02*
X98024982Y-50959990D01*
X98710697Y-50426656D02*
X98710697Y-50959990D01*
X98367840Y-50426656D02*
X98367840Y-50845704D01*
X98367840Y-50845704D02*
X98405935Y-50921895D01*
X98405935Y-50921895D02*
X98482125Y-50959990D01*
X98482125Y-50959990D02*
X98596411Y-50959990D01*
X98596411Y-50959990D02*
X98672602Y-50921895D01*
X98672602Y-50921895D02*
X98710697Y-50883799D01*
D11*
%TO.C,Volume1*%
X136596121Y-56406638D02*
X136596121Y-54096638D01*
X136596121Y-54096638D02*
X147296121Y-54096638D01*
X147296121Y-54096638D02*
X147296121Y-56406638D01*
X136596121Y-61486638D02*
X136596121Y-65446638D01*
X136596121Y-65446638D02*
X147296121Y-65446638D01*
X147296121Y-65446638D02*
X147296121Y-61486638D01*
D10*
X139346121Y-67646638D02*
X139346121Y-67646638D01*
X139546121Y-67646638D02*
X139546121Y-67646638D01*
X139346121Y-67646638D02*
G75*
G02*
X139546121Y-67646638I100000J0D01*
G01*
X139546121Y-67646638D02*
G75*
G02*
X139346121Y-67646638I-100000J0D01*
G01*
D11*
%TO.C,Pwr1*%
X100669451Y-37244868D02*
X100669451Y-49944868D01*
X100669451Y-49944868D02*
X94069451Y-49944868D01*
X94069451Y-49944868D02*
X94069451Y-37244868D01*
X94069451Y-37244868D02*
X100669451Y-37244868D01*
%TO.C,Dimmer1*%
X135825813Y-34562237D02*
X148325813Y-34562237D01*
X148325813Y-47962237D02*
X148325813Y-43912237D01*
X148325813Y-34562237D02*
X148325813Y-38662237D01*
X135825813Y-47962237D02*
X135825813Y-43912237D01*
X135825813Y-34562237D02*
X135825813Y-38662237D01*
D10*
X139475813Y-50121237D02*
X139475813Y-50121237D01*
X139675813Y-50121237D02*
X139675813Y-50121237D01*
X139675813Y-50121237D02*
G75*
G02*
X139475813Y-50121237I-100000J0D01*
G01*
X139475813Y-50121237D02*
G75*
G02*
X139675813Y-50121237I100000J0D01*
G01*
%TO.C,Amp1*%
D11*
X130247702Y-74653679D02*
X117247702Y-74653679D01*
X117247702Y-54153679D01*
X130247702Y-54153679D01*
X130247702Y-74653679D01*
X130247702Y-56653679D02*
X122747702Y-56653679D01*
X122747702Y-54153679D01*
X130247702Y-54153679D01*
X130247702Y-56653679D01*
X122747702Y-56653679D02*
X117247702Y-56653679D01*
X117247702Y-54153679D01*
X122747702Y-54153679D01*
X122747702Y-56653679D01*
D14*
%TO.C,C2*%
X100666945Y-64334343D02*
X100666945Y-63103343D01*
X100626945Y-64334343D02*
X100626945Y-63107343D01*
X100586945Y-64334343D02*
X100586945Y-63112343D01*
X100546945Y-64334343D02*
X100546945Y-63118343D01*
X100506945Y-64334343D02*
X100506945Y-63124343D01*
X100466945Y-64334343D02*
X100466945Y-63132343D01*
X100426945Y-64334343D02*
X100426945Y-63140343D01*
X100386945Y-64334343D02*
X100386945Y-63149343D01*
X100346945Y-64334343D02*
X100346945Y-63158343D01*
X100306945Y-64334343D02*
X100306945Y-63169343D01*
X100266945Y-64334343D02*
X100266945Y-63180343D01*
X100226945Y-64334343D02*
X100226945Y-63192343D01*
X100186945Y-64334343D02*
X100186945Y-63206343D01*
X100145945Y-64334343D02*
X100145945Y-63220343D01*
X100105945Y-64334343D02*
X100105945Y-63234343D01*
X100065945Y-64334343D02*
X100065945Y-63250343D01*
X100025945Y-64334343D02*
X100025945Y-63267343D01*
X99985945Y-64334343D02*
X99985945Y-63285343D01*
X99945945Y-64334343D02*
X99945945Y-63304343D01*
X99905945Y-64334343D02*
X99905945Y-63323343D01*
X99865945Y-64334343D02*
X99865945Y-63344343D01*
X99825945Y-64334343D02*
X99825945Y-63366343D01*
X99785945Y-64334343D02*
X99785945Y-63389343D01*
X99745945Y-64334343D02*
X99745945Y-63414343D01*
X99705945Y-64334343D02*
X99705945Y-63439343D01*
X99665945Y-64334343D02*
X99665945Y-63466343D01*
X99625945Y-64334343D02*
X99625945Y-63494343D01*
X99585945Y-64334343D02*
X99585945Y-63524343D01*
X99545945Y-64334343D02*
X99545945Y-63555343D01*
X99505945Y-64334343D02*
X99505945Y-63587343D01*
X99465945Y-64334343D02*
X99465945Y-63622343D01*
X99425945Y-64334343D02*
X99425945Y-63658343D01*
X99385945Y-64334343D02*
X99385945Y-63696343D01*
X99345945Y-64334343D02*
X99345945Y-63736343D01*
X99305945Y-64334343D02*
X99305945Y-63778343D01*
X99265945Y-64334343D02*
X99265945Y-63823343D01*
X99225945Y-64334343D02*
X99225945Y-63870343D01*
X99185945Y-64334343D02*
X99185945Y-63920343D01*
X99145945Y-64334343D02*
X99145945Y-63974343D01*
X99105945Y-64334343D02*
X99105945Y-64032343D01*
X99065945Y-64334343D02*
X99065945Y-64094343D01*
X98785945Y-65544343D02*
X98785945Y-64804343D01*
X98825945Y-65711343D02*
X98825945Y-64637343D01*
X98865945Y-65838343D02*
X98865945Y-64510343D01*
X98905945Y-65942343D02*
X98905945Y-64406343D01*
X98945945Y-66033343D02*
X98945945Y-64315343D01*
X98985945Y-66114343D02*
X98985945Y-64234343D01*
X99025945Y-66187343D02*
X99025945Y-64161343D01*
X99065945Y-66254343D02*
X99065945Y-66014343D01*
X99105945Y-66316343D02*
X99105945Y-66014343D01*
X103136746Y-66369343D02*
X102736746Y-66369343D01*
X99145945Y-66374343D02*
X99145945Y-66014343D01*
X99185945Y-66428343D02*
X99185945Y-66014343D01*
X99225945Y-66478343D02*
X99225945Y-66014343D01*
X99265945Y-66525343D02*
X99265945Y-66014343D01*
X102936746Y-66569343D02*
X102936746Y-66169343D01*
X99305945Y-66570343D02*
X99305945Y-66014343D01*
X99345945Y-66612343D02*
X99345945Y-66014343D01*
X99385945Y-66652343D02*
X99385945Y-66014343D01*
X99425945Y-66690343D02*
X99425945Y-66014343D01*
X99465945Y-66726343D02*
X99465945Y-66014343D01*
X99505945Y-66761343D02*
X99505945Y-66014343D01*
X99545945Y-66793343D02*
X99545945Y-66014343D01*
X99585945Y-66824343D02*
X99585945Y-66014343D01*
X99625945Y-66854343D02*
X99625945Y-66014343D01*
X99665945Y-66882343D02*
X99665945Y-66014343D01*
X99705945Y-66909343D02*
X99705945Y-66014343D01*
X99745945Y-66934343D02*
X99745945Y-66014343D01*
X99785945Y-66959343D02*
X99785945Y-66014343D01*
X99825945Y-66982343D02*
X99825945Y-66014343D01*
X99865945Y-67004343D02*
X99865945Y-66014343D01*
X99905945Y-67025343D02*
X99905945Y-66014343D01*
X99945945Y-67044343D02*
X99945945Y-66014343D01*
X99985945Y-67063343D02*
X99985945Y-66014343D01*
X100025945Y-67081343D02*
X100025945Y-66014343D01*
X100065945Y-67098343D02*
X100065945Y-66014343D01*
X100105945Y-67114343D02*
X100105945Y-66014343D01*
X100145945Y-67128343D02*
X100145945Y-66014343D01*
X100186945Y-67142343D02*
X100186945Y-66014343D01*
X100226945Y-67156343D02*
X100226945Y-66014343D01*
X100266945Y-67168343D02*
X100266945Y-66014343D01*
X100306945Y-67179343D02*
X100306945Y-66014343D01*
X100346945Y-67190343D02*
X100346945Y-66014343D01*
X100386945Y-67199343D02*
X100386945Y-66014343D01*
X100426945Y-67208343D02*
X100426945Y-66014343D01*
X100466945Y-67216343D02*
X100466945Y-66014343D01*
X100506945Y-67224343D02*
X100506945Y-66014343D01*
X100546945Y-67230343D02*
X100546945Y-66014343D01*
X100586945Y-67236343D02*
X100586945Y-66014343D01*
X100626945Y-67241343D02*
X100626945Y-66014343D01*
X100666945Y-67245343D02*
X100666945Y-66014343D01*
X100706945Y-67248343D02*
X100706945Y-63100343D01*
X100746945Y-67251343D02*
X100746945Y-63097343D01*
X100786945Y-67253343D02*
X100786945Y-63095343D01*
X100866945Y-67254343D02*
X100866945Y-63094343D01*
X100826945Y-67254343D02*
X100826945Y-63094343D01*
X102986945Y-65174343D02*
G75*
G02*
X98746945Y-65174343I-2120000J0D01*
G01*
X98746945Y-65174343D02*
G75*
G02*
X102986945Y-65174343I2120000J0D01*
G01*
D10*
%TO.C,Relay1*%
X114487934Y-52508437D02*
X104487934Y-52508437D01*
X104487934Y-60328437D02*
X114487934Y-60328437D01*
X104487934Y-52508437D02*
X104487934Y-53878437D01*
D11*
%TO.C,IN1*%
X97369451Y-35498114D02*
G75*
G02*
X97369451Y-35598114I0J-50000D01*
G01*
X97369451Y-35598114D02*
G75*
G02*
X97369451Y-35498114I0J50000D01*
G01*
D10*
X100619451Y-29488114D02*
X100619451Y-34968114D01*
X94119451Y-29488114D02*
X100619451Y-29488114D01*
X100619451Y-34968114D02*
X94119451Y-34968114D01*
X94119451Y-34968114D02*
X94119451Y-29488114D01*
D11*
X97369451Y-35498114D02*
X97369451Y-35498114D01*
X97369451Y-35598114D02*
X97369451Y-35598114D01*
D14*
%TO.C,R2*%
X136193771Y-69214692D02*
X136193771Y-69544692D01*
X136193771Y-71954692D02*
X136193771Y-71624692D01*
X142733771Y-69214692D02*
X136193771Y-69214692D01*
X142733771Y-69544692D02*
X142733771Y-69214692D01*
X142733771Y-71624692D02*
X142733771Y-71954692D01*
X142733771Y-71954692D02*
X136193771Y-71954692D01*
%TO.C,R1*%
X131300211Y-59098702D02*
X131630211Y-59098702D01*
X131300211Y-65638702D02*
X131300211Y-59098702D01*
X131630211Y-65638702D02*
X131300211Y-65638702D01*
X133710211Y-65638702D02*
X134040211Y-65638702D01*
X134040211Y-59098702D02*
X133710211Y-59098702D01*
X134040211Y-65638702D02*
X134040211Y-59098702D01*
D10*
%TO.C,J1*%
X105281131Y-68194778D02*
X116041131Y-68194778D01*
X105281131Y-74894778D02*
X105281131Y-68194778D01*
X116041131Y-68194778D02*
X116041131Y-74894778D01*
X116041131Y-74894778D02*
X105281131Y-74894778D01*
D15*
X106021131Y-69844778D02*
G75*
G02*
X105821131Y-69844778I-100000J0D01*
G01*
X105821131Y-69844778D02*
G75*
G02*
X106021131Y-69844778I100000J0D01*
G01*
D14*
%TO.C,Strt1*%
X142840890Y-24178719D02*
X141340890Y-24178719D01*
X138840890Y-25428719D02*
X138840890Y-29928719D01*
X145340890Y-29928719D02*
X145340890Y-25428719D01*
X141340890Y-31178719D02*
X142840890Y-31178719D01*
%TO.C,C1*%
X96153079Y-54004653D02*
X94613079Y-54004653D01*
X96153079Y-54044653D02*
X94613079Y-54044653D01*
X96153079Y-54084653D02*
X94614079Y-54084653D01*
X96153079Y-54124653D02*
X94615079Y-54124653D01*
X96153079Y-54164653D02*
X94617079Y-54164653D01*
X96153079Y-54204653D02*
X94620079Y-54204653D01*
X96153079Y-54244653D02*
X94624079Y-54244653D01*
X96153079Y-54284653D02*
X94628079Y-54284653D01*
X96153079Y-54324653D02*
X94632079Y-54324653D01*
X96153079Y-54364653D02*
X94637079Y-54364653D01*
X96153079Y-54404653D02*
X94643079Y-54404653D01*
X96153079Y-54444653D02*
X94650079Y-54444653D01*
X96153079Y-54484653D02*
X94657079Y-54484653D01*
X96153079Y-54524653D02*
X94665079Y-54524653D01*
X96153079Y-54564653D02*
X94673079Y-54564653D01*
X96153079Y-54604653D02*
X94682079Y-54604653D01*
X96153079Y-54644653D02*
X94692079Y-54644653D01*
X96153079Y-54684653D02*
X94702079Y-54684653D01*
X96153079Y-54725653D02*
X94713079Y-54725653D01*
X96153079Y-54765653D02*
X94725079Y-54765653D01*
X96153079Y-54805653D02*
X94738079Y-54805653D01*
X96153079Y-54845653D02*
X94751079Y-54845653D01*
X96153079Y-54885653D02*
X94765079Y-54885653D01*
X96153079Y-54925653D02*
X94779079Y-54925653D01*
X96153079Y-54965653D02*
X94795079Y-54965653D01*
X96153079Y-55005653D02*
X94811079Y-55005653D01*
X96153079Y-55045653D02*
X94828079Y-55045653D01*
X96153079Y-55085653D02*
X94845079Y-55085653D01*
X96153079Y-55125653D02*
X94864079Y-55125653D01*
X96153079Y-55165653D02*
X94883079Y-55165653D01*
X96153079Y-55205653D02*
X94903079Y-55205653D01*
X96153079Y-55245653D02*
X94925079Y-55245653D01*
X96153079Y-55285653D02*
X94946079Y-55285653D01*
X96153079Y-55325653D02*
X94969079Y-55325653D01*
X96153079Y-55365653D02*
X94993079Y-55365653D01*
X96153079Y-55405653D02*
X95018079Y-55405653D01*
X96153079Y-55445653D02*
X95044079Y-55445653D01*
X96153079Y-55485653D02*
X95071079Y-55485653D01*
X96153079Y-55525653D02*
X95098079Y-55525653D01*
X96153079Y-55565653D02*
X95128079Y-55565653D01*
X96153079Y-55605653D02*
X95158079Y-55605653D01*
X96153079Y-55645653D02*
X95189079Y-55645653D01*
X96153079Y-55685653D02*
X95222079Y-55685653D01*
X96153079Y-55725653D02*
X95256079Y-55725653D01*
X96153079Y-55765653D02*
X95292079Y-55765653D01*
X96153079Y-55805653D02*
X95329079Y-55805653D01*
X96153079Y-55845653D02*
X95367079Y-55845653D01*
X96153079Y-55885653D02*
X95408079Y-55885653D01*
X96153079Y-55925653D02*
X95450079Y-55925653D01*
X96153079Y-55965653D02*
X95494079Y-55965653D01*
X96153079Y-56005653D02*
X95540079Y-56005653D01*
X97477079Y-56605653D02*
X96909079Y-56605653D01*
X97711079Y-56565653D02*
X96675079Y-56565653D01*
X97870079Y-56525653D02*
X96516079Y-56525653D01*
X97998079Y-56485653D02*
X96388079Y-56485653D01*
X98108079Y-56445653D02*
X96278079Y-56445653D01*
X98204079Y-56405653D02*
X96182079Y-56405653D01*
X98291079Y-56365653D02*
X96095079Y-56365653D01*
X98371079Y-56325653D02*
X96015079Y-56325653D01*
X98444079Y-56285653D02*
X95942079Y-56285653D01*
X98512079Y-56245653D02*
X95874079Y-56245653D01*
X98576079Y-56205653D02*
X95810079Y-56205653D01*
X98636079Y-56165653D02*
X95750079Y-56165653D01*
X98668079Y-51199878D02*
X98668079Y-51699878D01*
X98693079Y-56125653D02*
X95693079Y-56125653D01*
X98747079Y-56085653D02*
X95639079Y-56085653D01*
X98798079Y-56045653D02*
X95588079Y-56045653D01*
X98846079Y-56005653D02*
X98233079Y-56005653D01*
X98892079Y-55965653D02*
X98233079Y-55965653D01*
X98918079Y-51449878D02*
X98418079Y-51449878D01*
X98936079Y-55925653D02*
X98233079Y-55925653D01*
X98978079Y-55885653D02*
X98233079Y-55885653D01*
X99019079Y-55845653D02*
X98233079Y-55845653D01*
X99057079Y-55805653D02*
X98233079Y-55805653D01*
X99094079Y-55765653D02*
X98233079Y-55765653D01*
X99130079Y-55725653D02*
X98233079Y-55725653D01*
X99164079Y-55685653D02*
X98233079Y-55685653D01*
X99197079Y-55645653D02*
X98233079Y-55645653D01*
X99228079Y-55605653D02*
X98233079Y-55605653D01*
X99258079Y-55565653D02*
X98233079Y-55565653D01*
X99288079Y-55525653D02*
X98233079Y-55525653D01*
X99315079Y-55485653D02*
X98233079Y-55485653D01*
X99342079Y-55445653D02*
X98233079Y-55445653D01*
X99368079Y-55405653D02*
X98233079Y-55405653D01*
X99393079Y-55365653D02*
X98233079Y-55365653D01*
X99417079Y-55325653D02*
X98233079Y-55325653D01*
X99440079Y-55285653D02*
X98233079Y-55285653D01*
X99461079Y-55245653D02*
X98233079Y-55245653D01*
X99483079Y-55205653D02*
X98233079Y-55205653D01*
X99503079Y-55165653D02*
X98233079Y-55165653D01*
X99522079Y-55125653D02*
X98233079Y-55125653D01*
X99541079Y-55085653D02*
X98233079Y-55085653D01*
X99558079Y-55045653D02*
X98233079Y-55045653D01*
X99575079Y-55005653D02*
X98233079Y-55005653D01*
X99591079Y-54965653D02*
X98233079Y-54965653D01*
X99607079Y-54925653D02*
X98233079Y-54925653D01*
X99621079Y-54885653D02*
X98233079Y-54885653D01*
X99635079Y-54845653D02*
X98233079Y-54845653D01*
X99648079Y-54805653D02*
X98233079Y-54805653D01*
X99661079Y-54765653D02*
X98233079Y-54765653D01*
X99673079Y-54725653D02*
X98233079Y-54725653D01*
X99684079Y-54684653D02*
X98233079Y-54684653D01*
X99694079Y-54644653D02*
X98233079Y-54644653D01*
X99704079Y-54604653D02*
X98233079Y-54604653D01*
X99713079Y-54564653D02*
X98233079Y-54564653D01*
X99721079Y-54524653D02*
X98233079Y-54524653D01*
X99729079Y-54484653D02*
X98233079Y-54484653D01*
X99736079Y-54444653D02*
X98233079Y-54444653D01*
X99743079Y-54404653D02*
X98233079Y-54404653D01*
X99749079Y-54364653D02*
X98233079Y-54364653D01*
X99754079Y-54324653D02*
X98233079Y-54324653D01*
X99758079Y-54284653D02*
X98233079Y-54284653D01*
X99762079Y-54244653D02*
X98233079Y-54244653D01*
X99766079Y-54204653D02*
X98233079Y-54204653D01*
X99769079Y-54164653D02*
X98233079Y-54164653D01*
X99771079Y-54124653D02*
X98233079Y-54124653D01*
X99772079Y-54084653D02*
X98233079Y-54084653D01*
X99773079Y-54004653D02*
X98233079Y-54004653D01*
X99773079Y-54044653D02*
X98233079Y-54044653D01*
X99813079Y-54004653D02*
G75*
G02*
X94573079Y-54004653I-2620000J0D01*
G01*
X94573079Y-54004653D02*
G75*
G02*
X99813079Y-54004653I2620000J0D01*
G01*
%TD*%
M02*
