%TF.GenerationSoftware,KiCad,Pcbnew,8.0.8*%
%TF.CreationDate,2025-02-02T21:03:09-08:00*%
%TF.ProjectId,D1Mini,44314d69-6e69-42e6-9b69-6361645f7063,rev?*%
%TF.SameCoordinates,Original*%
%TF.FileFunction,Soldermask,Top*%
%TF.FilePolarity,Negative*%
%FSLAX46Y46*%
G04 Gerber Fmt 4.6, Leading zero omitted, Abs format (unit mm)*
G04 Created by KiCad (PCBNEW 8.0.8) date 2025-02-02 21:03:09*
%MOMM*%
%LPD*%
G01*
G04 APERTURE LIST*
%ADD10C,1.500000*%
%ADD11C,3.164000*%
%ADD12R,2.775000X2.775000*%
%ADD13C,2.775000*%
%ADD14C,1.650000*%
%ADD15C,4.800000*%
%ADD16R,2.000000X2.000000*%
%ADD17O,2.000000X1.600000*%
%ADD18C,1.524000*%
%ADD19R,1.524000X1.524000*%
%ADD20O,1.524000X3.048000*%
%ADD21R,1.200000X1.200000*%
%ADD22C,1.200000*%
%ADD23R,2.000000X1.905000*%
%ADD24O,2.000000X1.905000*%
%ADD25C,1.425000*%
%ADD26R,1.425000X1.425000*%
%ADD27C,1.950000*%
%ADD28R,1.950000X1.950000*%
%ADD29C,1.600000*%
%ADD30O,1.600000X1.600000*%
%ADD31C,2.154000*%
%ADD32C,2.000000*%
%ADD33R,1.600000X1.600000*%
G04 APERTURE END LIST*
D10*
%TO.C,Volume1*%
X139446121Y-66446638D03*
X141946121Y-66446638D03*
X144446121Y-66446638D03*
D11*
X137196121Y-58946638D03*
X146696121Y-58946638D03*
%TD*%
D12*
%TO.C,Pwr1*%
X97369451Y-38894868D03*
D13*
X97369451Y-43594868D03*
X97369451Y-48294868D03*
%TD*%
D14*
%TO.C,Dimmer1*%
X139575813Y-48762237D03*
X144575813Y-48762237D03*
X142075813Y-48762237D03*
D15*
X147775813Y-41262237D03*
X136375813Y-41262237D03*
%TD*%
D16*
%TO.C,MCU1*%
X129672442Y-24420409D03*
D17*
X129672442Y-26960409D03*
X129672442Y-29500409D03*
X129672442Y-32040409D03*
X129672442Y-34580409D03*
X129672442Y-37120409D03*
X129672442Y-39660409D03*
X129672442Y-42200409D03*
X106812442Y-42200409D03*
X106812442Y-39660409D03*
X106812442Y-37120409D03*
X106812442Y-34580409D03*
X106812442Y-32040409D03*
X106812442Y-29500409D03*
X106812442Y-26960409D03*
X106812442Y-24420409D03*
%TD*%
D18*
%TO.C,Amp1*%
X128827702Y-55653679D03*
D19*
X126287702Y-55653679D03*
D18*
X123747702Y-55653679D03*
D19*
X121207702Y-55653679D03*
D18*
X118667702Y-55653679D03*
D20*
X123747702Y-72653679D03*
X121247702Y-72653679D03*
%TD*%
D19*
%TO.C,Display1*%
X110538649Y-24954903D03*
D18*
X113078649Y-24954903D03*
X115618649Y-24954903D03*
X118158649Y-24954903D03*
X120698649Y-24954903D03*
X123238649Y-24954903D03*
X125778649Y-24954903D03*
%TD*%
D21*
%TO.C,C2*%
X101866945Y-65174343D03*
D22*
X99866945Y-65174343D03*
%TD*%
D23*
%TO.C,U2*%
X96575776Y-59678519D03*
D24*
X96575776Y-62218519D03*
X96575776Y-64758519D03*
%TD*%
D25*
%TO.C,Relay1*%
X113297934Y-53878437D03*
X113297934Y-56418437D03*
X113297934Y-58958437D03*
X105677934Y-58958437D03*
X105677934Y-56418437D03*
D26*
X105677934Y-53878437D03*
%TD*%
D27*
%TO.C,IN1*%
X97369451Y-30958114D03*
D28*
X97369451Y-33498114D03*
%TD*%
D29*
%TO.C,R2*%
X143273771Y-70584692D03*
D30*
X135653771Y-70584692D03*
%TD*%
D29*
%TO.C,R1*%
X132670211Y-66178702D03*
D30*
X132670211Y-58558702D03*
%TD*%
D31*
%TO.C,J1*%
X106851131Y-71544778D03*
X109391131Y-71544778D03*
X111931131Y-71544778D03*
X114471131Y-71544778D03*
%TD*%
D32*
%TO.C,Strt1*%
X144340890Y-24428719D03*
X144340890Y-30928719D03*
X139840890Y-24428719D03*
X139840890Y-30928719D03*
%TD*%
D33*
%TO.C,C1*%
X97193079Y-53004653D03*
D29*
X97193079Y-55004653D03*
%TD*%
M02*
