%TF.GenerationSoftware,KiCad,Pcbnew,8.0.8*%
%TF.CreationDate,2025-02-02T21:03:09-08:00*%
%TF.ProjectId,D1Mini,44314d69-6e69-42e6-9b69-6361645f7063,rev?*%
%TF.SameCoordinates,Original*%
%TF.FileFunction,Copper,L2,Bot*%
%TF.FilePolarity,Positive*%
%FSLAX46Y46*%
G04 Gerber Fmt 4.6, Leading zero omitted, Abs format (unit mm)*
G04 Created by KiCad (PCBNEW 8.0.8) date 2025-02-02 21:03:09*
%MOMM*%
%LPD*%
G01*
G04 APERTURE LIST*
%TA.AperFunction,Conductor*%
%ADD10C,0.200000*%
%TD*%
%TA.AperFunction,ComponentPad*%
%ADD11C,1.500000*%
%TD*%
%TA.AperFunction,ComponentPad*%
%ADD12C,3.164000*%
%TD*%
%TA.AperFunction,ComponentPad*%
%ADD13R,2.775000X2.775000*%
%TD*%
%TA.AperFunction,ComponentPad*%
%ADD14C,2.775000*%
%TD*%
%TA.AperFunction,ComponentPad*%
%ADD15C,1.650000*%
%TD*%
%TA.AperFunction,ComponentPad*%
%ADD16C,4.800000*%
%TD*%
%TA.AperFunction,ComponentPad*%
%ADD17R,2.000000X2.000000*%
%TD*%
%TA.AperFunction,ComponentPad*%
%ADD18O,2.000000X1.600000*%
%TD*%
%TA.AperFunction,ComponentPad*%
%ADD19C,1.524000*%
%TD*%
%TA.AperFunction,ComponentPad*%
%ADD20R,1.524000X1.524000*%
%TD*%
%TA.AperFunction,ComponentPad*%
%ADD21O,1.524000X3.048000*%
%TD*%
%TA.AperFunction,ComponentPad*%
%ADD22R,1.200000X1.200000*%
%TD*%
%TA.AperFunction,ComponentPad*%
%ADD23C,1.200000*%
%TD*%
%TA.AperFunction,ComponentPad*%
%ADD24R,2.000000X1.905000*%
%TD*%
%TA.AperFunction,ComponentPad*%
%ADD25O,2.000000X1.905000*%
%TD*%
%TA.AperFunction,ComponentPad*%
%ADD26C,1.425000*%
%TD*%
%TA.AperFunction,ComponentPad*%
%ADD27R,1.425000X1.425000*%
%TD*%
%TA.AperFunction,ComponentPad*%
%ADD28C,1.950000*%
%TD*%
%TA.AperFunction,ComponentPad*%
%ADD29R,1.950000X1.950000*%
%TD*%
%TA.AperFunction,ComponentPad*%
%ADD30C,1.600000*%
%TD*%
%TA.AperFunction,ComponentPad*%
%ADD31O,1.600000X1.600000*%
%TD*%
%TA.AperFunction,ComponentPad*%
%ADD32C,2.000000*%
%TD*%
%TA.AperFunction,ComponentPad*%
%ADD33R,1.600000X1.600000*%
%TD*%
%TA.AperFunction,ViaPad*%
%ADD34C,1.500000*%
%TD*%
%TA.AperFunction,ViaPad*%
%ADD35C,3.500000*%
%TD*%
%TA.AperFunction,Conductor*%
%ADD36C,1.000000*%
%TD*%
G04 APERTURE END LIST*
%TO.N,GND*%
D10*
X116793040Y-70312213D02*
X119950914Y-70312213D01*
X119950914Y-74620633D01*
X116793040Y-74620633D01*
X116793040Y-70312213D01*
%TA.AperFunction,Conductor*%
G36*
X116793040Y-70312213D02*
G01*
X119950914Y-70312213D01*
X119950914Y-74620633D01*
X116793040Y-74620633D01*
X116793040Y-70312213D01*
G37*
%TD.AperFunction*%
X125025791Y-70502305D02*
X130203465Y-70502305D01*
X130203465Y-74609020D01*
X125025791Y-74609020D01*
X125025791Y-70502305D01*
%TA.AperFunction,Conductor*%
G36*
X125025791Y-70502305D02*
G01*
X130203465Y-70502305D01*
X130203465Y-74609020D01*
X125025791Y-74609020D01*
X125025791Y-70502305D01*
G37*
%TD.AperFunction*%
X115550519Y-57487707D02*
X130203465Y-57487707D01*
X130203465Y-70502305D01*
X115550519Y-70502305D01*
X115550519Y-57487707D01*
%TA.AperFunction,Conductor*%
G36*
X115550519Y-57487707D02*
G01*
X130203465Y-57487707D01*
X130203465Y-70502305D01*
X115550519Y-70502305D01*
X115550519Y-57487707D01*
G37*
%TD.AperFunction*%
%TD*%
D11*
%TO.P,Volume1,1,1*%
%TO.N,GND*%
X139446121Y-66446638D03*
%TO.P,Volume1,2,2*%
%TO.N,Net-(Amp1-L)*%
X141946121Y-66446638D03*
%TO.P,Volume1,3,3*%
%TO.N,Net-(R1-Pad1)*%
X144446121Y-66446638D03*
D12*
%TO.P,Volume1,MH1,MH1*%
%TO.N,unconnected-(Volume1-PadMH1)*%
X137196121Y-58946638D03*
%TO.P,Volume1,MH2,MH2*%
%TO.N,unconnected-(Volume1-PadMH2)*%
X146696121Y-58946638D03*
%TD*%
D13*
%TO.P,Pwr1,1,1*%
%TO.N,unconnected-(Pwr1-Pad1)*%
X97369451Y-38894868D03*
D14*
%TO.P,Pwr1,2,2*%
%TO.N,Net-(IN1-Pin_2)*%
X97369451Y-43594868D03*
%TO.P,Pwr1,3,3*%
%TO.N,12V*%
X97369451Y-48294868D03*
%TD*%
D15*
%TO.P,Dimmer1,A1,A1*%
%TO.N,Enc_A*%
X139575813Y-48762237D03*
%TO.P,Dimmer1,B1,B1*%
%TO.N,Enc_B*%
X144575813Y-48762237D03*
%TO.P,Dimmer1,C1,C1*%
%TO.N,GND*%
X142075813Y-48762237D03*
D16*
%TO.P,Dimmer1,MH1,MH1*%
%TO.N,unconnected-(Dimmer1-PadMH1)*%
X147775813Y-41262237D03*
%TO.P,Dimmer1,MH2,MH2*%
%TO.N,unconnected-(Dimmer1-PadMH2)*%
X136375813Y-41262237D03*
%TD*%
D17*
%TO.P,MCU1,1,5V*%
%TO.N,5V*%
X129672442Y-24420409D03*
D18*
%TO.P,MCU1,2,GND*%
%TO.N,GND*%
X129672442Y-26960409D03*
%TO.P,MCU1,3,D4*%
%TO.N,Btn*%
X129672442Y-29500409D03*
%TO.P,MCU1,4,D3*%
%TO.N,DC*%
X129672442Y-32040409D03*
%TO.P,MCU1,5,D2*%
%TO.N,Audio*%
X129672442Y-34580409D03*
%TO.P,MCU1,6,D1*%
%TO.N,LED*%
X129672442Y-37120409D03*
%TO.P,MCU1,7,Rx*%
%TO.N,Enc_B*%
X129672442Y-39660409D03*
%TO.P,MCU1,8,Tx*%
%TO.N,unconnected-(MCU1-Tx-Pad8)*%
X129672442Y-42200409D03*
%TO.P,MCU1,9,Rst*%
%TO.N,unconnected-(MCU1-Rst-Pad9)*%
X106812442Y-42200409D03*
%TO.P,MCU1,10,A0*%
%TO.N,unconnected-(MCU1-A0-Pad10)*%
X106812442Y-39660409D03*
%TO.P,MCU1,11,D0*%
%TO.N,RES*%
X106812442Y-37120409D03*
%TO.P,MCU1,12,D5*%
%TO.N,D0*%
X106812442Y-34580409D03*
%TO.P,MCU1,13,D6*%
%TO.N,Enc_A*%
X106812442Y-32040409D03*
%TO.P,MCU1,14,D7*%
%TO.N,D1*%
X106812442Y-29500409D03*
%TO.P,MCU1,15,D8*%
%TO.N,CS*%
X106812442Y-26960409D03*
%TO.P,MCU1,16,3.3V*%
%TO.N,unconnected-(MCU1-3.3V-Pad16)*%
X106812442Y-24420409D03*
%TD*%
D19*
%TO.P,Amp1,1,L*%
%TO.N,Net-(Amp1-L)*%
X128827702Y-55653679D03*
D20*
%TO.P,Amp1,2,GND*%
%TO.N,GND*%
X126287702Y-55653679D03*
D19*
%TO.P,Amp1,3,R*%
%TO.N,Net-(Amp1-L)*%
X123747702Y-55653679D03*
D20*
%TO.P,Amp1,4,GND*%
%TO.N,GND*%
X121207702Y-55653679D03*
D19*
%TO.P,Amp1,5,VCC*%
%TO.N,5V*%
X118667702Y-55653679D03*
D21*
%TO.P,Amp1,6,V1*%
%TO.N,Net-(Amp1-V1)*%
X123747702Y-72653679D03*
%TO.P,Amp1,7,V2*%
%TO.N,Net-(Amp1-V2)*%
X121247702Y-72653679D03*
%TD*%
D20*
%TO.P,Display1,1,GND*%
%TO.N,GND*%
X110538649Y-24954903D03*
D19*
%TO.P,Display1,2,VCC*%
%TO.N,5V*%
X113078649Y-24954903D03*
%TO.P,Display1,3,D0*%
%TO.N,D0*%
X115618649Y-24954903D03*
%TO.P,Display1,4,D1*%
%TO.N,D1*%
X118158649Y-24954903D03*
%TO.P,Display1,5,RES*%
%TO.N,RES*%
X120698649Y-24954903D03*
%TO.P,Display1,6,DC*%
%TO.N,DC*%
X123238649Y-24954903D03*
%TO.P,Display1,7,CS*%
%TO.N,CS*%
X125778649Y-24954903D03*
%TD*%
D22*
%TO.P,C2,1*%
%TO.N,5V*%
X101866945Y-65174343D03*
D23*
%TO.P,C2,2*%
%TO.N,GND*%
X99866945Y-65174343D03*
%TD*%
D24*
%TO.P,U2,1,IN*%
%TO.N,12V*%
X96575776Y-59678519D03*
D25*
%TO.P,U2,2,GND*%
%TO.N,GND*%
X96575776Y-62218519D03*
%TO.P,U2,3,OUT*%
%TO.N,5V*%
X96575776Y-64758519D03*
%TD*%
D26*
%TO.P,Relay1,6,6*%
%TO.N,Net-(J1-Pad2)*%
X113297934Y-53878437D03*
%TO.P,Relay1,5,5*%
%TO.N,GND*%
X113297934Y-56418437D03*
%TO.P,Relay1,4,4*%
X113297934Y-58958437D03*
%TO.P,Relay1,3,3*%
X105677934Y-58958437D03*
%TO.P,Relay1,2,2*%
X105677934Y-56418437D03*
D27*
%TO.P,Relay1,1,1*%
%TO.N,LED*%
X105677934Y-53878437D03*
%TD*%
D28*
%TO.P,IN1,2,Pin_2*%
%TO.N,Net-(IN1-Pin_2)*%
X97369451Y-30958114D03*
D29*
%TO.P,IN1,1,Pin_1*%
%TO.N,GND*%
X97369451Y-33498114D03*
%TD*%
D30*
%TO.P,R2,1*%
%TO.N,Net-(Amp1-L)*%
X143273771Y-70584692D03*
D31*
%TO.P,R2,2*%
%TO.N,GND*%
X135653771Y-70584692D03*
%TD*%
D30*
%TO.P,R1,1*%
%TO.N,Net-(R1-Pad1)*%
X132670211Y-66178702D03*
D31*
%TO.P,R1,2*%
%TO.N,Audio*%
X132670211Y-58558702D03*
%TD*%
D28*
%TO.P,J1,1*%
%TO.N,12V*%
X106851131Y-71544778D03*
%TO.P,J1,2*%
%TO.N,Net-(J1-Pad2)*%
X109391131Y-71544778D03*
%TO.P,J1,3*%
%TO.N,Net-(Amp1-V1)*%
X111931131Y-71544778D03*
%TO.P,J1,4*%
%TO.N,Net-(Amp1-V2)*%
X114471131Y-71544778D03*
%TD*%
D32*
%TO.P,Strt1,2,2*%
%TO.N,GND*%
X144340890Y-24428719D03*
X144340890Y-30928719D03*
%TO.P,Strt1,1,1*%
%TO.N,Btn*%
X139840890Y-24428719D03*
X139840890Y-30928719D03*
%TD*%
D33*
%TO.P,C1,1*%
%TO.N,12V*%
X97193079Y-53004653D03*
D30*
%TO.P,C1,2*%
%TO.N,GND*%
X97193079Y-55004653D03*
%TD*%
D34*
%TO.N,CS*%
X109016203Y-38694323D03*
X115714268Y-38817223D03*
%TO.N,5V*%
X113932214Y-44005115D03*
D35*
%TO.N,*%
X97369451Y-26000000D03*
X149000000Y-71000000D03*
X97369451Y-71000000D03*
X149000000Y-26000000D03*
D34*
%TO.N,GND*%
X101129673Y-46393953D03*
X101129673Y-55793953D03*
%TO.N,D1*%
X115565665Y-29334255D03*
%TO.N,5V*%
X114186340Y-47524103D03*
%TO.N,Enc_B*%
X139556828Y-45282700D03*
%TO.N,Enc_A*%
X112289768Y-32006697D03*
%TD*%
D36*
%TO.N,GND*%
X129466678Y-70584692D02*
X122876992Y-63995006D01*
X135653771Y-70584692D02*
X129466678Y-70584692D01*
%TO.N,Enc_B*%
X135294733Y-45282700D02*
X129672442Y-39660409D01*
X139556828Y-45282700D02*
X135294733Y-45282700D01*
%TO.N,Net-(R1-Pad1)*%
X144446121Y-65160853D02*
X144446121Y-66446638D01*
X143718990Y-64433722D02*
X144446121Y-65160853D01*
X135140007Y-66178702D02*
X136884987Y-64433722D01*
X132670211Y-66178702D02*
X135140007Y-66178702D01*
X136884987Y-64433722D02*
X143718990Y-64433722D01*
%TO.N,GND*%
X129672442Y-26960409D02*
X140546054Y-37834021D01*
X140546054Y-37834021D02*
X142075813Y-37834021D01*
X142075813Y-37834021D02*
X142075813Y-32392583D01*
X142075813Y-48762237D02*
X142075813Y-37834021D01*
%TO.N,5V*%
X127240649Y-30696680D02*
X113932214Y-44005115D01*
X127240649Y-26852202D02*
X127240649Y-30696680D01*
X129672442Y-24420409D02*
X127240649Y-26852202D01*
%TO.N,CS*%
X107851713Y-26960409D02*
X106812442Y-26960409D01*
X109016203Y-28124899D02*
X107851713Y-26960409D01*
X125778649Y-28752842D02*
X115714268Y-38817223D01*
X125778649Y-24954903D02*
X125778649Y-28752842D01*
X109016203Y-38694323D02*
X109016203Y-28124899D01*
%TO.N,5V*%
X113840648Y-43913549D02*
X113932214Y-44005115D01*
X113840648Y-25716902D02*
X113840648Y-43913549D01*
X113078649Y-24954903D02*
X113840648Y-25716902D01*
%TO.N,GND*%
X109363810Y-57559514D02*
X109363810Y-62645226D01*
X109363810Y-62645226D02*
X111959366Y-62645226D01*
X99866945Y-62645226D02*
X109363810Y-62645226D01*
X110504887Y-56418437D02*
X109363810Y-57559514D01*
X113297934Y-56418437D02*
X110504887Y-56418437D01*
X104755051Y-61062172D02*
X105677934Y-60139289D01*
X101190942Y-61062172D02*
X104755051Y-61062172D01*
X101190942Y-55855222D02*
X101190942Y-61062172D01*
X101129673Y-55793953D02*
X101190942Y-55855222D01*
X105677934Y-60139289D02*
X105677934Y-58958437D01*
X113297934Y-61306658D02*
X113297934Y-58958437D01*
X111959366Y-62645226D02*
X113297934Y-61306658D01*
X101129673Y-46393953D02*
X101129673Y-55793953D01*
X101129673Y-44450596D02*
X101129673Y-46393953D01*
X101188464Y-44391805D02*
X101129673Y-44450596D01*
X99866945Y-62645226D02*
X98414257Y-61192538D01*
X98414257Y-61192538D02*
X99662291Y-59944504D01*
X97388276Y-62218519D02*
X98414257Y-61192538D01*
X99866945Y-65174343D02*
X99866945Y-62645226D01*
X96575776Y-62218519D02*
X97388276Y-62218519D01*
X99662291Y-59944504D02*
X99662291Y-53666811D01*
X99662291Y-53666811D02*
X99662291Y-35790954D01*
X99662291Y-35790954D02*
X98965501Y-35094164D01*
X97193079Y-55004653D02*
X98324449Y-55004653D01*
X98324449Y-55004653D02*
X99662291Y-53666811D01*
X97369451Y-33498114D02*
X98965501Y-35094164D01*
X98965501Y-35094164D02*
X101070883Y-37199546D01*
X101070883Y-37199546D02*
X101070883Y-44274224D01*
X142877026Y-32392583D02*
X142075813Y-32392583D01*
X144340890Y-30928719D02*
X142877026Y-32392583D01*
X144340890Y-24428719D02*
X144340890Y-30928719D01*
X117236347Y-59679404D02*
X122634705Y-59679404D01*
X115944948Y-58501591D02*
X117179554Y-59736197D01*
X115944948Y-52975258D02*
X115944948Y-58501591D01*
X108008194Y-45038504D02*
X115944948Y-52975258D01*
X108008194Y-44391805D02*
X108008194Y-45038504D01*
X117179554Y-59736197D02*
X117236347Y-59679404D01*
X105677934Y-56418437D02*
X101754157Y-56418437D01*
X101754157Y-56418437D02*
X101129673Y-55793953D01*
X108008194Y-44391805D02*
X101188464Y-44391805D01*
X110538649Y-41861350D02*
X108008194Y-44391805D01*
X110538649Y-24954903D02*
X110538649Y-41861350D01*
%TO.N,D1*%
X115565665Y-29334255D02*
X115738080Y-29334255D01*
X118158649Y-26913686D02*
X118158649Y-24954903D01*
X115738080Y-29334255D02*
X118158649Y-26913686D01*
%TO.N,5V*%
X118667702Y-52005465D02*
X114186340Y-47524103D01*
X118667702Y-55653679D02*
X118667702Y-52005465D01*
%TO.N,Enc_A*%
X112375976Y-32092905D02*
X112289768Y-32006697D01*
X112375976Y-45455115D02*
X112375976Y-32092905D01*
X133912950Y-48762237D02*
X130605828Y-45455115D01*
X139575813Y-48762237D02*
X133912950Y-48762237D01*
X112031145Y-32265320D02*
X112289768Y-32006697D01*
%TO.N,GND*%
X142075813Y-51445312D02*
X142075813Y-48762237D01*
X141341801Y-52179324D02*
X142075813Y-51445312D01*
X135479669Y-52179324D02*
X141341801Y-52179324D01*
X128270481Y-59388512D02*
X135479669Y-52179324D01*
X126287702Y-59388512D02*
X128270481Y-59388512D01*
X126287702Y-59388512D02*
X126287702Y-55653679D01*
X125996810Y-59679404D02*
X126287702Y-59388512D01*
X121207702Y-58252401D02*
X122634705Y-59679404D01*
X122634705Y-59679404D02*
X125996810Y-59679404D01*
X121207702Y-55653679D02*
X121207702Y-58252401D01*
%TO.N,Enc_A*%
X130605828Y-45455115D02*
X112375976Y-45455115D01*
%TD*%
M02*
