M48
; DRILL file {KiCad 8.0.8} date 2025-02-02T21:03:05-0800
; FORMAT={-:-/ absolute / inch / decimal}
; #@! TF.CreationDate,2025-02-02T21:03:05-08:00
; #@! TF.GenerationSoftware,Kicad,Pcbnew,8.0.8
; #@! TF.FileFunction,Plated,1,2,PTH
FMAT,2
INCH
; #@! TA.AperFunction,Plated,PTH,ComponentDrill
T1C0.0236
; #@! TA.AperFunction,Plated,PTH,ViaDrill
T2C0.0295
; #@! TA.AperFunction,Plated,PTH,ComponentDrill
T3C0.0300
; #@! TA.AperFunction,Plated,PTH,ComponentDrill
T4C0.0315
; #@! TA.AperFunction,Plated,PTH,ComponentDrill
T5C0.0374
; #@! TA.AperFunction,Plated,PTH,ComponentDrill
T6C0.0394
; #@! TA.AperFunction,Plated,PTH,ComponentDrill
T7C0.0433
; #@! TA.AperFunction,Plated,PTH,ComponentDrill
T8C0.0512
; #@! TA.AperFunction,Plated,PTH,ComponentDrill
T9C0.0728
; #@! TA.AperFunction,Plated,PTH,ViaDrill
T10C0.0827
; #@! TA.AperFunction,Plated,PTH,ComponentDrill
T11C0.0831
; #@! TA.AperFunction,Plated,PTH,ComponentDrill
T12C0.1245
%
G90
G05
T1
X3.9318Y-2.5659
X4.0105Y-2.5659
T2
X3.9815Y-1.8265
X3.9815Y-2.1966
X4.292Y-1.5234
X4.4209Y-1.2601
X4.4855Y-1.7325
X4.4955Y-1.871
X4.5498Y-1.1549
X4.5557Y-1.5282
X5.4944Y-1.7828
T3
X4.3519Y-0.9825
X4.4519Y-0.9825
X4.5519Y-0.9825
X4.6519Y-0.9825
X4.672Y-2.1911
X4.7519Y-0.9825
X4.772Y-2.1911
X4.8519Y-0.9825
X4.872Y-2.1911
X4.9519Y-0.9825
X4.972Y-2.1911
X5.072Y-2.1911
T4
X3.8265Y-2.0868
X3.8265Y-2.1655
X5.2232Y-2.3055
X5.2232Y-2.6055
X5.3407Y-2.7789
X5.6407Y-2.7789
T5
X4.1605Y-2.1212
X4.1605Y-2.2212
X4.1605Y-2.3212
X4.4605Y-2.1212
X4.4605Y-2.2212
X4.4605Y-2.3212
T6
X4.2052Y-0.9614
X4.2052Y-1.0614
X4.2052Y-1.1614
X4.2052Y-1.2614
X4.2052Y-1.3614
X4.2052Y-1.4614
X4.2052Y-1.5614
X4.2052Y-1.6614
X5.1052Y-0.9614
X5.1052Y-1.0614
X5.1052Y-1.1614
X5.1052Y-1.2614
X5.1052Y-1.3614
X5.1052Y-1.4614
X5.1052Y-1.5614
X5.1052Y-1.6614
X5.49Y-2.616
X5.5884Y-2.616
X5.6869Y-2.616
T7
X3.8022Y-2.3495
X3.8022Y-2.4495
X3.8022Y-2.5495
X5.4951Y-1.9198
X5.5055Y-0.9618
X5.5055Y-1.2177
X5.5935Y-1.9198
X5.6827Y-0.9618
X5.6827Y-1.2177
X5.692Y-1.9198
T8
X3.8334Y-1.2188
X3.8334Y-1.3188
X4.2067Y-2.8167
X4.3067Y-2.8167
X4.4067Y-2.8167
X4.5067Y-2.8167
T9
X3.8334Y-1.5313
X3.8334Y-1.7163
X3.8334Y-1.9014
T10
X3.8334Y-1.0236
X3.8334Y-2.7953
X5.8661Y-1.0236
X5.8661Y-2.7953
T11
X5.4014Y-2.3207
X5.7754Y-2.3207
T12
X5.3691Y-1.6245
X5.8179Y-1.6245
T3
G00X4.7735Y-2.8754
M15
G01X4.7735Y-2.8454
M16
G05
G00X4.872Y-2.8754
M15
G01X4.872Y-2.8454
M16
G05
M30
