<?xml version="1.0" standalone="no"?>
 <!DOCTYPE svg PUBLIC "-//W3C//DTD SVG 1.1//EN" 
 "http://www.w3.org/Graphics/SVG/1.1/DTD/svg11.dtd"> 
<svg
  xmlns:svg="http://www.w3.org/2000/svg"
  xmlns="http://www.w3.org/2000/svg"
  xmlns:xlink="http://www.w3.org/1999/xlink"
  version="1.1"
  width="297.0022mm" height="210.0072mm" viewBox="0.0000 0.0000 297.0022 210.0072">
<title>SVG Image created as 40Hz_S2-NPTH-drl_map.svg date 2025/05/21 11:42:50 </title>
  <desc>Image generated by PCBNEW </desc>
<g style="fill:#000000; fill-opacity:1.0000;stroke:#000000; stroke-opacity:1.0000;
stroke-linecap:round; stroke-linejoin:round;"
 transform="translate(0 0) scale(1 1)">
<path style="fill:none; 
stroke:#000000; stroke-width:0.1323; stroke-opacity:1; 
stroke-linecap:round; stroke-linejoin:round;fill:none"
d="M 70.1287,5.0661
226.8735,5.0661
226.8735,120.9382
70.1287,120.9382
Z" /> 
</g>
<g style="fill:none; 
stroke:#000000; stroke-width:0.6085; stroke-opacity:1; 
stroke-linecap:round; stroke-linejoin:round;">
<path d="M115.4987 67.9229
L121.5833 74.0075
" />
<path d="M121.5833 67.9229
L115.4987 74.0075
" />
</g>
<g style="fill:none; 
stroke:#000000; stroke-width:0.2645; stroke-opacity:1; 
stroke-linecap:round; stroke-linejoin:round;">
<path d="M115.2342 74.0075
L121.8479 74.0075
" />
<path d="M121.8479 74.0075 A3.0423 3.0423 0.0 0 0 121.8479 67.9229" />
<path d="M121.8479 67.9229
L115.2342 67.9229
" />
<path d="M115.2342 67.9229 A3.0423 3.0423 0.0 0 0 115.2342 74.0075" />
</g>
<g style="fill:none; 
stroke:#000000; stroke-width:0.6085; stroke-opacity:1; 
stroke-linecap:round; stroke-linejoin:round;">
<path d="M172.1120 67.9229
L178.1966 74.0075
" />
<path d="M178.1966 67.9229
L172.1120 74.0075
" />
</g>
<g style="fill:none; 
stroke:#000000; stroke-width:0.2645; stroke-opacity:1; 
stroke-linecap:round; stroke-linejoin:round;">
<path d="M171.8475 74.0075
L178.4612 74.0075
" />
<path d="M178.4612 74.0075 A3.0423 3.0423 0.0 0 0 178.4612 67.9229" />
<path d="M178.4612 67.9229
L171.8475 67.9229
" />
<path d="M171.8475 67.9229 A3.0423 3.0423 0.0 0 0 171.8475 74.0075" />
</g>
<g style="fill:none; 
stroke:#000000; stroke-width:0.2000; stroke-opacity:1; 
stroke-linecap:round; stroke-linejoin:round;">
<text x="72.0626" y="124.2043"
textLength="14.8667" font-size="2.6667" lengthAdjust="spacingAndGlyphs"
text-anchor="start" opacity="0" stroke-opacity="0">Drill Map:</text>
<g class="stroked-text"><desc>Drill Map:</desc>
<path d="M72.6704 124.1192
L72.6704 122.1192
" />
<path d="M72.6704 122.1192
L73.1466 122.1192
" />
<path d="M73.1466 122.1192
L73.4323 122.2144
" />
<path d="M73.4323 122.2144
L73.6228 122.4049
" />
<path d="M73.6228 122.4049
L73.7180 122.5953
" />
<path d="M73.7180 122.5953
L73.8132 122.9763
" />
<path d="M73.8132 122.9763
L73.8132 123.2620
" />
<path d="M73.8132 123.2620
L73.7180 123.6430
" />
<path d="M73.7180 123.6430
L73.6228 123.8334
" />
<path d="M73.6228 123.8334
L73.4323 124.0239
" />
<path d="M73.4323 124.0239
L73.1466 124.1192
" />
<path d="M73.1466 124.1192
L72.6704 124.1192
" />
<path d="M74.6704 124.1192
L74.6704 122.7858
" />
<path d="M74.6704 123.1668
L74.7656 122.9763
" />
<path d="M74.7656 122.9763
L74.8608 122.8811
" />
<path d="M74.8608 122.8811
L75.0513 122.7858
" />
<path d="M75.0513 122.7858
L75.2418 122.7858
" />
<path d="M75.9085 124.1192
L75.9085 122.7858
" />
<path d="M75.9085 122.1192
L75.8132 122.2144
" />
<path d="M75.8132 122.2144
L75.9085 122.3096
" />
<path d="M75.9085 122.3096
L76.0037 122.2144
" />
<path d="M76.0037 122.2144
L75.9085 122.1192
" />
<path d="M75.9085 122.1192
L75.9085 122.3096
" />
<path d="M77.1466 124.1192
L76.9561 124.0239
" />
<path d="M76.9561 124.0239
L76.8608 123.8334
" />
<path d="M76.8608 123.8334
L76.8608 122.1192
" />
<path d="M78.1942 124.1192
L78.0037 124.0239
" />
<path d="M78.0037 124.0239
L77.9085 123.8334
" />
<path d="M77.9085 123.8334
L77.9085 122.1192
" />
<path d="M80.4799 124.1192
L80.4799 122.1192
" />
<path d="M80.4799 122.1192
L81.1466 123.5477
" />
<path d="M81.1466 123.5477
L81.8132 122.1192
" />
<path d="M81.8132 122.1192
L81.8132 124.1192
" />
<path d="M83.6227 124.1192
L83.6227 123.0715
" />
<path d="M83.6227 123.0715
L83.5275 122.8811
" />
<path d="M83.5275 122.8811
L83.3370 122.7858
" />
<path d="M83.3370 122.7858
L82.9561 122.7858
" />
<path d="M82.9561 122.7858
L82.7656 122.8811
" />
<path d="M83.6227 124.0239
L83.4323 124.1192
" />
<path d="M83.4323 124.1192
L82.9561 124.1192
" />
<path d="M82.9561 124.1192
L82.7656 124.0239
" />
<path d="M82.7656 124.0239
L82.6704 123.8334
" />
<path d="M82.6704 123.8334
L82.6704 123.6430
" />
<path d="M82.6704 123.6430
L82.7656 123.4525
" />
<path d="M82.7656 123.4525
L82.9561 123.3573
" />
<path d="M82.9561 123.3573
L83.4323 123.3573
" />
<path d="M83.4323 123.3573
L83.6227 123.2620
" />
<path d="M84.5751 122.7858
L84.5751 124.7858
" />
<path d="M84.5751 122.8811
L84.7656 122.7858
" />
<path d="M84.7656 122.7858
L85.1466 122.7858
" />
<path d="M85.1466 122.7858
L85.3370 122.8811
" />
<path d="M85.3370 122.8811
L85.4323 122.9763
" />
<path d="M85.4323 122.9763
L85.5275 123.1668
" />
<path d="M85.5275 123.1668
L85.5275 123.7382
" />
<path d="M85.5275 123.7382
L85.4323 123.9287
" />
<path d="M85.4323 123.9287
L85.3370 124.0239
" />
<path d="M85.3370 124.0239
L85.1466 124.1192
" />
<path d="M85.1466 124.1192
L84.7656 124.1192
" />
<path d="M84.7656 124.1192
L84.5751 124.0239
" />
<path d="M86.3846 123.9287
L86.4799 124.0239
" />
<path d="M86.4799 124.0239
L86.3846 124.1192
" />
<path d="M86.3846 124.1192
L86.2894 124.0239
" />
<path d="M86.2894 124.0239
L86.3846 123.9287
" />
<path d="M86.3846 123.9287
L86.3846 124.1192
" />
<path d="M86.3846 122.8811
L86.4799 122.9763
" />
<path d="M86.4799 122.9763
L86.3846 123.0715
" />
<path d="M86.3846 123.0715
L86.2894 122.9763
" />
<path d="M86.2894 122.9763
L86.3846 122.8811
" />
<path d="M86.3846 122.8811
L86.3846 123.0715
" />
</g></g>
<g style="fill:none; 
stroke:#000000; stroke-width:0.2645; stroke-opacity:1; 
stroke-linecap:round; stroke-linejoin:round;">
<path d="M68.0626 126.4043
L70.0626 128.4043
" />
<path d="M70.0626 126.4043
L68.0626 128.4043
" />
</g>
<g style="fill:none; 
stroke:#000000; stroke-width:0.2000; stroke-opacity:1; 
stroke-linecap:round; stroke-linejoin:round;">
<text x="72.0626" y="128.4043"
textLength="82.8666" font-size="2.6667" lengthAdjust="spacingAndGlyphs"
text-anchor="start" opacity="0" stroke-opacity="0">2.300mm / 0.0906" (0 holes + 2 slots) (not plated)</text>
<g class="stroked-text"><desc>2.300mm / 0.0906" (0 holes + 2 slots) (not plated)</desc>
<path d="M72.5751 126.5096
L72.6704 126.4144
" />
<path d="M72.6704 126.4144
L72.8608 126.3192
" />
<path d="M72.8608 126.3192
L73.3370 126.3192
" />
<path d="M73.3370 126.3192
L73.5275 126.4144
" />
<path d="M73.5275 126.4144
L73.6228 126.5096
" />
<path d="M73.6228 126.5096
L73.7180 126.7001
" />
<path d="M73.7180 126.7001
L73.7180 126.8906
" />
<path d="M73.7180 126.8906
L73.6228 127.1763
" />
<path d="M73.6228 127.1763
L72.4799 128.3192
" />
<path d="M72.4799 128.3192
L73.7180 128.3192
" />
<path d="M74.5751 128.1287
L74.6704 128.2239
" />
<path d="M74.6704 128.2239
L74.5751 128.3192
" />
<path d="M74.5751 128.3192
L74.4799 128.2239
" />
<path d="M74.4799 128.2239
L74.5751 128.1287
" />
<path d="M74.5751 128.1287
L74.5751 128.3192
" />
<path d="M75.3370 126.3192
L76.5751 126.3192
" />
<path d="M76.5751 126.3192
L75.9085 127.0811
" />
<path d="M75.9085 127.0811
L76.1942 127.0811
" />
<path d="M76.1942 127.0811
L76.3847 127.1763
" />
<path d="M76.3847 127.1763
L76.4799 127.2715
" />
<path d="M76.4799 127.2715
L76.5751 127.4620
" />
<path d="M76.5751 127.4620
L76.5751 127.9382
" />
<path d="M76.5751 127.9382
L76.4799 128.1287
" />
<path d="M76.4799 128.1287
L76.3847 128.2239
" />
<path d="M76.3847 128.2239
L76.1942 128.3192
" />
<path d="M76.1942 128.3192
L75.6228 128.3192
" />
<path d="M75.6228 128.3192
L75.4323 128.2239
" />
<path d="M75.4323 128.2239
L75.3370 128.1287
" />
<path d="M77.8132 126.3192
L78.0037 126.3192
" />
<path d="M78.0037 126.3192
L78.1942 126.4144
" />
<path d="M78.1942 126.4144
L78.2894 126.5096
" />
<path d="M78.2894 126.5096
L78.3847 126.7001
" />
<path d="M78.3847 126.7001
L78.4799 127.0811
" />
<path d="M78.4799 127.0811
L78.4799 127.5573
" />
<path d="M78.4799 127.5573
L78.3847 127.9382
" />
<path d="M78.3847 127.9382
L78.2894 128.1287
" />
<path d="M78.2894 128.1287
L78.1942 128.2239
" />
<path d="M78.1942 128.2239
L78.0037 128.3192
" />
<path d="M78.0037 128.3192
L77.8132 128.3192
" />
<path d="M77.8132 128.3192
L77.6228 128.2239
" />
<path d="M77.6228 128.2239
L77.5275 128.1287
" />
<path d="M77.5275 128.1287
L77.4323 127.9382
" />
<path d="M77.4323 127.9382
L77.3370 127.5573
" />
<path d="M77.3370 127.5573
L77.3370 127.0811
" />
<path d="M77.3370 127.0811
L77.4323 126.7001
" />
<path d="M77.4323 126.7001
L77.5275 126.5096
" />
<path d="M77.5275 126.5096
L77.6228 126.4144
" />
<path d="M77.6228 126.4144
L77.8132 126.3192
" />
<path d="M79.7180 126.3192
L79.9085 126.3192
" />
<path d="M79.9085 126.3192
L80.0989 126.4144
" />
<path d="M80.0989 126.4144
L80.1942 126.5096
" />
<path d="M80.1942 126.5096
L80.2894 126.7001
" />
<path d="M80.2894 126.7001
L80.3847 127.0811
" />
<path d="M80.3847 127.0811
L80.3847 127.5573
" />
<path d="M80.3847 127.5573
L80.2894 127.9382
" />
<path d="M80.2894 127.9382
L80.1942 128.1287
" />
<path d="M80.1942 128.1287
L80.0989 128.2239
" />
<path d="M80.0989 128.2239
L79.9085 128.3192
" />
<path d="M79.9085 128.3192
L79.7180 128.3192
" />
<path d="M79.7180 128.3192
L79.5275 128.2239
" />
<path d="M79.5275 128.2239
L79.4323 128.1287
" />
<path d="M79.4323 128.1287
L79.3370 127.9382
" />
<path d="M79.3370 127.9382
L79.2418 127.5573
" />
<path d="M79.2418 127.5573
L79.2418 127.0811
" />
<path d="M79.2418 127.0811
L79.3370 126.7001
" />
<path d="M79.3370 126.7001
L79.4323 126.5096
" />
<path d="M79.4323 126.5096
L79.5275 126.4144
" />
<path d="M79.5275 126.4144
L79.7180 126.3192
" />
<path d="M81.2418 128.3192
L81.2418 126.9858
" />
<path d="M81.2418 127.1763
L81.3370 127.0811
" />
<path d="M81.3370 127.0811
L81.5275 126.9858
" />
<path d="M81.5275 126.9858
L81.8132 126.9858
" />
<path d="M81.8132 126.9858
L82.0037 127.0811
" />
<path d="M82.0037 127.0811
L82.0989 127.2715
" />
<path d="M82.0989 127.2715
L82.0989 128.3192
" />
<path d="M82.0989 127.2715
L82.1942 127.0811
" />
<path d="M82.1942 127.0811
L82.3847 126.9858
" />
<path d="M82.3847 126.9858
L82.6704 126.9858
" />
<path d="M82.6704 126.9858
L82.8608 127.0811
" />
<path d="M82.8608 127.0811
L82.9561 127.2715
" />
<path d="M82.9561 127.2715
L82.9561 128.3192
" />
<path d="M83.9085 128.3192
L83.9085 126.9858
" />
<path d="M83.9085 127.1763
L84.0037 127.0811
" />
<path d="M84.0037 127.0811
L84.1942 126.9858
" />
<path d="M84.1942 126.9858
L84.4799 126.9858
" />
<path d="M84.4799 126.9858
L84.6704 127.0811
" />
<path d="M84.6704 127.0811
L84.7656 127.2715
" />
<path d="M84.7656 127.2715
L84.7656 128.3192
" />
<path d="M84.7656 127.2715
L84.8608 127.0811
" />
<path d="M84.8608 127.0811
L85.0513 126.9858
" />
<path d="M85.0513 126.9858
L85.3370 126.9858
" />
<path d="M85.3370 126.9858
L85.5275 127.0811
" />
<path d="M85.5275 127.0811
L85.6227 127.2715
" />
<path d="M85.6227 127.2715
L85.6227 128.3192
" />
<path d="M89.5275 126.2239
L87.8132 128.7953
" />
<path d="M92.0989 126.3192
L92.2894 126.3192
" />
<path d="M92.2894 126.3192
L92.4799 126.4144
" />
<path d="M92.4799 126.4144
L92.5751 126.5096
" />
<path d="M92.5751 126.5096
L92.6704 126.7001
" />
<path d="M92.6704 126.7001
L92.7656 127.0811
" />
<path d="M92.7656 127.0811
L92.7656 127.5573
" />
<path d="M92.7656 127.5573
L92.6704 127.9382
" />
<path d="M92.6704 127.9382
L92.5751 128.1287
" />
<path d="M92.5751 128.1287
L92.4799 128.2239
" />
<path d="M92.4799 128.2239
L92.2894 128.3192
" />
<path d="M92.2894 128.3192
L92.0989 128.3192
" />
<path d="M92.0989 128.3192
L91.9085 128.2239
" />
<path d="M91.9085 128.2239
L91.8132 128.1287
" />
<path d="M91.8132 128.1287
L91.7180 127.9382
" />
<path d="M91.7180 127.9382
L91.6227 127.5573
" />
<path d="M91.6227 127.5573
L91.6227 127.0811
" />
<path d="M91.6227 127.0811
L91.7180 126.7001
" />
<path d="M91.7180 126.7001
L91.8132 126.5096
" />
<path d="M91.8132 126.5096
L91.9085 126.4144
" />
<path d="M91.9085 126.4144
L92.0989 126.3192
" />
<path d="M93.6227 128.1287
L93.7180 128.2239
" />
<path d="M93.7180 128.2239
L93.6227 128.3192
" />
<path d="M93.6227 128.3192
L93.5275 128.2239
" />
<path d="M93.5275 128.2239
L93.6227 128.1287
" />
<path d="M93.6227 128.1287
L93.6227 128.3192
" />
<path d="M94.9561 126.3192
L95.1466 126.3192
" />
<path d="M95.1466 126.3192
L95.3370 126.4144
" />
<path d="M95.3370 126.4144
L95.4323 126.5096
" />
<path d="M95.4323 126.5096
L95.5275 126.7001
" />
<path d="M95.5275 126.7001
L95.6227 127.0811
" />
<path d="M95.6227 127.0811
L95.6227 127.5573
" />
<path d="M95.6227 127.5573
L95.5275 127.9382
" />
<path d="M95.5275 127.9382
L95.4323 128.1287
" />
<path d="M95.4323 128.1287
L95.3370 128.2239
" />
<path d="M95.3370 128.2239
L95.1466 128.3192
" />
<path d="M95.1466 128.3192
L94.9561 128.3192
" />
<path d="M94.9561 128.3192
L94.7656 128.2239
" />
<path d="M94.7656 128.2239
L94.6704 128.1287
" />
<path d="M94.6704 128.1287
L94.5751 127.9382
" />
<path d="M94.5751 127.9382
L94.4799 127.5573
" />
<path d="M94.4799 127.5573
L94.4799 127.0811
" />
<path d="M94.4799 127.0811
L94.5751 126.7001
" />
<path d="M94.5751 126.7001
L94.6704 126.5096
" />
<path d="M94.6704 126.5096
L94.7656 126.4144
" />
<path d="M94.7656 126.4144
L94.9561 126.3192
" />
<path d="M96.5751 128.3192
L96.9561 128.3192
" />
<path d="M96.9561 128.3192
L97.1466 128.2239
" />
<path d="M97.1466 128.2239
L97.2418 128.1287
" />
<path d="M97.2418 128.1287
L97.4323 127.8430
" />
<path d="M97.4323 127.8430
L97.5275 127.4620
" />
<path d="M97.5275 127.4620
L97.5275 126.7001
" />
<path d="M97.5275 126.7001
L97.4323 126.5096
" />
<path d="M97.4323 126.5096
L97.3370 126.4144
" />
<path d="M97.3370 126.4144
L97.1466 126.3192
" />
<path d="M97.1466 126.3192
L96.7656 126.3192
" />
<path d="M96.7656 126.3192
L96.5751 126.4144
" />
<path d="M96.5751 126.4144
L96.4799 126.5096
" />
<path d="M96.4799 126.5096
L96.3847 126.7001
" />
<path d="M96.3847 126.7001
L96.3847 127.1763
" />
<path d="M96.3847 127.1763
L96.4799 127.3668
" />
<path d="M96.4799 127.3668
L96.5751 127.4620
" />
<path d="M96.5751 127.4620
L96.7656 127.5573
" />
<path d="M96.7656 127.5573
L97.1466 127.5573
" />
<path d="M97.1466 127.5573
L97.3370 127.4620
" />
<path d="M97.3370 127.4620
L97.4323 127.3668
" />
<path d="M97.4323 127.3668
L97.5275 127.1763
" />
<path d="M98.7656 126.3192
L98.9561 126.3192
" />
<path d="M98.9561 126.3192
L99.1466 126.4144
" />
<path d="M99.1466 126.4144
L99.2418 126.5096
" />
<path d="M99.2418 126.5096
L99.3370 126.7001
" />
<path d="M99.3370 126.7001
L99.4323 127.0811
" />
<path d="M99.4323 127.0811
L99.4323 127.5573
" />
<path d="M99.4323 127.5573
L99.3370 127.9382
" />
<path d="M99.3370 127.9382
L99.2418 128.1287
" />
<path d="M99.2418 128.1287
L99.1466 128.2239
" />
<path d="M99.1466 128.2239
L98.9561 128.3192
" />
<path d="M98.9561 128.3192
L98.7656 128.3192
" />
<path d="M98.7656 128.3192
L98.5751 128.2239
" />
<path d="M98.5751 128.2239
L98.4799 128.1287
" />
<path d="M98.4799 128.1287
L98.3847 127.9382
" />
<path d="M98.3847 127.9382
L98.2894 127.5573
" />
<path d="M98.2894 127.5573
L98.2894 127.0811
" />
<path d="M98.2894 127.0811
L98.3847 126.7001
" />
<path d="M98.3847 126.7001
L98.4799 126.5096
" />
<path d="M98.4799 126.5096
L98.5751 126.4144
" />
<path d="M98.5751 126.4144
L98.7656 126.3192
" />
<path d="M101.1466 126.3192
L100.7656 126.3192
" />
<path d="M100.7656 126.3192
L100.5751 126.4144
" />
<path d="M100.5751 126.4144
L100.4799 126.5096
" />
<path d="M100.4799 126.5096
L100.2894 126.7953
" />
<path d="M100.2894 126.7953
L100.1942 127.1763
" />
<path d="M100.1942 127.1763
L100.1942 127.9382
" />
<path d="M100.1942 127.9382
L100.2894 128.1287
" />
<path d="M100.2894 128.1287
L100.3847 128.2239
" />
<path d="M100.3847 128.2239
L100.5751 128.3192
" />
<path d="M100.5751 128.3192
L100.9561 128.3192
" />
<path d="M100.9561 128.3192
L101.1466 128.2239
" />
<path d="M101.1466 128.2239
L101.2418 128.1287
" />
<path d="M101.2418 128.1287
L101.3370 127.9382
" />
<path d="M101.3370 127.9382
L101.3370 127.4620
" />
<path d="M101.3370 127.4620
L101.2418 127.2715
" />
<path d="M101.2418 127.2715
L101.1466 127.1763
" />
<path d="M101.1466 127.1763
L100.9561 127.0811
" />
<path d="M100.9561 127.0811
L100.5751 127.0811
" />
<path d="M100.5751 127.0811
L100.3847 127.1763
" />
<path d="M100.3847 127.1763
L100.2894 127.2715
" />
<path d="M100.2894 127.2715
L100.1942 127.4620
" />
<path d="M102.0989 126.3192
L102.0989 126.7001
" />
<path d="M102.8608 126.3192
L102.8608 126.7001
" />
<path d="M105.8132 129.0811
L105.7180 128.9858
" />
<path d="M105.7180 128.9858
L105.5275 128.7001
" />
<path d="M105.5275 128.7001
L105.4323 128.5096
" />
<path d="M105.4323 128.5096
L105.3370 128.2239
" />
<path d="M105.3370 128.2239
L105.2418 127.7477
" />
<path d="M105.2418 127.7477
L105.2418 127.3668
" />
<path d="M105.2418 127.3668
L105.3370 126.8906
" />
<path d="M105.3370 126.8906
L105.4323 126.6049
" />
<path d="M105.4323 126.6049
L105.5275 126.4144
" />
<path d="M105.5275 126.4144
L105.7180 126.1287
" />
<path d="M105.7180 126.1287
L105.8132 126.0334
" />
<path d="M106.9561 126.3192
L107.1466 126.3192
" />
<path d="M107.1466 126.3192
L107.3370 126.4144
" />
<path d="M107.3370 126.4144
L107.4323 126.5096
" />
<path d="M107.4323 126.5096
L107.5275 126.7001
" />
<path d="M107.5275 126.7001
L107.6227 127.0811
" />
<path d="M107.6227 127.0811
L107.6227 127.5573
" />
<path d="M107.6227 127.5573
L107.5275 127.9382
" />
<path d="M107.5275 127.9382
L107.4323 128.1287
" />
<path d="M107.4323 128.1287
L107.3370 128.2239
" />
<path d="M107.3370 128.2239
L107.1466 128.3192
" />
<path d="M107.1466 128.3192
L106.9561 128.3192
" />
<path d="M106.9561 128.3192
L106.7656 128.2239
" />
<path d="M106.7656 128.2239
L106.6704 128.1287
" />
<path d="M106.6704 128.1287
L106.5751 127.9382
" />
<path d="M106.5751 127.9382
L106.4799 127.5573
" />
<path d="M106.4799 127.5573
L106.4799 127.0811
" />
<path d="M106.4799 127.0811
L106.5751 126.7001
" />
<path d="M106.5751 126.7001
L106.6704 126.5096
" />
<path d="M106.6704 126.5096
L106.7656 126.4144
" />
<path d="M106.7656 126.4144
L106.9561 126.3192
" />
<path d="M110.0037 128.3192
L110.0037 126.3192
" />
<path d="M110.8608 128.3192
L110.8608 127.2715
" />
<path d="M110.8608 127.2715
L110.7656 127.0811
" />
<path d="M110.7656 127.0811
L110.5751 126.9858
" />
<path d="M110.5751 126.9858
L110.2894 126.9858
" />
<path d="M110.2894 126.9858
L110.0989 127.0811
" />
<path d="M110.0989 127.0811
L110.0037 127.1763
" />
<path d="M112.0989 128.3192
L111.9085 128.2239
" />
<path d="M111.9085 128.2239
L111.8132 128.1287
" />
<path d="M111.8132 128.1287
L111.7180 127.9382
" />
<path d="M111.7180 127.9382
L111.7180 127.3668
" />
<path d="M111.7180 127.3668
L111.8132 127.1763
" />
<path d="M111.8132 127.1763
L111.9085 127.0811
" />
<path d="M111.9085 127.0811
L112.0989 126.9858
" />
<path d="M112.0989 126.9858
L112.3847 126.9858
" />
<path d="M112.3847 126.9858
L112.5751 127.0811
" />
<path d="M112.5751 127.0811
L112.6704 127.1763
" />
<path d="M112.6704 127.1763
L112.7656 127.3668
" />
<path d="M112.7656 127.3668
L112.7656 127.9382
" />
<path d="M112.7656 127.9382
L112.6704 128.1287
" />
<path d="M112.6704 128.1287
L112.5751 128.2239
" />
<path d="M112.5751 128.2239
L112.3847 128.3192
" />
<path d="M112.3847 128.3192
L112.0989 128.3192
" />
<path d="M113.9085 128.3192
L113.7180 128.2239
" />
<path d="M113.7180 128.2239
L113.6227 128.0334
" />
<path d="M113.6227 128.0334
L113.6227 126.3192
" />
<path d="M115.4323 128.2239
L115.2418 128.3192
" />
<path d="M115.2418 128.3192
L114.8608 128.3192
" />
<path d="M114.8608 128.3192
L114.6704 128.2239
" />
<path d="M114.6704 128.2239
L114.5751 128.0334
" />
<path d="M114.5751 128.0334
L114.5751 127.2715
" />
<path d="M114.5751 127.2715
L114.6704 127.0811
" />
<path d="M114.6704 127.0811
L114.8608 126.9858
" />
<path d="M114.8608 126.9858
L115.2418 126.9858
" />
<path d="M115.2418 126.9858
L115.4323 127.0811
" />
<path d="M115.4323 127.0811
L115.5275 127.2715
" />
<path d="M115.5275 127.2715
L115.5275 127.4620
" />
<path d="M115.5275 127.4620
L114.5751 127.6525
" />
<path d="M116.2894 128.2239
L116.4799 128.3192
" />
<path d="M116.4799 128.3192
L116.8608 128.3192
" />
<path d="M116.8608 128.3192
L117.0513 128.2239
" />
<path d="M117.0513 128.2239
L117.1466 128.0334
" />
<path d="M117.1466 128.0334
L117.1466 127.9382
" />
<path d="M117.1466 127.9382
L117.0513 127.7477
" />
<path d="M117.0513 127.7477
L116.8608 127.6525
" />
<path d="M116.8608 127.6525
L116.5751 127.6525
" />
<path d="M116.5751 127.6525
L116.3846 127.5573
" />
<path d="M116.3846 127.5573
L116.2894 127.3668
" />
<path d="M116.2894 127.3668
L116.2894 127.2715
" />
<path d="M116.2894 127.2715
L116.3846 127.0811
" />
<path d="M116.3846 127.0811
L116.5751 126.9858
" />
<path d="M116.5751 126.9858
L116.8608 126.9858
" />
<path d="M116.8608 126.9858
L117.0513 127.0811
" />
<path d="M119.5275 127.5573
L121.0513 127.5573
" />
<path d="M120.2894 128.3192
L120.2894 126.7953
" />
<path d="M123.4323 126.5096
L123.5275 126.4144
" />
<path d="M123.5275 126.4144
L123.7180 126.3192
" />
<path d="M123.7180 126.3192
L124.1942 126.3192
" />
<path d="M124.1942 126.3192
L124.3846 126.4144
" />
<path d="M124.3846 126.4144
L124.4799 126.5096
" />
<path d="M124.4799 126.5096
L124.5751 126.7001
" />
<path d="M124.5751 126.7001
L124.5751 126.8906
" />
<path d="M124.5751 126.8906
L124.4799 127.1763
" />
<path d="M124.4799 127.1763
L123.3370 128.3192
" />
<path d="M123.3370 128.3192
L124.5751 128.3192
" />
<path d="M126.8608 128.2239
L127.0513 128.3192
" />
<path d="M127.0513 128.3192
L127.4323 128.3192
" />
<path d="M127.4323 128.3192
L127.6227 128.2239
" />
<path d="M127.6227 128.2239
L127.7180 128.0334
" />
<path d="M127.7180 128.0334
L127.7180 127.9382
" />
<path d="M127.7180 127.9382
L127.6227 127.7477
" />
<path d="M127.6227 127.7477
L127.4323 127.6525
" />
<path d="M127.4323 127.6525
L127.1466 127.6525
" />
<path d="M127.1466 127.6525
L126.9561 127.5573
" />
<path d="M126.9561 127.5573
L126.8608 127.3668
" />
<path d="M126.8608 127.3668
L126.8608 127.2715
" />
<path d="M126.8608 127.2715
L126.9561 127.0811
" />
<path d="M126.9561 127.0811
L127.1466 126.9858
" />
<path d="M127.1466 126.9858
L127.4323 126.9858
" />
<path d="M127.4323 126.9858
L127.6227 127.0811
" />
<path d="M128.8608 128.3192
L128.6704 128.2239
" />
<path d="M128.6704 128.2239
L128.5751 128.0334
" />
<path d="M128.5751 128.0334
L128.5751 126.3192
" />
<path d="M129.9085 128.3192
L129.7180 128.2239
" />
<path d="M129.7180 128.2239
L129.6227 128.1287
" />
<path d="M129.6227 128.1287
L129.5275 127.9382
" />
<path d="M129.5275 127.9382
L129.5275 127.3668
" />
<path d="M129.5275 127.3668
L129.6227 127.1763
" />
<path d="M129.6227 127.1763
L129.7180 127.0811
" />
<path d="M129.7180 127.0811
L129.9085 126.9858
" />
<path d="M129.9085 126.9858
L130.1942 126.9858
" />
<path d="M130.1942 126.9858
L130.3846 127.0811
" />
<path d="M130.3846 127.0811
L130.4799 127.1763
" />
<path d="M130.4799 127.1763
L130.5751 127.3668
" />
<path d="M130.5751 127.3668
L130.5751 127.9382
" />
<path d="M130.5751 127.9382
L130.4799 128.1287
" />
<path d="M130.4799 128.1287
L130.3846 128.2239
" />
<path d="M130.3846 128.2239
L130.1942 128.3192
" />
<path d="M130.1942 128.3192
L129.9085 128.3192
" />
<path d="M131.1465 126.9858
L131.9085 126.9858
" />
<path d="M131.4323 126.3192
L131.4323 128.0334
" />
<path d="M131.4323 128.0334
L131.5275 128.2239
" />
<path d="M131.5275 128.2239
L131.7180 128.3192
" />
<path d="M131.7180 128.3192
L131.9085 128.3192
" />
<path d="M132.4799 128.2239
L132.6704 128.3192
" />
<path d="M132.6704 128.3192
L133.0513 128.3192
" />
<path d="M133.0513 128.3192
L133.2418 128.2239
" />
<path d="M133.2418 128.2239
L133.3370 128.0334
" />
<path d="M133.3370 128.0334
L133.3370 127.9382
" />
<path d="M133.3370 127.9382
L133.2418 127.7477
" />
<path d="M133.2418 127.7477
L133.0513 127.6525
" />
<path d="M133.0513 127.6525
L132.7656 127.6525
" />
<path d="M132.7656 127.6525
L132.5751 127.5573
" />
<path d="M132.5751 127.5573
L132.4799 127.3668
" />
<path d="M132.4799 127.3668
L132.4799 127.2715
" />
<path d="M132.4799 127.2715
L132.5751 127.0811
" />
<path d="M132.5751 127.0811
L132.7656 126.9858
" />
<path d="M132.7656 126.9858
L133.0513 126.9858
" />
<path d="M133.0513 126.9858
L133.2418 127.0811
" />
<path d="M134.0037 129.0811
L134.0989 128.9858
" />
<path d="M134.0989 128.9858
L134.2894 128.7001
" />
<path d="M134.2894 128.7001
L134.3846 128.5096
" />
<path d="M134.3846 128.5096
L134.4799 128.2239
" />
<path d="M134.4799 128.2239
L134.5751 127.7477
" />
<path d="M134.5751 127.7477
L134.5751 127.3668
" />
<path d="M134.5751 127.3668
L134.4799 126.8906
" />
<path d="M134.4799 126.8906
L134.3846 126.6049
" />
<path d="M134.3846 126.6049
L134.2894 126.4144
" />
<path d="M134.2894 126.4144
L134.0989 126.1287
" />
<path d="M134.0989 126.1287
L134.0037 126.0334
" />
<path d="M137.6227 129.0811
L137.5275 128.9858
" />
<path d="M137.5275 128.9858
L137.3370 128.7001
" />
<path d="M137.3370 128.7001
L137.2418 128.5096
" />
<path d="M137.2418 128.5096
L137.1465 128.2239
" />
<path d="M137.1465 128.2239
L137.0513 127.7477
" />
<path d="M137.0513 127.7477
L137.0513 127.3668
" />
<path d="M137.0513 127.3668
L137.1465 126.8906
" />
<path d="M137.1465 126.8906
L137.2418 126.6049
" />
<path d="M137.2418 126.6049
L137.3370 126.4144
" />
<path d="M137.3370 126.4144
L137.5275 126.1287
" />
<path d="M137.5275 126.1287
L137.6227 126.0334
" />
<path d="M138.3846 126.9858
L138.3846 128.3192
" />
<path d="M138.3846 127.1763
L138.4799 127.0811
" />
<path d="M138.4799 127.0811
L138.6704 126.9858
" />
<path d="M138.6704 126.9858
L138.9561 126.9858
" />
<path d="M138.9561 126.9858
L139.1465 127.0811
" />
<path d="M139.1465 127.0811
L139.2418 127.2715
" />
<path d="M139.2418 127.2715
L139.2418 128.3192
" />
<path d="M140.4799 128.3192
L140.2894 128.2239
" />
<path d="M140.2894 128.2239
L140.1942 128.1287
" />
<path d="M140.1942 128.1287
L140.0989 127.9382
" />
<path d="M140.0989 127.9382
L140.0989 127.3668
" />
<path d="M140.0989 127.3668
L140.1942 127.1763
" />
<path d="M140.1942 127.1763
L140.2894 127.0811
" />
<path d="M140.2894 127.0811
L140.4799 126.9858
" />
<path d="M140.4799 126.9858
L140.7656 126.9858
" />
<path d="M140.7656 126.9858
L140.9561 127.0811
" />
<path d="M140.9561 127.0811
L141.0513 127.1763
" />
<path d="M141.0513 127.1763
L141.1465 127.3668
" />
<path d="M141.1465 127.3668
L141.1465 127.9382
" />
<path d="M141.1465 127.9382
L141.0513 128.1287
" />
<path d="M141.0513 128.1287
L140.9561 128.2239
" />
<path d="M140.9561 128.2239
L140.7656 128.3192
" />
<path d="M140.7656 128.3192
L140.4799 128.3192
" />
<path d="M141.7180 126.9858
L142.4799 126.9858
" />
<path d="M142.0037 126.3192
L142.0037 128.0334
" />
<path d="M142.0037 128.0334
L142.0989 128.2239
" />
<path d="M142.0989 128.2239
L142.2894 128.3192
" />
<path d="M142.2894 128.3192
L142.4799 128.3192
" />
<path d="M144.6703 126.9858
L144.6703 128.9858
" />
<path d="M144.6703 127.0811
L144.8608 126.9858
" />
<path d="M144.8608 126.9858
L145.2418 126.9858
" />
<path d="M145.2418 126.9858
L145.4323 127.0811
" />
<path d="M145.4323 127.0811
L145.5275 127.1763
" />
<path d="M145.5275 127.1763
L145.6227 127.3668
" />
<path d="M145.6227 127.3668
L145.6227 127.9382
" />
<path d="M145.6227 127.9382
L145.5275 128.1287
" />
<path d="M145.5275 128.1287
L145.4323 128.2239
" />
<path d="M145.4323 128.2239
L145.2418 128.3192
" />
<path d="M145.2418 128.3192
L144.8608 128.3192
" />
<path d="M144.8608 128.3192
L144.6703 128.2239
" />
<path d="M146.7656 128.3192
L146.5751 128.2239
" />
<path d="M146.5751 128.2239
L146.4799 128.0334
" />
<path d="M146.4799 128.0334
L146.4799 126.3192
" />
<path d="M148.3846 128.3192
L148.3846 127.2715
" />
<path d="M148.3846 127.2715
L148.2894 127.0811
" />
<path d="M148.2894 127.0811
L148.0989 126.9858
" />
<path d="M148.0989 126.9858
L147.7180 126.9858
" />
<path d="M147.7180 126.9858
L147.5275 127.0811
" />
<path d="M148.3846 128.2239
L148.1942 128.3192
" />
<path d="M148.1942 128.3192
L147.7180 128.3192
" />
<path d="M147.7180 128.3192
L147.5275 128.2239
" />
<path d="M147.5275 128.2239
L147.4323 128.0334
" />
<path d="M147.4323 128.0334
L147.4323 127.8430
" />
<path d="M147.4323 127.8430
L147.5275 127.6525
" />
<path d="M147.5275 127.6525
L147.7180 127.5573
" />
<path d="M147.7180 127.5573
L148.1942 127.5573
" />
<path d="M148.1942 127.5573
L148.3846 127.4620
" />
<path d="M149.0513 126.9858
L149.8132 126.9858
" />
<path d="M149.3370 126.3192
L149.3370 128.0334
" />
<path d="M149.3370 128.0334
L149.4322 128.2239
" />
<path d="M149.4322 128.2239
L149.6227 128.3192
" />
<path d="M149.6227 128.3192
L149.8132 128.3192
" />
<path d="M151.2418 128.2239
L151.0513 128.3192
" />
<path d="M151.0513 128.3192
L150.6703 128.3192
" />
<path d="M150.6703 128.3192
L150.4799 128.2239
" />
<path d="M150.4799 128.2239
L150.3846 128.0334
" />
<path d="M150.3846 128.0334
L150.3846 127.2715
" />
<path d="M150.3846 127.2715
L150.4799 127.0811
" />
<path d="M150.4799 127.0811
L150.6703 126.9858
" />
<path d="M150.6703 126.9858
L151.0513 126.9858
" />
<path d="M151.0513 126.9858
L151.2418 127.0811
" />
<path d="M151.2418 127.0811
L151.3370 127.2715
" />
<path d="M151.3370 127.2715
L151.3370 127.4620
" />
<path d="M151.3370 127.4620
L150.3846 127.6525
" />
<path d="M153.0513 128.3192
L153.0513 126.3192
" />
<path d="M153.0513 128.2239
L152.8608 128.3192
" />
<path d="M152.8608 128.3192
L152.4799 128.3192
" />
<path d="M152.4799 128.3192
L152.2894 128.2239
" />
<path d="M152.2894 128.2239
L152.1942 128.1287
" />
<path d="M152.1942 128.1287
L152.0989 127.9382
" />
<path d="M152.0989 127.9382
L152.0989 127.3668
" />
<path d="M152.0989 127.3668
L152.1942 127.1763
" />
<path d="M152.1942 127.1763
L152.2894 127.0811
" />
<path d="M152.2894 127.0811
L152.4799 126.9858
" />
<path d="M152.4799 126.9858
L152.8608 126.9858
" />
<path d="M152.8608 126.9858
L153.0513 127.0811
" />
<path d="M153.8132 129.0811
L153.9084 128.9858
" />
<path d="M153.9084 128.9858
L154.0989 128.7001
" />
<path d="M154.0989 128.7001
L154.1942 128.5096
" />
<path d="M154.1942 128.5096
L154.2894 128.2239
" />
<path d="M154.2894 128.2239
L154.3846 127.7477
" />
<path d="M154.3846 127.7477
L154.3846 127.3668
" />
<path d="M154.3846 127.3668
L154.2894 126.8906
" />
<path d="M154.2894 126.8906
L154.1942 126.6049
" />
<path d="M154.1942 126.6049
L154.0989 126.4144
" />
<path d="M154.0989 126.4144
L153.9084 126.1287
" />
<path d="M153.9084 126.1287
L153.8132 126.0334
" />
</g></g> 
</svg>
