<?xml version="1.0" encoding="UTF-8" standalone="no"?>
<svg
   version="1.1"
   width="85.75mm"
   height="85.75mm"
   viewBox="0 0 85.750001 85.749999"
   id="svg3087"
   xml:space="preserve"
   xmlns="http://www.w3.org/2000/svg"
   xmlns:svg="http://www.w3.org/2000/svg"
   xmlns:rdf="http://www.w3.org/1999/02/22-rdf-syntax-ns#"
   xmlns:cc="http://creativecommons.org/ns#"
   xmlns:dc="http://purl.org/dc/elements/1.1/"><defs
     id="defs3087" /><title
     id="title1">SVG Image created as 40Hz_S2-F_Silkscreen.svg date 2025/05/21 11:42:52 </title><desc
     id="desc1">Image generated by PCBNEW </desc><g
     id="g3123"
     transform="matrix(-1,0,0,1,131.97969,-23.221621)"><g
       id="g3103"
       style="display:inline"><rect
         style="display:none;opacity:0.75;fill:#999999;stroke-width:1.87585"
         id="rect3101"
         width="59.266666"
         height="50.716606"
         x="59.471352"
         y="40.738316" /><rect
         style="display:none;opacity:0.75;fill:#999999;stroke-width:2.56169"
         id="rect3102"
         width="79.266998"
         height="70.717003"
         x="49.471188"
         y="30.738119" /><rect
         style="display:inline;opacity:0.75;fill:#999999;stroke-width:1"
         id="rect3103"
         width="85.75"
         height="85.75"
         x="46.229691"
         y="23.221621" /></g><g
       id="g3104"><circle
         style="display:inline;opacity:1;fill:#f2f2f2;stroke-width:1"
         id="circle3103"
         cx="66.011856"
         cy="61.017258"
         r="3.5" /><circle
         style="display:inline;opacity:1;fill:#f2f2f2;stroke-width:1"
         id="circle3104"
         cx="110.96986"
         cy="60.974926"
         r="3.5" /></g><g
       id="g3106"
       style="opacity:1;fill:#f2f2f2"><circle
         style="display:inline;opacity:0.75;fill:#f2f2f2;stroke-width:1"
         id="circle3105"
         cx="66.477516"
         cy="82.967087"
         r="3" /><circle
         style="display:inline;opacity:0.75;fill:#f2f2f2;stroke-width:1"
         id="circle3106"
         cx="110.96986"
         cy="82.967087"
         r="3" /></g><rect
       style="display:inline;opacity:0.75;fill:#00003f;fill-opacity:1;stroke-width:1"
       id="rect3106"
       width="24"
       height="13.5"
       x="76.490852"
       y="52.928497" /><g
       id="g3110"><circle
         style="display:inline;opacity:0.75;fill:#ffcd00;fill-opacity:1;stroke-width:1.875"
         id="circle3107"
         cx="62.24419"
         cy="50.497429"
         r="1.125" /><circle
         style="display:inline;opacity:0.75;fill:#ffcd00;fill-opacity:1;stroke-width:1.875"
         id="circle3108"
         cx="116.00752"
         cy="88.766754"
         r="1.125" /><circle
         style="display:inline;opacity:0.75;fill:#ffcd00;fill-opacity:1;stroke-width:1.875"
         id="circle3109"
         cx="62.244186"
         cy="88.766754"
         r="1.125" /><circle
         style="display:inline;opacity:0.75;fill:#ffcd00;fill-opacity:1;stroke-width:1.875"
         id="circle3110"
         cx="116.00752"
         cy="50.497429"
         r="1.125" /></g><g
       id="g3121"><g
         id="g3114"
         style="display:none"><circle
           style="display:inline;opacity:0.75;fill:#fbf800;fill-opacity:1;stroke-width:1.875"
           id="circle3111"
           cx="127.47969"
           cy="27.721621"
           r="1.125" /><circle
           style="display:inline;opacity:0.75;fill:#fbf800;fill-opacity:1;stroke-width:1.875"
           id="circle3112"
           cx="50.729691"
           cy="27.721621"
           r="1.125" /><circle
           style="display:inline;opacity:0.75;fill:#fbf800;fill-opacity:1;stroke-width:1.875"
           id="circle3113"
           cx="127.47969"
           cy="104.47162"
           r="1.125" /><circle
           style="display:inline;opacity:0.75;fill:#fbf800;fill-opacity:1;stroke-width:1.875"
           id="circle3114"
           cx="50.729691"
           cy="104.47162"
           r="1.125" /></g><g
         id="g3120"><circle
           style="display:inline;opacity:0.75;fill:#ffcd00;fill-opacity:1;stroke-width:1.875"
           id="circle3115"
           cx="116.00752"
           cy="27.722"
           r="1.125" /><circle
           style="display:inline;opacity:0.75;fill:#ffcd00;fill-opacity:1;stroke-width:1.875"
           id="circle3116"
           cx="62.24419"
           cy="27.722"
           r="1.125" /><circle
           style="display:inline;opacity:0.75;fill:#ffcd00;fill-opacity:1;stroke-width:1.875"
           id="circle3117"
           cx="50.73"
           cy="66.096619"
           r="1.125" /><circle
           style="display:inline;opacity:0.75;fill:#ffcd00;fill-opacity:1;stroke-width:1.875"
           id="circle3118"
           cx="127.48"
           cy="66.097"
           r="1.125" /><circle
           style="display:inline;opacity:0.75;fill:#ffcd00;fill-opacity:1;stroke-width:1.875"
           id="circle3119"
           cx="116.00752"
           cy="104.472"
           r="1.125" /><circle
           style="display:inline;opacity:0.75;fill:#ffcd00;fill-opacity:1;stroke-width:1.875"
           id="circle3120"
           cx="62.244186"
           cy="104.472"
           r="1.125" /></g></g><path
       style="font-weight:bold;font-size:4px;line-height:1;font-family:'Nirmala Text';-inkscape-font-specification:'Nirmala Text Bold';letter-spacing:-0.000700045px;word-spacing:0px"
       d="m 61.098568,53.351761 -0.744141,2 h -0.703125 l -0.708984,-2 h 0.660156 l 0.347656,1.232422 q 0.05859,0.208984 0.06836,0.355468 h 0.0078 q 0.01367,-0.138671 0.07227,-0.34375 l 0.355469,-1.24414 z m 1.192659,2.048828 q -0.5,0 -0.787109,-0.279297 -0.285156,-0.28125 -0.285156,-0.761719 0,-0.496093 0.296875,-0.77539 0.296875,-0.28125 0.802734,-0.28125 0.498047,0 0.78125,0.28125 0.283203,0.279297 0.283203,0.740234 0,0.498047 -0.292969,0.787109 -0.291015,0.289063 -0.798828,0.289063 z m 0.01563,-1.625 q -0.21875,0 -0.339843,0.150391 -0.121094,0.15039 -0.121094,0.425781 0,0.576172 0.464844,0.576172 0.443359,0 0.443359,-0.591797 0,-0.560547 -0.447266,-0.560547 z m 2.09305,1.576172 H 63.78272 v -2.960938 h 0.617187 z m 2.419222,0 H 66.20389 v -0.304688 h -0.0098 q -0.228515,0.353516 -0.611328,0.353516 -0.695312,0 -0.695312,-0.841797 v -1.207031 h 0.615234 v 1.152344 q 0,0.423828 0.335937,0.423828 0.166016,0 0.265625,-0.115235 0.09961,-0.117187 0.09961,-0.316406 v -1.144531 h 0.615234 z m 3.694613,0 h -0.615235 v -1.140625 q 0,-0.435547 -0.320312,-0.435547 -0.152344,0 -0.248047,0.130859 -0.0957,0.13086 -0.0957,0.326172 v 1.119141 H 68.61726 v -1.152344 q 0,-0.423828 -0.314453,-0.423828 -0.158203,0 -0.253906,0.125 -0.09375,0.125 -0.09375,0.339844 v 1.111328 h -0.617188 v -2 h 0.617188 v 0.3125 h 0.0078 q 0.0957,-0.160156 0.267579,-0.259766 0.173828,-0.101562 0.378906,-0.101562 0.423828,0 0.580078,0.373047 0.228516,-0.373047 0.671875,-0.373047 0.652344,0 0.652344,0.804687 z m 2.284456,-0.824219 H 71.49351 q 0.03125,0.435547 0.548829,0.435547 0.330078,0 0.580078,-0.15625 v 0.445312 q -0.277344,0.148438 -0.720703,0.148438 -0.484375,0 -0.751954,-0.267578 -0.267578,-0.269531 -0.267578,-0.75 0,-0.498047 0.289063,-0.789063 0.289062,-0.291015 0.710937,-0.291015 0.4375,0 0.675782,0.259765 0.240234,0.259766 0.240234,0.705078 z m -0.572266,-0.378906 q 0,-0.429688 -0.347656,-0.429688 -0.148437,0 -0.257812,0.123047 -0.107422,0.123047 -0.13086,0.306641 z"
       id="text3121"
       aria-label="volume" /><path
       style="font-weight:bold;font-size:4px;line-height:1;font-family:'Nirmala Text';-inkscape-font-specification:'Nirmala Text Bold';letter-spacing:-0.000700045px;word-spacing:0px"
       d="m 105.45695,55.309429 h -0.61718 v -0.27539 h -0.008 q -0.21093,0.324218 -0.61914,0.324218 -0.375,0 -0.60351,-0.263672 -0.22852,-0.265625 -0.22852,-0.740234 0,-0.496094 0.25196,-0.794922 0.25195,-0.298828 0.66015,-0.298828 0.38672,0 0.53906,0.277344 h 0.008 v -1.189453 h 0.61718 z m -0.60546,-0.972656 v -0.150391 q 0,-0.195312 -0.11329,-0.324218 -0.11328,-0.128907 -0.29492,-0.128907 -0.20508,0 -0.32031,0.16211 -0.11523,0.160156 -0.11523,0.441406 0,0.263672 0.11132,0.40625 0.11133,0.142578 0.3086,0.142578 0.1875,0 0.30469,-0.150391 0.11914,-0.15039 0.11914,-0.398437 z m 1.4368,-1.34375 q -0.15625,0 -0.25586,-0.0918 -0.0996,-0.09375 -0.0996,-0.228516 0,-0.138671 0.0996,-0.226562 0.0996,-0.08789 0.25586,-0.08789 0.1582,0 0.25586,0.08789 0.0996,0.08789 0.0996,0.226562 0,0.140625 -0.0996,0.230469 -0.0977,0.08984 -0.25586,0.08984 z m 0.30468,2.316406 h -0.61718 v -2 h 0.61718 z m 3.69462,0 h -0.61524 v -1.140625 q 0,-0.435547 -0.32031,-0.435547 -0.15234,0 -0.24805,0.13086 -0.0957,0.130859 -0.0957,0.326172 v 1.11914 h -0.61719 v -1.152344 q 0,-0.423828 -0.31445,-0.423828 -0.1582,0 -0.25391,0.125 -0.0937,0.125 -0.0937,0.339844 v 1.111328 h -0.61719 v -2 h 0.61719 v 0.3125 h 0.008 q 0.0957,-0.160156 0.26758,-0.259765 0.17383,-0.101563 0.37891,-0.101563 0.42383,0 0.58008,0.373047 0.22851,-0.373047 0.67187,-0.373047 0.65235,0 0.65235,0.804688 z m 3.66336,0 h -0.61524 v -1.140625 q 0,-0.435547 -0.32031,-0.435547 -0.15234,0 -0.24805,0.13086 -0.0957,0.130859 -0.0957,0.326172 v 1.11914 h -0.61719 v -1.152344 q 0,-0.423828 -0.31445,-0.423828 -0.1582,0 -0.25391,0.125 -0.0937,0.125 -0.0937,0.339844 v 1.111328 h -0.61718 v -2 h 0.61718 v 0.3125 h 0.008 q 0.0957,-0.160156 0.26758,-0.259765 0.17382,-0.101563 0.3789,-0.101563 0.42383,0 0.58008,0.373047 0.22852,-0.373047 0.67187,-0.373047 0.65235,0 0.65235,0.804688 z m 2.28445,-0.824219 h -1.30468 q 0.0312,0.435547 0.54883,0.435547 0.33007,0 0.58007,-0.15625 v 0.445313 q -0.27734,0.148437 -0.7207,0.148437 -0.48437,0 -0.75195,-0.267578 -0.26758,-0.269531 -0.26758,-0.75 0,-0.498047 0.28906,-0.789062 0.28906,-0.291016 0.71094,-0.291016 0.4375,0 0.67578,0.259766 0.24023,0.259765 0.24023,0.705078 z m -0.57226,-0.378906 q 0,-0.429687 -0.34766,-0.429687 -0.14843,0 -0.25781,0.123047 -0.10742,0.123046 -0.13086,0.30664 z m 2.24344,-0.240234 q -0.11133,-0.06055 -0.25977,-0.06055 -0.20117,0 -0.31445,0.148437 -0.11328,0.146485 -0.11328,0.400391 v 0.955078 h -0.61719 v -2 h 0.61719 v 0.371094 h 0.008 q 0.14649,-0.40625 0.52735,-0.40625 0.0977,0 0.15234,0.02344 z"
       id="text3122"
       aria-label="dimmer" /><path
       style="font-weight:bold;font-size:4px;line-height:1;font-family:'Nirmala Text';-inkscape-font-specification:'Nirmala Text Bold';letter-spacing:-0.000700045px;word-spacing:0px"
       d="m 102.84473,77.20771 h -0.008 v 1.152344 h -0.61718 v -2.919922 h 0.61718 v 0.300781 h 0.008 q 0.22851,-0.349609 0.64257,-0.349609 0.38868,0 0.59961,0.267578 0.21289,0.265625 0.21289,0.72461 0,0.5 -0.24804,0.802734 -0.2461,0.302734 -0.65625,0.302734 -0.36133,0 -0.55078,-0.28125 z m -0.0176,-0.820312 v 0.160156 q 0,0.207031 0.10937,0.337891 0.10938,0.130859 0.28711,0.130859 0.21094,0 0.32617,-0.162109 0.11719,-0.164063 0.11719,-0.462891 0,-0.527344 -0.41015,-0.527344 -0.18946,0 -0.31055,0.144532 -0.11914,0.142578 -0.11914,0.378906 z m 2.48953,1.052734 h -0.61718 v -2.960937 h 0.61718 z m 2.1829,0 h -0.58399 v -0.287109 h -0.008 q -0.20117,0.335937 -0.5957,0.335937 -0.29102,0 -0.45899,-0.164062 -0.16601,-0.166016 -0.16601,-0.441406 0,-0.582032 0.68945,-0.671875 l 0.54297,-0.07227 q 0,-0.328125 -0.35547,-0.328125 -0.35742,0 -0.67969,0.212891 v -0.464844 q 0.12891,-0.06641 0.35156,-0.117188 0.22461,-0.05078 0.40821,-0.05078 0.85547,0 0.85547,0.853516 z m -0.58008,-0.8125 v -0.134765 l -0.36328,0.04687 q -0.30078,0.03906 -0.30078,0.271484 0,0.105469 0.0723,0.173828 0.0742,0.06641 0.19922,0.06641 0.17383,0 0.2832,-0.11914 0.10938,-0.121094 0.10938,-0.304688 z m 2.97195,-1.1875 -0.8125,2.160156 q -0.29296,0.779297 -0.88281,0.779297 -0.22461,0 -0.36914,-0.05078 v -0.492187 q 0.12305,0.07227 0.26758,0.07227 0.23828,0 0.33203,-0.224609 l 0.10547,-0.248047 -0.8125,-1.996094 h 0.68359 l 0.37305,1.216797 q 0.0352,0.113281 0.0547,0.267578 h 0.008 q 0.0176,-0.113281 0.0645,-0.263672 l 0.37696,-1.220703 z m 1.8079,-0.800781 -1.36524,3.265625 h -0.55078 l 1.35938,-3.265625 z m 0.0813,2.748047 v -0.5 q 0.15234,0.0918 0.30273,0.136719 0.15235,0.04492 0.28711,0.04492 0.16407,0 0.25782,-0.04492 0.0957,-0.04492 0.0957,-0.136719 0,-0.05859 -0.043,-0.09766 -0.043,-0.03906 -0.11133,-0.06836 -0.0664,-0.0293 -0.14648,-0.05273 -0.0801,-0.02344 -0.1543,-0.05273 -0.11914,-0.04492 -0.21094,-0.0957 -0.0898,-0.05273 -0.15234,-0.121093 -0.0606,-0.06836 -0.0937,-0.158204 -0.0312,-0.08984 -0.0312,-0.21289 0,-0.167969 0.0723,-0.289063 0.0742,-0.121093 0.19531,-0.197265 0.12304,-0.07813 0.27929,-0.113282 0.15821,-0.03711 0.32813,-0.03711 0.13281,0 0.26953,0.02148 0.13672,0.01953 0.26953,0.05859 v 0.476563 q -0.11719,-0.06836 -0.25195,-0.101563 -0.13281,-0.03516 -0.26172,-0.03516 -0.0606,0 -0.11523,0.01172 -0.0527,0.0098 -0.0937,0.03125 -0.041,0.01953 -0.0645,0.05273 -0.0234,0.03125 -0.0234,0.07227 0,0.05469 0.0351,0.09375 0.0352,0.03906 0.0918,0.06836 0.0566,0.02734 0.125,0.05078 0.0703,0.02148 0.13867,0.04492 0.12305,0.04297 0.22266,0.09375 0.0996,0.05078 0.16992,0.119141 0.0723,0.06836 0.10937,0.160156 0.0391,0.0918 0.0391,0.21875 0,0.177734 -0.0781,0.304688 -0.0762,0.125 -0.20508,0.205078 -0.12695,0.07813 -0.29492,0.113281 -0.16601,0.03711 -0.3457,0.03711 -0.33008,0 -0.61133,-0.101562 z m 3.09891,0.0293 q -0.13672,0.07227 -0.41211,0.07227 -0.65234,0 -0.65234,-0.677734 V 75.89521 h -0.32422 v -0.455078 h 0.32422 v -0.43164 l 0.61523,-0.175782 v 0.607422 h 0.44922 v 0.455078 h -0.44922 v 0.808594 q 0,0.3125 0.24805,0.3125 0.0977,0 0.20117,-0.05664 z m 1.26883,0.07227 q -0.5,0 -0.78711,-0.279297 -0.28516,-0.28125 -0.28516,-0.761718 0,-0.496094 0.29688,-0.775391 0.29687,-0.28125 0.80273,-0.28125 0.49805,0 0.78125,0.28125 0.28321,0.279297 0.28321,0.740234 0,0.498047 -0.29297,0.78711 -0.29102,0.289062 -0.79883,0.289062 z m 0.0156,-1.625 q -0.21875,0 -0.33985,0.150391 -0.12109,0.150391 -0.12109,0.425781 0,0.576172 0.46484,0.576172 0.44336,0 0.44336,-0.591797 0,-0.560547 -0.44726,-0.560547 z m 2.10086,1.34375 h -0.008 v 1.152344 h -0.61719 V 75.44014 h 0.61719 v 0.300781 h 0.008 q 0.22851,-0.349609 0.64258,-0.349609 0.38867,0 0.59961,0.267578 0.21289,0.265625 0.21289,0.72461 0,0.5 -0.24805,0.802734 -0.24609,0.302734 -0.65625,0.302734 -0.36133,0 -0.55078,-0.28125 z m -0.0176,-0.820312 v 0.160156 q 0,0.207031 0.10937,0.337891 0.10938,0.130859 0.28711,0.130859 0.21094,0 0.32618,-0.162109 0.11718,-0.164063 0.11718,-0.462891 0,-0.527344 -0.41015,-0.527344 -0.18946,0 -0.31055,0.144532 -0.11914,0.142578 -0.11914,0.378906 z"
       id="text3123"
       aria-label="play/stop" /></g><metadata
     id="metadata3124"><rdf:RDF><cc:Work
         rdf:about=""><dc:title>SVG Image created as 40Hz_S2-F_Silkscreen.svg date 2025/05/21 11:42:52 </dc:title></cc:Work></rdf:RDF></metadata></svg>
