<?xml version="1.0" encoding="UTF-8" standalone="no"?>
<!-- Created with Inkscape (http://www.inkscape.org/) -->

<svg
   width="64.60907mm"
   height="52.535965mm"
   viewBox="0 0 64.60907 52.535965"
   version="1.1"
   id="svg1"
   inkscape:version="1.3.2 (091e20e, 2023-11-25, custom)"
   sodipodi:docname="drawing.svg"
   xmlns:inkscape="http://www.inkscape.org/namespaces/inkscape"
   xmlns:sodipodi="http://sodipodi.sourceforge.net/DTD/sodipodi-0.dtd"
   xmlns="http://www.w3.org/2000/svg"
   xmlns:svg="http://www.w3.org/2000/svg">
  <sodipodi:namedview
     id="namedview1"
     pagecolor="#ffffff"
     bordercolor="#000000"
     borderopacity="0.25"
     inkscape:showpageshadow="2"
     inkscape:pageopacity="0.0"
     inkscape:pagecheckerboard="0"
     inkscape:deskcolor="#d1d1d1"
     inkscape:document-units="mm"
     inkscape:zoom="4"
     inkscape:cx="214.25"
     inkscape:cy="595"
     inkscape:current-layer="layer1" />
  <defs
     id="defs1" />
  <g
     inkscape:label="Layer 1"
     inkscape:groupmode="layer"
     id="layer1"
     transform="translate(-39.280541,-92.51447)">
    <g
       id="g39"
       transform="matrix(-1,0,0,1,239.12725,-65.356391)"
       style="opacity:1;fill:#000000;fill-opacity:1"
       inkscape:export-filename="..\..\My Drive\arduino\40hz\ESP32\40Hz_S2\images\sacredGeometry.svg"
       inkscape:export-xdpi="96"
       inkscape:export-ydpi="96">
      <path
         id="path26"
         style="opacity:0.64;fill:#000000;fill-opacity:1;stroke:none;stroke-width:5.34506;stroke-dasharray:none;stroke-opacity:1"
         d="m 633.12501,596.68165 c -0.87164,0.0633 -1.88781,0.81659 -4.32227,2.72461 -8.51546,6.674 -15.30442,17.67562 -17.46289,28.29883 -1.58072,7.77974 -1.58126,7.77636 2.73633,10.75 4.67128,3.21723 9.40107,8.17791 12.67187,13.29101 2.67375,4.17973 6.08247,11.80893 6.16407,13.79688 0.0284,0.69231 0.64496,-0.40809 1.36914,-2.44532 3.41898,-9.61822 9.59468,-18.18694 17.17578,-23.83007 l 4.80664,-3.57813 -0.42578,-3.88867 c -1.16381,-10.61273 -5.99799,-20.54913 -13.76367,-28.28516 -2.92799,-2.91681 -6.19656,-5.7532 -7.26172,-6.30273 -0.69442,-0.35826 -1.16452,-0.5692 -1.6875,-0.53125 z m -50.29297,35.51172 c -6.8905,0.13312 -13.64762,1.6886 -19.45703,4.65234 l -2.68164,1.36914 0.46679,3.68555 c 1.55041,12.25556 8.41795,24.56721 17.89258,32.07617 4.4462,3.52376 3.93985,3.5184 13.14844,0.17774 5.86589,-2.12802 7.05604,-2.31247 15.20312,-2.35547 4.86136,-0.0257 10.07913,0.21494 11.59571,0.53515 l 2.75781,0.58203 -2.99219,-3.39843 c -6.07453,-6.90104 -10.02003,-15.88808 -11.44336,-26.0625 l -0.82617,-5.91016 -3.40625,-1.4668 c -6.34362,-2.72895 -13.36732,-4.01789 -20.25781,-3.88476 z m 99.7793,0.0195 c -6.95332,0.0151 -13.87139,1.41056 -19.33985,4.18164 l -3.27929,1.66016 -0.87305,5.70312 c -1.56157,10.20087 -5.32845,18.74474 -11.24805,25.51172 -2.87938,3.29156 -3.08556,3.72183 -1.5625,3.25586 0.9656,-0.29542 5.14189,-0.70914 9.28125,-0.91992 8.40253,-0.42787 15.83912,0.81653 22.1543,3.70703 1.95398,0.89435 4.0008,1.65169 4.54883,1.68359 0.54802,0.0319 2.68869,-1.21857 4.75586,-2.77929 9.89723,-7.47249 17.43216,-21.28197 18.11133,-33.19532 0.17625,-3.09182 0.11659,-3.18349 -3.00391,-4.71289 -5.60474,-2.74699 -12.5916,-4.11083 -19.54492,-4.0957 z m -26.5,8.03515 -1.97071,1.4043 c -3.65092,2.5997 -10.55468,10.56348 -13.04101,15.04492 -2.31916,4.18011 -4.80602,11.45211 -5.69141,16.64454 -0.23285,1.36558 -0.0934,2.29882 0.3418,2.29882 0.40275,0 3.1878,-2.46643 6.18945,-5.48047 7.52339,-7.55445 12.37856,-17.1423 13.79688,-27.24218 z m -45.51368,0.17969 c -0.0262,0.002 -0.0463,0.0111 -0.0605,0.0254 -0.11223,0.11223 0.24428,2.58607 0.79101,5.49805 1.61261,8.58905 6.45957,17.52988 13.10742,24.17773 5.72138,5.72138 7.26584,6.62374 6.71094,3.91993 -1.60629,-7.82686 -2.3102,-10.08345 -4.68359,-15.02539 -1.49419,-3.11127 -4.12298,-7.35363 -5.84375,-9.42774 -2.8299,-3.41098 -9.21011,-9.22353 -10.02149,-9.16797 z m 46.59766,34.60352 c -6.13714,0.048 -12.11543,1.17717 -16.91016,3.35742 l -2.82812,1.28516 2.82812,1.21289 c 1.55563,0.66696 4.5778,1.64323 6.7168,2.16797 8.32437,2.04212 21.14404,1.03028 28.93555,-2.28321 l 3.125,-1.32812 -5.95313,-1.99414 c -4.95918,-1.66071 -10.49894,-2.46031 -15.91406,-2.41797 z m -49.57227,0.0137 c -6.13666,0.0534 -12.0735,1.17819 -16.83593,3.34375 l -2.82813,1.28516 2.82813,1.21289 c 1.55564,0.66696 4.57975,1.64323 6.71875,2.16797 8.36719,2.05263 21.18966,1.02719 28.99023,-2.31836 l 3.18164,-1.36524 -6.00976,-1.94726 c -5.0598,-1.63907 -10.63022,-2.42605 -16.04493,-2.37891 z m -23.54882,6.76758 -3.00782,1.98047 c -7.13458,4.69809 -14.00085,13.72644 -17.25,22.67773 -2.08193,5.73567 -3.30904,13.65271 -2.30273,14.86524 0.88764,1.06954 9.80045,4.33538 14.07031,5.15625 8.0787,1.55312 18.32375,0.33987 26.61914,-3.1543 l 4.34375,-1.83008 0.47852,-4.01953 c 1.23087,-10.31778 4.97014,-19.45272 11.02344,-26.92969 2.10593,-2.60122 3.10305,-4.2884 2.34375,-3.96484 -0.72685,0.30972 -5.13974,0.70868 -9.80664,0.88476 -9.47775,0.3576 -15.30924,-0.6373 -22.40626,-3.82226 z m 98.625,0.56055 c -1.23535,-0.0851 -2.51618,0.41537 -4.42383,1.27148 -7.12289,3.19656 -12.94665,4.19192 -22.43359,3.83398 -4.66691,-0.17608 -9.12258,-0.58873 -9.9004,-0.91601 -0.91185,-0.38368 -0.32652,0.64421 1.64844,2.89258 6.08508,6.92747 9.99372,15.73045 11.5293,25.96875 0.48054,3.20397 1.21305,6.06167 1.62695,6.35156 1.43909,1.00794 8.55694,3.50559 12.77344,4.48242 8.17743,1.89446 19.56682,0.54665 28.85156,-3.41406 l 3.39649,-1.44727 -0.47657,-3.96289 c -1.2951,-10.7427 -6.31591,-20.94158 -14.13086,-28.70703 -4.47373,-4.44541 -6.40202,-6.21165 -8.46093,-6.35351 z m -47.31836,1.14453 c -0.0194,0.002 -0.0351,0.008 -0.0449,0.0176 -0.15778,0.15778 0.19654,2.66132 0.7871,5.56446 2.02143,9.93707 8.3226,20.42127 16.16797,26.9043 1.8434,1.52329 3.45634,2.76953 3.58399,2.76953 0.12766,0 0.0639,-1.19199 -0.14063,-2.65039 -1.60223,-11.42197 -8.5219,-23.69668 -17.25976,-30.61719 -1.47042,-1.1646 -2.80283,-2.01626 -3.09375,-1.98828 z m -4.26953,0.0703 c -0.30182,0.0355 -1.95757,1.18525 -3.84571,2.67773 -4.57626,3.61734 -9.47697,10.14909 -12.45117,16.59766 -1.99475,4.32494 -2.71644,6.73914 -4.29687,14.37891 -0.39862,1.9269 0.0285,1.74959 4.5,-1.8711 6.86341,-5.55743 13.2703,-16.57958 15.27148,-26.27148 0.59943,-2.90314 0.98738,-5.37982 0.86328,-5.50391 -0.008,-0.008 -0.0209,-0.0102 -0.041,-0.008 z m 2.03125,9.86914 -1.26172,3.64258 c -2.97771,8.58722 -10.83173,18.95784 -18.08008,23.875 -1.94233,1.31765 -3.53883,2.92393 -3.54883,3.57031 -0.0643,4.14158 2.41262,12.94797 5.24024,18.625 3.5552,7.13785 7.29919,11.81539 13.08984,16.36133 2.15905,1.69496 4.18507,3.08178 4.50391,3.08203 1.2045,9.2e-4 6.61723,-4.20167 9.8164,-7.62305 6.49521,-6.94634 11.11124,-16.11932 12.53906,-24.91992 1.03225,-6.36235 0.99551,-6.60402 -1.1914,-7.90234 -7.10502,-4.21808 -15.40542,-14.52199 -19.0918,-23.69727 z"
         transform="scale(0.26458333)"
         sodipodi:insensitive="true" />
    </g>
    <path
       style="font-size:8.2571px;line-height:1;font-family:Devanagari;-inkscape-font-specification:Devanagari;letter-spacing:-0.000963388px;word-spacing:0px;fill:#4d4d4d;stroke-width:1.37618"
       d="m 98.470778,138.75681 h 0.846675 v 5.41872 h 0.661213 v -1.88687 l 0.01613,-0.004 q 0.108854,0.0887 0.262064,0.1774 0.14918,0.0847 0.33464,0.15321 0.18546,0.0645 0.39915,0.10886 0.21368,0.0403 0.44753,0.0403 0.46768,0 0.80232,-0.16934 0.33061,-0.16933 0.55639,-0.45156 0.22175,-0.28626 0.35076,-0.64912 0.12902,-0.36689 0.18547,-0.762 -0.2661,-0.0363 -0.4556,-0.12499 -0.18949,-0.0887 -0.30641,-0.20965 -0.11692,-0.12499 -0.16934,-0.27013 -0.0564,-0.14515 -0.0564,-0.29029 0,-0.0968 0.0202,-0.21772 0.0161,-0.12095 0.0605,-0.25803 0.0443,-0.14111 0.11692,-0.29432 0.0726,-0.15321 0.18143,-0.31045 h 1.16519 v -0.59267 h -5.41872 z m 3.539912,0 q -0.14515,0.24594 -0.22578,0.54026 -0.0847,0.29029 -0.0847,0.57251 0,0.20562 0.0565,0.39915 0.0524,0.19353 0.1653,0.36286 0.11289,0.1653 0.28223,0.29835 0.1653,0.12902 0.38705,0.20562 -0.0645,0.27013 -0.1774,0.46366 -0.11289,0.18949 -0.2661,0.31448 -0.15321,0.12095 -0.3427,0.1774 -0.1895,0.0564 -0.40721,0.0564 -0.20966,0 -0.41124,-0.0484 -0.20563,-0.0484 -0.38706,-0.13708 -0.18546,-0.0927 -0.3427,-0.22175 -0.15724,-0.12901 -0.278191,-0.29029 v -2.69323 z m -1.86576,-1.82237 q 0,-0.22981 -0.13708,-0.37092 -0.133047,-0.14515 -0.350764,-0.14515 -0.100795,0 -0.193526,0.0403 -0.0887,0.0403 -0.157239,0.11289 -0.06854,0.0685 -0.108859,0.1653 -0.03629,0.0927 -0.03629,0.20563 0,0.22981 0.133049,0.37092 0.137081,0.14111 0.354797,0.14111 0.104827,0 0.193526,-0.0363 0.09273,-0.0403 0.15724,-0.10886 0.06854,-0.0726 0.104826,-0.1653 0.0403,-0.0968 0.0403,-0.20966 z m -9.493893,1.82237 h 0.846676 v 5.41872 h 0.661213 v -2.26183 h 2.217483 v 0.47978 q 0,0.12499 0.01209,0.22175 0.0081,0.0968 0.04435,0.16127 0.03225,0.0645 0.09676,0.1008 0.06048,0.0323 0.165303,0.0323 0.104826,0 0.233843,-0.0605 0.129018,-0.0645 0.262067,-0.16933 0.133049,-0.10886 0.258034,-0.24191 0.124985,-0.13708 0.22578,-0.28222 0.09676,-0.14918 0.15724,-0.29432 0.06048,-0.14515 0.06048,-0.2661 0,-0.0847 -0.02822,-0.13708 -0.03225,-0.0565 -0.08467,-0.0847 -0.05645,-0.0282 -0.133049,-0.0363 -0.0766,-0.0121 -0.173367,-0.0121 h -0.435433 v -2.56825 h 1.455475 v -0.59267 h -5.84206 z m 3.725372,0 v 2.56825 h -2.217483 v -2.56825 z m -8.743983,0 h 5.3018 v -0.59267 h -5.3018 z m -0.09676,2.89482 q 0.108858,0.0806 0.217717,0.13305 0.104826,0.0524 0.22578,0.0847 0.116921,0.0323 0.258034,0.0444 0.137081,0.0121 0.314479,0.0121 0.0766,0.21369 0.213685,0.38706 0.133049,0.16933 0.318511,0.29432 0.181431,0.12498 0.411243,0.19352 0.22578,0.0645 0.487846,0.0645 0.40721,0 0.770071,-0.15724 0.358829,-0.15724 0.669277,-0.41124 0.306416,-0.25804 0.56445,-0.58461 0.254003,-0.33061 0.45156,-0.66928 l -0.49591,-0.34673 q -0.201589,0.33867 -0.423337,0.62493 -0.22578,0.28222 -0.467688,0.49187 -0.241907,0.20966 -0.499941,0.32658 -0.262066,0.11692 -0.536228,0.11692 -0.217716,0 -0.387051,-0.0726 -0.169335,-0.0726 -0.286257,-0.19756 -0.116922,-0.12498 -0.177399,-0.29029 -0.06451,-0.1653 -0.06451,-0.35479 0,-0.16128 0.04838,-0.29836 0.04838,-0.14111 0.141112,-0.2419 0.0887,-0.10483 0.221749,-0.16128 0.129017,-0.0564 0.29432,-0.0564 0.141113,0 0.274162,0.0363 0.133049,0.0363 0.254002,0.0927 0.120954,0.0524 0.22578,0.11692 0.104827,0.0645 0.185463,0.12498 l 0.33867,-0.56041 q -0.266098,-0.19353 -0.584609,-0.30642 -0.318512,-0.11692 -0.637023,-0.11692 -0.29432,0 -0.544291,0.10482 -0.249971,0.1008 -0.431401,0.28223 -0.185462,0.18143 -0.294321,0.42737 -0.108858,0.24191 -0.124985,0.52413 -0.326575,0 -0.544291,-0.0887 -0.221749,-0.0927 -0.387052,-0.23384 z m -1.369844,-0.6975 0.33867,-0.56041 q -0.266098,-0.19353 -0.584609,-0.30642 -0.318511,-0.11692 -0.637022,-0.11692 -0.294321,0 -0.544291,0.10482 -0.249971,0.1008 -0.431402,0.28223 -0.185462,0.18143 -0.29432,0.42737 -0.108858,0.24191 -0.124985,0.52413 -0.290289,0 -0.487847,-0.0806 -0.201589,-0.0806 -0.346733,-0.20159 v -2.2699 h 5.3018 v -0.59267 h -6.809689 v 0.59267 h 0.846675 v 5.41872 h 0.661214 v -2.43923 l 0.02016,-0.004 q 0.09273,0.0564 0.185463,0.0927 0.0887,0.0363 0.197557,0.0605 0.104827,0.0202 0.229812,0.0323 0.124986,0.008 0.286257,0.008 0.0766,0.21369 0.213685,0.38706 0.133049,0.16933 0.318511,0.29432 0.18143,0.12498 0.411242,0.19352 0.22578,0.0645 0.487846,0.0645 0.407211,0 0.770072,-0.15724 0.358829,-0.15724 0.669276,-0.41124 0.306416,-0.25804 0.564451,-0.58461 0.254002,-0.33061 0.45156,-0.66928 l -0.49591,-0.34673 q -0.201589,0.33867 -0.423338,0.62493 -0.22578,0.28222 -0.467687,0.49187 -0.241907,0.20966 -0.499942,0.32658 -0.262066,0.11692 -0.536227,0.11692 -0.217717,0 -0.387052,-0.0726 -0.169335,-0.0726 -0.286257,-0.19756 -0.116922,-0.12498 -0.177398,-0.29029 -0.06451,-0.1653 -0.06451,-0.35479 0,-0.16128 0.04838,-0.29836 0.04838,-0.14111 0.141112,-0.2419 0.0887,-0.10483 0.221748,-0.16128 0.129018,-0.0564 0.294321,-0.0564 0.141112,0 0.274161,0.0363 0.133049,0.0363 0.254003,0.0927 0.120954,0.0524 0.22578,0.11692 0.104827,0.0645 0.185462,0.12498 z m -6.764376,-2.19732 h 0.846672 v 5.41872 h 0.661214 v -5.41872 h 0.919247 v -0.59267 h -2.427136 z m -5.559834,0 h 0.846675 v 5.41872 H 73.3495 v -2.26183 h 2.217483 v 0.47978 q 0,0.12499 0.0121,0.22175 0.0081,0.0968 0.04435,0.16127 0.03225,0.0645 0.09676,0.1008 0.06048,0.0323 0.165303,0.0323 0.104827,0 0.233844,-0.0605 0.129017,-0.0645 0.262066,-0.16933 0.133049,-0.10886 0.258034,-0.24191 0.124986,-0.13708 0.22578,-0.28222 0.09676,-0.14918 0.15724,-0.29432 0.06048,-0.14515 0.06048,-0.2661 0,-0.0847 -0.02822,-0.13708 -0.03225,-0.0565 -0.08467,-0.0847 -0.05644,-0.0282 -0.133049,-0.0363 -0.0766,-0.0121 -0.173367,-0.0121 h -0.435433 v -2.56823 h 1.455467 v -0.59267 h -5.842059 z m 3.725371,0 v 2.56825 H 73.3495 v -2.56825 z m -3.700217,5.11231 -0.387051,-0.38706 -0.387052,0.38706 q 0.09676,0.0726 0.181431,0.22981 0.01613,0.14917 0.07257,0.36689 0.165303,0.43543 0.596704,0.58461 l 0.01613,-0.0806 q -0.262067,-0.10482 -0.346734,-0.36286 -0.02419,-0.0726 -0.02419,-0.17336 0,-0.25804 0.129017,-0.42334 z m -9.428425,-5.11231 h 0.846675 v 5.41872 h 0.657181 v -3.53991 h 1.310331 q 0.27013,0 0.487847,0.0363 0.217716,0.0323 0.370924,0.13708 0.153208,0.10079 0.237875,0.28626 0.08064,0.18143 0.08064,0.47978 0,0.38705 -0.124985,0.71363 -0.129017,0.32657 -0.326575,0.60073 -0.197558,0.27013 -0.435433,0.49994 -0.241907,0.22982 -0.463656,0.42334 l 0.403179,0.45962 q 0.03629,-0.0202 0.173367,-0.11692 0.133049,-0.10079 0.314479,-0.27013 0.177399,-0.16933 0.378988,-0.41124 0.197558,-0.24191 0.366893,-0.54429 0.165303,-0.30642 0.278193,-0.67331 0.108859,-0.36689 0.108859,-0.79023 0,-0.4193 -0.116922,-0.69347 -0.120954,-0.27819 -0.33867,-0.43946 -0.217717,-0.1653 -0.528164,-0.22981 -0.310448,-0.0645 -0.693468,-0.0645 h -1.483698 v -1.28211 h 3.830198 v -0.59267 h -5.334054 z m 1.674156,-1.82237 q 0,-0.22981 -0.13708,-0.37092 -0.133049,-0.14515 -0.350766,-0.14515 -0.100794,0 -0.193526,0.0403 -0.0887,0.0403 -0.157239,0.11289 -0.06854,0.0685 -0.108859,0.1653 -0.03629,0.0927 -0.03629,0.20563 0,0.22981 0.133049,0.37092 0.137081,0.14111 0.354798,0.14111 0.104826,0 0.193525,-0.0363 0.09273,-0.0403 0.15724,-0.10886 0.06854,-0.0726 0.104827,-0.1653 0.04032,-0.0968 0.04032,-0.20966 z m -9.852724,1.82237 h 0.846676 v 5.41872 h 0.661213 v -2.26183 h 2.116688 v 0.57654 q 0,0.0605 0.0121,0.12902 0.0081,0.0685 0.04032,0.12902 0.02822,0.0564 0.08064,0.0968 0.04838,0.0363 0.124985,0.0363 0.09273,0 0.221749,-0.0564 0.124985,-0.0605 0.262066,-0.15724 0.133049,-0.10079 0.266098,-0.22578 0.129017,-0.12901 0.233844,-0.26609 0.100794,-0.13709 0.165303,-0.27417 0.06451,-0.13708 0.06451,-0.254 0,-0.16933 -0.120953,-0.24594 -0.120954,-0.0766 -0.318511,-0.0766 h -0.391084 v -2.21345 q 0,-0.20966 0.100795,-0.31851 0.100795,-0.11289 0.254002,-0.11289 0.169336,0 0.286257,0.12498 0.11289,0.12499 0.11289,0.31851 0,0.0363 -0.0081,0.0887 -0.0081,0.0524 -0.04032,0.12096 -0.03225,0.0645 -0.09676,0.14917 -0.06451,0.0806 -0.173367,0.17337 l 0.358829,0.43946 q 0.185462,-0.10079 0.302384,-0.22175 0.116922,-0.12498 0.181431,-0.254 0.06451,-0.12901 0.0887,-0.24997 0.02419,-0.12498 0.02419,-0.22981 0,-0.19353 -0.06451,-0.37899 -0.06854,-0.18949 -0.201589,-0.33867 -0.133049,-0.15321 -0.330607,-0.24594 -0.201589,-0.0927 -0.467687,-0.0927 -0.233844,0 -0.415274,0.0766 -0.181431,0.0766 -0.302384,0.22174 -0.124986,0.14112 -0.185462,0.34271 -0.06451,0.19755 -0.06451,0.44349 v 2.15701 h -2.116688 v -3.16092 h -1.507889 z m -4.85331,0 h 0.846676 v 5.41872 h 0.661213 v -1.43935 l 0.01613,-0.004 q 0.08064,0.0766 0.189494,0.16127 0.108858,0.0806 0.249971,0.14918 0.141112,0.0645 0.318511,0.10886 0.173367,0.0443 0.391083,0.0443 0.399147,0 0.729754,-0.15321 0.326575,-0.15321 0.56445,-0.40721 0.237875,-0.25804 0.370924,-0.58864 0.129018,-0.33464 0.129018,-0.6975 0,-0.36286 -0.129018,-0.67331 -0.133049,-0.31448 -0.36286,-0.54429 -0.229812,-0.22981 -0.536228,-0.35883 -0.306416,-0.13305 -0.657181,-0.13305 -0.09676,0 -0.241908,0.0161 -0.149176,0.0161 -0.318511,0.0726 -0.169335,0.0564 -0.350765,0.1653 -0.181431,0.10483 -0.346734,0.28626 l -0.01613,-0.004 v -1.41919 h 3.628608 v -0.59267 h -5.136497 z m 1.491762,2.17313 q 0.254002,-0.30641 0.552355,-0.49187 0.298352,-0.1895 0.67734,-0.1895 0.298352,0 0.508005,0.11289 0.205621,0.11289 0.33867,0.28626 0.133049,0.16933 0.193526,0.37899 0.06048,0.20965 0.06048,0.40317 0,0.20966 -0.06854,0.41528 -0.06854,0.20562 -0.201589,0.37092 -0.137081,0.16127 -0.33867,0.2661 -0.201589,0.1008 -0.471719,0.1008 -0.278194,0 -0.508005,-0.10483 -0.229812,-0.10886 -0.395116,-0.27416 -0.165303,-0.16531 -0.254002,-0.37093 -0.09273,-0.20562 -0.09273,-0.39914 z m -3.635706,-2.17313 h 0.846675 v 5.41872 h 0.661213 v -5.41872 h 0.919248 v -0.59267 h -2.427136 z m -5.559837,0 h 0.846676 v 5.41872 h 0.66121 v -2.26183 h 2.217483 v 0.47978 q 0,0.12499 0.0121,0.22175 0.0081,0.0968 0.04435,0.16127 0.03225,0.0645 0.09676,0.1008 0.06048,0.0323 0.165304,0.0323 0.104826,0 0.233843,-0.0605 0.129018,-0.0645 0.262067,-0.16933 0.133049,-0.10886 0.258034,-0.24191 0.124985,-0.13708 0.22578,-0.28222 0.09676,-0.14918 0.15724,-0.29432 0.06048,-0.14515 0.06048,-0.2661 0,-0.0847 -0.02822,-0.13708 -0.03225,-0.0565 -0.08467,-0.0847 -0.05644,-0.0282 -0.133049,-0.0363 -0.0766,-0.0121 -0.173366,-0.0121 h -0.435433 v -2.56825 h 1.455475 v -0.59267 h -5.84206 z m 3.725372,0 v 2.56825 h -2.217483 v -2.56825 z m -6.147514,5.41872 h 0.661213 v -6.01139 H 39.28054 Z"
       id="text39"
       aria-label="यं मञ्ञाम, तं भवाम।" />
  </g>
</svg>
