<?xml version="1.0" encoding="UTF-8" standalone="no"?>
<svg
   version="1.1"
   width="88.5mm"
   height="88.5mm"
   viewBox="0 0 88.500001 88.499999"
   id="svg3087"
   sodipodi:docname="wavebox_faceplate_inversed.svg"
   xml:space="preserve"
   inkscape:version="1.3.2 (091e20e, 2023-11-25, custom)"
   xmlns:inkscape="http://www.inkscape.org/namespaces/inkscape"
   xmlns:sodipodi="http://sodipodi.sourceforge.net/DTD/sodipodi-0.dtd"
   xmlns="http://www.w3.org/2000/svg"
   xmlns:svg="http://www.w3.org/2000/svg"
   xmlns:rdf="http://www.w3.org/1999/02/22-rdf-syntax-ns#"
   xmlns:cc="http://creativecommons.org/ns#"
   xmlns:dc="http://purl.org/dc/elements/1.1/"><defs
     id="defs3087" /><sodipodi:namedview
     id="namedview3087"
     pagecolor="#ffffff"
     bordercolor="#000000"
     borderopacity="0.25"
     inkscape:showpageshadow="2"
     inkscape:pageopacity="0.0"
     inkscape:pagecheckerboard="0"
     inkscape:deskcolor="#d1d1d1"
     inkscape:document-units="mm"
     inkscape:zoom="1.0129171"
     inkscape:cx="163.38948"
     inkscape:cy="340.60043"
     inkscape:current-layer="g23" /><title
     id="title1">SVG Image created as 40Hz_S2-F_Silkscreen.svg date 2025/05/21 11:42:52 </title><desc
     id="desc1">Image generated by PCBNEW </desc><metadata
     id="metadata3124"><rdf:RDF><cc:Work
         rdf:about=""><dc:title>SVG Image created as 40Hz_S2-F_Silkscreen.svg date 2025/05/21 11:42:52 </dc:title></cc:Work></rdf:RDF></metadata><g
     inkscape:groupmode="layer"
     id="g28"
     inkscape:label="CAD"
     style="display:inline"
     transform="translate(-44.854689,-21.846621)"><g
       id="g6"
       inkscape:label="faceplates"
       style="display:inline"
       transform="matrix(-1,0,0,1,178.20938,0)"><rect
         style="display:none;opacity:0.75;fill:#999999;stroke-width:1.87585"
         id="rect4"
         width="59.266666"
         height="50.716606"
         x="59.471352"
         y="40.738316"
         inkscape:label="board bounds"
         sodipodi:insensitive="true" /><rect
         style="display:none;opacity:0.75;fill:#999999;stroke-width:2.56169"
         id="rect5"
         width="79.266998"
         height="70.717003"
         x="49.471188"
         y="30.738119"
         inkscape:label="faceplate-mimimum"
         sodipodi:insensitive="true" /><rect
         style="display:inline;opacity:0.75;fill:#999999;stroke-width:1.03207"
         id="rect6"
         width="88.5"
         height="88.5"
         x="44.854691"
         y="21.846621"
         inkscape:label="faceplate-square"
         sodipodi:insensitive="true" /></g><g
       id="g7"
       inkscape:label="knob holes"
       transform="matrix(-1,0,0,1,178.20938,0)"
       sodipodi:insensitive="true"
       style="display:inline"><circle
         style="display:inline;opacity:1;fill:#f2f2f2;stroke-width:1"
         id="circle6"
         cx="66.011856"
         cy="61.017258"
         r="3.5" /><circle
         style="display:inline;opacity:1;fill:#f2f2f2;stroke-width:1"
         id="circle7"
         cx="110.96986"
         cy="60.974926"
         r="3.5" /></g><g
       id="g9"
       inkscape:label="button holes"
       style="display:inline;opacity:1;fill:#f2f2f2"
       transform="matrix(-1,0,0,1,178.20938,0)"
       sodipodi:insensitive="true"><circle
         style="display:inline;opacity:0.75;fill:#f2f2f2;stroke-width:1"
         id="circle8"
         cx="66.477516"
         cy="82.967087"
         r="3" /><circle
         style="display:inline;opacity:0.75;fill:#f2f2f2;stroke-width:1"
         id="circle9"
         cx="110.96986"
         cy="82.967087"
         r="3" /></g><rect
       style="display:inline;opacity:0.75;fill:#00003f;fill-opacity:1;stroke-width:1"
       id="rect9"
       width="24"
       height="13.5"
       x="-101.71853"
       y="52.928497"
       inkscape:label="display"
       transform="scale(-1,1)"
       sodipodi:insensitive="true" /><g
       id="g13"
       inkscape:label="mount holes for board"
       transform="matrix(-1,0,0,1,178.20938,0)"
       sodipodi:insensitive="true"
       style="display:inline"><circle
         style="display:inline;opacity:0.75;fill:#ffcd00;fill-opacity:1;stroke-width:1.875"
         id="circle10"
         cx="62.24419"
         cy="50.497429"
         r="1.125" /><circle
         style="display:inline;opacity:0.75;fill:#ffcd00;fill-opacity:1;stroke-width:1.875"
         id="circle11"
         cx="116.00752"
         cy="88.766754"
         r="1.125" /><circle
         style="display:inline;opacity:0.75;fill:#ffcd00;fill-opacity:1;stroke-width:1.875"
         id="circle12"
         cx="62.244186"
         cy="88.766754"
         r="1.125" /><circle
         style="display:inline;opacity:0.75;fill:#ffcd00;fill-opacity:1;stroke-width:1.875"
         id="circle13"
         cx="116.00752"
         cy="50.497429"
         r="1.125" /></g><g
       id="g24"
       inkscape:label="mount holes for faceplate (choose one)"
       transform="matrix(-1,0,0,1,178.20938,0)"
       style="display:inline"><g
         id="g17"
         inkscape:label="corners"
         style="display:none"><circle
           style="display:inline;opacity:0.75;fill:#fbf800;fill-opacity:1;stroke-width:1.875"
           id="circle14"
           cx="127.47969"
           cy="27.721621"
           r="1.125" /><circle
           style="display:inline;opacity:0.75;fill:#fbf800;fill-opacity:1;stroke-width:1.875"
           id="circle15"
           cx="50.729691"
           cy="27.721621"
           r="1.125" /><circle
           style="display:inline;opacity:0.75;fill:#fbf800;fill-opacity:1;stroke-width:1.875"
           id="circle16"
           cx="127.47969"
           cy="104.47162"
           r="1.125" /><circle
           style="display:inline;opacity:0.75;fill:#fbf800;fill-opacity:1;stroke-width:1.875"
           id="circle17"
           cx="50.729691"
           cy="104.47162"
           r="1.125" /></g><g
         id="g23"
         inkscape:label="offset corners"><circle
           style="display:inline;opacity:0.75;fill:#ffcd00;fill-opacity:1;stroke-width:1.875"
           id="circle18"
           cx="116.00769"
           cy="24.346621"
           r="1.125" /><circle
           style="display:inline;opacity:0.75;fill:#ffcd00;fill-opacity:1;stroke-width:1.875"
           id="circle19"
           cx="62.244362"
           cy="24.346621"
           r="1.125" /><circle
           style="display:inline;opacity:0.75;fill:#ffcd00;fill-opacity:1;stroke-width:1.875"
           id="circle20"
           cx="47.354691"
           cy="66.096619"
           r="1.125" /><circle
           style="display:inline;opacity:0.75;fill:#ffcd00;fill-opacity:1;stroke-width:1.875"
           id="circle21"
           cx="130.85469"
           cy="66.096619"
           r="1.125" /><circle
           style="display:inline;opacity:0.75;fill:#ffcd00;fill-opacity:1;stroke-width:1.875"
           id="circle22"
           cx="116.00769"
           cy="107.84662"
           r="1.125" /><circle
           style="display:inline;opacity:0.75;fill:#ffcd00;fill-opacity:1;stroke-width:1.875"
           id="circle23"
           cx="62.244347"
           cy="107.84662"
           r="1.125" /></g></g><g
       id="g4"
       transform="matrix(-1,0,0,1,134.03181,22.692454)"
       inkscape:label="text"
       style="display:inline"
       sodipodi:insensitive="true"><path
         style="font-size:6.00001px;line-height:1.5;font-family:Gadugi;-inkscape-font-specification:Gadugi;letter-spacing:-0.000700045px;word-spacing:0px;stroke-width:0.25"
         d="M 10.302822,30.024144 8.7471549,34.225323 H 8.2051618 l -1.52344,-4.201179 h 0.5478525 l 1.1630878,3.33106 q 0.055664,0.161133 0.084961,0.372071 h 0.011719 q 0.023437,-0.175782 0.09668,-0.37793 L 9.7725472,30.024144 Z M 12.599,34.295635 q -0.893556,0 -1.432619,-0.588868 -0.536134,-0.588868 -0.536134,-1.532229 0,-1.013674 0.547853,-1.61719 0.547852,-0.603517 1.491213,-0.603517 0.870119,0 1.400393,0.585939 0.533204,0.585938 0.533204,1.532229 0,1.028322 -0.544923,1.625979 -0.544923,0.597657 -1.458987,0.597657 z m 0.03516,-3.896491 q -0.662111,0 -1.075197,0.47754 -0.413087,0.47754 -0.413087,1.253909 0,0.776368 0.401368,1.250978 0.404297,0.471681 1.051759,0.471681 0.691408,0 1.089846,-0.451173 0.398438,-0.451172 0.398438,-1.262697 0,-0.832033 -0.386719,-1.286135 -0.38672,-0.454103 -1.066408,-0.454103 z m 4.973917,3.826179 h -2.179691 v -4.201179 h 0.492188 v 3.755865 h 1.687503 z m 3.71708,-1.699222 q 0,1.769534 -1.596683,1.769534 -1.529299,0 -1.529299,-1.702151 v -2.56934 h 0.492188 v 2.537113 q 0,1.291995 1.089846,1.291995 1.051759,0 1.051759,-1.248049 v -2.581059 h 0.492189 z m 5.33134,1.699222 h -0.489259 v -2.818364 q 0,-0.333985 0.04102,-0.817385 h -0.01172 q -0.07031,0.284181 -0.125977,0.407228 l -1.435549,3.228521 h -0.240235 l -1.432619,-3.205084 q -0.06152,-0.140625 -0.125977,-0.430665 h -0.01172 q 0.02344,0.251954 0.02344,0.823244 v 2.812505 H 22.37329 v -4.201179 h 0.650392 l 1.289065,2.929692 q 0.149414,0.336915 0.193359,0.503907 h 0.01758 q 0.125976,-0.345703 0.202148,-0.515626 l 1.315432,-2.917973 h 0.615236 z m 3.33036,0 h -2.226566 v -4.201179 h 2.132816 v 0.445313 H 28.25248 v 1.397463 h 1.51758 v 0.442384 h -1.51758 v 1.470705 h 1.734377 z"
         id="text1"
         aria-label="VOLUME" /><path
         style="font-size:6.00001px;line-height:1.5;font-family:Gadugi;-inkscape-font-specification:Gadugi;letter-spacing:-0.000700045px;word-spacing:0px;stroke-width:0.25"
         d="m 58.98103,34.253304 v -4.201179 h 1.160159 q 2.220706,0 2.220706,2.047855 0,0.972657 -0.618165,1.564455 -0.615235,0.588869 -1.649416,0.588869 z m 0.492189,-3.755866 v 3.310552 h 0.626954 q 0.826173,0 1.286135,-0.442383 0.459962,-0.442384 0.459962,-1.253909 0,-1.61426 -1.7168,-1.61426 z m 4.616495,-0.445313 V 30.474 h -0.410157 v 3.357428 h 0.410157 v 0.421876 h -1.312502 v -0.421876 h 0.410157 V 30.474 h -0.410157 v -0.421875 z m 4.976847,4.201179 h -0.489258 v -2.818365 q 0,-0.333984 0.04102,-0.817384 h -0.01172 q -0.07031,0.28418 -0.125976,0.407228 l -1.43555,3.228521 h -0.240234 l -1.43262,-3.205084 q -0.06152,-0.140625 -0.125977,-0.430665 h -0.01172 q 0.02344,0.251954 0.02344,0.823244 v 2.812505 h -0.47461 v -4.201179 h 0.650392 l 1.289064,2.929692 q 0.149415,0.336915 0.19336,0.503907 h 0.01758 q 0.125977,-0.345704 0.202149,-0.515626 l 1.315432,-2.917973 h 0.615235 z m 5.387005,0 h -0.489259 v -2.818365 q 0,-0.333984 0.04102,-0.817384 h -0.01172 q -0.07031,0.28418 -0.125976,0.407228 l -1.43555,3.228521 H 72.191844 L 70.759224,31.04822 Q 70.6977,30.907595 70.633247,30.617555 h -0.01172 q 0.02344,0.251954 0.02344,0.823244 v 2.812505 h -0.47461 v -4.201179 h 0.650391 l 1.289065,2.929692 q 0.149414,0.336915 0.19336,0.503907 h 0.01758 q 0.125977,-0.345704 0.202149,-0.515626 l 1.315432,-2.917973 h 0.615235 z m 3.330361,0 h -2.226566 v -4.201179 h 2.132816 v 0.445313 h -1.640628 v 1.397463 h 1.517581 v 0.442384 h -1.517581 v 1.470705 h 1.734378 z m 3.819617,0 H 81.017606 L 80.31448,33.075567 q -0.09668,-0.164063 -0.187501,-0.278321 -0.09082,-0.117187 -0.1875,-0.19043 -0.09375,-0.07324 -0.205078,-0.105469 -0.108399,-0.03516 -0.246094,-0.03516 H 79.084009 V 34.2533 h -0.492188 v -4.201179 h 1.253908 q 0.275391,0 0.506837,0.07031 0.234375,0.06738 0.404297,0.208008 0.172852,0.140626 0.269532,0.351564 0.09668,0.208008 0.09668,0.489258 0,0.219727 -0.06738,0.404298 -0.06445,0.181641 -0.1875,0.325196 -0.120118,0.143554 -0.29297,0.246094 -0.169922,0.09961 -0.383789,0.155273 v 0.01172 q 0.105469,0.04687 0.181641,0.108399 0.0791,0.05859 0.149414,0.140625 0.07031,0.08203 0.137696,0.1875 0.07031,0.10254 0.155273,0.240235 z m -2.519535,-3.755866 v 1.52344 h 0.66797 q 0.18457,0 0.339844,-0.05566 0.158204,-0.05566 0.272462,-0.158204 0.114258,-0.105469 0.178711,-0.254883 0.06445,-0.152344 0.06445,-0.339844 0,-0.336915 -0.219727,-0.524415 -0.216797,-0.19043 -0.629884,-0.19043 z"
         id="text1-4"
         aria-label="DIMMER" /><path
         style="font-size:6.00001px;line-height:1.5;font-family:Gadugi;-inkscape-font-specification:Gadugi;letter-spacing:-0.000700045px;word-spacing:0px;stroke-width:0.25"
         d="m 13.664966,56.118511 q -0.893557,0 -1.43262,-0.588868 -0.536134,-0.588868 -0.536134,-1.532229 0,-1.013674 0.547853,-1.61719 0.547852,-0.603517 1.491213,-0.603517 0.870119,0 1.400393,0.585939 0.533204,0.585938 0.533204,1.532229 0,1.028322 -0.544923,1.625979 -0.544922,0.597657 -1.458986,0.597657 z m 0.03516,-3.896491 q -0.662111,0 -1.075197,0.47754 -0.413087,0.47754 -0.413087,1.253909 0,0.776368 0.401368,1.250978 0.404298,0.471681 1.05176,0.471681 0.691407,0 1.089845,-0.451173 0.398438,-0.451172 0.398438,-1.262697 0,-0.832033 -0.386719,-1.286135 -0.386719,-0.454103 -1.066408,-0.454103 z m 6.180951,3.826179 H 19.277556 L 17.115443,52.69956 q -0.08203,-0.125976 -0.134766,-0.263672 h -0.01758 q 0.02344,0.134766 0.02344,0.577149 v 3.035162 H 16.494348 V 51.84702 h 0.638673 l 2.10352,3.295904 q 0.131836,0.205078 0.169922,0.28125 h 0.01172 q -0.0293,-0.181641 -0.0293,-0.618165 V 51.84702 h 0.492188 z m 2.931922,-4.201179 -2.015628,4.898445 h -0.448243 l 2.009769,-4.898445 z m 2.199499,4.271491 q -0.893556,0 -1.43262,-0.588868 -0.536133,-0.588868 -0.536133,-1.532229 0,-1.013674 0.547852,-1.61719 0.547853,-0.603517 1.491214,-0.603517 0.870118,0 1.400393,0.585939 0.533204,0.585938 0.533204,1.532229 0,1.028322 -0.544923,1.625979 -0.544923,0.597657 -1.458987,0.597657 z m 0.03516,-3.896491 q -0.66211,0 -1.075197,0.47754 -0.413086,0.47754 -0.413086,1.253909 0,0.776368 0.401367,1.250978 0.404298,0.471681 1.05176,0.471681 0.691407,0 1.089846,-0.451173 0.398438,-0.451172 0.398438,-1.262697 0,-0.832033 -0.38672,-1.286135 Q 25.727339,52.22202 25.04765,52.22202 Z m 4.927043,0.07031 h -1.640628 v 1.453127 h 1.517581 v 0.442384 h -1.517581 v 1.860355 H 27.841877 V 51.84702 h 2.132816 z m 2.928991,0 h -1.640627 v 1.453127 h 1.51758 v 0.442384 h -1.51758 v 1.860355 H 30.770868 V 51.84702 h 2.132816 z"
         id="text1-1"
         aria-label="ON/OFF" /><path
         style="font-size:6.00001px;line-height:1.5;font-family:Gadugi;-inkscape-font-specification:Gadugi;letter-spacing:-0.000700045px;word-spacing:0px;stroke-width:0.25"
         d="m 50.34961,55.878277 v -0.58008 q 0.09961,0.08789 0.237305,0.158204 0.140625,0.07031 0.292969,0.120117 0.155274,0.04687 0.310548,0.07324 0.155273,0.02637 0.28711,0.02637 0.454102,0 0.676758,-0.166993 0.225587,-0.169922 0.225587,-0.486329 0,-0.169922 -0.07617,-0.295899 -0.07324,-0.125976 -0.205079,-0.228516 -0.131836,-0.105469 -0.313477,-0.199219 -0.178711,-0.09668 -0.386719,-0.202148 -0.219727,-0.111329 -0.410157,-0.225587 -0.19043,-0.114258 -0.331055,-0.251953 -0.140626,-0.137696 -0.222657,-0.310548 -0.0791,-0.175781 -0.0791,-0.410157 0,-0.287109 0.125977,-0.498047 0.125977,-0.213868 0.331055,-0.351563 0.205079,-0.137696 0.465821,-0.205079 0.263673,-0.06738 0.536134,-0.06738 0.621095,0 0.905275,0.149415 v 0.553711 q -0.372071,-0.257813 -0.95508,-0.257813 -0.161133,0 -0.322266,0.03516 -0.161133,0.03223 -0.28711,0.108398 -0.125976,0.07617 -0.205078,0.19629 -0.0791,0.120117 -0.0791,0.292969 0,0.161133 0.05859,0.278321 0.06152,0.117187 0.178711,0.213867 0.117188,0.09668 0.28418,0.187501 0.169923,0.09082 0.38965,0.199219 0.225586,0.111328 0.427735,0.234375 0.202148,0.123047 0.354492,0.272461 0.152344,0.149415 0.240235,0.331056 0.09082,0.181641 0.09082,0.416016 0,0.310547 -0.123047,0.527345 -0.120118,0.213867 -0.328126,0.348633 -0.205078,0.134766 -0.47461,0.19336 -0.269532,0.06152 -0.56836,0.06152 -0.09961,0 -0.246095,-0.01758 -0.146484,-0.01465 -0.298828,-0.04687 -0.152344,-0.0293 -0.29004,-0.07324 -0.134766,-0.04687 -0.216797,-0.102539 z m 5.867474,-3.585944 h -1.212893 v 3.755866 H 54.512003 V 52.292333 H 53.30204 V 51.84702 h 2.915044 z m 3.910439,3.755866 H 59.5826 l -0.445313,-1.177737 h -1.781253 l -0.418946,1.177737 h -0.547852 l 1.61133,-4.201179 h 0.509767 z m -1.151369,-1.62012 -0.659181,-1.790042 q -0.03223,-0.08789 -0.06445,-0.281251 h -0.01172 q -0.0293,0.178712 -0.06738,0.281251 l -0.653321,1.790042 z m 4.780558,1.62012 h -0.585938 l -0.703126,-1.177737 q -0.09668,-0.164062 -0.187501,-0.27832 -0.09082,-0.117188 -0.1875,-0.19043 -0.09375,-0.07324 -0.205079,-0.105469 -0.108398,-0.03516 -0.246094,-0.03516 h -0.404297 v 1.787113 H 60.744988 V 51.84702 h 1.253909 q 0.275391,0 0.506837,0.07031 0.234375,0.06738 0.404297,0.208009 0.172852,0.140625 0.269532,0.351563 0.09668,0.208008 0.09668,0.489258 0,0.219727 -0.06738,0.404298 -0.06445,0.181641 -0.187501,0.325196 -0.120117,0.143555 -0.292969,0.246094 -0.169922,0.09961 -0.38379,0.155274 v 0.01172 q 0.105469,0.04687 0.181641,0.108399 0.0791,0.05859 0.149415,0.140625 0.07031,0.08203 0.137695,0.187501 0.07031,0.102539 0.155274,0.240234 z m -2.519535,-3.755866 v 1.52344 h 0.66797 q 0.18457,0 0.339844,-0.05566 0.158203,-0.05566 0.272461,-0.158203 0.114258,-0.105469 0.178712,-0.254884 0.06445,-0.152344 0.06445,-0.339844 0,-0.336915 -0.219727,-0.524415 -0.216797,-0.19043 -0.629884,-0.19043 z m 5.580363,0 h -1.212892 v 3.755866 H 65.112459 V 52.292333 H 63.902497 V 51.84702 h 2.915043 z m 2.489539,-0.445313 -2.015628,4.898445 h -0.448243 l 2.009769,-4.898445 z m 0.309848,4.031257 v -0.58008 q 0.09961,0.08789 0.237305,0.158204 0.140625,0.07031 0.292969,0.120117 0.155274,0.04687 0.310548,0.07324 0.155273,0.02637 0.287109,0.02637 0.454103,0 0.676759,-0.166993 0.225587,-0.169922 0.225587,-0.486329 0,-0.169922 -0.07617,-0.295899 -0.07324,-0.125976 -0.205079,-0.228516 -0.131836,-0.105469 -0.313477,-0.199219 -0.178711,-0.09668 -0.386719,-0.202148 -0.219727,-0.111329 -0.410157,-0.225587 -0.19043,-0.114258 -0.331056,-0.251953 -0.140625,-0.137696 -0.222656,-0.310548 -0.0791,-0.175781 -0.0791,-0.410157 0,-0.287109 0.125977,-0.498047 0.125977,-0.213868 0.331055,-0.351563 0.205079,-0.137696 0.465821,-0.205079 0.263673,-0.06738 0.536134,-0.06738 0.621095,0 0.905275,0.149415 v 0.553711 q -0.372071,-0.257813 -0.95508,-0.257813 -0.161133,0 -0.322266,0.03516 -0.161133,0.03223 -0.28711,0.108398 -0.125977,0.07617 -0.205078,0.19629 -0.0791,0.120117 -0.0791,0.292969 0,0.161133 0.05859,0.278321 0.06152,0.117187 0.178711,0.213867 0.117188,0.09668 0.28418,0.187501 0.169922,0.09082 0.389649,0.199219 0.225587,0.111328 0.427735,0.234375 0.202149,0.123047 0.354493,0.272461 0.152344,0.149415 0.240235,0.331056 0.09082,0.181641 0.09082,0.416016 0,0.310547 -0.123047,0.527345 -0.120117,0.213867 -0.328125,0.348633 -0.205079,0.134766 -0.47461,0.19336 -0.269532,0.06152 -0.568361,0.06152 -0.09961,0 -0.246094,-0.01758 -0.146484,-0.01465 -0.298828,-0.04687 -0.152344,-0.0293 -0.29004,-0.07324 -0.134766,-0.04687 -0.216797,-0.102539 z m 5.867472,-3.585944 h -1.212893 v 3.755866 H 73.779318 V 52.292333 H 72.569355 V 51.84702 h 2.915044 z m 2.351844,3.826178 q -0.893557,0 -1.43262,-0.588868 -0.536134,-0.588868 -0.536134,-1.532229 0,-1.013674 0.547853,-1.61719 0.547852,-0.603517 1.491213,-0.603517 0.870119,0 1.400393,0.585939 0.533204,0.585938 0.533204,1.532229 0,1.028322 -0.544923,1.625979 -0.544922,0.597657 -1.458986,0.597657 z m 0.03516,-3.896491 q -0.662111,0 -1.075197,0.47754 -0.413087,0.47754 -0.413087,1.253909 0,0.776368 0.401368,1.250978 0.404298,0.471681 1.05176,0.471681 0.691407,0 1.089845,-0.451173 0.398438,-0.451172 0.398438,-1.262697 0,-0.832033 -0.386719,-1.286135 -0.386719,-0.454103 -1.066408,-0.454103 z m 3.286415,2.238285 v 1.587894 H 80.665626 V 51.84702 h 1.154298 q 0.67383,0 1.042971,0.328125 0.372071,0.328126 0.372071,0.925783 0,0.597657 -0.413087,0.978517 -0.410157,0.38086 -1.110353,0.38086 z m 0,-2.167972 v 1.722659 h 0.515626 q 0.509766,0 0.776368,-0.231446 0.269532,-0.234375 0.269532,-0.65918 0,-0.832033 -0.984377,-0.832033 z"
         id="text1-7"
         aria-label="START/STOP" /></g></g></svg>
