%TF.GenerationSoftware,KiCad,Pcbnew,9.0.2*%
%TF.CreationDate,2025-05-20T12:48:23-07:00*%
%TF.ProjectId,40Hz_S2,3430487a-5f53-4322-9e6b-696361645f70,rev?*%
%TF.SameCoordinates,Original*%
%TF.FileFunction,Copper,L1,Top*%
%TF.FilePolarity,Positive*%
%FSLAX46Y46*%
G04 Gerber Fmt 4.6, Leading zero omitted, Abs format (unit mm)*
G04 Created by KiCad (PCBNEW 9.0.2) date 2025-05-20 12:48:23*
%MOMM*%
%LPD*%
G01*
G04 APERTURE LIST*
G04 Aperture macros list*
%AMRoundRect*
0 Rectangle with rounded corners*
0 $1 Rounding radius*
0 $2 $3 $4 $5 $6 $7 $8 $9 X,Y pos of 4 corners*
0 Add a 4 corners polygon primitive as box body*
4,1,4,$2,$3,$4,$5,$6,$7,$8,$9,$2,$3,0*
0 Add four circle primitives for the rounded corners*
1,1,$1+$1,$2,$3*
1,1,$1+$1,$4,$5*
1,1,$1+$1,$6,$7*
1,1,$1+$1,$8,$9*
0 Add four rect primitives between the rounded corners*
20,1,$1+$1,$2,$3,$4,$5,0*
20,1,$1+$1,$4,$5,$6,$7,0*
20,1,$1+$1,$6,$7,$8,$9,0*
20,1,$1+$1,$8,$9,$2,$3,0*%
%AMFreePoly0*
4,1,19,-0.850000,0.255000,-0.829726,0.408997,-0.770285,0.552500,-0.675729,0.675729,-0.552500,0.770285,-0.408997,0.829726,-0.255000,0.850000,0.510000,0.850000,0.850000,0.510000,0.850000,-0.255000,0.829726,-0.408997,0.770285,-0.552500,0.675729,-0.675729,0.552500,-0.770285,0.408997,-0.829726,0.255000,-0.850000,-0.510000,-0.850000,-0.850000,-0.510000,-0.850000,0.255000,-0.850000,0.255000,
$1*%
G04 Aperture macros list end*
%TA.AperFunction,Conductor*%
%ADD10C,0.200000*%
%TD*%
%TA.AperFunction,Conductor*%
%ADD11C,1.000000*%
%TD*%
%TA.AperFunction,Conductor*%
%ADD12C,0.500000*%
%TD*%
%TA.AperFunction,Conductor*%
%ADD13C,0.600000*%
%TD*%
%TA.AperFunction,Conductor*%
%ADD14C,0.300000*%
%TD*%
%TA.AperFunction,WasherPad*%
%ADD15RoundRect,1.250000X-1.250000X-0.000010X1.250000X-0.000010X1.250000X0.000010X-1.250000X0.000010X0*%
%TD*%
%TA.AperFunction,ComponentPad*%
%ADD16RoundRect,0.700000X-0.000010X-0.750000X0.000010X-0.750000X0.000010X0.750000X-0.000010X0.750000X0*%
%TD*%
%TA.AperFunction,ComponentPad*%
%ADD17C,2.000000*%
%TD*%
%TA.AperFunction,ComponentPad*%
%ADD18C,1.600000*%
%TD*%
%TA.AperFunction,ComponentPad*%
%ADD19C,1.778000*%
%TD*%
%TA.AperFunction,ComponentPad*%
%ADD20C,1.500000*%
%TD*%
%TA.AperFunction,ComponentPad*%
%ADD21C,3.164000*%
%TD*%
%TA.AperFunction,ComponentPad*%
%ADD22C,1.650000*%
%TD*%
%TA.AperFunction,ComponentPad*%
%ADD23RoundRect,1.000000X-0.000010X-0.750000X0.000010X-0.750000X0.000010X0.750000X-0.000010X0.750000X0*%
%TD*%
%TA.AperFunction,ComponentPad*%
%ADD24RoundRect,0.249999X-0.850001X0.850001X-0.850001X-0.850001X0.850001X-0.850001X0.850001X0.850001X0*%
%TD*%
%TA.AperFunction,ComponentPad*%
%ADD25C,2.200000*%
%TD*%
%TA.AperFunction,ComponentPad*%
%ADD26R,1.700000X1.700000*%
%TD*%
%TA.AperFunction,ComponentPad*%
%ADD27C,1.700000*%
%TD*%
%TA.AperFunction,ComponentPad*%
%ADD28FreePoly0,180.000000*%
%TD*%
%TA.AperFunction,ComponentPad*%
%ADD29R,2.000000X1.905000*%
%TD*%
%TA.AperFunction,ComponentPad*%
%ADD30O,2.000000X1.905000*%
%TD*%
%TA.AperFunction,ViaPad*%
%ADD31C,2.400000*%
%TD*%
%TA.AperFunction,ViaPad*%
%ADD32C,1.500000*%
%TD*%
G04 APERTURE END LIST*
D10*
%TO.N,GND*%
X81000000Y-82000000D02*
X80500000Y-82500000D01*
X78500000Y-82500000D01*
X78000000Y-82000000D01*
X75000000Y-82000000D01*
X75000000Y-80500000D01*
X77000000Y-80500000D01*
X78500000Y-79000000D01*
X78500000Y-77500000D01*
X77500000Y-76500000D01*
X76500000Y-76500000D01*
X76500000Y-75907235D01*
X81000000Y-75907235D01*
X81000000Y-82000000D01*
%TA.AperFunction,Conductor*%
G36*
X81000000Y-82000000D02*
G01*
X80500000Y-82500000D01*
X78500000Y-82500000D01*
X78000000Y-82000000D01*
X75000000Y-82000000D01*
X75000000Y-80500000D01*
X77000000Y-80500000D01*
X78500000Y-79000000D01*
X78500000Y-77500000D01*
X77500000Y-76500000D01*
X76500000Y-76500000D01*
X76500000Y-75907235D01*
X81000000Y-75907235D01*
X81000000Y-82000000D01*
G37*
%TD.AperFunction*%
D11*
X100038241Y-88944639D02*
G75*
G02*
X96970109Y-89123332I-1538241J-17661D01*
G01*
D10*
X92974799Y-89990573D02*
X78500000Y-89990573D01*
X78500000Y-84500000D01*
X81500000Y-84500000D01*
X83000000Y-83000000D01*
X83000000Y-75849043D01*
X92999393Y-75849043D01*
X92974799Y-89990573D01*
%TA.AperFunction,Conductor*%
G36*
X92974799Y-89990573D02*
G01*
X78500000Y-89990573D01*
X78500000Y-84500000D01*
X81500000Y-84500000D01*
X83000000Y-83000000D01*
X83000000Y-75849043D01*
X92999393Y-75849043D01*
X92974799Y-89990573D01*
G37*
%TD.AperFunction*%
X98500000Y-90894749D02*
X73980587Y-90894749D01*
X73980587Y-88084918D01*
X98500000Y-88084918D01*
X98500000Y-90894749D01*
%TA.AperFunction,Conductor*%
G36*
X98500000Y-90894749D02*
G01*
X73980587Y-90894749D01*
X73980587Y-88084918D01*
X98500000Y-88084918D01*
X98500000Y-90894749D01*
G37*
%TD.AperFunction*%
D12*
X93006266Y-81692866D02*
G75*
G02*
X93006264Y-81722142I1452834J-14734D01*
G01*
D10*
X97392682Y-77909212D02*
X97428383Y-79970650D01*
X96065246Y-79970855D01*
X96064637Y-81880840D01*
X95481746Y-80675545D01*
X94959614Y-80343625D01*
X94282716Y-80265438D01*
X93875615Y-80377004D01*
X93531716Y-80589163D01*
X93244131Y-80910861D01*
X92854378Y-81058191D01*
X92579219Y-81058191D01*
X92974825Y-75832535D01*
X95330254Y-75832535D01*
X97392682Y-77909212D01*
%TA.AperFunction,Conductor*%
G36*
X97392682Y-77909212D02*
G01*
X97428383Y-79970650D01*
X96065246Y-79970855D01*
X96064637Y-81880840D01*
X95481746Y-80675545D01*
X94959614Y-80343625D01*
X94282716Y-80265438D01*
X93875615Y-80377004D01*
X93531716Y-80589163D01*
X93244131Y-80910861D01*
X92854378Y-81058191D01*
X92579219Y-81058191D01*
X92974825Y-75832535D01*
X95330254Y-75832535D01*
X97392682Y-77909212D01*
G37*
%TD.AperFunction*%
D11*
X74579590Y-78288254D02*
G75*
G02*
X76598688Y-76328563I1960610J-46D01*
G01*
D13*
X75830987Y-84326657D02*
G75*
G02*
X78200690Y-82300442I1238823J949987D01*
G01*
D10*
X76550953Y-76991420D02*
X76450944Y-77079834D01*
X76210873Y-77295334D01*
X75896235Y-77680579D01*
X75752886Y-78137556D01*
X75765564Y-78522897D01*
X76057257Y-79270235D01*
X77615952Y-79804331D01*
X77612471Y-79850167D01*
X75625315Y-80475370D01*
X74179479Y-80377725D01*
X74179543Y-78320457D01*
X74319693Y-77748433D01*
X75011487Y-77060689D01*
X76143510Y-76777553D01*
X76520354Y-76730528D01*
X76550953Y-76991420D01*
%TA.AperFunction,Conductor*%
G36*
X76550953Y-76991420D02*
G01*
X76450944Y-77079834D01*
X76210873Y-77295334D01*
X75896235Y-77680579D01*
X75752886Y-78137556D01*
X75765564Y-78522897D01*
X76057257Y-79270235D01*
X77615952Y-79804331D01*
X77612471Y-79850167D01*
X75625315Y-80475370D01*
X74179479Y-80377725D01*
X74179543Y-78320457D01*
X74319693Y-77748433D01*
X75011487Y-77060689D01*
X76143510Y-76777553D01*
X76520354Y-76730528D01*
X76550953Y-76991420D01*
G37*
%TD.AperFunction*%
X99500000Y-90000000D02*
X98410702Y-90498048D01*
X98000000Y-88500000D01*
X100000000Y-88500000D01*
X99500000Y-90000000D01*
%TA.AperFunction,Conductor*%
G36*
X99500000Y-90000000D02*
G01*
X98410702Y-90498048D01*
X98000000Y-88500000D01*
X100000000Y-88500000D01*
X99500000Y-90000000D01*
G37*
%TD.AperFunction*%
D12*
X93002343Y-85230624D02*
G75*
G02*
X93002342Y-85259900I1452857J-14676D01*
G01*
D10*
X78757758Y-78802114D02*
X77692972Y-79801300D01*
X77368943Y-79679789D01*
X77056680Y-79628317D01*
X77306891Y-79548441D01*
X77857553Y-79409860D01*
X78377606Y-78657100D01*
X78384048Y-77876843D01*
X78204322Y-77500000D01*
X78097067Y-77342015D01*
X77500000Y-77000000D01*
X76500000Y-77000000D01*
X76500000Y-76500000D01*
X78500000Y-76000000D01*
X78757758Y-78802114D01*
%TA.AperFunction,Conductor*%
G36*
X78757758Y-78802114D02*
G01*
X77692972Y-79801300D01*
X77368943Y-79679789D01*
X77056680Y-79628317D01*
X77306891Y-79548441D01*
X77857553Y-79409860D01*
X78377606Y-78657100D01*
X78384048Y-77876843D01*
X78204322Y-77500000D01*
X78097067Y-77342015D01*
X77500000Y-77000000D01*
X76500000Y-77000000D01*
X76500000Y-76500000D01*
X78500000Y-76000000D01*
X78757758Y-78802114D01*
G37*
%TD.AperFunction*%
X75750000Y-83000000D02*
X75500000Y-84000000D01*
X75937170Y-84134657D01*
X76262033Y-84555319D01*
X75000000Y-86500000D01*
X77000000Y-87308259D01*
X77000000Y-87500000D01*
X76246082Y-88185928D01*
X75314109Y-87939845D01*
X74500000Y-86000000D01*
X74500000Y-82000000D01*
X76000000Y-82000000D01*
X75750000Y-83000000D01*
%TA.AperFunction,Conductor*%
G36*
X75750000Y-83000000D02*
G01*
X75500000Y-84000000D01*
X75937170Y-84134657D01*
X76262033Y-84555319D01*
X75000000Y-86500000D01*
X77000000Y-87308259D01*
X77000000Y-87500000D01*
X76246082Y-88185928D01*
X75314109Y-87939845D01*
X74500000Y-86000000D01*
X74500000Y-82000000D01*
X76000000Y-82000000D01*
X75750000Y-83000000D01*
G37*
%TD.AperFunction*%
X75018272Y-90488951D02*
X69815596Y-86315596D01*
X72865348Y-82134652D01*
X74000000Y-81000000D01*
X75500000Y-81000000D01*
X75018272Y-90488951D01*
%TA.AperFunction,Conductor*%
G36*
X75018272Y-90488951D02*
G01*
X69815596Y-86315596D01*
X72865348Y-82134652D01*
X74000000Y-81000000D01*
X75500000Y-81000000D01*
X75018272Y-90488951D01*
G37*
%TD.AperFunction*%
D14*
X78317605Y-78405655D02*
G75*
G02*
X78322934Y-78280713I-1284105J117355D01*
G01*
D10*
X96055379Y-85205535D02*
X95303001Y-84139722D01*
X94671559Y-83850757D01*
X94124671Y-83913936D01*
X93181779Y-84345259D01*
X92757830Y-84456138D01*
X92500000Y-82500000D01*
X93264246Y-82534199D01*
X94327087Y-83154498D01*
X95456290Y-82764271D01*
X96064637Y-81880840D01*
X96055379Y-85205535D01*
%TA.AperFunction,Conductor*%
G36*
X96055379Y-85205535D02*
G01*
X95303001Y-84139722D01*
X94671559Y-83850757D01*
X94124671Y-83913936D01*
X93181779Y-84345259D01*
X92757830Y-84456138D01*
X92500000Y-82500000D01*
X93264246Y-82534199D01*
X94327087Y-83154498D01*
X95456290Y-82764271D01*
X96064637Y-81880840D01*
X96055379Y-85205535D01*
G37*
%TD.AperFunction*%
D13*
X78649315Y-85787930D02*
G75*
G02*
X76100554Y-84671424I-1558515J-90370D01*
G01*
D10*
X78537232Y-87976729D02*
X78050884Y-88197796D01*
X78008998Y-88195469D01*
X77362085Y-87602079D01*
X78472075Y-87115731D01*
X78537232Y-87976729D01*
%TA.AperFunction,Conductor*%
G36*
X78537232Y-87976729D02*
G01*
X78050884Y-88197796D01*
X78008998Y-88195469D01*
X77362085Y-87602079D01*
X78472075Y-87115731D01*
X78537232Y-87976729D01*
G37*
%TD.AperFunction*%
X96059745Y-88460000D02*
X92743693Y-88092764D01*
X92688661Y-86298725D01*
X93000000Y-86000000D01*
X92976042Y-85860857D01*
X93267371Y-86247847D01*
X93482607Y-86441341D01*
X93726106Y-86610921D01*
X94328331Y-86778327D01*
X94626182Y-86795719D01*
X94908815Y-86780501D01*
X95167533Y-86702233D01*
X95419728Y-86556569D01*
X95643660Y-86367422D01*
X95971949Y-85815201D01*
X96015431Y-85628229D01*
X96055379Y-85205535D01*
X96059745Y-88460000D01*
%TA.AperFunction,Conductor*%
G36*
X96059745Y-88460000D02*
G01*
X92743693Y-88092764D01*
X92688661Y-86298725D01*
X93000000Y-86000000D01*
X92976042Y-85860857D01*
X93267371Y-86247847D01*
X93482607Y-86441341D01*
X93726106Y-86610921D01*
X94328331Y-86778327D01*
X94626182Y-86795719D01*
X94908815Y-86780501D01*
X95167533Y-86702233D01*
X95419728Y-86556569D01*
X95643660Y-86367422D01*
X95971949Y-85815201D01*
X96015431Y-85628229D01*
X96055379Y-85205535D01*
X96059745Y-88460000D01*
G37*
%TD.AperFunction*%
X74500000Y-85000000D02*
X73500000Y-88500000D01*
X70500000Y-86000000D01*
X70500000Y-84500000D01*
X74000000Y-81500000D01*
X74500000Y-85000000D01*
%TA.AperFunction,Conductor*%
G36*
X74500000Y-85000000D02*
G01*
X73500000Y-88500000D01*
X70500000Y-86000000D01*
X70500000Y-84500000D01*
X74000000Y-81500000D01*
X74500000Y-85000000D01*
G37*
%TD.AperFunction*%
%TD*%
D15*
%TO.P,OLED_I2C1,*%
%TO.N,*%
X77800000Y-72600000D03*
X99200000Y-72600000D03*
D16*
%TO.P,OLED_I2C1,GND,GND*%
%TO.N,GND*%
X84690000Y-49670000D03*
%TO.P,OLED_I2C1,SCL,SCL*%
%TO.N,SCL*%
X89770000Y-49670000D03*
%TO.P,OLED_I2C1,SDA,SDA*%
%TO.N,SDA*%
X92310000Y-49670000D03*
%TO.P,OLED_I2C1,Vcc,Vcc*%
%TO.N,5V*%
X87230000Y-49670000D03*
%TD*%
D17*
%TO.P,start/stop1,1,1*%
%TO.N,Btn1*%
X107750000Y-80750000D03*
X114250000Y-80750000D03*
%TO.P,start/stop1,2,2*%
%TO.N,GND*%
X107750000Y-85250000D03*
X114250000Y-85250000D03*
%TD*%
D18*
%TO.P,R2,1*%
%TO.N,Net-(Q1-G)*%
X110000000Y-74045000D03*
%TO.P,R2,2*%
%TO.N,LED*%
X110000000Y-71505000D03*
%TD*%
D17*
%TO.P,other1,1,1*%
%TO.N,Btn3*%
X63250000Y-80750000D03*
X69750000Y-80750000D03*
%TO.P,other1,2,2*%
%TO.N,GND*%
X63250000Y-85250000D03*
X69750000Y-85250000D03*
%TD*%
D19*
%TO.P,Amp_1,1,A+*%
%TO.N,Net-(Amp_1-A+)*%
X77048000Y-78300000D03*
%TO.P,Amp_1,2,A-*%
%TO.N,GND*%
X77048000Y-80840000D03*
%TO.P,Amp_1,3,SD*%
%TO.N,SD*%
X77048000Y-83380000D03*
%TO.P,Amp_1,4,Vin*%
%TO.N,5V*%
X77048000Y-85920000D03*
%TO.P,Amp_1,5,GND*%
%TO.N,GND*%
X77048000Y-88460000D03*
%TO.P,Amp_1,6,SPK-*%
%TO.N,Net-(Amp_1-SPK-)*%
X94447000Y-81707000D03*
%TO.P,Amp_1,7,SPK+*%
%TO.N,Net-(Amp_1-SPK+)*%
X94447000Y-85207000D03*
%TD*%
D20*
%TO.P,VR1,1,1*%
%TO.N,GND*%
X63500000Y-68525000D03*
%TO.P,VR1,2,2*%
%TO.N,Net-(Amp_1-A+)*%
X66000000Y-68525000D03*
%TO.P,VR1,3,3*%
%TO.N,Net-(RV1-Pad2)*%
X68500000Y-68525000D03*
D21*
%TO.P,VR1,MH1*%
%TO.N,N/C*%
X61250000Y-61025000D03*
%TO.P,VR1,MH2*%
X70750000Y-61025000D03*
%TD*%
D18*
%TO.P,R3,1*%
%TO.N,Net-(Q1-G)*%
X109960000Y-77500000D03*
%TO.P,R3,2*%
%TO.N,GND*%
X112500000Y-77500000D03*
%TD*%
D22*
%TO.P,EN1,1,1*%
%TO.N,Btn2*%
X108500000Y-54000000D03*
%TO.P,EN1,2,2*%
%TO.N,GND*%
X113500000Y-54000000D03*
%TO.P,EN1,A1,A*%
%TO.N,Enc_A*%
X108500000Y-68500000D03*
%TO.P,EN1,B1,B*%
%TO.N,Enc_B*%
X113500000Y-68500000D03*
%TO.P,EN1,GND,GND*%
%TO.N,GND*%
X111000000Y-68500000D03*
D23*
%TO.P,EN1,MH1,MH1*%
%TO.N,unconnected-(EN1-PadMH1)*%
X105000000Y-61000000D03*
%TO.P,EN1,MH2,MH2*%
%TO.N,unconnected-(EN1-PadMH2)*%
X117000000Y-61000000D03*
%TD*%
D24*
%TO.P,D1,1,K*%
%TO.N,5V*%
X105000000Y-71500000D03*
D25*
%TO.P,D1,2,A*%
%TO.N,Net-(D1-A)*%
X105000000Y-74040000D03*
%TD*%
D22*
%TO.P,RV1,1,1*%
%TO.N,unconnected-(RV1-Pad1)*%
X63500000Y-55000000D03*
%TO.P,RV1,2,2*%
%TO.N,Net-(RV1-Pad2)*%
X66000000Y-60000000D03*
%TO.P,RV1,3,3*%
%TO.N,Audio*%
X68500000Y-55000000D03*
%TD*%
D26*
%TO.P,J2,1,Pin_1*%
%TO.N,Net-(Amp_1-SPK-)*%
X97699438Y-81620306D03*
D27*
%TO.P,J2,2,Pin_2*%
%TO.N,Net-(Amp_1-SPK+)*%
X100239438Y-81620306D03*
%TD*%
D28*
%TO.P,U1,1,EN*%
%TO.N,unconnected-(U1-EN-Pad1)*%
X100000000Y-49000000D03*
D27*
%TO.P,U1,2,IO3*%
%TO.N,SDA*%
X100000000Y-51540000D03*
%TO.P,U1,3,IO5*%
%TO.N,SCL*%
X100000000Y-54080000D03*
%TO.P,U1,4,IO7*%
%TO.N,Btn2*%
X100000000Y-56620000D03*
%TO.P,U1,5,IO9*%
%TO.N,Enc_B*%
X100000000Y-59160000D03*
%TO.P,U1,6,IO11*%
%TO.N,Enc_A*%
X100000000Y-61700000D03*
%TO.P,U1,7,IO12*%
%TO.N,LED*%
X100000000Y-64240000D03*
%TO.P,U1,8,3V3*%
%TO.N,unconnected-(U1-3V3-Pad8)*%
X100000000Y-66780000D03*
%TO.P,U1,9,VBUS*%
%TO.N,5V*%
X77140000Y-66780000D03*
%TO.P,U1,10,GND*%
%TO.N,GND*%
X77140000Y-64240000D03*
%TO.P,U1,11,IO16*%
%TO.N,Btn3*%
X77140000Y-61700000D03*
%TO.P,U1,12,IO18*%
%TO.N,Audio*%
X77140000Y-59160000D03*
%TO.P,U1,13,IO33*%
%TO.N,SD*%
X77140000Y-56620000D03*
%TO.P,U1,14,IO35*%
%TO.N,Btn1*%
X77140000Y-54080000D03*
%TO.P,U1,15,IO37*%
%TO.N,unconnected-(U1-IO37-Pad15)*%
X77140000Y-51540000D03*
%TO.P,U1,16,IO39*%
%TO.N,unconnected-(U1-IO39-Pad16)*%
X77140000Y-49000000D03*
%TD*%
D26*
%TO.P,J3,1,Pin_1*%
%TO.N,5V*%
X105225000Y-49500000D03*
D27*
%TO.P,J3,2,Pin_2*%
%TO.N,Net-(D1-A)*%
X107765000Y-49500000D03*
%TD*%
D29*
%TO.P,Q1,1,G*%
%TO.N,Net-(Q1-G)*%
X117500000Y-72000000D03*
D30*
%TO.P,Q1,2,D*%
%TO.N,Net-(D1-A)*%
X117500000Y-74540000D03*
%TO.P,Q1,3,S*%
%TO.N,GND*%
X117500000Y-77080000D03*
%TD*%
D26*
%TO.P,J1,1,Pin_1*%
%TO.N,5V*%
X68460000Y-50000000D03*
D27*
%TO.P,J1,2,Pin_2*%
%TO.N,GND*%
X71000000Y-50000000D03*
%TD*%
D31*
%TO.N,*%
X62250000Y-50500000D03*
X116000000Y-88750000D03*
X62250000Y-88750000D03*
X116000000Y-50500000D03*
D32*
%TO.N,GND*%
X75000000Y-69500000D03*
%TO.N,Net-(Amp_1-A+)*%
X68300000Y-78300000D03*
%TD*%
D11*
%TO.N,GND*%
X77000000Y-88500000D02*
X85329171Y-88500000D01*
X76500000Y-89000000D02*
X77000000Y-88500000D01*
X114250000Y-85250000D02*
X117500000Y-82000000D01*
X112500000Y-70000000D02*
X111000000Y-68500000D01*
X112500000Y-77500000D02*
X117080000Y-77500000D01*
X117080000Y-77500000D02*
X117500000Y-77080000D01*
X117500000Y-82000000D02*
X117500000Y-77080000D01*
X114250000Y-85250000D02*
X107750000Y-85250000D01*
X76708000Y-80500000D02*
X74500000Y-80500000D01*
X77048000Y-80840000D02*
X76708000Y-80500000D01*
X69750000Y-86250000D02*
X73988951Y-90488951D01*
X75000000Y-65000000D02*
X75760000Y-64240000D01*
X61000000Y-71025000D02*
X61000000Y-84500000D01*
X75000000Y-69500000D02*
X75000000Y-65000000D01*
X63250000Y-85250000D02*
X69750000Y-85250000D01*
X76500000Y-90488951D02*
X76500000Y-89000000D01*
X77048000Y-88460000D02*
X104540000Y-88460000D01*
X69750000Y-85250000D02*
X69750000Y-86250000D01*
X74500000Y-80500000D02*
X69750000Y-85250000D01*
X61000000Y-84500000D02*
X61750000Y-85250000D01*
X85329171Y-88500000D02*
X86371630Y-89542459D01*
X73988951Y-90488951D02*
X76500000Y-90488951D01*
X112500000Y-77500000D02*
X112500000Y-70000000D01*
X63500000Y-68525000D02*
X61000000Y-71025000D01*
X75760000Y-64240000D02*
X77140000Y-64240000D01*
X74689084Y-80840000D02*
X74684315Y-80844769D01*
X104540000Y-88460000D02*
X107750000Y-85250000D01*
X61750000Y-85250000D02*
X63250000Y-85250000D01*
%TO.N,Net-(Amp_1-A+)*%
X66000000Y-68525000D02*
X66000000Y-76000000D01*
X66000000Y-76000000D02*
X68300000Y-78300000D01*
%TO.N,SD*%
X82000000Y-82500000D02*
X81120000Y-83380000D01*
X81120000Y-83380000D02*
X77048000Y-83380000D01*
X79620000Y-56620000D02*
X82000000Y-59000000D01*
X82000000Y-59000000D02*
X82000000Y-82500000D01*
X77140000Y-56620000D02*
X79620000Y-56620000D01*
%TO.N,Btn2*%
X102380000Y-56620000D02*
X100000000Y-56620000D01*
X108500000Y-54000000D02*
X105000000Y-54000000D01*
X105000000Y-54000000D02*
X102380000Y-56620000D01*
%TO.N,Enc_B*%
X113500000Y-62500000D02*
X113500000Y-68500000D01*
X101160000Y-58000000D02*
X109000000Y-58000000D01*
X109000000Y-58000000D02*
X113500000Y-62500000D01*
X100000000Y-59160000D02*
X101160000Y-58000000D01*
%TO.N,Enc_A*%
X104500000Y-64500000D02*
X101700000Y-61700000D01*
X101700000Y-61700000D02*
X100000000Y-61700000D01*
X108500000Y-64500000D02*
X104500000Y-64500000D01*
X108500000Y-68500000D02*
X108500000Y-64500000D01*
%TO.N,SCL*%
X89770000Y-51270000D02*
X89770000Y-49670000D01*
X100000000Y-54080000D02*
X92580000Y-54080000D01*
X92580000Y-54080000D02*
X89770000Y-51270000D01*
%TO.N,SDA*%
X94140000Y-51500000D02*
X92310000Y-49670000D01*
X100000000Y-51540000D02*
X99960000Y-51500000D01*
X99960000Y-51500000D02*
X94140000Y-51500000D01*
%TO.N,LED*%
X110000000Y-71505000D02*
X108505000Y-71505000D01*
X101240000Y-64240000D02*
X100000000Y-64240000D01*
X108505000Y-71505000D02*
X101240000Y-64240000D01*
%TO.N,Audio*%
X69273511Y-58273511D02*
X68500000Y-57500000D01*
X76253511Y-58273511D02*
X69273511Y-58273511D01*
X68500000Y-57500000D02*
X68500000Y-55000000D01*
X77140000Y-59160000D02*
X76253511Y-58273511D01*
%TO.N,Btn1*%
X114250000Y-80750000D02*
X107750000Y-80750000D01*
X98793001Y-78000000D02*
X105000000Y-78000000D01*
X93500000Y-72706999D02*
X98793001Y-78000000D01*
X105000000Y-78000000D02*
X107750000Y-80750000D01*
X80080000Y-54080000D02*
X93500000Y-67500000D01*
X93500000Y-67500000D02*
X93500000Y-72706999D01*
X77140000Y-54080000D02*
X80080000Y-54080000D01*
%TO.N,Btn3*%
X73000000Y-73000000D02*
X69750000Y-76250000D01*
X73000000Y-62500000D02*
X73000000Y-73000000D01*
X77140000Y-61700000D02*
X73800000Y-61700000D01*
X73800000Y-61700000D02*
X73000000Y-62500000D01*
X69750000Y-76250000D02*
X69750000Y-80750000D01*
%TO.N,Net-(Q1-G)*%
X110000000Y-74045000D02*
X110000000Y-77460000D01*
X110000000Y-77460000D02*
X109960000Y-77500000D01*
%TO.N,Net-(RV1-Pad2)*%
X65995001Y-62995001D02*
X68500000Y-65500000D01*
X65995001Y-60000000D02*
X65995001Y-62995001D01*
X68500000Y-65500000D02*
X68500000Y-68525000D01*
%TD*%
M02*
