%TF.GenerationSoftware,KiCad,Pcbnew,8.0.8*%
%TF.CreationDate,2025-02-02T21:03:06-08:00*%
%TF.ProjectId,D1Mini,44314d69-6e69-42e6-9b69-6361645f7063,rev?*%
%TF.SameCoordinates,Original*%
%TF.FileFunction,Drillmap*%
%TF.FilePolarity,Positive*%
%FSLAX45Y45*%
G04 Gerber Fmt 4.5, Leading zero omitted, Abs format (unit mm)*
G04 Created by KiCad (PCBNEW 8.0.8) date 2025-02-02 21:03:06*
%MOMM*%
%LPD*%
G01*
G04 APERTURE LIST*
%ADD10C,0.050000*%
%ADD11C,0.200000*%
G04 APERTURE END LIST*
D10*
X9294090Y-2278246D02*
X15142811Y-2278246D01*
X15142811Y-7522298D01*
X9294090Y-7522298D01*
X9294090Y-2278246D01*
D11*
X9552367Y-7836282D02*
X9552367Y-7636282D01*
X9552367Y-7636282D02*
X9599986Y-7636282D01*
X9599986Y-7636282D02*
X9628558Y-7645805D01*
X9628558Y-7645805D02*
X9647605Y-7664853D01*
X9647605Y-7664853D02*
X9657129Y-7683901D01*
X9657129Y-7683901D02*
X9666653Y-7721996D01*
X9666653Y-7721996D02*
X9666653Y-7750567D01*
X9666653Y-7750567D02*
X9657129Y-7788662D01*
X9657129Y-7788662D02*
X9647605Y-7807710D01*
X9647605Y-7807710D02*
X9628558Y-7826758D01*
X9628558Y-7826758D02*
X9599986Y-7836282D01*
X9599986Y-7836282D02*
X9552367Y-7836282D01*
X9752367Y-7836282D02*
X9752367Y-7702948D01*
X9752367Y-7741043D02*
X9761891Y-7721996D01*
X9761891Y-7721996D02*
X9771415Y-7712472D01*
X9771415Y-7712472D02*
X9790462Y-7702948D01*
X9790462Y-7702948D02*
X9809510Y-7702948D01*
X9876177Y-7836282D02*
X9876177Y-7702948D01*
X9876177Y-7636282D02*
X9866653Y-7645805D01*
X9866653Y-7645805D02*
X9876177Y-7655329D01*
X9876177Y-7655329D02*
X9885701Y-7645805D01*
X9885701Y-7645805D02*
X9876177Y-7636282D01*
X9876177Y-7636282D02*
X9876177Y-7655329D01*
X9999986Y-7836282D02*
X9980939Y-7826758D01*
X9980939Y-7826758D02*
X9971415Y-7807710D01*
X9971415Y-7807710D02*
X9971415Y-7636282D01*
X10104748Y-7836282D02*
X10085701Y-7826758D01*
X10085701Y-7826758D02*
X10076177Y-7807710D01*
X10076177Y-7807710D02*
X10076177Y-7636282D01*
X10333320Y-7836282D02*
X10333320Y-7636282D01*
X10333320Y-7636282D02*
X10399986Y-7779139D01*
X10399986Y-7779139D02*
X10466653Y-7636282D01*
X10466653Y-7636282D02*
X10466653Y-7836282D01*
X10647605Y-7836282D02*
X10647605Y-7731520D01*
X10647605Y-7731520D02*
X10638082Y-7712472D01*
X10638082Y-7712472D02*
X10619034Y-7702948D01*
X10619034Y-7702948D02*
X10580939Y-7702948D01*
X10580939Y-7702948D02*
X10561891Y-7712472D01*
X10647605Y-7826758D02*
X10628558Y-7836282D01*
X10628558Y-7836282D02*
X10580939Y-7836282D01*
X10580939Y-7836282D02*
X10561891Y-7826758D01*
X10561891Y-7826758D02*
X10552367Y-7807710D01*
X10552367Y-7807710D02*
X10552367Y-7788662D01*
X10552367Y-7788662D02*
X10561891Y-7769615D01*
X10561891Y-7769615D02*
X10580939Y-7760091D01*
X10580939Y-7760091D02*
X10628558Y-7760091D01*
X10628558Y-7760091D02*
X10647605Y-7750567D01*
X10742843Y-7702948D02*
X10742843Y-7902948D01*
X10742843Y-7712472D02*
X10761891Y-7702948D01*
X10761891Y-7702948D02*
X10799986Y-7702948D01*
X10799986Y-7702948D02*
X10819034Y-7712472D01*
X10819034Y-7712472D02*
X10828558Y-7721996D01*
X10828558Y-7721996D02*
X10838082Y-7741043D01*
X10838082Y-7741043D02*
X10838082Y-7798186D01*
X10838082Y-7798186D02*
X10828558Y-7817234D01*
X10828558Y-7817234D02*
X10819034Y-7826758D01*
X10819034Y-7826758D02*
X10799986Y-7836282D01*
X10799986Y-7836282D02*
X10761891Y-7836282D01*
X10761891Y-7836282D02*
X10742843Y-7826758D01*
X10923796Y-7817234D02*
X10933320Y-7826758D01*
X10933320Y-7826758D02*
X10923796Y-7836282D01*
X10923796Y-7836282D02*
X10914272Y-7826758D01*
X10914272Y-7826758D02*
X10923796Y-7817234D01*
X10923796Y-7817234D02*
X10923796Y-7836282D01*
X10923796Y-7712472D02*
X10933320Y-7721996D01*
X10933320Y-7721996D02*
X10923796Y-7731520D01*
X10923796Y-7731520D02*
X10914272Y-7721996D01*
X10914272Y-7721996D02*
X10923796Y-7712472D01*
X10923796Y-7712472D02*
X10923796Y-7731520D01*
M02*
