%TF.GenerationSoftware,KiCad,Pcbnew,8.0.8*%
%TF.CreationDate,2025-02-02T21:03:06-08:00*%
%TF.ProjectId,D1Mini,44314d69-6e69-42e6-9b69-6361645f7063,rev?*%
%TF.SameCoordinates,Original*%
%TF.FileFunction,Drillmap*%
%TF.FilePolarity,Positive*%
%FSLAX45Y45*%
G04 Gerber Fmt 4.5, Leading zero omitted, Abs format (unit mm)*
G04 Created by KiCad (PCBNEW 8.0.8) date 2025-02-02 21:03:06*
%MOMM*%
%LPD*%
G01*
G04 APERTURE LIST*
%ADD10C,0.050000*%
%ADD11C,0.200000*%
%ADD12C,0.100000*%
%ADD13C,0.110000*%
%ADD14C,0.130000*%
%ADD15C,0.185000*%
%ADD16C,0.210000*%
%ADD17C,0.210950*%
%ADD18C,0.316230*%
G04 APERTURE END LIST*
D10*
X9294090Y-2278246D02*
X15142811Y-2278246D01*
X15142811Y-7522298D01*
X9294090Y-7522298D01*
X9294090Y-2278246D01*
D11*
D12*
X9956695Y-6487434D02*
X10016695Y-6547434D01*
X10016695Y-6487434D02*
X9956695Y-6547434D01*
X10156695Y-6487434D02*
X10216695Y-6547434D01*
X10216695Y-6487434D02*
X10156695Y-6547434D01*
X10150467Y-4639395D02*
G75*
G02*
X10075467Y-4639395I-37500J0D01*
G01*
X10075467Y-4639395D02*
G75*
G02*
X10150467Y-4639395I37500J0D01*
G01*
X10150467Y-5579395D02*
G75*
G02*
X10075467Y-5579395I-37500J0D01*
G01*
X10075467Y-5579395D02*
G75*
G02*
X10150467Y-5579395I37500J0D01*
G01*
X10939120Y-3869432D02*
G75*
G02*
X10864120Y-3869432I-37500J0D01*
G01*
X10864120Y-3869432D02*
G75*
G02*
X10939120Y-3869432I37500J0D01*
G01*
X11266477Y-3200670D02*
G75*
G02*
X11191477Y-3200670I-37500J0D01*
G01*
X11191477Y-3200670D02*
G75*
G02*
X11266477Y-3200670I37500J0D01*
G01*
X11430721Y-4400512D02*
G75*
G02*
X11355721Y-4400512I-37500J0D01*
G01*
X11355721Y-4400512D02*
G75*
G02*
X11430721Y-4400512I37500J0D01*
G01*
X11456134Y-4752410D02*
G75*
G02*
X11381134Y-4752410I-37500J0D01*
G01*
X11381134Y-4752410D02*
G75*
G02*
X11456134Y-4752410I37500J0D01*
G01*
X11594066Y-2933425D02*
G75*
G02*
X11519066Y-2933425I-37500J0D01*
G01*
X11519066Y-2933425D02*
G75*
G02*
X11594066Y-2933425I37500J0D01*
G01*
X11608927Y-3881722D02*
G75*
G02*
X11533927Y-3881722I-37500J0D01*
G01*
X11533927Y-3881722D02*
G75*
G02*
X11608927Y-3881722I37500J0D01*
G01*
X13993183Y-4528270D02*
G75*
G02*
X13918183Y-4528270I-37500J0D01*
G01*
X13918183Y-4528270D02*
G75*
G02*
X13993183Y-4528270I37500J0D01*
G01*
X11053865Y-2457390D02*
X11053865Y-2533590D01*
X11015765Y-2495490D02*
X11091965Y-2495490D01*
X11307865Y-2457390D02*
X11307865Y-2533590D01*
X11269765Y-2495490D02*
X11345965Y-2495490D01*
X11561865Y-2457390D02*
X11561865Y-2533590D01*
X11523765Y-2495490D02*
X11599965Y-2495490D01*
X11815865Y-2457390D02*
X11815865Y-2533590D01*
X11777765Y-2495490D02*
X11853965Y-2495490D01*
X11866770Y-5527268D02*
X11866770Y-5603468D01*
X11828670Y-5565368D02*
X11904870Y-5565368D01*
X12069865Y-2457390D02*
X12069865Y-2533590D01*
X12031765Y-2495490D02*
X12107965Y-2495490D01*
X12120770Y-5527268D02*
X12120770Y-5603468D01*
X12082670Y-5565368D02*
X12158870Y-5565368D01*
X12124770Y-7227268D02*
X12124770Y-7303468D01*
X12086670Y-7265368D02*
X12162870Y-7265368D01*
X12162870Y-7303468D02*
X12162870Y-7227268D01*
X12086670Y-7227268D02*
G75*
G02*
X12162870Y-7227268I38100J0D01*
G01*
X12086670Y-7227268D02*
X12086670Y-7303468D01*
X12086670Y-7303468D02*
G75*
G03*
X12162870Y-7303468I38100J0D01*
G01*
X12323865Y-2457390D02*
X12323865Y-2533590D01*
X12285765Y-2495490D02*
X12361965Y-2495490D01*
X12374770Y-5527268D02*
X12374770Y-5603468D01*
X12336670Y-5565368D02*
X12412870Y-5565368D01*
X12374770Y-7227268D02*
X12374770Y-7303468D01*
X12336670Y-7265368D02*
X12412870Y-7265368D01*
X12412870Y-7303468D02*
X12412870Y-7227268D01*
X12336670Y-7227268D02*
G75*
G02*
X12412870Y-7227268I38100J0D01*
G01*
X12336670Y-7227268D02*
X12336670Y-7303468D01*
X12336670Y-7303468D02*
G75*
G03*
X12412870Y-7303468I38100J0D01*
G01*
X12577865Y-2457390D02*
X12577865Y-2533590D01*
X12539765Y-2495490D02*
X12615965Y-2495490D01*
X12628770Y-5527268D02*
X12628770Y-5603468D01*
X12590670Y-5565368D02*
X12666870Y-5565368D01*
X12882770Y-5527268D02*
X12882770Y-5603468D01*
X12844670Y-5565368D02*
X12920870Y-5565368D01*
X9747592Y-5328750D02*
X9747592Y-5272181D01*
X9691023Y-5272181D01*
X9691023Y-5328750D01*
X9747592Y-5328750D01*
X9747592Y-5528750D02*
X9747592Y-5472181D01*
X9691023Y-5472181D01*
X9691023Y-5528750D01*
X9747592Y-5528750D01*
X13295306Y-5884155D02*
X13295306Y-5827586D01*
X13238737Y-5827586D01*
X13238737Y-5884155D01*
X13295306Y-5884155D01*
X13295306Y-6646155D02*
X13295306Y-6589586D01*
X13238737Y-6589586D01*
X13238737Y-6646155D01*
X13295306Y-6646155D01*
X13593662Y-7086754D02*
X13593662Y-7030185D01*
X13537093Y-7030185D01*
X13537093Y-7086754D01*
X13593662Y-7086754D01*
X14355662Y-7086754D02*
X14355662Y-7030185D01*
X14299093Y-7030185D01*
X14299093Y-7086754D01*
X14355662Y-7086754D01*
X10567793Y-5435344D02*
X10615293Y-5387844D01*
X10567793Y-5340344D01*
X10520293Y-5387844D01*
X10567793Y-5435344D01*
X10567793Y-5689344D02*
X10615293Y-5641844D01*
X10567793Y-5594344D01*
X10520293Y-5641844D01*
X10567793Y-5689344D01*
X10567793Y-5943344D02*
X10615293Y-5895844D01*
X10567793Y-5848344D01*
X10520293Y-5895844D01*
X10567793Y-5943344D01*
X11329793Y-5435344D02*
X11377293Y-5387844D01*
X11329793Y-5340344D01*
X11282293Y-5387844D01*
X11329793Y-5435344D01*
X11329793Y-5689344D02*
X11377293Y-5641844D01*
X11329793Y-5594344D01*
X11282293Y-5641844D01*
X11329793Y-5689344D01*
X11329793Y-5943344D02*
X11377293Y-5895844D01*
X11329793Y-5848344D01*
X11282293Y-5895844D01*
X11329793Y-5943344D01*
X10631244Y-2392041D02*
X10731244Y-2492041D01*
X10731244Y-2392041D02*
X10631244Y-2492041D01*
X10731244Y-2442041D02*
G75*
G02*
X10631244Y-2442041I-50000J0D01*
G01*
X10631244Y-2442041D02*
G75*
G02*
X10731244Y-2442041I50000J0D01*
G01*
X10631244Y-2646041D02*
X10731244Y-2746041D01*
X10731244Y-2646041D02*
X10631244Y-2746041D01*
X10731244Y-2696041D02*
G75*
G02*
X10631244Y-2696041I-50000J0D01*
G01*
X10631244Y-2696041D02*
G75*
G02*
X10731244Y-2696041I50000J0D01*
G01*
X10631244Y-2900041D02*
X10731244Y-3000041D01*
X10731244Y-2900041D02*
X10631244Y-3000041D01*
X10731244Y-2950041D02*
G75*
G02*
X10631244Y-2950041I-50000J0D01*
G01*
X10631244Y-2950041D02*
G75*
G02*
X10731244Y-2950041I50000J0D01*
G01*
X10631244Y-3154041D02*
X10731244Y-3254041D01*
X10731244Y-3154041D02*
X10631244Y-3254041D01*
X10731244Y-3204041D02*
G75*
G02*
X10631244Y-3204041I-50000J0D01*
G01*
X10631244Y-3204041D02*
G75*
G02*
X10731244Y-3204041I50000J0D01*
G01*
X10631244Y-3408041D02*
X10731244Y-3508041D01*
X10731244Y-3408041D02*
X10631244Y-3508041D01*
X10731244Y-3458041D02*
G75*
G02*
X10631244Y-3458041I-50000J0D01*
G01*
X10631244Y-3458041D02*
G75*
G02*
X10731244Y-3458041I50000J0D01*
G01*
X10631244Y-3662041D02*
X10731244Y-3762041D01*
X10731244Y-3662041D02*
X10631244Y-3762041D01*
X10731244Y-3712041D02*
G75*
G02*
X10631244Y-3712041I-50000J0D01*
G01*
X10631244Y-3712041D02*
G75*
G02*
X10731244Y-3712041I50000J0D01*
G01*
X10631244Y-3916041D02*
X10731244Y-4016041D01*
X10731244Y-3916041D02*
X10631244Y-4016041D01*
X10731244Y-3966041D02*
G75*
G02*
X10631244Y-3966041I-50000J0D01*
G01*
X10631244Y-3966041D02*
G75*
G02*
X10731244Y-3966041I50000J0D01*
G01*
X10631244Y-4170041D02*
X10731244Y-4270041D01*
X10731244Y-4170041D02*
X10631244Y-4270041D01*
X10731244Y-4220041D02*
G75*
G02*
X10631244Y-4220041I-50000J0D01*
G01*
X10631244Y-4220041D02*
G75*
G02*
X10731244Y-4220041I50000J0D01*
G01*
X12917244Y-2392041D02*
X13017244Y-2492041D01*
X13017244Y-2392041D02*
X12917244Y-2492041D01*
X13017244Y-2442041D02*
G75*
G02*
X12917244Y-2442041I-50000J0D01*
G01*
X12917244Y-2442041D02*
G75*
G02*
X13017244Y-2442041I50000J0D01*
G01*
X12917244Y-2646041D02*
X13017244Y-2746041D01*
X13017244Y-2646041D02*
X12917244Y-2746041D01*
X13017244Y-2696041D02*
G75*
G02*
X12917244Y-2696041I-50000J0D01*
G01*
X12917244Y-2696041D02*
G75*
G02*
X13017244Y-2696041I50000J0D01*
G01*
X12917244Y-2900041D02*
X13017244Y-3000041D01*
X13017244Y-2900041D02*
X12917244Y-3000041D01*
X13017244Y-2950041D02*
G75*
G02*
X12917244Y-2950041I-50000J0D01*
G01*
X12917244Y-2950041D02*
G75*
G02*
X13017244Y-2950041I50000J0D01*
G01*
X12917244Y-3154041D02*
X13017244Y-3254041D01*
X13017244Y-3154041D02*
X12917244Y-3254041D01*
X13017244Y-3204041D02*
G75*
G02*
X12917244Y-3204041I-50000J0D01*
G01*
X12917244Y-3204041D02*
G75*
G02*
X13017244Y-3204041I50000J0D01*
G01*
X12917244Y-3408041D02*
X13017244Y-3508041D01*
X13017244Y-3408041D02*
X12917244Y-3508041D01*
X13017244Y-3458041D02*
G75*
G02*
X12917244Y-3458041I-50000J0D01*
G01*
X12917244Y-3458041D02*
G75*
G02*
X13017244Y-3458041I50000J0D01*
G01*
X12917244Y-3662041D02*
X13017244Y-3762041D01*
X13017244Y-3662041D02*
X12917244Y-3762041D01*
X13017244Y-3712041D02*
G75*
G02*
X12917244Y-3712041I-50000J0D01*
G01*
X12917244Y-3712041D02*
G75*
G02*
X13017244Y-3712041I50000J0D01*
G01*
X12917244Y-3916041D02*
X13017244Y-4016041D01*
X13017244Y-3916041D02*
X12917244Y-4016041D01*
X13017244Y-3966041D02*
G75*
G02*
X12917244Y-3966041I-50000J0D01*
G01*
X12917244Y-3966041D02*
G75*
G02*
X13017244Y-3966041I50000J0D01*
G01*
X12917244Y-4170041D02*
X13017244Y-4270041D01*
X13017244Y-4170041D02*
X12917244Y-4270041D01*
X13017244Y-4220041D02*
G75*
G02*
X12917244Y-4220041I-50000J0D01*
G01*
X12917244Y-4220041D02*
G75*
G02*
X13017244Y-4220041I50000J0D01*
G01*
X13894612Y-6594664D02*
X13994612Y-6694664D01*
X13994612Y-6594664D02*
X13894612Y-6694664D01*
X13994612Y-6644664D02*
G75*
G02*
X13894612Y-6644664I-50000J0D01*
G01*
X13894612Y-6644664D02*
G75*
G02*
X13994612Y-6644664I50000J0D01*
G01*
X14144612Y-6594664D02*
X14244612Y-6694664D01*
X14244612Y-6594664D02*
X14144612Y-6694664D01*
X14244612Y-6644664D02*
G75*
G02*
X14144612Y-6644664I-50000J0D01*
G01*
X14144612Y-6644664D02*
G75*
G02*
X14244612Y-6644664I50000J0D01*
G01*
X14394612Y-6594664D02*
X14494612Y-6694664D01*
X14494612Y-6594664D02*
X14394612Y-6694664D01*
X14494612Y-6644664D02*
G75*
G02*
X14394612Y-6644664I-50000J0D01*
G01*
X14394612Y-6644664D02*
G75*
G02*
X14494612Y-6644664I50000J0D01*
G01*
D13*
X9602578Y-5912852D02*
X9712578Y-6022852D01*
X9712578Y-5912852D02*
X9602578Y-6022852D01*
X9657578Y-5912852D02*
X9657578Y-6022852D01*
X9602578Y-5967852D02*
X9712578Y-5967852D01*
X9602578Y-6166852D02*
X9712578Y-6276852D01*
X9712578Y-6166852D02*
X9602578Y-6276852D01*
X9657578Y-6166852D02*
X9657578Y-6276852D01*
X9602578Y-6221852D02*
X9712578Y-6221852D01*
X9602578Y-6420852D02*
X9712578Y-6530852D01*
X9712578Y-6420852D02*
X9602578Y-6530852D01*
X9657578Y-6420852D02*
X9657578Y-6530852D01*
X9602578Y-6475852D02*
X9712578Y-6475852D01*
X13902581Y-4821224D02*
X14012581Y-4931224D01*
X14012581Y-4821224D02*
X13902581Y-4931224D01*
X13957581Y-4821224D02*
X13957581Y-4931224D01*
X13902581Y-4876224D02*
X14012581Y-4876224D01*
X13929089Y-2387872D02*
X14039089Y-2497872D01*
X14039089Y-2387872D02*
X13929089Y-2497872D01*
X13984089Y-2387872D02*
X13984089Y-2497872D01*
X13929089Y-2442872D02*
X14039089Y-2442872D01*
X13929089Y-3037872D02*
X14039089Y-3147872D01*
X14039089Y-3037872D02*
X13929089Y-3147872D01*
X13984089Y-3037872D02*
X13984089Y-3147872D01*
X13929089Y-3092872D02*
X14039089Y-3092872D01*
X14152581Y-4821224D02*
X14262581Y-4931224D01*
X14262581Y-4821224D02*
X14152581Y-4931224D01*
X14207581Y-4821224D02*
X14207581Y-4931224D01*
X14152581Y-4876224D02*
X14262581Y-4876224D01*
X14379089Y-2387872D02*
X14489089Y-2497872D01*
X14489089Y-2387872D02*
X14379089Y-2497872D01*
X14434089Y-2387872D02*
X14434089Y-2497872D01*
X14379089Y-2442872D02*
X14489089Y-2442872D01*
X14379089Y-3037872D02*
X14489089Y-3147872D01*
X14489089Y-3037872D02*
X14379089Y-3147872D01*
X14434089Y-3037872D02*
X14434089Y-3147872D01*
X14379089Y-3092872D02*
X14489089Y-3092872D01*
X14402581Y-4821224D02*
X14512581Y-4931224D01*
X14512581Y-4821224D02*
X14402581Y-4931224D01*
X14457581Y-4821224D02*
X14457581Y-4931224D01*
X14402581Y-4876224D02*
X14512581Y-4876224D01*
D14*
X9671945Y-3030811D02*
X9801945Y-3160811D01*
X9801945Y-3030811D02*
X9671945Y-3160811D01*
X9782908Y-3141774D02*
X9782908Y-3049849D01*
X9690983Y-3049849D01*
X9690983Y-3141774D01*
X9782908Y-3141774D01*
X9671945Y-3284811D02*
X9801945Y-3414811D01*
X9801945Y-3284811D02*
X9671945Y-3414811D01*
X9782908Y-3395774D02*
X9782908Y-3303849D01*
X9690983Y-3303849D01*
X9690983Y-3395774D01*
X9782908Y-3395774D01*
X10620113Y-7089478D02*
X10750113Y-7219478D01*
X10750113Y-7089478D02*
X10620113Y-7219478D01*
X10731076Y-7200440D02*
X10731076Y-7108515D01*
X10639151Y-7108515D01*
X10639151Y-7200440D01*
X10731076Y-7200440D01*
X10874113Y-7089478D02*
X11004113Y-7219478D01*
X11004113Y-7089478D02*
X10874113Y-7219478D01*
X10985076Y-7200440D02*
X10985076Y-7108515D01*
X10893151Y-7108515D01*
X10893151Y-7200440D01*
X10985076Y-7200440D01*
X11128113Y-7089478D02*
X11258113Y-7219478D01*
X11258113Y-7089478D02*
X11128113Y-7219478D01*
X11239075Y-7200440D02*
X11239075Y-7108515D01*
X11147151Y-7108515D01*
X11147151Y-7200440D01*
X11239075Y-7200440D01*
X11382113Y-7089478D02*
X11512113Y-7219478D01*
X11512113Y-7089478D02*
X11382113Y-7219478D01*
X11493075Y-7200440D02*
X11493075Y-7108515D01*
X11401151Y-7108515D01*
X11401151Y-7200440D01*
X11493075Y-7200440D01*
D15*
X9644445Y-3796987D02*
X9829445Y-3981987D01*
X9829445Y-3796987D02*
X9644445Y-3981987D01*
X9736945Y-3981987D02*
X9829445Y-3889487D01*
X9736945Y-3796987D01*
X9644445Y-3889487D01*
X9736945Y-3981987D01*
X9644445Y-4266987D02*
X9829445Y-4451987D01*
X9829445Y-4266987D02*
X9644445Y-4451987D01*
X9736945Y-4451987D02*
X9829445Y-4359487D01*
X9736945Y-4266987D01*
X9644445Y-4359487D01*
X9736945Y-4451987D01*
X9644445Y-4736987D02*
X9829445Y-4921987D01*
X9829445Y-4736987D02*
X9644445Y-4921987D01*
X9736945Y-4921987D02*
X9829445Y-4829487D01*
X9736945Y-4736987D01*
X9644445Y-4829487D01*
X9736945Y-4921987D01*
D16*
X9736945Y-2495000D02*
X9736945Y-2705000D01*
X9631945Y-2600000D02*
X9841945Y-2600000D01*
X9841945Y-2600000D02*
G75*
G02*
X9631945Y-2600000I-105000J0D01*
G01*
X9631945Y-2600000D02*
G75*
G02*
X9841945Y-2600000I105000J0D01*
G01*
X9736945Y-6995000D02*
X9736945Y-7205000D01*
X9631945Y-7100000D02*
X9841945Y-7100000D01*
X9841945Y-7100000D02*
G75*
G02*
X9631945Y-7100000I-105000J0D01*
G01*
X9631945Y-7100000D02*
G75*
G02*
X9841945Y-7100000I105000J0D01*
G01*
X14900000Y-2495000D02*
X14900000Y-2705000D01*
X14795000Y-2600000D02*
X15005000Y-2600000D01*
X15005000Y-2600000D02*
G75*
G02*
X14795000Y-2600000I-105000J0D01*
G01*
X14795000Y-2600000D02*
G75*
G02*
X15005000Y-2600000I105000J0D01*
G01*
X14900000Y-6995000D02*
X14900000Y-7205000D01*
X14795000Y-7100000D02*
X15005000Y-7100000D01*
X15005000Y-7100000D02*
G75*
G02*
X14795000Y-7100000I-105000J0D01*
G01*
X14795000Y-7100000D02*
G75*
G02*
X15005000Y-7100000I105000J0D01*
G01*
D17*
X13794195Y-5969247D02*
X13794195Y-5820081D01*
X13645029Y-5820081D01*
X13645029Y-5969247D01*
X13794195Y-5969247D01*
X13825087Y-5894664D02*
G75*
G02*
X13614137Y-5894664I-105475J0D01*
G01*
X13614137Y-5894664D02*
G75*
G02*
X13825087Y-5894664I105475J0D01*
G01*
X14744195Y-5969247D02*
X14744195Y-5820081D01*
X14595029Y-5820081D01*
X14595029Y-5969247D01*
X14744195Y-5969247D01*
X14775087Y-5894664D02*
G75*
G02*
X14564137Y-5894664I-105475J0D01*
G01*
X14564137Y-5894664D02*
G75*
G02*
X14775087Y-5894664I105475J0D01*
G01*
D18*
X13637581Y-4284339D02*
X13795696Y-4126224D01*
X13637581Y-3968109D01*
X13479466Y-4126224D01*
X13637581Y-4284339D01*
X13795696Y-4126224D02*
G75*
G02*
X13479466Y-4126224I-158115J0D01*
G01*
X13479466Y-4126224D02*
G75*
G02*
X13795696Y-4126224I158115J0D01*
G01*
X14777581Y-4284339D02*
X14935696Y-4126224D01*
X14777581Y-3968109D01*
X14619466Y-4126224D01*
X14777581Y-4284339D01*
X14935696Y-4126224D02*
G75*
G02*
X14619466Y-4126224I-158115J0D01*
G01*
X14619466Y-4126224D02*
G75*
G02*
X14935696Y-4126224I158115J0D01*
G01*
D11*
X9552367Y-7836282D02*
X9552367Y-7636282D01*
X9552367Y-7636282D02*
X9599986Y-7636282D01*
X9599986Y-7636282D02*
X9628558Y-7645805D01*
X9628558Y-7645805D02*
X9647605Y-7664853D01*
X9647605Y-7664853D02*
X9657129Y-7683901D01*
X9657129Y-7683901D02*
X9666653Y-7721996D01*
X9666653Y-7721996D02*
X9666653Y-7750567D01*
X9666653Y-7750567D02*
X9657129Y-7788662D01*
X9657129Y-7788662D02*
X9647605Y-7807710D01*
X9647605Y-7807710D02*
X9628558Y-7826758D01*
X9628558Y-7826758D02*
X9599986Y-7836282D01*
X9599986Y-7836282D02*
X9552367Y-7836282D01*
X9752367Y-7836282D02*
X9752367Y-7702948D01*
X9752367Y-7741043D02*
X9761891Y-7721996D01*
X9761891Y-7721996D02*
X9771415Y-7712472D01*
X9771415Y-7712472D02*
X9790462Y-7702948D01*
X9790462Y-7702948D02*
X9809510Y-7702948D01*
X9876177Y-7836282D02*
X9876177Y-7702948D01*
X9876177Y-7636282D02*
X9866653Y-7645805D01*
X9866653Y-7645805D02*
X9876177Y-7655329D01*
X9876177Y-7655329D02*
X9885701Y-7645805D01*
X9885701Y-7645805D02*
X9876177Y-7636282D01*
X9876177Y-7636282D02*
X9876177Y-7655329D01*
X9999986Y-7836282D02*
X9980939Y-7826758D01*
X9980939Y-7826758D02*
X9971415Y-7807710D01*
X9971415Y-7807710D02*
X9971415Y-7636282D01*
X10104748Y-7836282D02*
X10085701Y-7826758D01*
X10085701Y-7826758D02*
X10076177Y-7807710D01*
X10076177Y-7807710D02*
X10076177Y-7636282D01*
X10333320Y-7836282D02*
X10333320Y-7636282D01*
X10333320Y-7636282D02*
X10399986Y-7779139D01*
X10399986Y-7779139D02*
X10466653Y-7636282D01*
X10466653Y-7636282D02*
X10466653Y-7836282D01*
X10647605Y-7836282D02*
X10647605Y-7731520D01*
X10647605Y-7731520D02*
X10638082Y-7712472D01*
X10638082Y-7712472D02*
X10619034Y-7702948D01*
X10619034Y-7702948D02*
X10580939Y-7702948D01*
X10580939Y-7702948D02*
X10561891Y-7712472D01*
X10647605Y-7826758D02*
X10628558Y-7836282D01*
X10628558Y-7836282D02*
X10580939Y-7836282D01*
X10580939Y-7836282D02*
X10561891Y-7826758D01*
X10561891Y-7826758D02*
X10552367Y-7807710D01*
X10552367Y-7807710D02*
X10552367Y-7788662D01*
X10552367Y-7788662D02*
X10561891Y-7769615D01*
X10561891Y-7769615D02*
X10580939Y-7760091D01*
X10580939Y-7760091D02*
X10628558Y-7760091D01*
X10628558Y-7760091D02*
X10647605Y-7750567D01*
X10742843Y-7702948D02*
X10742843Y-7902948D01*
X10742843Y-7712472D02*
X10761891Y-7702948D01*
X10761891Y-7702948D02*
X10799986Y-7702948D01*
X10799986Y-7702948D02*
X10819034Y-7712472D01*
X10819034Y-7712472D02*
X10828558Y-7721996D01*
X10828558Y-7721996D02*
X10838082Y-7741043D01*
X10838082Y-7741043D02*
X10838082Y-7798186D01*
X10838082Y-7798186D02*
X10828558Y-7817234D01*
X10828558Y-7817234D02*
X10819034Y-7826758D01*
X10819034Y-7826758D02*
X10799986Y-7836282D01*
X10799986Y-7836282D02*
X10761891Y-7836282D01*
X10761891Y-7836282D02*
X10742843Y-7826758D01*
X10923796Y-7817234D02*
X10933320Y-7826758D01*
X10933320Y-7826758D02*
X10923796Y-7836282D01*
X10923796Y-7836282D02*
X10914272Y-7826758D01*
X10914272Y-7826758D02*
X10923796Y-7817234D01*
X10923796Y-7817234D02*
X10923796Y-7836282D01*
X10923796Y-7712472D02*
X10933320Y-7721996D01*
X10933320Y-7721996D02*
X10923796Y-7731520D01*
X10923796Y-7731520D02*
X10914272Y-7721996D01*
X10914272Y-7721996D02*
X10923796Y-7712472D01*
X10923796Y-7712472D02*
X10923796Y-7731520D01*
D12*
X9231590Y-8134798D02*
X9291590Y-8194798D01*
X9291590Y-8134798D02*
X9231590Y-8194798D01*
D11*
X9590462Y-8056282D02*
X9609510Y-8056282D01*
X9609510Y-8056282D02*
X9628558Y-8065805D01*
X9628558Y-8065805D02*
X9638082Y-8075329D01*
X9638082Y-8075329D02*
X9647605Y-8094377D01*
X9647605Y-8094377D02*
X9657129Y-8132472D01*
X9657129Y-8132472D02*
X9657129Y-8180091D01*
X9657129Y-8180091D02*
X9647605Y-8218186D01*
X9647605Y-8218186D02*
X9638082Y-8237234D01*
X9638082Y-8237234D02*
X9628558Y-8246758D01*
X9628558Y-8246758D02*
X9609510Y-8256282D01*
X9609510Y-8256282D02*
X9590462Y-8256282D01*
X9590462Y-8256282D02*
X9571415Y-8246758D01*
X9571415Y-8246758D02*
X9561891Y-8237234D01*
X9561891Y-8237234D02*
X9552367Y-8218186D01*
X9552367Y-8218186D02*
X9542843Y-8180091D01*
X9542843Y-8180091D02*
X9542843Y-8132472D01*
X9542843Y-8132472D02*
X9552367Y-8094377D01*
X9552367Y-8094377D02*
X9561891Y-8075329D01*
X9561891Y-8075329D02*
X9571415Y-8065805D01*
X9571415Y-8065805D02*
X9590462Y-8056282D01*
X9742843Y-8237234D02*
X9752367Y-8246758D01*
X9752367Y-8246758D02*
X9742843Y-8256282D01*
X9742843Y-8256282D02*
X9733320Y-8246758D01*
X9733320Y-8246758D02*
X9742843Y-8237234D01*
X9742843Y-8237234D02*
X9742843Y-8256282D01*
X9923796Y-8056282D02*
X9885701Y-8056282D01*
X9885701Y-8056282D02*
X9866653Y-8065805D01*
X9866653Y-8065805D02*
X9857129Y-8075329D01*
X9857129Y-8075329D02*
X9838082Y-8103901D01*
X9838082Y-8103901D02*
X9828558Y-8141996D01*
X9828558Y-8141996D02*
X9828558Y-8218186D01*
X9828558Y-8218186D02*
X9838082Y-8237234D01*
X9838082Y-8237234D02*
X9847605Y-8246758D01*
X9847605Y-8246758D02*
X9866653Y-8256282D01*
X9866653Y-8256282D02*
X9904748Y-8256282D01*
X9904748Y-8256282D02*
X9923796Y-8246758D01*
X9923796Y-8246758D02*
X9933320Y-8237234D01*
X9933320Y-8237234D02*
X9942843Y-8218186D01*
X9942843Y-8218186D02*
X9942843Y-8170567D01*
X9942843Y-8170567D02*
X9933320Y-8151520D01*
X9933320Y-8151520D02*
X9923796Y-8141996D01*
X9923796Y-8141996D02*
X9904748Y-8132472D01*
X9904748Y-8132472D02*
X9866653Y-8132472D01*
X9866653Y-8132472D02*
X9847605Y-8141996D01*
X9847605Y-8141996D02*
X9838082Y-8151520D01*
X9838082Y-8151520D02*
X9828558Y-8170567D01*
X10066653Y-8056282D02*
X10085701Y-8056282D01*
X10085701Y-8056282D02*
X10104748Y-8065805D01*
X10104748Y-8065805D02*
X10114272Y-8075329D01*
X10114272Y-8075329D02*
X10123796Y-8094377D01*
X10123796Y-8094377D02*
X10133320Y-8132472D01*
X10133320Y-8132472D02*
X10133320Y-8180091D01*
X10133320Y-8180091D02*
X10123796Y-8218186D01*
X10123796Y-8218186D02*
X10114272Y-8237234D01*
X10114272Y-8237234D02*
X10104748Y-8246758D01*
X10104748Y-8246758D02*
X10085701Y-8256282D01*
X10085701Y-8256282D02*
X10066653Y-8256282D01*
X10066653Y-8256282D02*
X10047605Y-8246758D01*
X10047605Y-8246758D02*
X10038082Y-8237234D01*
X10038082Y-8237234D02*
X10028558Y-8218186D01*
X10028558Y-8218186D02*
X10019034Y-8180091D01*
X10019034Y-8180091D02*
X10019034Y-8132472D01*
X10019034Y-8132472D02*
X10028558Y-8094377D01*
X10028558Y-8094377D02*
X10038082Y-8075329D01*
X10038082Y-8075329D02*
X10047605Y-8065805D01*
X10047605Y-8065805D02*
X10066653Y-8056282D01*
X10257129Y-8056282D02*
X10276177Y-8056282D01*
X10276177Y-8056282D02*
X10295224Y-8065805D01*
X10295224Y-8065805D02*
X10304748Y-8075329D01*
X10304748Y-8075329D02*
X10314272Y-8094377D01*
X10314272Y-8094377D02*
X10323796Y-8132472D01*
X10323796Y-8132472D02*
X10323796Y-8180091D01*
X10323796Y-8180091D02*
X10314272Y-8218186D01*
X10314272Y-8218186D02*
X10304748Y-8237234D01*
X10304748Y-8237234D02*
X10295224Y-8246758D01*
X10295224Y-8246758D02*
X10276177Y-8256282D01*
X10276177Y-8256282D02*
X10257129Y-8256282D01*
X10257129Y-8256282D02*
X10238082Y-8246758D01*
X10238082Y-8246758D02*
X10228558Y-8237234D01*
X10228558Y-8237234D02*
X10219034Y-8218186D01*
X10219034Y-8218186D02*
X10209510Y-8180091D01*
X10209510Y-8180091D02*
X10209510Y-8132472D01*
X10209510Y-8132472D02*
X10219034Y-8094377D01*
X10219034Y-8094377D02*
X10228558Y-8075329D01*
X10228558Y-8075329D02*
X10238082Y-8065805D01*
X10238082Y-8065805D02*
X10257129Y-8056282D01*
X10409510Y-8256282D02*
X10409510Y-8122948D01*
X10409510Y-8141996D02*
X10419034Y-8132472D01*
X10419034Y-8132472D02*
X10438082Y-8122948D01*
X10438082Y-8122948D02*
X10466653Y-8122948D01*
X10466653Y-8122948D02*
X10485701Y-8132472D01*
X10485701Y-8132472D02*
X10495224Y-8151520D01*
X10495224Y-8151520D02*
X10495224Y-8256282D01*
X10495224Y-8151520D02*
X10504748Y-8132472D01*
X10504748Y-8132472D02*
X10523796Y-8122948D01*
X10523796Y-8122948D02*
X10552367Y-8122948D01*
X10552367Y-8122948D02*
X10571415Y-8132472D01*
X10571415Y-8132472D02*
X10580939Y-8151520D01*
X10580939Y-8151520D02*
X10580939Y-8256282D01*
X10676177Y-8256282D02*
X10676177Y-8122948D01*
X10676177Y-8141996D02*
X10685701Y-8132472D01*
X10685701Y-8132472D02*
X10704748Y-8122948D01*
X10704748Y-8122948D02*
X10733320Y-8122948D01*
X10733320Y-8122948D02*
X10752367Y-8132472D01*
X10752367Y-8132472D02*
X10761891Y-8151520D01*
X10761891Y-8151520D02*
X10761891Y-8256282D01*
X10761891Y-8151520D02*
X10771415Y-8132472D01*
X10771415Y-8132472D02*
X10790463Y-8122948D01*
X10790463Y-8122948D02*
X10819034Y-8122948D01*
X10819034Y-8122948D02*
X10838082Y-8132472D01*
X10838082Y-8132472D02*
X10847605Y-8151520D01*
X10847605Y-8151520D02*
X10847605Y-8256282D01*
X11238082Y-8046758D02*
X11066653Y-8303901D01*
X11495224Y-8056282D02*
X11514272Y-8056282D01*
X11514272Y-8056282D02*
X11533320Y-8065805D01*
X11533320Y-8065805D02*
X11542844Y-8075329D01*
X11542844Y-8075329D02*
X11552367Y-8094377D01*
X11552367Y-8094377D02*
X11561891Y-8132472D01*
X11561891Y-8132472D02*
X11561891Y-8180091D01*
X11561891Y-8180091D02*
X11552367Y-8218186D01*
X11552367Y-8218186D02*
X11542844Y-8237234D01*
X11542844Y-8237234D02*
X11533320Y-8246758D01*
X11533320Y-8246758D02*
X11514272Y-8256282D01*
X11514272Y-8256282D02*
X11495224Y-8256282D01*
X11495224Y-8256282D02*
X11476177Y-8246758D01*
X11476177Y-8246758D02*
X11466653Y-8237234D01*
X11466653Y-8237234D02*
X11457129Y-8218186D01*
X11457129Y-8218186D02*
X11447605Y-8180091D01*
X11447605Y-8180091D02*
X11447605Y-8132472D01*
X11447605Y-8132472D02*
X11457129Y-8094377D01*
X11457129Y-8094377D02*
X11466653Y-8075329D01*
X11466653Y-8075329D02*
X11476177Y-8065805D01*
X11476177Y-8065805D02*
X11495224Y-8056282D01*
X11647605Y-8237234D02*
X11657129Y-8246758D01*
X11657129Y-8246758D02*
X11647605Y-8256282D01*
X11647605Y-8256282D02*
X11638082Y-8246758D01*
X11638082Y-8246758D02*
X11647605Y-8237234D01*
X11647605Y-8237234D02*
X11647605Y-8256282D01*
X11780939Y-8056282D02*
X11799986Y-8056282D01*
X11799986Y-8056282D02*
X11819034Y-8065805D01*
X11819034Y-8065805D02*
X11828558Y-8075329D01*
X11828558Y-8075329D02*
X11838082Y-8094377D01*
X11838082Y-8094377D02*
X11847605Y-8132472D01*
X11847605Y-8132472D02*
X11847605Y-8180091D01*
X11847605Y-8180091D02*
X11838082Y-8218186D01*
X11838082Y-8218186D02*
X11828558Y-8237234D01*
X11828558Y-8237234D02*
X11819034Y-8246758D01*
X11819034Y-8246758D02*
X11799986Y-8256282D01*
X11799986Y-8256282D02*
X11780939Y-8256282D01*
X11780939Y-8256282D02*
X11761891Y-8246758D01*
X11761891Y-8246758D02*
X11752367Y-8237234D01*
X11752367Y-8237234D02*
X11742844Y-8218186D01*
X11742844Y-8218186D02*
X11733320Y-8180091D01*
X11733320Y-8180091D02*
X11733320Y-8132472D01*
X11733320Y-8132472D02*
X11742844Y-8094377D01*
X11742844Y-8094377D02*
X11752367Y-8075329D01*
X11752367Y-8075329D02*
X11761891Y-8065805D01*
X11761891Y-8065805D02*
X11780939Y-8056282D01*
X11923796Y-8075329D02*
X11933320Y-8065805D01*
X11933320Y-8065805D02*
X11952367Y-8056282D01*
X11952367Y-8056282D02*
X11999986Y-8056282D01*
X11999986Y-8056282D02*
X12019034Y-8065805D01*
X12019034Y-8065805D02*
X12028558Y-8075329D01*
X12028558Y-8075329D02*
X12038082Y-8094377D01*
X12038082Y-8094377D02*
X12038082Y-8113424D01*
X12038082Y-8113424D02*
X12028558Y-8141996D01*
X12028558Y-8141996D02*
X11914272Y-8256282D01*
X11914272Y-8256282D02*
X12038082Y-8256282D01*
X12104748Y-8056282D02*
X12228558Y-8056282D01*
X12228558Y-8056282D02*
X12161891Y-8132472D01*
X12161891Y-8132472D02*
X12190463Y-8132472D01*
X12190463Y-8132472D02*
X12209510Y-8141996D01*
X12209510Y-8141996D02*
X12219034Y-8151520D01*
X12219034Y-8151520D02*
X12228558Y-8170567D01*
X12228558Y-8170567D02*
X12228558Y-8218186D01*
X12228558Y-8218186D02*
X12219034Y-8237234D01*
X12219034Y-8237234D02*
X12209510Y-8246758D01*
X12209510Y-8246758D02*
X12190463Y-8256282D01*
X12190463Y-8256282D02*
X12133320Y-8256282D01*
X12133320Y-8256282D02*
X12114272Y-8246758D01*
X12114272Y-8246758D02*
X12104748Y-8237234D01*
X12399986Y-8056282D02*
X12361891Y-8056282D01*
X12361891Y-8056282D02*
X12342844Y-8065805D01*
X12342844Y-8065805D02*
X12333320Y-8075329D01*
X12333320Y-8075329D02*
X12314272Y-8103901D01*
X12314272Y-8103901D02*
X12304748Y-8141996D01*
X12304748Y-8141996D02*
X12304748Y-8218186D01*
X12304748Y-8218186D02*
X12314272Y-8237234D01*
X12314272Y-8237234D02*
X12323796Y-8246758D01*
X12323796Y-8246758D02*
X12342844Y-8256282D01*
X12342844Y-8256282D02*
X12380939Y-8256282D01*
X12380939Y-8256282D02*
X12399986Y-8246758D01*
X12399986Y-8246758D02*
X12409510Y-8237234D01*
X12409510Y-8237234D02*
X12419034Y-8218186D01*
X12419034Y-8218186D02*
X12419034Y-8170567D01*
X12419034Y-8170567D02*
X12409510Y-8151520D01*
X12409510Y-8151520D02*
X12399986Y-8141996D01*
X12399986Y-8141996D02*
X12380939Y-8132472D01*
X12380939Y-8132472D02*
X12342844Y-8132472D01*
X12342844Y-8132472D02*
X12323796Y-8141996D01*
X12323796Y-8141996D02*
X12314272Y-8151520D01*
X12314272Y-8151520D02*
X12304748Y-8170567D01*
X12495225Y-8056282D02*
X12495225Y-8094377D01*
X12571415Y-8056282D02*
X12571415Y-8094377D01*
X12866653Y-8332472D02*
X12857129Y-8322948D01*
X12857129Y-8322948D02*
X12838082Y-8294377D01*
X12838082Y-8294377D02*
X12828558Y-8275329D01*
X12828558Y-8275329D02*
X12819034Y-8246758D01*
X12819034Y-8246758D02*
X12809510Y-8199139D01*
X12809510Y-8199139D02*
X12809510Y-8161043D01*
X12809510Y-8161043D02*
X12819034Y-8113424D01*
X12819034Y-8113424D02*
X12828558Y-8084853D01*
X12828558Y-8084853D02*
X12838082Y-8065805D01*
X12838082Y-8065805D02*
X12857129Y-8037234D01*
X12857129Y-8037234D02*
X12866653Y-8027710D01*
X12933320Y-8075329D02*
X12942844Y-8065805D01*
X12942844Y-8065805D02*
X12961891Y-8056282D01*
X12961891Y-8056282D02*
X13009510Y-8056282D01*
X13009510Y-8056282D02*
X13028558Y-8065805D01*
X13028558Y-8065805D02*
X13038082Y-8075329D01*
X13038082Y-8075329D02*
X13047606Y-8094377D01*
X13047606Y-8094377D02*
X13047606Y-8113424D01*
X13047606Y-8113424D02*
X13038082Y-8141996D01*
X13038082Y-8141996D02*
X12923796Y-8256282D01*
X12923796Y-8256282D02*
X13047606Y-8256282D01*
X13285701Y-8256282D02*
X13285701Y-8056282D01*
X13371415Y-8256282D02*
X13371415Y-8151520D01*
X13371415Y-8151520D02*
X13361891Y-8132472D01*
X13361891Y-8132472D02*
X13342844Y-8122948D01*
X13342844Y-8122948D02*
X13314272Y-8122948D01*
X13314272Y-8122948D02*
X13295225Y-8132472D01*
X13295225Y-8132472D02*
X13285701Y-8141996D01*
X13495225Y-8256282D02*
X13476177Y-8246758D01*
X13476177Y-8246758D02*
X13466653Y-8237234D01*
X13466653Y-8237234D02*
X13457129Y-8218186D01*
X13457129Y-8218186D02*
X13457129Y-8161043D01*
X13457129Y-8161043D02*
X13466653Y-8141996D01*
X13466653Y-8141996D02*
X13476177Y-8132472D01*
X13476177Y-8132472D02*
X13495225Y-8122948D01*
X13495225Y-8122948D02*
X13523796Y-8122948D01*
X13523796Y-8122948D02*
X13542844Y-8132472D01*
X13542844Y-8132472D02*
X13552368Y-8141996D01*
X13552368Y-8141996D02*
X13561891Y-8161043D01*
X13561891Y-8161043D02*
X13561891Y-8218186D01*
X13561891Y-8218186D02*
X13552368Y-8237234D01*
X13552368Y-8237234D02*
X13542844Y-8246758D01*
X13542844Y-8246758D02*
X13523796Y-8256282D01*
X13523796Y-8256282D02*
X13495225Y-8256282D01*
X13676177Y-8256282D02*
X13657129Y-8246758D01*
X13657129Y-8246758D02*
X13647606Y-8227710D01*
X13647606Y-8227710D02*
X13647606Y-8056282D01*
X13828558Y-8246758D02*
X13809510Y-8256282D01*
X13809510Y-8256282D02*
X13771415Y-8256282D01*
X13771415Y-8256282D02*
X13752368Y-8246758D01*
X13752368Y-8246758D02*
X13742844Y-8227710D01*
X13742844Y-8227710D02*
X13742844Y-8151520D01*
X13742844Y-8151520D02*
X13752368Y-8132472D01*
X13752368Y-8132472D02*
X13771415Y-8122948D01*
X13771415Y-8122948D02*
X13809510Y-8122948D01*
X13809510Y-8122948D02*
X13828558Y-8132472D01*
X13828558Y-8132472D02*
X13838082Y-8151520D01*
X13838082Y-8151520D02*
X13838082Y-8170567D01*
X13838082Y-8170567D02*
X13742844Y-8189615D01*
X13914272Y-8246758D02*
X13933320Y-8256282D01*
X13933320Y-8256282D02*
X13971415Y-8256282D01*
X13971415Y-8256282D02*
X13990463Y-8246758D01*
X13990463Y-8246758D02*
X13999987Y-8227710D01*
X13999987Y-8227710D02*
X13999987Y-8218186D01*
X13999987Y-8218186D02*
X13990463Y-8199139D01*
X13990463Y-8199139D02*
X13971415Y-8189615D01*
X13971415Y-8189615D02*
X13942844Y-8189615D01*
X13942844Y-8189615D02*
X13923796Y-8180091D01*
X13923796Y-8180091D02*
X13914272Y-8161043D01*
X13914272Y-8161043D02*
X13914272Y-8151520D01*
X13914272Y-8151520D02*
X13923796Y-8132472D01*
X13923796Y-8132472D02*
X13942844Y-8122948D01*
X13942844Y-8122948D02*
X13971415Y-8122948D01*
X13971415Y-8122948D02*
X13990463Y-8132472D01*
X14066653Y-8332472D02*
X14076177Y-8322948D01*
X14076177Y-8322948D02*
X14095225Y-8294377D01*
X14095225Y-8294377D02*
X14104749Y-8275329D01*
X14104749Y-8275329D02*
X14114272Y-8246758D01*
X14114272Y-8246758D02*
X14123796Y-8199139D01*
X14123796Y-8199139D02*
X14123796Y-8161043D01*
X14123796Y-8161043D02*
X14114272Y-8113424D01*
X14114272Y-8113424D02*
X14104749Y-8084853D01*
X14104749Y-8084853D02*
X14095225Y-8065805D01*
X14095225Y-8065805D02*
X14076177Y-8037234D01*
X14076177Y-8037234D02*
X14066653Y-8027710D01*
D12*
X9291590Y-8428798D02*
G75*
G02*
X9216590Y-8428798I-37500J0D01*
G01*
X9216590Y-8428798D02*
G75*
G02*
X9291590Y-8428798I37500J0D01*
G01*
D11*
X9590462Y-8320282D02*
X9609510Y-8320282D01*
X9609510Y-8320282D02*
X9628558Y-8329805D01*
X9628558Y-8329805D02*
X9638082Y-8339329D01*
X9638082Y-8339329D02*
X9647605Y-8358377D01*
X9647605Y-8358377D02*
X9657129Y-8396472D01*
X9657129Y-8396472D02*
X9657129Y-8444091D01*
X9657129Y-8444091D02*
X9647605Y-8482186D01*
X9647605Y-8482186D02*
X9638082Y-8501234D01*
X9638082Y-8501234D02*
X9628558Y-8510758D01*
X9628558Y-8510758D02*
X9609510Y-8520282D01*
X9609510Y-8520282D02*
X9590462Y-8520282D01*
X9590462Y-8520282D02*
X9571415Y-8510758D01*
X9571415Y-8510758D02*
X9561891Y-8501234D01*
X9561891Y-8501234D02*
X9552367Y-8482186D01*
X9552367Y-8482186D02*
X9542843Y-8444091D01*
X9542843Y-8444091D02*
X9542843Y-8396472D01*
X9542843Y-8396472D02*
X9552367Y-8358377D01*
X9552367Y-8358377D02*
X9561891Y-8339329D01*
X9561891Y-8339329D02*
X9571415Y-8329805D01*
X9571415Y-8329805D02*
X9590462Y-8320282D01*
X9742843Y-8501234D02*
X9752367Y-8510758D01*
X9752367Y-8510758D02*
X9742843Y-8520282D01*
X9742843Y-8520282D02*
X9733320Y-8510758D01*
X9733320Y-8510758D02*
X9742843Y-8501234D01*
X9742843Y-8501234D02*
X9742843Y-8520282D01*
X9819034Y-8320282D02*
X9952367Y-8320282D01*
X9952367Y-8320282D02*
X9866653Y-8520282D01*
X10123796Y-8320282D02*
X10028558Y-8320282D01*
X10028558Y-8320282D02*
X10019034Y-8415520D01*
X10019034Y-8415520D02*
X10028558Y-8405996D01*
X10028558Y-8405996D02*
X10047605Y-8396472D01*
X10047605Y-8396472D02*
X10095224Y-8396472D01*
X10095224Y-8396472D02*
X10114272Y-8405996D01*
X10114272Y-8405996D02*
X10123796Y-8415520D01*
X10123796Y-8415520D02*
X10133320Y-8434567D01*
X10133320Y-8434567D02*
X10133320Y-8482186D01*
X10133320Y-8482186D02*
X10123796Y-8501234D01*
X10123796Y-8501234D02*
X10114272Y-8510758D01*
X10114272Y-8510758D02*
X10095224Y-8520282D01*
X10095224Y-8520282D02*
X10047605Y-8520282D01*
X10047605Y-8520282D02*
X10028558Y-8510758D01*
X10028558Y-8510758D02*
X10019034Y-8501234D01*
X10257129Y-8320282D02*
X10276177Y-8320282D01*
X10276177Y-8320282D02*
X10295224Y-8329805D01*
X10295224Y-8329805D02*
X10304748Y-8339329D01*
X10304748Y-8339329D02*
X10314272Y-8358377D01*
X10314272Y-8358377D02*
X10323796Y-8396472D01*
X10323796Y-8396472D02*
X10323796Y-8444091D01*
X10323796Y-8444091D02*
X10314272Y-8482186D01*
X10314272Y-8482186D02*
X10304748Y-8501234D01*
X10304748Y-8501234D02*
X10295224Y-8510758D01*
X10295224Y-8510758D02*
X10276177Y-8520282D01*
X10276177Y-8520282D02*
X10257129Y-8520282D01*
X10257129Y-8520282D02*
X10238082Y-8510758D01*
X10238082Y-8510758D02*
X10228558Y-8501234D01*
X10228558Y-8501234D02*
X10219034Y-8482186D01*
X10219034Y-8482186D02*
X10209510Y-8444091D01*
X10209510Y-8444091D02*
X10209510Y-8396472D01*
X10209510Y-8396472D02*
X10219034Y-8358377D01*
X10219034Y-8358377D02*
X10228558Y-8339329D01*
X10228558Y-8339329D02*
X10238082Y-8329805D01*
X10238082Y-8329805D02*
X10257129Y-8320282D01*
X10409510Y-8520282D02*
X10409510Y-8386948D01*
X10409510Y-8405996D02*
X10419034Y-8396472D01*
X10419034Y-8396472D02*
X10438082Y-8386948D01*
X10438082Y-8386948D02*
X10466653Y-8386948D01*
X10466653Y-8386948D02*
X10485701Y-8396472D01*
X10485701Y-8396472D02*
X10495224Y-8415520D01*
X10495224Y-8415520D02*
X10495224Y-8520282D01*
X10495224Y-8415520D02*
X10504748Y-8396472D01*
X10504748Y-8396472D02*
X10523796Y-8386948D01*
X10523796Y-8386948D02*
X10552367Y-8386948D01*
X10552367Y-8386948D02*
X10571415Y-8396472D01*
X10571415Y-8396472D02*
X10580939Y-8415520D01*
X10580939Y-8415520D02*
X10580939Y-8520282D01*
X10676177Y-8520282D02*
X10676177Y-8386948D01*
X10676177Y-8405996D02*
X10685701Y-8396472D01*
X10685701Y-8396472D02*
X10704748Y-8386948D01*
X10704748Y-8386948D02*
X10733320Y-8386948D01*
X10733320Y-8386948D02*
X10752367Y-8396472D01*
X10752367Y-8396472D02*
X10761891Y-8415520D01*
X10761891Y-8415520D02*
X10761891Y-8520282D01*
X10761891Y-8415520D02*
X10771415Y-8396472D01*
X10771415Y-8396472D02*
X10790463Y-8386948D01*
X10790463Y-8386948D02*
X10819034Y-8386948D01*
X10819034Y-8386948D02*
X10838082Y-8396472D01*
X10838082Y-8396472D02*
X10847605Y-8415520D01*
X10847605Y-8415520D02*
X10847605Y-8520282D01*
X11238082Y-8310758D02*
X11066653Y-8567901D01*
X11495224Y-8320282D02*
X11514272Y-8320282D01*
X11514272Y-8320282D02*
X11533320Y-8329805D01*
X11533320Y-8329805D02*
X11542844Y-8339329D01*
X11542844Y-8339329D02*
X11552367Y-8358377D01*
X11552367Y-8358377D02*
X11561891Y-8396472D01*
X11561891Y-8396472D02*
X11561891Y-8444091D01*
X11561891Y-8444091D02*
X11552367Y-8482186D01*
X11552367Y-8482186D02*
X11542844Y-8501234D01*
X11542844Y-8501234D02*
X11533320Y-8510758D01*
X11533320Y-8510758D02*
X11514272Y-8520282D01*
X11514272Y-8520282D02*
X11495224Y-8520282D01*
X11495224Y-8520282D02*
X11476177Y-8510758D01*
X11476177Y-8510758D02*
X11466653Y-8501234D01*
X11466653Y-8501234D02*
X11457129Y-8482186D01*
X11457129Y-8482186D02*
X11447605Y-8444091D01*
X11447605Y-8444091D02*
X11447605Y-8396472D01*
X11447605Y-8396472D02*
X11457129Y-8358377D01*
X11457129Y-8358377D02*
X11466653Y-8339329D01*
X11466653Y-8339329D02*
X11476177Y-8329805D01*
X11476177Y-8329805D02*
X11495224Y-8320282D01*
X11647605Y-8501234D02*
X11657129Y-8510758D01*
X11657129Y-8510758D02*
X11647605Y-8520282D01*
X11647605Y-8520282D02*
X11638082Y-8510758D01*
X11638082Y-8510758D02*
X11647605Y-8501234D01*
X11647605Y-8501234D02*
X11647605Y-8520282D01*
X11780939Y-8320282D02*
X11799986Y-8320282D01*
X11799986Y-8320282D02*
X11819034Y-8329805D01*
X11819034Y-8329805D02*
X11828558Y-8339329D01*
X11828558Y-8339329D02*
X11838082Y-8358377D01*
X11838082Y-8358377D02*
X11847605Y-8396472D01*
X11847605Y-8396472D02*
X11847605Y-8444091D01*
X11847605Y-8444091D02*
X11838082Y-8482186D01*
X11838082Y-8482186D02*
X11828558Y-8501234D01*
X11828558Y-8501234D02*
X11819034Y-8510758D01*
X11819034Y-8510758D02*
X11799986Y-8520282D01*
X11799986Y-8520282D02*
X11780939Y-8520282D01*
X11780939Y-8520282D02*
X11761891Y-8510758D01*
X11761891Y-8510758D02*
X11752367Y-8501234D01*
X11752367Y-8501234D02*
X11742844Y-8482186D01*
X11742844Y-8482186D02*
X11733320Y-8444091D01*
X11733320Y-8444091D02*
X11733320Y-8396472D01*
X11733320Y-8396472D02*
X11742844Y-8358377D01*
X11742844Y-8358377D02*
X11752367Y-8339329D01*
X11752367Y-8339329D02*
X11761891Y-8329805D01*
X11761891Y-8329805D02*
X11780939Y-8320282D01*
X11923796Y-8339329D02*
X11933320Y-8329805D01*
X11933320Y-8329805D02*
X11952367Y-8320282D01*
X11952367Y-8320282D02*
X11999986Y-8320282D01*
X11999986Y-8320282D02*
X12019034Y-8329805D01*
X12019034Y-8329805D02*
X12028558Y-8339329D01*
X12028558Y-8339329D02*
X12038082Y-8358377D01*
X12038082Y-8358377D02*
X12038082Y-8377424D01*
X12038082Y-8377424D02*
X12028558Y-8405996D01*
X12028558Y-8405996D02*
X11914272Y-8520282D01*
X11914272Y-8520282D02*
X12038082Y-8520282D01*
X12133320Y-8520282D02*
X12171415Y-8520282D01*
X12171415Y-8520282D02*
X12190463Y-8510758D01*
X12190463Y-8510758D02*
X12199986Y-8501234D01*
X12199986Y-8501234D02*
X12219034Y-8472663D01*
X12219034Y-8472663D02*
X12228558Y-8434567D01*
X12228558Y-8434567D02*
X12228558Y-8358377D01*
X12228558Y-8358377D02*
X12219034Y-8339329D01*
X12219034Y-8339329D02*
X12209510Y-8329805D01*
X12209510Y-8329805D02*
X12190463Y-8320282D01*
X12190463Y-8320282D02*
X12152367Y-8320282D01*
X12152367Y-8320282D02*
X12133320Y-8329805D01*
X12133320Y-8329805D02*
X12123796Y-8339329D01*
X12123796Y-8339329D02*
X12114272Y-8358377D01*
X12114272Y-8358377D02*
X12114272Y-8405996D01*
X12114272Y-8405996D02*
X12123796Y-8425044D01*
X12123796Y-8425044D02*
X12133320Y-8434567D01*
X12133320Y-8434567D02*
X12152367Y-8444091D01*
X12152367Y-8444091D02*
X12190463Y-8444091D01*
X12190463Y-8444091D02*
X12209510Y-8434567D01*
X12209510Y-8434567D02*
X12219034Y-8425044D01*
X12219034Y-8425044D02*
X12228558Y-8405996D01*
X12409510Y-8320282D02*
X12314272Y-8320282D01*
X12314272Y-8320282D02*
X12304748Y-8415520D01*
X12304748Y-8415520D02*
X12314272Y-8405996D01*
X12314272Y-8405996D02*
X12333320Y-8396472D01*
X12333320Y-8396472D02*
X12380939Y-8396472D01*
X12380939Y-8396472D02*
X12399986Y-8405996D01*
X12399986Y-8405996D02*
X12409510Y-8415520D01*
X12409510Y-8415520D02*
X12419034Y-8434567D01*
X12419034Y-8434567D02*
X12419034Y-8482186D01*
X12419034Y-8482186D02*
X12409510Y-8501234D01*
X12409510Y-8501234D02*
X12399986Y-8510758D01*
X12399986Y-8510758D02*
X12380939Y-8520282D01*
X12380939Y-8520282D02*
X12333320Y-8520282D01*
X12333320Y-8520282D02*
X12314272Y-8510758D01*
X12314272Y-8510758D02*
X12304748Y-8501234D01*
X12495225Y-8320282D02*
X12495225Y-8358377D01*
X12571415Y-8320282D02*
X12571415Y-8358377D01*
X12866653Y-8596472D02*
X12857129Y-8586948D01*
X12857129Y-8586948D02*
X12838082Y-8558377D01*
X12838082Y-8558377D02*
X12828558Y-8539329D01*
X12828558Y-8539329D02*
X12819034Y-8510758D01*
X12819034Y-8510758D02*
X12809510Y-8463139D01*
X12809510Y-8463139D02*
X12809510Y-8425044D01*
X12809510Y-8425044D02*
X12819034Y-8377424D01*
X12819034Y-8377424D02*
X12828558Y-8348853D01*
X12828558Y-8348853D02*
X12838082Y-8329805D01*
X12838082Y-8329805D02*
X12857129Y-8301234D01*
X12857129Y-8301234D02*
X12866653Y-8291710D01*
X12952367Y-8520282D02*
X12990463Y-8520282D01*
X12990463Y-8520282D02*
X13009510Y-8510758D01*
X13009510Y-8510758D02*
X13019034Y-8501234D01*
X13019034Y-8501234D02*
X13038082Y-8472663D01*
X13038082Y-8472663D02*
X13047606Y-8434567D01*
X13047606Y-8434567D02*
X13047606Y-8358377D01*
X13047606Y-8358377D02*
X13038082Y-8339329D01*
X13038082Y-8339329D02*
X13028558Y-8329805D01*
X13028558Y-8329805D02*
X13009510Y-8320282D01*
X13009510Y-8320282D02*
X12971415Y-8320282D01*
X12971415Y-8320282D02*
X12952367Y-8329805D01*
X12952367Y-8329805D02*
X12942844Y-8339329D01*
X12942844Y-8339329D02*
X12933320Y-8358377D01*
X12933320Y-8358377D02*
X12933320Y-8405996D01*
X12933320Y-8405996D02*
X12942844Y-8425044D01*
X12942844Y-8425044D02*
X12952367Y-8434567D01*
X12952367Y-8434567D02*
X12971415Y-8444091D01*
X12971415Y-8444091D02*
X13009510Y-8444091D01*
X13009510Y-8444091D02*
X13028558Y-8434567D01*
X13028558Y-8434567D02*
X13038082Y-8425044D01*
X13038082Y-8425044D02*
X13047606Y-8405996D01*
X13285701Y-8520282D02*
X13285701Y-8320282D01*
X13371415Y-8520282D02*
X13371415Y-8415520D01*
X13371415Y-8415520D02*
X13361891Y-8396472D01*
X13361891Y-8396472D02*
X13342844Y-8386948D01*
X13342844Y-8386948D02*
X13314272Y-8386948D01*
X13314272Y-8386948D02*
X13295225Y-8396472D01*
X13295225Y-8396472D02*
X13285701Y-8405996D01*
X13495225Y-8520282D02*
X13476177Y-8510758D01*
X13476177Y-8510758D02*
X13466653Y-8501234D01*
X13466653Y-8501234D02*
X13457129Y-8482186D01*
X13457129Y-8482186D02*
X13457129Y-8425044D01*
X13457129Y-8425044D02*
X13466653Y-8405996D01*
X13466653Y-8405996D02*
X13476177Y-8396472D01*
X13476177Y-8396472D02*
X13495225Y-8386948D01*
X13495225Y-8386948D02*
X13523796Y-8386948D01*
X13523796Y-8386948D02*
X13542844Y-8396472D01*
X13542844Y-8396472D02*
X13552368Y-8405996D01*
X13552368Y-8405996D02*
X13561891Y-8425044D01*
X13561891Y-8425044D02*
X13561891Y-8482186D01*
X13561891Y-8482186D02*
X13552368Y-8501234D01*
X13552368Y-8501234D02*
X13542844Y-8510758D01*
X13542844Y-8510758D02*
X13523796Y-8520282D01*
X13523796Y-8520282D02*
X13495225Y-8520282D01*
X13676177Y-8520282D02*
X13657129Y-8510758D01*
X13657129Y-8510758D02*
X13647606Y-8491710D01*
X13647606Y-8491710D02*
X13647606Y-8320282D01*
X13828558Y-8510758D02*
X13809510Y-8520282D01*
X13809510Y-8520282D02*
X13771415Y-8520282D01*
X13771415Y-8520282D02*
X13752368Y-8510758D01*
X13752368Y-8510758D02*
X13742844Y-8491710D01*
X13742844Y-8491710D02*
X13742844Y-8415520D01*
X13742844Y-8415520D02*
X13752368Y-8396472D01*
X13752368Y-8396472D02*
X13771415Y-8386948D01*
X13771415Y-8386948D02*
X13809510Y-8386948D01*
X13809510Y-8386948D02*
X13828558Y-8396472D01*
X13828558Y-8396472D02*
X13838082Y-8415520D01*
X13838082Y-8415520D02*
X13838082Y-8434567D01*
X13838082Y-8434567D02*
X13742844Y-8453615D01*
X13914272Y-8510758D02*
X13933320Y-8520282D01*
X13933320Y-8520282D02*
X13971415Y-8520282D01*
X13971415Y-8520282D02*
X13990463Y-8510758D01*
X13990463Y-8510758D02*
X13999987Y-8491710D01*
X13999987Y-8491710D02*
X13999987Y-8482186D01*
X13999987Y-8482186D02*
X13990463Y-8463139D01*
X13990463Y-8463139D02*
X13971415Y-8453615D01*
X13971415Y-8453615D02*
X13942844Y-8453615D01*
X13942844Y-8453615D02*
X13923796Y-8444091D01*
X13923796Y-8444091D02*
X13914272Y-8425044D01*
X13914272Y-8425044D02*
X13914272Y-8415520D01*
X13914272Y-8415520D02*
X13923796Y-8396472D01*
X13923796Y-8396472D02*
X13942844Y-8386948D01*
X13942844Y-8386948D02*
X13971415Y-8386948D01*
X13971415Y-8386948D02*
X13990463Y-8396472D01*
X14066653Y-8596472D02*
X14076177Y-8586948D01*
X14076177Y-8586948D02*
X14095225Y-8558377D01*
X14095225Y-8558377D02*
X14104749Y-8539329D01*
X14104749Y-8539329D02*
X14114272Y-8510758D01*
X14114272Y-8510758D02*
X14123796Y-8463139D01*
X14123796Y-8463139D02*
X14123796Y-8425044D01*
X14123796Y-8425044D02*
X14114272Y-8377424D01*
X14114272Y-8377424D02*
X14104749Y-8348853D01*
X14104749Y-8348853D02*
X14095225Y-8329805D01*
X14095225Y-8329805D02*
X14076177Y-8301234D01*
X14076177Y-8301234D02*
X14066653Y-8291710D01*
D12*
X9253490Y-8654698D02*
X9253490Y-8730898D01*
X9215390Y-8692798D02*
X9291590Y-8692798D01*
D11*
X9590462Y-8584282D02*
X9609510Y-8584282D01*
X9609510Y-8584282D02*
X9628558Y-8593805D01*
X9628558Y-8593805D02*
X9638082Y-8603329D01*
X9638082Y-8603329D02*
X9647605Y-8622377D01*
X9647605Y-8622377D02*
X9657129Y-8660472D01*
X9657129Y-8660472D02*
X9657129Y-8708091D01*
X9657129Y-8708091D02*
X9647605Y-8746186D01*
X9647605Y-8746186D02*
X9638082Y-8765234D01*
X9638082Y-8765234D02*
X9628558Y-8774758D01*
X9628558Y-8774758D02*
X9609510Y-8784282D01*
X9609510Y-8784282D02*
X9590462Y-8784282D01*
X9590462Y-8784282D02*
X9571415Y-8774758D01*
X9571415Y-8774758D02*
X9561891Y-8765234D01*
X9561891Y-8765234D02*
X9552367Y-8746186D01*
X9552367Y-8746186D02*
X9542843Y-8708091D01*
X9542843Y-8708091D02*
X9542843Y-8660472D01*
X9542843Y-8660472D02*
X9552367Y-8622377D01*
X9552367Y-8622377D02*
X9561891Y-8603329D01*
X9561891Y-8603329D02*
X9571415Y-8593805D01*
X9571415Y-8593805D02*
X9590462Y-8584282D01*
X9742843Y-8765234D02*
X9752367Y-8774758D01*
X9752367Y-8774758D02*
X9742843Y-8784282D01*
X9742843Y-8784282D02*
X9733320Y-8774758D01*
X9733320Y-8774758D02*
X9742843Y-8765234D01*
X9742843Y-8765234D02*
X9742843Y-8784282D01*
X9819034Y-8584282D02*
X9952367Y-8584282D01*
X9952367Y-8584282D02*
X9866653Y-8784282D01*
X10114272Y-8584282D02*
X10076177Y-8584282D01*
X10076177Y-8584282D02*
X10057129Y-8593805D01*
X10057129Y-8593805D02*
X10047605Y-8603329D01*
X10047605Y-8603329D02*
X10028558Y-8631901D01*
X10028558Y-8631901D02*
X10019034Y-8669996D01*
X10019034Y-8669996D02*
X10019034Y-8746186D01*
X10019034Y-8746186D02*
X10028558Y-8765234D01*
X10028558Y-8765234D02*
X10038082Y-8774758D01*
X10038082Y-8774758D02*
X10057129Y-8784282D01*
X10057129Y-8784282D02*
X10095224Y-8784282D01*
X10095224Y-8784282D02*
X10114272Y-8774758D01*
X10114272Y-8774758D02*
X10123796Y-8765234D01*
X10123796Y-8765234D02*
X10133320Y-8746186D01*
X10133320Y-8746186D02*
X10133320Y-8698567D01*
X10133320Y-8698567D02*
X10123796Y-8679520D01*
X10123796Y-8679520D02*
X10114272Y-8669996D01*
X10114272Y-8669996D02*
X10095224Y-8660472D01*
X10095224Y-8660472D02*
X10057129Y-8660472D01*
X10057129Y-8660472D02*
X10038082Y-8669996D01*
X10038082Y-8669996D02*
X10028558Y-8679520D01*
X10028558Y-8679520D02*
X10019034Y-8698567D01*
X10209510Y-8603329D02*
X10219034Y-8593805D01*
X10219034Y-8593805D02*
X10238082Y-8584282D01*
X10238082Y-8584282D02*
X10285701Y-8584282D01*
X10285701Y-8584282D02*
X10304748Y-8593805D01*
X10304748Y-8593805D02*
X10314272Y-8603329D01*
X10314272Y-8603329D02*
X10323796Y-8622377D01*
X10323796Y-8622377D02*
X10323796Y-8641424D01*
X10323796Y-8641424D02*
X10314272Y-8669996D01*
X10314272Y-8669996D02*
X10199986Y-8784282D01*
X10199986Y-8784282D02*
X10323796Y-8784282D01*
X10409510Y-8784282D02*
X10409510Y-8650948D01*
X10409510Y-8669996D02*
X10419034Y-8660472D01*
X10419034Y-8660472D02*
X10438082Y-8650948D01*
X10438082Y-8650948D02*
X10466653Y-8650948D01*
X10466653Y-8650948D02*
X10485701Y-8660472D01*
X10485701Y-8660472D02*
X10495224Y-8679520D01*
X10495224Y-8679520D02*
X10495224Y-8784282D01*
X10495224Y-8679520D02*
X10504748Y-8660472D01*
X10504748Y-8660472D02*
X10523796Y-8650948D01*
X10523796Y-8650948D02*
X10552367Y-8650948D01*
X10552367Y-8650948D02*
X10571415Y-8660472D01*
X10571415Y-8660472D02*
X10580939Y-8679520D01*
X10580939Y-8679520D02*
X10580939Y-8784282D01*
X10676177Y-8784282D02*
X10676177Y-8650948D01*
X10676177Y-8669996D02*
X10685701Y-8660472D01*
X10685701Y-8660472D02*
X10704748Y-8650948D01*
X10704748Y-8650948D02*
X10733320Y-8650948D01*
X10733320Y-8650948D02*
X10752367Y-8660472D01*
X10752367Y-8660472D02*
X10761891Y-8679520D01*
X10761891Y-8679520D02*
X10761891Y-8784282D01*
X10761891Y-8679520D02*
X10771415Y-8660472D01*
X10771415Y-8660472D02*
X10790463Y-8650948D01*
X10790463Y-8650948D02*
X10819034Y-8650948D01*
X10819034Y-8650948D02*
X10838082Y-8660472D01*
X10838082Y-8660472D02*
X10847605Y-8679520D01*
X10847605Y-8679520D02*
X10847605Y-8784282D01*
X11238082Y-8574758D02*
X11066653Y-8831901D01*
X11495224Y-8584282D02*
X11514272Y-8584282D01*
X11514272Y-8584282D02*
X11533320Y-8593805D01*
X11533320Y-8593805D02*
X11542844Y-8603329D01*
X11542844Y-8603329D02*
X11552367Y-8622377D01*
X11552367Y-8622377D02*
X11561891Y-8660472D01*
X11561891Y-8660472D02*
X11561891Y-8708091D01*
X11561891Y-8708091D02*
X11552367Y-8746186D01*
X11552367Y-8746186D02*
X11542844Y-8765234D01*
X11542844Y-8765234D02*
X11533320Y-8774758D01*
X11533320Y-8774758D02*
X11514272Y-8784282D01*
X11514272Y-8784282D02*
X11495224Y-8784282D01*
X11495224Y-8784282D02*
X11476177Y-8774758D01*
X11476177Y-8774758D02*
X11466653Y-8765234D01*
X11466653Y-8765234D02*
X11457129Y-8746186D01*
X11457129Y-8746186D02*
X11447605Y-8708091D01*
X11447605Y-8708091D02*
X11447605Y-8660472D01*
X11447605Y-8660472D02*
X11457129Y-8622377D01*
X11457129Y-8622377D02*
X11466653Y-8603329D01*
X11466653Y-8603329D02*
X11476177Y-8593805D01*
X11476177Y-8593805D02*
X11495224Y-8584282D01*
X11647605Y-8765234D02*
X11657129Y-8774758D01*
X11657129Y-8774758D02*
X11647605Y-8784282D01*
X11647605Y-8784282D02*
X11638082Y-8774758D01*
X11638082Y-8774758D02*
X11647605Y-8765234D01*
X11647605Y-8765234D02*
X11647605Y-8784282D01*
X11780939Y-8584282D02*
X11799986Y-8584282D01*
X11799986Y-8584282D02*
X11819034Y-8593805D01*
X11819034Y-8593805D02*
X11828558Y-8603329D01*
X11828558Y-8603329D02*
X11838082Y-8622377D01*
X11838082Y-8622377D02*
X11847605Y-8660472D01*
X11847605Y-8660472D02*
X11847605Y-8708091D01*
X11847605Y-8708091D02*
X11838082Y-8746186D01*
X11838082Y-8746186D02*
X11828558Y-8765234D01*
X11828558Y-8765234D02*
X11819034Y-8774758D01*
X11819034Y-8774758D02*
X11799986Y-8784282D01*
X11799986Y-8784282D02*
X11780939Y-8784282D01*
X11780939Y-8784282D02*
X11761891Y-8774758D01*
X11761891Y-8774758D02*
X11752367Y-8765234D01*
X11752367Y-8765234D02*
X11742844Y-8746186D01*
X11742844Y-8746186D02*
X11733320Y-8708091D01*
X11733320Y-8708091D02*
X11733320Y-8660472D01*
X11733320Y-8660472D02*
X11742844Y-8622377D01*
X11742844Y-8622377D02*
X11752367Y-8603329D01*
X11752367Y-8603329D02*
X11761891Y-8593805D01*
X11761891Y-8593805D02*
X11780939Y-8584282D01*
X11914272Y-8584282D02*
X12038082Y-8584282D01*
X12038082Y-8584282D02*
X11971415Y-8660472D01*
X11971415Y-8660472D02*
X11999986Y-8660472D01*
X11999986Y-8660472D02*
X12019034Y-8669996D01*
X12019034Y-8669996D02*
X12028558Y-8679520D01*
X12028558Y-8679520D02*
X12038082Y-8698567D01*
X12038082Y-8698567D02*
X12038082Y-8746186D01*
X12038082Y-8746186D02*
X12028558Y-8765234D01*
X12028558Y-8765234D02*
X12019034Y-8774758D01*
X12019034Y-8774758D02*
X11999986Y-8784282D01*
X11999986Y-8784282D02*
X11942844Y-8784282D01*
X11942844Y-8784282D02*
X11923796Y-8774758D01*
X11923796Y-8774758D02*
X11914272Y-8765234D01*
X12161891Y-8584282D02*
X12180939Y-8584282D01*
X12180939Y-8584282D02*
X12199986Y-8593805D01*
X12199986Y-8593805D02*
X12209510Y-8603329D01*
X12209510Y-8603329D02*
X12219034Y-8622377D01*
X12219034Y-8622377D02*
X12228558Y-8660472D01*
X12228558Y-8660472D02*
X12228558Y-8708091D01*
X12228558Y-8708091D02*
X12219034Y-8746186D01*
X12219034Y-8746186D02*
X12209510Y-8765234D01*
X12209510Y-8765234D02*
X12199986Y-8774758D01*
X12199986Y-8774758D02*
X12180939Y-8784282D01*
X12180939Y-8784282D02*
X12161891Y-8784282D01*
X12161891Y-8784282D02*
X12142844Y-8774758D01*
X12142844Y-8774758D02*
X12133320Y-8765234D01*
X12133320Y-8765234D02*
X12123796Y-8746186D01*
X12123796Y-8746186D02*
X12114272Y-8708091D01*
X12114272Y-8708091D02*
X12114272Y-8660472D01*
X12114272Y-8660472D02*
X12123796Y-8622377D01*
X12123796Y-8622377D02*
X12133320Y-8603329D01*
X12133320Y-8603329D02*
X12142844Y-8593805D01*
X12142844Y-8593805D02*
X12161891Y-8584282D01*
X12352367Y-8584282D02*
X12371415Y-8584282D01*
X12371415Y-8584282D02*
X12390463Y-8593805D01*
X12390463Y-8593805D02*
X12399986Y-8603329D01*
X12399986Y-8603329D02*
X12409510Y-8622377D01*
X12409510Y-8622377D02*
X12419034Y-8660472D01*
X12419034Y-8660472D02*
X12419034Y-8708091D01*
X12419034Y-8708091D02*
X12409510Y-8746186D01*
X12409510Y-8746186D02*
X12399986Y-8765234D01*
X12399986Y-8765234D02*
X12390463Y-8774758D01*
X12390463Y-8774758D02*
X12371415Y-8784282D01*
X12371415Y-8784282D02*
X12352367Y-8784282D01*
X12352367Y-8784282D02*
X12333320Y-8774758D01*
X12333320Y-8774758D02*
X12323796Y-8765234D01*
X12323796Y-8765234D02*
X12314272Y-8746186D01*
X12314272Y-8746186D02*
X12304748Y-8708091D01*
X12304748Y-8708091D02*
X12304748Y-8660472D01*
X12304748Y-8660472D02*
X12314272Y-8622377D01*
X12314272Y-8622377D02*
X12323796Y-8603329D01*
X12323796Y-8603329D02*
X12333320Y-8593805D01*
X12333320Y-8593805D02*
X12352367Y-8584282D01*
X12495225Y-8584282D02*
X12495225Y-8622377D01*
X12571415Y-8584282D02*
X12571415Y-8622377D01*
X12866653Y-8860472D02*
X12857129Y-8850948D01*
X12857129Y-8850948D02*
X12838082Y-8822377D01*
X12838082Y-8822377D02*
X12828558Y-8803329D01*
X12828558Y-8803329D02*
X12819034Y-8774758D01*
X12819034Y-8774758D02*
X12809510Y-8727139D01*
X12809510Y-8727139D02*
X12809510Y-8689044D01*
X12809510Y-8689044D02*
X12819034Y-8641424D01*
X12819034Y-8641424D02*
X12828558Y-8612853D01*
X12828558Y-8612853D02*
X12838082Y-8593805D01*
X12838082Y-8593805D02*
X12857129Y-8565234D01*
X12857129Y-8565234D02*
X12866653Y-8555710D01*
X13047606Y-8784282D02*
X12933320Y-8784282D01*
X12990463Y-8784282D02*
X12990463Y-8584282D01*
X12990463Y-8584282D02*
X12971415Y-8612853D01*
X12971415Y-8612853D02*
X12952367Y-8631901D01*
X12952367Y-8631901D02*
X12933320Y-8641424D01*
X13123796Y-8603329D02*
X13133320Y-8593805D01*
X13133320Y-8593805D02*
X13152367Y-8584282D01*
X13152367Y-8584282D02*
X13199987Y-8584282D01*
X13199987Y-8584282D02*
X13219034Y-8593805D01*
X13219034Y-8593805D02*
X13228558Y-8603329D01*
X13228558Y-8603329D02*
X13238082Y-8622377D01*
X13238082Y-8622377D02*
X13238082Y-8641424D01*
X13238082Y-8641424D02*
X13228558Y-8669996D01*
X13228558Y-8669996D02*
X13114272Y-8784282D01*
X13114272Y-8784282D02*
X13238082Y-8784282D01*
X13476177Y-8784282D02*
X13476177Y-8584282D01*
X13561891Y-8784282D02*
X13561891Y-8679520D01*
X13561891Y-8679520D02*
X13552368Y-8660472D01*
X13552368Y-8660472D02*
X13533320Y-8650948D01*
X13533320Y-8650948D02*
X13504748Y-8650948D01*
X13504748Y-8650948D02*
X13485701Y-8660472D01*
X13485701Y-8660472D02*
X13476177Y-8669996D01*
X13685701Y-8784282D02*
X13666653Y-8774758D01*
X13666653Y-8774758D02*
X13657129Y-8765234D01*
X13657129Y-8765234D02*
X13647606Y-8746186D01*
X13647606Y-8746186D02*
X13647606Y-8689044D01*
X13647606Y-8689044D02*
X13657129Y-8669996D01*
X13657129Y-8669996D02*
X13666653Y-8660472D01*
X13666653Y-8660472D02*
X13685701Y-8650948D01*
X13685701Y-8650948D02*
X13714272Y-8650948D01*
X13714272Y-8650948D02*
X13733320Y-8660472D01*
X13733320Y-8660472D02*
X13742844Y-8669996D01*
X13742844Y-8669996D02*
X13752368Y-8689044D01*
X13752368Y-8689044D02*
X13752368Y-8746186D01*
X13752368Y-8746186D02*
X13742844Y-8765234D01*
X13742844Y-8765234D02*
X13733320Y-8774758D01*
X13733320Y-8774758D02*
X13714272Y-8784282D01*
X13714272Y-8784282D02*
X13685701Y-8784282D01*
X13866653Y-8784282D02*
X13847606Y-8774758D01*
X13847606Y-8774758D02*
X13838082Y-8755710D01*
X13838082Y-8755710D02*
X13838082Y-8584282D01*
X14019034Y-8774758D02*
X13999987Y-8784282D01*
X13999987Y-8784282D02*
X13961891Y-8784282D01*
X13961891Y-8784282D02*
X13942844Y-8774758D01*
X13942844Y-8774758D02*
X13933320Y-8755710D01*
X13933320Y-8755710D02*
X13933320Y-8679520D01*
X13933320Y-8679520D02*
X13942844Y-8660472D01*
X13942844Y-8660472D02*
X13961891Y-8650948D01*
X13961891Y-8650948D02*
X13999987Y-8650948D01*
X13999987Y-8650948D02*
X14019034Y-8660472D01*
X14019034Y-8660472D02*
X14028558Y-8679520D01*
X14028558Y-8679520D02*
X14028558Y-8698567D01*
X14028558Y-8698567D02*
X13933320Y-8717615D01*
X14104749Y-8774758D02*
X14123796Y-8784282D01*
X14123796Y-8784282D02*
X14161891Y-8784282D01*
X14161891Y-8784282D02*
X14180939Y-8774758D01*
X14180939Y-8774758D02*
X14190463Y-8755710D01*
X14190463Y-8755710D02*
X14190463Y-8746186D01*
X14190463Y-8746186D02*
X14180939Y-8727139D01*
X14180939Y-8727139D02*
X14161891Y-8717615D01*
X14161891Y-8717615D02*
X14133320Y-8717615D01*
X14133320Y-8717615D02*
X14114272Y-8708091D01*
X14114272Y-8708091D02*
X14104749Y-8689044D01*
X14104749Y-8689044D02*
X14104749Y-8679520D01*
X14104749Y-8679520D02*
X14114272Y-8660472D01*
X14114272Y-8660472D02*
X14133320Y-8650948D01*
X14133320Y-8650948D02*
X14161891Y-8650948D01*
X14161891Y-8650948D02*
X14180939Y-8660472D01*
X14428558Y-8708091D02*
X14580939Y-8708091D01*
X14504749Y-8784282D02*
X14504749Y-8631901D01*
X14819034Y-8603329D02*
X14828558Y-8593805D01*
X14828558Y-8593805D02*
X14847606Y-8584282D01*
X14847606Y-8584282D02*
X14895225Y-8584282D01*
X14895225Y-8584282D02*
X14914272Y-8593805D01*
X14914272Y-8593805D02*
X14923796Y-8603329D01*
X14923796Y-8603329D02*
X14933320Y-8622377D01*
X14933320Y-8622377D02*
X14933320Y-8641424D01*
X14933320Y-8641424D02*
X14923796Y-8669996D01*
X14923796Y-8669996D02*
X14809511Y-8784282D01*
X14809511Y-8784282D02*
X14933320Y-8784282D01*
X15161892Y-8774758D02*
X15180939Y-8784282D01*
X15180939Y-8784282D02*
X15219034Y-8784282D01*
X15219034Y-8784282D02*
X15238082Y-8774758D01*
X15238082Y-8774758D02*
X15247606Y-8755710D01*
X15247606Y-8755710D02*
X15247606Y-8746186D01*
X15247606Y-8746186D02*
X15238082Y-8727139D01*
X15238082Y-8727139D02*
X15219034Y-8717615D01*
X15219034Y-8717615D02*
X15190463Y-8717615D01*
X15190463Y-8717615D02*
X15171415Y-8708091D01*
X15171415Y-8708091D02*
X15161892Y-8689044D01*
X15161892Y-8689044D02*
X15161892Y-8679520D01*
X15161892Y-8679520D02*
X15171415Y-8660472D01*
X15171415Y-8660472D02*
X15190463Y-8650948D01*
X15190463Y-8650948D02*
X15219034Y-8650948D01*
X15219034Y-8650948D02*
X15238082Y-8660472D01*
X15361892Y-8784282D02*
X15342844Y-8774758D01*
X15342844Y-8774758D02*
X15333320Y-8755710D01*
X15333320Y-8755710D02*
X15333320Y-8584282D01*
X15466653Y-8784282D02*
X15447606Y-8774758D01*
X15447606Y-8774758D02*
X15438082Y-8765234D01*
X15438082Y-8765234D02*
X15428558Y-8746186D01*
X15428558Y-8746186D02*
X15428558Y-8689044D01*
X15428558Y-8689044D02*
X15438082Y-8669996D01*
X15438082Y-8669996D02*
X15447606Y-8660472D01*
X15447606Y-8660472D02*
X15466653Y-8650948D01*
X15466653Y-8650948D02*
X15495225Y-8650948D01*
X15495225Y-8650948D02*
X15514273Y-8660472D01*
X15514273Y-8660472D02*
X15523796Y-8669996D01*
X15523796Y-8669996D02*
X15533320Y-8689044D01*
X15533320Y-8689044D02*
X15533320Y-8746186D01*
X15533320Y-8746186D02*
X15523796Y-8765234D01*
X15523796Y-8765234D02*
X15514273Y-8774758D01*
X15514273Y-8774758D02*
X15495225Y-8784282D01*
X15495225Y-8784282D02*
X15466653Y-8784282D01*
X15590463Y-8650948D02*
X15666653Y-8650948D01*
X15619034Y-8584282D02*
X15619034Y-8755710D01*
X15619034Y-8755710D02*
X15628558Y-8774758D01*
X15628558Y-8774758D02*
X15647606Y-8784282D01*
X15647606Y-8784282D02*
X15666653Y-8784282D01*
X15723796Y-8774758D02*
X15742844Y-8784282D01*
X15742844Y-8784282D02*
X15780939Y-8784282D01*
X15780939Y-8784282D02*
X15799987Y-8774758D01*
X15799987Y-8774758D02*
X15809511Y-8755710D01*
X15809511Y-8755710D02*
X15809511Y-8746186D01*
X15809511Y-8746186D02*
X15799987Y-8727139D01*
X15799987Y-8727139D02*
X15780939Y-8717615D01*
X15780939Y-8717615D02*
X15752368Y-8717615D01*
X15752368Y-8717615D02*
X15733320Y-8708091D01*
X15733320Y-8708091D02*
X15723796Y-8689044D01*
X15723796Y-8689044D02*
X15723796Y-8679520D01*
X15723796Y-8679520D02*
X15733320Y-8660472D01*
X15733320Y-8660472D02*
X15752368Y-8650948D01*
X15752368Y-8650948D02*
X15780939Y-8650948D01*
X15780939Y-8650948D02*
X15799987Y-8660472D01*
X15876177Y-8860472D02*
X15885701Y-8850948D01*
X15885701Y-8850948D02*
X15904749Y-8822377D01*
X15904749Y-8822377D02*
X15914273Y-8803329D01*
X15914273Y-8803329D02*
X15923796Y-8774758D01*
X15923796Y-8774758D02*
X15933320Y-8727139D01*
X15933320Y-8727139D02*
X15933320Y-8689044D01*
X15933320Y-8689044D02*
X15923796Y-8641424D01*
X15923796Y-8641424D02*
X15914273Y-8612853D01*
X15914273Y-8612853D02*
X15904749Y-8593805D01*
X15904749Y-8593805D02*
X15885701Y-8565234D01*
X15885701Y-8565234D02*
X15876177Y-8555710D01*
D12*
X9279875Y-8985082D02*
X9279875Y-8928513D01*
X9223306Y-8928513D01*
X9223306Y-8985082D01*
X9279875Y-8985082D01*
D11*
X9590462Y-8848282D02*
X9609510Y-8848282D01*
X9609510Y-8848282D02*
X9628558Y-8857805D01*
X9628558Y-8857805D02*
X9638082Y-8867329D01*
X9638082Y-8867329D02*
X9647605Y-8886377D01*
X9647605Y-8886377D02*
X9657129Y-8924472D01*
X9657129Y-8924472D02*
X9657129Y-8972091D01*
X9657129Y-8972091D02*
X9647605Y-9010186D01*
X9647605Y-9010186D02*
X9638082Y-9029234D01*
X9638082Y-9029234D02*
X9628558Y-9038758D01*
X9628558Y-9038758D02*
X9609510Y-9048282D01*
X9609510Y-9048282D02*
X9590462Y-9048282D01*
X9590462Y-9048282D02*
X9571415Y-9038758D01*
X9571415Y-9038758D02*
X9561891Y-9029234D01*
X9561891Y-9029234D02*
X9552367Y-9010186D01*
X9552367Y-9010186D02*
X9542843Y-8972091D01*
X9542843Y-8972091D02*
X9542843Y-8924472D01*
X9542843Y-8924472D02*
X9552367Y-8886377D01*
X9552367Y-8886377D02*
X9561891Y-8867329D01*
X9561891Y-8867329D02*
X9571415Y-8857805D01*
X9571415Y-8857805D02*
X9590462Y-8848282D01*
X9742843Y-9029234D02*
X9752367Y-9038758D01*
X9752367Y-9038758D02*
X9742843Y-9048282D01*
X9742843Y-9048282D02*
X9733320Y-9038758D01*
X9733320Y-9038758D02*
X9742843Y-9029234D01*
X9742843Y-9029234D02*
X9742843Y-9048282D01*
X9866653Y-8933996D02*
X9847605Y-8924472D01*
X9847605Y-8924472D02*
X9838082Y-8914948D01*
X9838082Y-8914948D02*
X9828558Y-8895901D01*
X9828558Y-8895901D02*
X9828558Y-8886377D01*
X9828558Y-8886377D02*
X9838082Y-8867329D01*
X9838082Y-8867329D02*
X9847605Y-8857805D01*
X9847605Y-8857805D02*
X9866653Y-8848282D01*
X9866653Y-8848282D02*
X9904748Y-8848282D01*
X9904748Y-8848282D02*
X9923796Y-8857805D01*
X9923796Y-8857805D02*
X9933320Y-8867329D01*
X9933320Y-8867329D02*
X9942843Y-8886377D01*
X9942843Y-8886377D02*
X9942843Y-8895901D01*
X9942843Y-8895901D02*
X9933320Y-8914948D01*
X9933320Y-8914948D02*
X9923796Y-8924472D01*
X9923796Y-8924472D02*
X9904748Y-8933996D01*
X9904748Y-8933996D02*
X9866653Y-8933996D01*
X9866653Y-8933996D02*
X9847605Y-8943520D01*
X9847605Y-8943520D02*
X9838082Y-8953044D01*
X9838082Y-8953044D02*
X9828558Y-8972091D01*
X9828558Y-8972091D02*
X9828558Y-9010186D01*
X9828558Y-9010186D02*
X9838082Y-9029234D01*
X9838082Y-9029234D02*
X9847605Y-9038758D01*
X9847605Y-9038758D02*
X9866653Y-9048282D01*
X9866653Y-9048282D02*
X9904748Y-9048282D01*
X9904748Y-9048282D02*
X9923796Y-9038758D01*
X9923796Y-9038758D02*
X9933320Y-9029234D01*
X9933320Y-9029234D02*
X9942843Y-9010186D01*
X9942843Y-9010186D02*
X9942843Y-8972091D01*
X9942843Y-8972091D02*
X9933320Y-8953044D01*
X9933320Y-8953044D02*
X9923796Y-8943520D01*
X9923796Y-8943520D02*
X9904748Y-8933996D01*
X10066653Y-8848282D02*
X10085701Y-8848282D01*
X10085701Y-8848282D02*
X10104748Y-8857805D01*
X10104748Y-8857805D02*
X10114272Y-8867329D01*
X10114272Y-8867329D02*
X10123796Y-8886377D01*
X10123796Y-8886377D02*
X10133320Y-8924472D01*
X10133320Y-8924472D02*
X10133320Y-8972091D01*
X10133320Y-8972091D02*
X10123796Y-9010186D01*
X10123796Y-9010186D02*
X10114272Y-9029234D01*
X10114272Y-9029234D02*
X10104748Y-9038758D01*
X10104748Y-9038758D02*
X10085701Y-9048282D01*
X10085701Y-9048282D02*
X10066653Y-9048282D01*
X10066653Y-9048282D02*
X10047605Y-9038758D01*
X10047605Y-9038758D02*
X10038082Y-9029234D01*
X10038082Y-9029234D02*
X10028558Y-9010186D01*
X10028558Y-9010186D02*
X10019034Y-8972091D01*
X10019034Y-8972091D02*
X10019034Y-8924472D01*
X10019034Y-8924472D02*
X10028558Y-8886377D01*
X10028558Y-8886377D02*
X10038082Y-8867329D01*
X10038082Y-8867329D02*
X10047605Y-8857805D01*
X10047605Y-8857805D02*
X10066653Y-8848282D01*
X10257129Y-8848282D02*
X10276177Y-8848282D01*
X10276177Y-8848282D02*
X10295224Y-8857805D01*
X10295224Y-8857805D02*
X10304748Y-8867329D01*
X10304748Y-8867329D02*
X10314272Y-8886377D01*
X10314272Y-8886377D02*
X10323796Y-8924472D01*
X10323796Y-8924472D02*
X10323796Y-8972091D01*
X10323796Y-8972091D02*
X10314272Y-9010186D01*
X10314272Y-9010186D02*
X10304748Y-9029234D01*
X10304748Y-9029234D02*
X10295224Y-9038758D01*
X10295224Y-9038758D02*
X10276177Y-9048282D01*
X10276177Y-9048282D02*
X10257129Y-9048282D01*
X10257129Y-9048282D02*
X10238082Y-9038758D01*
X10238082Y-9038758D02*
X10228558Y-9029234D01*
X10228558Y-9029234D02*
X10219034Y-9010186D01*
X10219034Y-9010186D02*
X10209510Y-8972091D01*
X10209510Y-8972091D02*
X10209510Y-8924472D01*
X10209510Y-8924472D02*
X10219034Y-8886377D01*
X10219034Y-8886377D02*
X10228558Y-8867329D01*
X10228558Y-8867329D02*
X10238082Y-8857805D01*
X10238082Y-8857805D02*
X10257129Y-8848282D01*
X10409510Y-9048282D02*
X10409510Y-8914948D01*
X10409510Y-8933996D02*
X10419034Y-8924472D01*
X10419034Y-8924472D02*
X10438082Y-8914948D01*
X10438082Y-8914948D02*
X10466653Y-8914948D01*
X10466653Y-8914948D02*
X10485701Y-8924472D01*
X10485701Y-8924472D02*
X10495224Y-8943520D01*
X10495224Y-8943520D02*
X10495224Y-9048282D01*
X10495224Y-8943520D02*
X10504748Y-8924472D01*
X10504748Y-8924472D02*
X10523796Y-8914948D01*
X10523796Y-8914948D02*
X10552367Y-8914948D01*
X10552367Y-8914948D02*
X10571415Y-8924472D01*
X10571415Y-8924472D02*
X10580939Y-8943520D01*
X10580939Y-8943520D02*
X10580939Y-9048282D01*
X10676177Y-9048282D02*
X10676177Y-8914948D01*
X10676177Y-8933996D02*
X10685701Y-8924472D01*
X10685701Y-8924472D02*
X10704748Y-8914948D01*
X10704748Y-8914948D02*
X10733320Y-8914948D01*
X10733320Y-8914948D02*
X10752367Y-8924472D01*
X10752367Y-8924472D02*
X10761891Y-8943520D01*
X10761891Y-8943520D02*
X10761891Y-9048282D01*
X10761891Y-8943520D02*
X10771415Y-8924472D01*
X10771415Y-8924472D02*
X10790463Y-8914948D01*
X10790463Y-8914948D02*
X10819034Y-8914948D01*
X10819034Y-8914948D02*
X10838082Y-8924472D01*
X10838082Y-8924472D02*
X10847605Y-8943520D01*
X10847605Y-8943520D02*
X10847605Y-9048282D01*
X11238082Y-8838758D02*
X11066653Y-9095901D01*
X11495224Y-8848282D02*
X11514272Y-8848282D01*
X11514272Y-8848282D02*
X11533320Y-8857805D01*
X11533320Y-8857805D02*
X11542844Y-8867329D01*
X11542844Y-8867329D02*
X11552367Y-8886377D01*
X11552367Y-8886377D02*
X11561891Y-8924472D01*
X11561891Y-8924472D02*
X11561891Y-8972091D01*
X11561891Y-8972091D02*
X11552367Y-9010186D01*
X11552367Y-9010186D02*
X11542844Y-9029234D01*
X11542844Y-9029234D02*
X11533320Y-9038758D01*
X11533320Y-9038758D02*
X11514272Y-9048282D01*
X11514272Y-9048282D02*
X11495224Y-9048282D01*
X11495224Y-9048282D02*
X11476177Y-9038758D01*
X11476177Y-9038758D02*
X11466653Y-9029234D01*
X11466653Y-9029234D02*
X11457129Y-9010186D01*
X11457129Y-9010186D02*
X11447605Y-8972091D01*
X11447605Y-8972091D02*
X11447605Y-8924472D01*
X11447605Y-8924472D02*
X11457129Y-8886377D01*
X11457129Y-8886377D02*
X11466653Y-8867329D01*
X11466653Y-8867329D02*
X11476177Y-8857805D01*
X11476177Y-8857805D02*
X11495224Y-8848282D01*
X11647605Y-9029234D02*
X11657129Y-9038758D01*
X11657129Y-9038758D02*
X11647605Y-9048282D01*
X11647605Y-9048282D02*
X11638082Y-9038758D01*
X11638082Y-9038758D02*
X11647605Y-9029234D01*
X11647605Y-9029234D02*
X11647605Y-9048282D01*
X11780939Y-8848282D02*
X11799986Y-8848282D01*
X11799986Y-8848282D02*
X11819034Y-8857805D01*
X11819034Y-8857805D02*
X11828558Y-8867329D01*
X11828558Y-8867329D02*
X11838082Y-8886377D01*
X11838082Y-8886377D02*
X11847605Y-8924472D01*
X11847605Y-8924472D02*
X11847605Y-8972091D01*
X11847605Y-8972091D02*
X11838082Y-9010186D01*
X11838082Y-9010186D02*
X11828558Y-9029234D01*
X11828558Y-9029234D02*
X11819034Y-9038758D01*
X11819034Y-9038758D02*
X11799986Y-9048282D01*
X11799986Y-9048282D02*
X11780939Y-9048282D01*
X11780939Y-9048282D02*
X11761891Y-9038758D01*
X11761891Y-9038758D02*
X11752367Y-9029234D01*
X11752367Y-9029234D02*
X11742844Y-9010186D01*
X11742844Y-9010186D02*
X11733320Y-8972091D01*
X11733320Y-8972091D02*
X11733320Y-8924472D01*
X11733320Y-8924472D02*
X11742844Y-8886377D01*
X11742844Y-8886377D02*
X11752367Y-8867329D01*
X11752367Y-8867329D02*
X11761891Y-8857805D01*
X11761891Y-8857805D02*
X11780939Y-8848282D01*
X11914272Y-8848282D02*
X12038082Y-8848282D01*
X12038082Y-8848282D02*
X11971415Y-8924472D01*
X11971415Y-8924472D02*
X11999986Y-8924472D01*
X11999986Y-8924472D02*
X12019034Y-8933996D01*
X12019034Y-8933996D02*
X12028558Y-8943520D01*
X12028558Y-8943520D02*
X12038082Y-8962567D01*
X12038082Y-8962567D02*
X12038082Y-9010186D01*
X12038082Y-9010186D02*
X12028558Y-9029234D01*
X12028558Y-9029234D02*
X12019034Y-9038758D01*
X12019034Y-9038758D02*
X11999986Y-9048282D01*
X11999986Y-9048282D02*
X11942844Y-9048282D01*
X11942844Y-9048282D02*
X11923796Y-9038758D01*
X11923796Y-9038758D02*
X11914272Y-9029234D01*
X12228558Y-9048282D02*
X12114272Y-9048282D01*
X12171415Y-9048282D02*
X12171415Y-8848282D01*
X12171415Y-8848282D02*
X12152367Y-8876853D01*
X12152367Y-8876853D02*
X12133320Y-8895901D01*
X12133320Y-8895901D02*
X12114272Y-8905424D01*
X12409510Y-8848282D02*
X12314272Y-8848282D01*
X12314272Y-8848282D02*
X12304748Y-8943520D01*
X12304748Y-8943520D02*
X12314272Y-8933996D01*
X12314272Y-8933996D02*
X12333320Y-8924472D01*
X12333320Y-8924472D02*
X12380939Y-8924472D01*
X12380939Y-8924472D02*
X12399986Y-8933996D01*
X12399986Y-8933996D02*
X12409510Y-8943520D01*
X12409510Y-8943520D02*
X12419034Y-8962567D01*
X12419034Y-8962567D02*
X12419034Y-9010186D01*
X12419034Y-9010186D02*
X12409510Y-9029234D01*
X12409510Y-9029234D02*
X12399986Y-9038758D01*
X12399986Y-9038758D02*
X12380939Y-9048282D01*
X12380939Y-9048282D02*
X12333320Y-9048282D01*
X12333320Y-9048282D02*
X12314272Y-9038758D01*
X12314272Y-9038758D02*
X12304748Y-9029234D01*
X12495225Y-8848282D02*
X12495225Y-8886377D01*
X12571415Y-8848282D02*
X12571415Y-8886377D01*
X12866653Y-9124472D02*
X12857129Y-9114948D01*
X12857129Y-9114948D02*
X12838082Y-9086377D01*
X12838082Y-9086377D02*
X12828558Y-9067329D01*
X12828558Y-9067329D02*
X12819034Y-9038758D01*
X12819034Y-9038758D02*
X12809510Y-8991139D01*
X12809510Y-8991139D02*
X12809510Y-8953044D01*
X12809510Y-8953044D02*
X12819034Y-8905424D01*
X12819034Y-8905424D02*
X12828558Y-8876853D01*
X12828558Y-8876853D02*
X12838082Y-8857805D01*
X12838082Y-8857805D02*
X12857129Y-8829234D01*
X12857129Y-8829234D02*
X12866653Y-8819710D01*
X13028558Y-8848282D02*
X12990463Y-8848282D01*
X12990463Y-8848282D02*
X12971415Y-8857805D01*
X12971415Y-8857805D02*
X12961891Y-8867329D01*
X12961891Y-8867329D02*
X12942844Y-8895901D01*
X12942844Y-8895901D02*
X12933320Y-8933996D01*
X12933320Y-8933996D02*
X12933320Y-9010186D01*
X12933320Y-9010186D02*
X12942844Y-9029234D01*
X12942844Y-9029234D02*
X12952367Y-9038758D01*
X12952367Y-9038758D02*
X12971415Y-9048282D01*
X12971415Y-9048282D02*
X13009510Y-9048282D01*
X13009510Y-9048282D02*
X13028558Y-9038758D01*
X13028558Y-9038758D02*
X13038082Y-9029234D01*
X13038082Y-9029234D02*
X13047606Y-9010186D01*
X13047606Y-9010186D02*
X13047606Y-8962567D01*
X13047606Y-8962567D02*
X13038082Y-8943520D01*
X13038082Y-8943520D02*
X13028558Y-8933996D01*
X13028558Y-8933996D02*
X13009510Y-8924472D01*
X13009510Y-8924472D02*
X12971415Y-8924472D01*
X12971415Y-8924472D02*
X12952367Y-8933996D01*
X12952367Y-8933996D02*
X12942844Y-8943520D01*
X12942844Y-8943520D02*
X12933320Y-8962567D01*
X13285701Y-9048282D02*
X13285701Y-8848282D01*
X13371415Y-9048282D02*
X13371415Y-8943520D01*
X13371415Y-8943520D02*
X13361891Y-8924472D01*
X13361891Y-8924472D02*
X13342844Y-8914948D01*
X13342844Y-8914948D02*
X13314272Y-8914948D01*
X13314272Y-8914948D02*
X13295225Y-8924472D01*
X13295225Y-8924472D02*
X13285701Y-8933996D01*
X13495225Y-9048282D02*
X13476177Y-9038758D01*
X13476177Y-9038758D02*
X13466653Y-9029234D01*
X13466653Y-9029234D02*
X13457129Y-9010186D01*
X13457129Y-9010186D02*
X13457129Y-8953044D01*
X13457129Y-8953044D02*
X13466653Y-8933996D01*
X13466653Y-8933996D02*
X13476177Y-8924472D01*
X13476177Y-8924472D02*
X13495225Y-8914948D01*
X13495225Y-8914948D02*
X13523796Y-8914948D01*
X13523796Y-8914948D02*
X13542844Y-8924472D01*
X13542844Y-8924472D02*
X13552368Y-8933996D01*
X13552368Y-8933996D02*
X13561891Y-8953044D01*
X13561891Y-8953044D02*
X13561891Y-9010186D01*
X13561891Y-9010186D02*
X13552368Y-9029234D01*
X13552368Y-9029234D02*
X13542844Y-9038758D01*
X13542844Y-9038758D02*
X13523796Y-9048282D01*
X13523796Y-9048282D02*
X13495225Y-9048282D01*
X13676177Y-9048282D02*
X13657129Y-9038758D01*
X13657129Y-9038758D02*
X13647606Y-9019710D01*
X13647606Y-9019710D02*
X13647606Y-8848282D01*
X13828558Y-9038758D02*
X13809510Y-9048282D01*
X13809510Y-9048282D02*
X13771415Y-9048282D01*
X13771415Y-9048282D02*
X13752368Y-9038758D01*
X13752368Y-9038758D02*
X13742844Y-9019710D01*
X13742844Y-9019710D02*
X13742844Y-8943520D01*
X13742844Y-8943520D02*
X13752368Y-8924472D01*
X13752368Y-8924472D02*
X13771415Y-8914948D01*
X13771415Y-8914948D02*
X13809510Y-8914948D01*
X13809510Y-8914948D02*
X13828558Y-8924472D01*
X13828558Y-8924472D02*
X13838082Y-8943520D01*
X13838082Y-8943520D02*
X13838082Y-8962567D01*
X13838082Y-8962567D02*
X13742844Y-8981615D01*
X13914272Y-9038758D02*
X13933320Y-9048282D01*
X13933320Y-9048282D02*
X13971415Y-9048282D01*
X13971415Y-9048282D02*
X13990463Y-9038758D01*
X13990463Y-9038758D02*
X13999987Y-9019710D01*
X13999987Y-9019710D02*
X13999987Y-9010186D01*
X13999987Y-9010186D02*
X13990463Y-8991139D01*
X13990463Y-8991139D02*
X13971415Y-8981615D01*
X13971415Y-8981615D02*
X13942844Y-8981615D01*
X13942844Y-8981615D02*
X13923796Y-8972091D01*
X13923796Y-8972091D02*
X13914272Y-8953044D01*
X13914272Y-8953044D02*
X13914272Y-8943520D01*
X13914272Y-8943520D02*
X13923796Y-8924472D01*
X13923796Y-8924472D02*
X13942844Y-8914948D01*
X13942844Y-8914948D02*
X13971415Y-8914948D01*
X13971415Y-8914948D02*
X13990463Y-8924472D01*
X14066653Y-9124472D02*
X14076177Y-9114948D01*
X14076177Y-9114948D02*
X14095225Y-9086377D01*
X14095225Y-9086377D02*
X14104749Y-9067329D01*
X14104749Y-9067329D02*
X14114272Y-9038758D01*
X14114272Y-9038758D02*
X14123796Y-8991139D01*
X14123796Y-8991139D02*
X14123796Y-8953044D01*
X14123796Y-8953044D02*
X14114272Y-8905424D01*
X14114272Y-8905424D02*
X14104749Y-8876853D01*
X14104749Y-8876853D02*
X14095225Y-8857805D01*
X14095225Y-8857805D02*
X14076177Y-8829234D01*
X14076177Y-8829234D02*
X14066653Y-8819710D01*
D12*
X9244090Y-9268298D02*
X9291590Y-9220798D01*
X9244090Y-9173298D01*
X9196590Y-9220798D01*
X9244090Y-9268298D01*
D11*
X9590462Y-9112282D02*
X9609510Y-9112282D01*
X9609510Y-9112282D02*
X9628558Y-9121805D01*
X9628558Y-9121805D02*
X9638082Y-9131329D01*
X9638082Y-9131329D02*
X9647605Y-9150377D01*
X9647605Y-9150377D02*
X9657129Y-9188472D01*
X9657129Y-9188472D02*
X9657129Y-9236091D01*
X9657129Y-9236091D02*
X9647605Y-9274186D01*
X9647605Y-9274186D02*
X9638082Y-9293234D01*
X9638082Y-9293234D02*
X9628558Y-9302758D01*
X9628558Y-9302758D02*
X9609510Y-9312282D01*
X9609510Y-9312282D02*
X9590462Y-9312282D01*
X9590462Y-9312282D02*
X9571415Y-9302758D01*
X9571415Y-9302758D02*
X9561891Y-9293234D01*
X9561891Y-9293234D02*
X9552367Y-9274186D01*
X9552367Y-9274186D02*
X9542843Y-9236091D01*
X9542843Y-9236091D02*
X9542843Y-9188472D01*
X9542843Y-9188472D02*
X9552367Y-9150377D01*
X9552367Y-9150377D02*
X9561891Y-9131329D01*
X9561891Y-9131329D02*
X9571415Y-9121805D01*
X9571415Y-9121805D02*
X9590462Y-9112282D01*
X9742843Y-9293234D02*
X9752367Y-9302758D01*
X9752367Y-9302758D02*
X9742843Y-9312282D01*
X9742843Y-9312282D02*
X9733320Y-9302758D01*
X9733320Y-9302758D02*
X9742843Y-9293234D01*
X9742843Y-9293234D02*
X9742843Y-9312282D01*
X9847605Y-9312282D02*
X9885701Y-9312282D01*
X9885701Y-9312282D02*
X9904748Y-9302758D01*
X9904748Y-9302758D02*
X9914272Y-9293234D01*
X9914272Y-9293234D02*
X9933320Y-9264663D01*
X9933320Y-9264663D02*
X9942843Y-9226567D01*
X9942843Y-9226567D02*
X9942843Y-9150377D01*
X9942843Y-9150377D02*
X9933320Y-9131329D01*
X9933320Y-9131329D02*
X9923796Y-9121805D01*
X9923796Y-9121805D02*
X9904748Y-9112282D01*
X9904748Y-9112282D02*
X9866653Y-9112282D01*
X9866653Y-9112282D02*
X9847605Y-9121805D01*
X9847605Y-9121805D02*
X9838082Y-9131329D01*
X9838082Y-9131329D02*
X9828558Y-9150377D01*
X9828558Y-9150377D02*
X9828558Y-9197996D01*
X9828558Y-9197996D02*
X9838082Y-9217044D01*
X9838082Y-9217044D02*
X9847605Y-9226567D01*
X9847605Y-9226567D02*
X9866653Y-9236091D01*
X9866653Y-9236091D02*
X9904748Y-9236091D01*
X9904748Y-9236091D02*
X9923796Y-9226567D01*
X9923796Y-9226567D02*
X9933320Y-9217044D01*
X9933320Y-9217044D02*
X9942843Y-9197996D01*
X10123796Y-9112282D02*
X10028558Y-9112282D01*
X10028558Y-9112282D02*
X10019034Y-9207520D01*
X10019034Y-9207520D02*
X10028558Y-9197996D01*
X10028558Y-9197996D02*
X10047605Y-9188472D01*
X10047605Y-9188472D02*
X10095224Y-9188472D01*
X10095224Y-9188472D02*
X10114272Y-9197996D01*
X10114272Y-9197996D02*
X10123796Y-9207520D01*
X10123796Y-9207520D02*
X10133320Y-9226567D01*
X10133320Y-9226567D02*
X10133320Y-9274186D01*
X10133320Y-9274186D02*
X10123796Y-9293234D01*
X10123796Y-9293234D02*
X10114272Y-9302758D01*
X10114272Y-9302758D02*
X10095224Y-9312282D01*
X10095224Y-9312282D02*
X10047605Y-9312282D01*
X10047605Y-9312282D02*
X10028558Y-9302758D01*
X10028558Y-9302758D02*
X10019034Y-9293234D01*
X10257129Y-9112282D02*
X10276177Y-9112282D01*
X10276177Y-9112282D02*
X10295224Y-9121805D01*
X10295224Y-9121805D02*
X10304748Y-9131329D01*
X10304748Y-9131329D02*
X10314272Y-9150377D01*
X10314272Y-9150377D02*
X10323796Y-9188472D01*
X10323796Y-9188472D02*
X10323796Y-9236091D01*
X10323796Y-9236091D02*
X10314272Y-9274186D01*
X10314272Y-9274186D02*
X10304748Y-9293234D01*
X10304748Y-9293234D02*
X10295224Y-9302758D01*
X10295224Y-9302758D02*
X10276177Y-9312282D01*
X10276177Y-9312282D02*
X10257129Y-9312282D01*
X10257129Y-9312282D02*
X10238082Y-9302758D01*
X10238082Y-9302758D02*
X10228558Y-9293234D01*
X10228558Y-9293234D02*
X10219034Y-9274186D01*
X10219034Y-9274186D02*
X10209510Y-9236091D01*
X10209510Y-9236091D02*
X10209510Y-9188472D01*
X10209510Y-9188472D02*
X10219034Y-9150377D01*
X10219034Y-9150377D02*
X10228558Y-9131329D01*
X10228558Y-9131329D02*
X10238082Y-9121805D01*
X10238082Y-9121805D02*
X10257129Y-9112282D01*
X10409510Y-9312282D02*
X10409510Y-9178948D01*
X10409510Y-9197996D02*
X10419034Y-9188472D01*
X10419034Y-9188472D02*
X10438082Y-9178948D01*
X10438082Y-9178948D02*
X10466653Y-9178948D01*
X10466653Y-9178948D02*
X10485701Y-9188472D01*
X10485701Y-9188472D02*
X10495224Y-9207520D01*
X10495224Y-9207520D02*
X10495224Y-9312282D01*
X10495224Y-9207520D02*
X10504748Y-9188472D01*
X10504748Y-9188472D02*
X10523796Y-9178948D01*
X10523796Y-9178948D02*
X10552367Y-9178948D01*
X10552367Y-9178948D02*
X10571415Y-9188472D01*
X10571415Y-9188472D02*
X10580939Y-9207520D01*
X10580939Y-9207520D02*
X10580939Y-9312282D01*
X10676177Y-9312282D02*
X10676177Y-9178948D01*
X10676177Y-9197996D02*
X10685701Y-9188472D01*
X10685701Y-9188472D02*
X10704748Y-9178948D01*
X10704748Y-9178948D02*
X10733320Y-9178948D01*
X10733320Y-9178948D02*
X10752367Y-9188472D01*
X10752367Y-9188472D02*
X10761891Y-9207520D01*
X10761891Y-9207520D02*
X10761891Y-9312282D01*
X10761891Y-9207520D02*
X10771415Y-9188472D01*
X10771415Y-9188472D02*
X10790463Y-9178948D01*
X10790463Y-9178948D02*
X10819034Y-9178948D01*
X10819034Y-9178948D02*
X10838082Y-9188472D01*
X10838082Y-9188472D02*
X10847605Y-9207520D01*
X10847605Y-9207520D02*
X10847605Y-9312282D01*
X11238082Y-9102758D02*
X11066653Y-9359901D01*
X11495224Y-9112282D02*
X11514272Y-9112282D01*
X11514272Y-9112282D02*
X11533320Y-9121805D01*
X11533320Y-9121805D02*
X11542844Y-9131329D01*
X11542844Y-9131329D02*
X11552367Y-9150377D01*
X11552367Y-9150377D02*
X11561891Y-9188472D01*
X11561891Y-9188472D02*
X11561891Y-9236091D01*
X11561891Y-9236091D02*
X11552367Y-9274186D01*
X11552367Y-9274186D02*
X11542844Y-9293234D01*
X11542844Y-9293234D02*
X11533320Y-9302758D01*
X11533320Y-9302758D02*
X11514272Y-9312282D01*
X11514272Y-9312282D02*
X11495224Y-9312282D01*
X11495224Y-9312282D02*
X11476177Y-9302758D01*
X11476177Y-9302758D02*
X11466653Y-9293234D01*
X11466653Y-9293234D02*
X11457129Y-9274186D01*
X11457129Y-9274186D02*
X11447605Y-9236091D01*
X11447605Y-9236091D02*
X11447605Y-9188472D01*
X11447605Y-9188472D02*
X11457129Y-9150377D01*
X11457129Y-9150377D02*
X11466653Y-9131329D01*
X11466653Y-9131329D02*
X11476177Y-9121805D01*
X11476177Y-9121805D02*
X11495224Y-9112282D01*
X11647605Y-9293234D02*
X11657129Y-9302758D01*
X11657129Y-9302758D02*
X11647605Y-9312282D01*
X11647605Y-9312282D02*
X11638082Y-9302758D01*
X11638082Y-9302758D02*
X11647605Y-9293234D01*
X11647605Y-9293234D02*
X11647605Y-9312282D01*
X11780939Y-9112282D02*
X11799986Y-9112282D01*
X11799986Y-9112282D02*
X11819034Y-9121805D01*
X11819034Y-9121805D02*
X11828558Y-9131329D01*
X11828558Y-9131329D02*
X11838082Y-9150377D01*
X11838082Y-9150377D02*
X11847605Y-9188472D01*
X11847605Y-9188472D02*
X11847605Y-9236091D01*
X11847605Y-9236091D02*
X11838082Y-9274186D01*
X11838082Y-9274186D02*
X11828558Y-9293234D01*
X11828558Y-9293234D02*
X11819034Y-9302758D01*
X11819034Y-9302758D02*
X11799986Y-9312282D01*
X11799986Y-9312282D02*
X11780939Y-9312282D01*
X11780939Y-9312282D02*
X11761891Y-9302758D01*
X11761891Y-9302758D02*
X11752367Y-9293234D01*
X11752367Y-9293234D02*
X11742844Y-9274186D01*
X11742844Y-9274186D02*
X11733320Y-9236091D01*
X11733320Y-9236091D02*
X11733320Y-9188472D01*
X11733320Y-9188472D02*
X11742844Y-9150377D01*
X11742844Y-9150377D02*
X11752367Y-9131329D01*
X11752367Y-9131329D02*
X11761891Y-9121805D01*
X11761891Y-9121805D02*
X11780939Y-9112282D01*
X11914272Y-9112282D02*
X12038082Y-9112282D01*
X12038082Y-9112282D02*
X11971415Y-9188472D01*
X11971415Y-9188472D02*
X11999986Y-9188472D01*
X11999986Y-9188472D02*
X12019034Y-9197996D01*
X12019034Y-9197996D02*
X12028558Y-9207520D01*
X12028558Y-9207520D02*
X12038082Y-9226567D01*
X12038082Y-9226567D02*
X12038082Y-9274186D01*
X12038082Y-9274186D02*
X12028558Y-9293234D01*
X12028558Y-9293234D02*
X12019034Y-9302758D01*
X12019034Y-9302758D02*
X11999986Y-9312282D01*
X11999986Y-9312282D02*
X11942844Y-9312282D01*
X11942844Y-9312282D02*
X11923796Y-9302758D01*
X11923796Y-9302758D02*
X11914272Y-9293234D01*
X12104748Y-9112282D02*
X12238082Y-9112282D01*
X12238082Y-9112282D02*
X12152367Y-9312282D01*
X12399986Y-9178948D02*
X12399986Y-9312282D01*
X12352367Y-9102758D02*
X12304748Y-9245615D01*
X12304748Y-9245615D02*
X12428558Y-9245615D01*
X12495225Y-9112282D02*
X12495225Y-9150377D01*
X12571415Y-9112282D02*
X12571415Y-9150377D01*
X12866653Y-9388472D02*
X12857129Y-9378948D01*
X12857129Y-9378948D02*
X12838082Y-9350377D01*
X12838082Y-9350377D02*
X12828558Y-9331329D01*
X12828558Y-9331329D02*
X12819034Y-9302758D01*
X12819034Y-9302758D02*
X12809510Y-9255139D01*
X12809510Y-9255139D02*
X12809510Y-9217044D01*
X12809510Y-9217044D02*
X12819034Y-9169424D01*
X12819034Y-9169424D02*
X12828558Y-9140853D01*
X12828558Y-9140853D02*
X12838082Y-9121805D01*
X12838082Y-9121805D02*
X12857129Y-9093234D01*
X12857129Y-9093234D02*
X12866653Y-9083710D01*
X13028558Y-9112282D02*
X12990463Y-9112282D01*
X12990463Y-9112282D02*
X12971415Y-9121805D01*
X12971415Y-9121805D02*
X12961891Y-9131329D01*
X12961891Y-9131329D02*
X12942844Y-9159901D01*
X12942844Y-9159901D02*
X12933320Y-9197996D01*
X12933320Y-9197996D02*
X12933320Y-9274186D01*
X12933320Y-9274186D02*
X12942844Y-9293234D01*
X12942844Y-9293234D02*
X12952367Y-9302758D01*
X12952367Y-9302758D02*
X12971415Y-9312282D01*
X12971415Y-9312282D02*
X13009510Y-9312282D01*
X13009510Y-9312282D02*
X13028558Y-9302758D01*
X13028558Y-9302758D02*
X13038082Y-9293234D01*
X13038082Y-9293234D02*
X13047606Y-9274186D01*
X13047606Y-9274186D02*
X13047606Y-9226567D01*
X13047606Y-9226567D02*
X13038082Y-9207520D01*
X13038082Y-9207520D02*
X13028558Y-9197996D01*
X13028558Y-9197996D02*
X13009510Y-9188472D01*
X13009510Y-9188472D02*
X12971415Y-9188472D01*
X12971415Y-9188472D02*
X12952367Y-9197996D01*
X12952367Y-9197996D02*
X12942844Y-9207520D01*
X12942844Y-9207520D02*
X12933320Y-9226567D01*
X13285701Y-9312282D02*
X13285701Y-9112282D01*
X13371415Y-9312282D02*
X13371415Y-9207520D01*
X13371415Y-9207520D02*
X13361891Y-9188472D01*
X13361891Y-9188472D02*
X13342844Y-9178948D01*
X13342844Y-9178948D02*
X13314272Y-9178948D01*
X13314272Y-9178948D02*
X13295225Y-9188472D01*
X13295225Y-9188472D02*
X13285701Y-9197996D01*
X13495225Y-9312282D02*
X13476177Y-9302758D01*
X13476177Y-9302758D02*
X13466653Y-9293234D01*
X13466653Y-9293234D02*
X13457129Y-9274186D01*
X13457129Y-9274186D02*
X13457129Y-9217044D01*
X13457129Y-9217044D02*
X13466653Y-9197996D01*
X13466653Y-9197996D02*
X13476177Y-9188472D01*
X13476177Y-9188472D02*
X13495225Y-9178948D01*
X13495225Y-9178948D02*
X13523796Y-9178948D01*
X13523796Y-9178948D02*
X13542844Y-9188472D01*
X13542844Y-9188472D02*
X13552368Y-9197996D01*
X13552368Y-9197996D02*
X13561891Y-9217044D01*
X13561891Y-9217044D02*
X13561891Y-9274186D01*
X13561891Y-9274186D02*
X13552368Y-9293234D01*
X13552368Y-9293234D02*
X13542844Y-9302758D01*
X13542844Y-9302758D02*
X13523796Y-9312282D01*
X13523796Y-9312282D02*
X13495225Y-9312282D01*
X13676177Y-9312282D02*
X13657129Y-9302758D01*
X13657129Y-9302758D02*
X13647606Y-9283710D01*
X13647606Y-9283710D02*
X13647606Y-9112282D01*
X13828558Y-9302758D02*
X13809510Y-9312282D01*
X13809510Y-9312282D02*
X13771415Y-9312282D01*
X13771415Y-9312282D02*
X13752368Y-9302758D01*
X13752368Y-9302758D02*
X13742844Y-9283710D01*
X13742844Y-9283710D02*
X13742844Y-9207520D01*
X13742844Y-9207520D02*
X13752368Y-9188472D01*
X13752368Y-9188472D02*
X13771415Y-9178948D01*
X13771415Y-9178948D02*
X13809510Y-9178948D01*
X13809510Y-9178948D02*
X13828558Y-9188472D01*
X13828558Y-9188472D02*
X13838082Y-9207520D01*
X13838082Y-9207520D02*
X13838082Y-9226567D01*
X13838082Y-9226567D02*
X13742844Y-9245615D01*
X13914272Y-9302758D02*
X13933320Y-9312282D01*
X13933320Y-9312282D02*
X13971415Y-9312282D01*
X13971415Y-9312282D02*
X13990463Y-9302758D01*
X13990463Y-9302758D02*
X13999987Y-9283710D01*
X13999987Y-9283710D02*
X13999987Y-9274186D01*
X13999987Y-9274186D02*
X13990463Y-9255139D01*
X13990463Y-9255139D02*
X13971415Y-9245615D01*
X13971415Y-9245615D02*
X13942844Y-9245615D01*
X13942844Y-9245615D02*
X13923796Y-9236091D01*
X13923796Y-9236091D02*
X13914272Y-9217044D01*
X13914272Y-9217044D02*
X13914272Y-9207520D01*
X13914272Y-9207520D02*
X13923796Y-9188472D01*
X13923796Y-9188472D02*
X13942844Y-9178948D01*
X13942844Y-9178948D02*
X13971415Y-9178948D01*
X13971415Y-9178948D02*
X13990463Y-9188472D01*
X14066653Y-9388472D02*
X14076177Y-9378948D01*
X14076177Y-9378948D02*
X14095225Y-9350377D01*
X14095225Y-9350377D02*
X14104749Y-9331329D01*
X14104749Y-9331329D02*
X14114272Y-9302758D01*
X14114272Y-9302758D02*
X14123796Y-9255139D01*
X14123796Y-9255139D02*
X14123796Y-9217044D01*
X14123796Y-9217044D02*
X14114272Y-9169424D01*
X14114272Y-9169424D02*
X14104749Y-9140853D01*
X14104749Y-9140853D02*
X14095225Y-9121805D01*
X14095225Y-9121805D02*
X14076177Y-9093234D01*
X14076177Y-9093234D02*
X14066653Y-9083710D01*
D12*
X9191590Y-9434798D02*
X9291590Y-9534798D01*
X9291590Y-9434798D02*
X9191590Y-9534798D01*
X9291590Y-9484798D02*
G75*
G02*
X9191590Y-9484798I-50000J0D01*
G01*
X9191590Y-9484798D02*
G75*
G02*
X9291590Y-9484798I50000J0D01*
G01*
D11*
X9657129Y-9576282D02*
X9542843Y-9576282D01*
X9599986Y-9576282D02*
X9599986Y-9376282D01*
X9599986Y-9376282D02*
X9580939Y-9404853D01*
X9580939Y-9404853D02*
X9561891Y-9423901D01*
X9561891Y-9423901D02*
X9542843Y-9433424D01*
X9742843Y-9557234D02*
X9752367Y-9566758D01*
X9752367Y-9566758D02*
X9742843Y-9576282D01*
X9742843Y-9576282D02*
X9733320Y-9566758D01*
X9733320Y-9566758D02*
X9742843Y-9557234D01*
X9742843Y-9557234D02*
X9742843Y-9576282D01*
X9876177Y-9376282D02*
X9895224Y-9376282D01*
X9895224Y-9376282D02*
X9914272Y-9385805D01*
X9914272Y-9385805D02*
X9923796Y-9395329D01*
X9923796Y-9395329D02*
X9933320Y-9414377D01*
X9933320Y-9414377D02*
X9942843Y-9452472D01*
X9942843Y-9452472D02*
X9942843Y-9500091D01*
X9942843Y-9500091D02*
X9933320Y-9538186D01*
X9933320Y-9538186D02*
X9923796Y-9557234D01*
X9923796Y-9557234D02*
X9914272Y-9566758D01*
X9914272Y-9566758D02*
X9895224Y-9576282D01*
X9895224Y-9576282D02*
X9876177Y-9576282D01*
X9876177Y-9576282D02*
X9857129Y-9566758D01*
X9857129Y-9566758D02*
X9847605Y-9557234D01*
X9847605Y-9557234D02*
X9838082Y-9538186D01*
X9838082Y-9538186D02*
X9828558Y-9500091D01*
X9828558Y-9500091D02*
X9828558Y-9452472D01*
X9828558Y-9452472D02*
X9838082Y-9414377D01*
X9838082Y-9414377D02*
X9847605Y-9395329D01*
X9847605Y-9395329D02*
X9857129Y-9385805D01*
X9857129Y-9385805D02*
X9876177Y-9376282D01*
X10066653Y-9376282D02*
X10085701Y-9376282D01*
X10085701Y-9376282D02*
X10104748Y-9385805D01*
X10104748Y-9385805D02*
X10114272Y-9395329D01*
X10114272Y-9395329D02*
X10123796Y-9414377D01*
X10123796Y-9414377D02*
X10133320Y-9452472D01*
X10133320Y-9452472D02*
X10133320Y-9500091D01*
X10133320Y-9500091D02*
X10123796Y-9538186D01*
X10123796Y-9538186D02*
X10114272Y-9557234D01*
X10114272Y-9557234D02*
X10104748Y-9566758D01*
X10104748Y-9566758D02*
X10085701Y-9576282D01*
X10085701Y-9576282D02*
X10066653Y-9576282D01*
X10066653Y-9576282D02*
X10047605Y-9566758D01*
X10047605Y-9566758D02*
X10038082Y-9557234D01*
X10038082Y-9557234D02*
X10028558Y-9538186D01*
X10028558Y-9538186D02*
X10019034Y-9500091D01*
X10019034Y-9500091D02*
X10019034Y-9452472D01*
X10019034Y-9452472D02*
X10028558Y-9414377D01*
X10028558Y-9414377D02*
X10038082Y-9395329D01*
X10038082Y-9395329D02*
X10047605Y-9385805D01*
X10047605Y-9385805D02*
X10066653Y-9376282D01*
X10257129Y-9376282D02*
X10276177Y-9376282D01*
X10276177Y-9376282D02*
X10295224Y-9385805D01*
X10295224Y-9385805D02*
X10304748Y-9395329D01*
X10304748Y-9395329D02*
X10314272Y-9414377D01*
X10314272Y-9414377D02*
X10323796Y-9452472D01*
X10323796Y-9452472D02*
X10323796Y-9500091D01*
X10323796Y-9500091D02*
X10314272Y-9538186D01*
X10314272Y-9538186D02*
X10304748Y-9557234D01*
X10304748Y-9557234D02*
X10295224Y-9566758D01*
X10295224Y-9566758D02*
X10276177Y-9576282D01*
X10276177Y-9576282D02*
X10257129Y-9576282D01*
X10257129Y-9576282D02*
X10238082Y-9566758D01*
X10238082Y-9566758D02*
X10228558Y-9557234D01*
X10228558Y-9557234D02*
X10219034Y-9538186D01*
X10219034Y-9538186D02*
X10209510Y-9500091D01*
X10209510Y-9500091D02*
X10209510Y-9452472D01*
X10209510Y-9452472D02*
X10219034Y-9414377D01*
X10219034Y-9414377D02*
X10228558Y-9395329D01*
X10228558Y-9395329D02*
X10238082Y-9385805D01*
X10238082Y-9385805D02*
X10257129Y-9376282D01*
X10409510Y-9576282D02*
X10409510Y-9442948D01*
X10409510Y-9461996D02*
X10419034Y-9452472D01*
X10419034Y-9452472D02*
X10438082Y-9442948D01*
X10438082Y-9442948D02*
X10466653Y-9442948D01*
X10466653Y-9442948D02*
X10485701Y-9452472D01*
X10485701Y-9452472D02*
X10495224Y-9471520D01*
X10495224Y-9471520D02*
X10495224Y-9576282D01*
X10495224Y-9471520D02*
X10504748Y-9452472D01*
X10504748Y-9452472D02*
X10523796Y-9442948D01*
X10523796Y-9442948D02*
X10552367Y-9442948D01*
X10552367Y-9442948D02*
X10571415Y-9452472D01*
X10571415Y-9452472D02*
X10580939Y-9471520D01*
X10580939Y-9471520D02*
X10580939Y-9576282D01*
X10676177Y-9576282D02*
X10676177Y-9442948D01*
X10676177Y-9461996D02*
X10685701Y-9452472D01*
X10685701Y-9452472D02*
X10704748Y-9442948D01*
X10704748Y-9442948D02*
X10733320Y-9442948D01*
X10733320Y-9442948D02*
X10752367Y-9452472D01*
X10752367Y-9452472D02*
X10761891Y-9471520D01*
X10761891Y-9471520D02*
X10761891Y-9576282D01*
X10761891Y-9471520D02*
X10771415Y-9452472D01*
X10771415Y-9452472D02*
X10790463Y-9442948D01*
X10790463Y-9442948D02*
X10819034Y-9442948D01*
X10819034Y-9442948D02*
X10838082Y-9452472D01*
X10838082Y-9452472D02*
X10847605Y-9471520D01*
X10847605Y-9471520D02*
X10847605Y-9576282D01*
X11238082Y-9366758D02*
X11066653Y-9623901D01*
X11495224Y-9376282D02*
X11514272Y-9376282D01*
X11514272Y-9376282D02*
X11533320Y-9385805D01*
X11533320Y-9385805D02*
X11542844Y-9395329D01*
X11542844Y-9395329D02*
X11552367Y-9414377D01*
X11552367Y-9414377D02*
X11561891Y-9452472D01*
X11561891Y-9452472D02*
X11561891Y-9500091D01*
X11561891Y-9500091D02*
X11552367Y-9538186D01*
X11552367Y-9538186D02*
X11542844Y-9557234D01*
X11542844Y-9557234D02*
X11533320Y-9566758D01*
X11533320Y-9566758D02*
X11514272Y-9576282D01*
X11514272Y-9576282D02*
X11495224Y-9576282D01*
X11495224Y-9576282D02*
X11476177Y-9566758D01*
X11476177Y-9566758D02*
X11466653Y-9557234D01*
X11466653Y-9557234D02*
X11457129Y-9538186D01*
X11457129Y-9538186D02*
X11447605Y-9500091D01*
X11447605Y-9500091D02*
X11447605Y-9452472D01*
X11447605Y-9452472D02*
X11457129Y-9414377D01*
X11457129Y-9414377D02*
X11466653Y-9395329D01*
X11466653Y-9395329D02*
X11476177Y-9385805D01*
X11476177Y-9385805D02*
X11495224Y-9376282D01*
X11647605Y-9557234D02*
X11657129Y-9566758D01*
X11657129Y-9566758D02*
X11647605Y-9576282D01*
X11647605Y-9576282D02*
X11638082Y-9566758D01*
X11638082Y-9566758D02*
X11647605Y-9557234D01*
X11647605Y-9557234D02*
X11647605Y-9576282D01*
X11780939Y-9376282D02*
X11799986Y-9376282D01*
X11799986Y-9376282D02*
X11819034Y-9385805D01*
X11819034Y-9385805D02*
X11828558Y-9395329D01*
X11828558Y-9395329D02*
X11838082Y-9414377D01*
X11838082Y-9414377D02*
X11847605Y-9452472D01*
X11847605Y-9452472D02*
X11847605Y-9500091D01*
X11847605Y-9500091D02*
X11838082Y-9538186D01*
X11838082Y-9538186D02*
X11828558Y-9557234D01*
X11828558Y-9557234D02*
X11819034Y-9566758D01*
X11819034Y-9566758D02*
X11799986Y-9576282D01*
X11799986Y-9576282D02*
X11780939Y-9576282D01*
X11780939Y-9576282D02*
X11761891Y-9566758D01*
X11761891Y-9566758D02*
X11752367Y-9557234D01*
X11752367Y-9557234D02*
X11742844Y-9538186D01*
X11742844Y-9538186D02*
X11733320Y-9500091D01*
X11733320Y-9500091D02*
X11733320Y-9452472D01*
X11733320Y-9452472D02*
X11742844Y-9414377D01*
X11742844Y-9414377D02*
X11752367Y-9395329D01*
X11752367Y-9395329D02*
X11761891Y-9385805D01*
X11761891Y-9385805D02*
X11780939Y-9376282D01*
X11914272Y-9376282D02*
X12038082Y-9376282D01*
X12038082Y-9376282D02*
X11971415Y-9452472D01*
X11971415Y-9452472D02*
X11999986Y-9452472D01*
X11999986Y-9452472D02*
X12019034Y-9461996D01*
X12019034Y-9461996D02*
X12028558Y-9471520D01*
X12028558Y-9471520D02*
X12038082Y-9490567D01*
X12038082Y-9490567D02*
X12038082Y-9538186D01*
X12038082Y-9538186D02*
X12028558Y-9557234D01*
X12028558Y-9557234D02*
X12019034Y-9566758D01*
X12019034Y-9566758D02*
X11999986Y-9576282D01*
X11999986Y-9576282D02*
X11942844Y-9576282D01*
X11942844Y-9576282D02*
X11923796Y-9566758D01*
X11923796Y-9566758D02*
X11914272Y-9557234D01*
X12133320Y-9576282D02*
X12171415Y-9576282D01*
X12171415Y-9576282D02*
X12190463Y-9566758D01*
X12190463Y-9566758D02*
X12199986Y-9557234D01*
X12199986Y-9557234D02*
X12219034Y-9528663D01*
X12219034Y-9528663D02*
X12228558Y-9490567D01*
X12228558Y-9490567D02*
X12228558Y-9414377D01*
X12228558Y-9414377D02*
X12219034Y-9395329D01*
X12219034Y-9395329D02*
X12209510Y-9385805D01*
X12209510Y-9385805D02*
X12190463Y-9376282D01*
X12190463Y-9376282D02*
X12152367Y-9376282D01*
X12152367Y-9376282D02*
X12133320Y-9385805D01*
X12133320Y-9385805D02*
X12123796Y-9395329D01*
X12123796Y-9395329D02*
X12114272Y-9414377D01*
X12114272Y-9414377D02*
X12114272Y-9461996D01*
X12114272Y-9461996D02*
X12123796Y-9481044D01*
X12123796Y-9481044D02*
X12133320Y-9490567D01*
X12133320Y-9490567D02*
X12152367Y-9500091D01*
X12152367Y-9500091D02*
X12190463Y-9500091D01*
X12190463Y-9500091D02*
X12209510Y-9490567D01*
X12209510Y-9490567D02*
X12219034Y-9481044D01*
X12219034Y-9481044D02*
X12228558Y-9461996D01*
X12399986Y-9442948D02*
X12399986Y-9576282D01*
X12352367Y-9366758D02*
X12304748Y-9509615D01*
X12304748Y-9509615D02*
X12428558Y-9509615D01*
X12495225Y-9376282D02*
X12495225Y-9414377D01*
X12571415Y-9376282D02*
X12571415Y-9414377D01*
X12866653Y-9652472D02*
X12857129Y-9642948D01*
X12857129Y-9642948D02*
X12838082Y-9614377D01*
X12838082Y-9614377D02*
X12828558Y-9595329D01*
X12828558Y-9595329D02*
X12819034Y-9566758D01*
X12819034Y-9566758D02*
X12809510Y-9519139D01*
X12809510Y-9519139D02*
X12809510Y-9481044D01*
X12809510Y-9481044D02*
X12819034Y-9433424D01*
X12819034Y-9433424D02*
X12828558Y-9404853D01*
X12828558Y-9404853D02*
X12838082Y-9385805D01*
X12838082Y-9385805D02*
X12857129Y-9357234D01*
X12857129Y-9357234D02*
X12866653Y-9347710D01*
X13047606Y-9576282D02*
X12933320Y-9576282D01*
X12990463Y-9576282D02*
X12990463Y-9376282D01*
X12990463Y-9376282D02*
X12971415Y-9404853D01*
X12971415Y-9404853D02*
X12952367Y-9423901D01*
X12952367Y-9423901D02*
X12933320Y-9433424D01*
X13142844Y-9576282D02*
X13180939Y-9576282D01*
X13180939Y-9576282D02*
X13199987Y-9566758D01*
X13199987Y-9566758D02*
X13209510Y-9557234D01*
X13209510Y-9557234D02*
X13228558Y-9528663D01*
X13228558Y-9528663D02*
X13238082Y-9490567D01*
X13238082Y-9490567D02*
X13238082Y-9414377D01*
X13238082Y-9414377D02*
X13228558Y-9395329D01*
X13228558Y-9395329D02*
X13219034Y-9385805D01*
X13219034Y-9385805D02*
X13199987Y-9376282D01*
X13199987Y-9376282D02*
X13161891Y-9376282D01*
X13161891Y-9376282D02*
X13142844Y-9385805D01*
X13142844Y-9385805D02*
X13133320Y-9395329D01*
X13133320Y-9395329D02*
X13123796Y-9414377D01*
X13123796Y-9414377D02*
X13123796Y-9461996D01*
X13123796Y-9461996D02*
X13133320Y-9481044D01*
X13133320Y-9481044D02*
X13142844Y-9490567D01*
X13142844Y-9490567D02*
X13161891Y-9500091D01*
X13161891Y-9500091D02*
X13199987Y-9500091D01*
X13199987Y-9500091D02*
X13219034Y-9490567D01*
X13219034Y-9490567D02*
X13228558Y-9481044D01*
X13228558Y-9481044D02*
X13238082Y-9461996D01*
X13476177Y-9576282D02*
X13476177Y-9376282D01*
X13561891Y-9576282D02*
X13561891Y-9471520D01*
X13561891Y-9471520D02*
X13552368Y-9452472D01*
X13552368Y-9452472D02*
X13533320Y-9442948D01*
X13533320Y-9442948D02*
X13504748Y-9442948D01*
X13504748Y-9442948D02*
X13485701Y-9452472D01*
X13485701Y-9452472D02*
X13476177Y-9461996D01*
X13685701Y-9576282D02*
X13666653Y-9566758D01*
X13666653Y-9566758D02*
X13657129Y-9557234D01*
X13657129Y-9557234D02*
X13647606Y-9538186D01*
X13647606Y-9538186D02*
X13647606Y-9481044D01*
X13647606Y-9481044D02*
X13657129Y-9461996D01*
X13657129Y-9461996D02*
X13666653Y-9452472D01*
X13666653Y-9452472D02*
X13685701Y-9442948D01*
X13685701Y-9442948D02*
X13714272Y-9442948D01*
X13714272Y-9442948D02*
X13733320Y-9452472D01*
X13733320Y-9452472D02*
X13742844Y-9461996D01*
X13742844Y-9461996D02*
X13752368Y-9481044D01*
X13752368Y-9481044D02*
X13752368Y-9538186D01*
X13752368Y-9538186D02*
X13742844Y-9557234D01*
X13742844Y-9557234D02*
X13733320Y-9566758D01*
X13733320Y-9566758D02*
X13714272Y-9576282D01*
X13714272Y-9576282D02*
X13685701Y-9576282D01*
X13866653Y-9576282D02*
X13847606Y-9566758D01*
X13847606Y-9566758D02*
X13838082Y-9547710D01*
X13838082Y-9547710D02*
X13838082Y-9376282D01*
X14019034Y-9566758D02*
X13999987Y-9576282D01*
X13999987Y-9576282D02*
X13961891Y-9576282D01*
X13961891Y-9576282D02*
X13942844Y-9566758D01*
X13942844Y-9566758D02*
X13933320Y-9547710D01*
X13933320Y-9547710D02*
X13933320Y-9471520D01*
X13933320Y-9471520D02*
X13942844Y-9452472D01*
X13942844Y-9452472D02*
X13961891Y-9442948D01*
X13961891Y-9442948D02*
X13999987Y-9442948D01*
X13999987Y-9442948D02*
X14019034Y-9452472D01*
X14019034Y-9452472D02*
X14028558Y-9471520D01*
X14028558Y-9471520D02*
X14028558Y-9490567D01*
X14028558Y-9490567D02*
X13933320Y-9509615D01*
X14104749Y-9566758D02*
X14123796Y-9576282D01*
X14123796Y-9576282D02*
X14161891Y-9576282D01*
X14161891Y-9576282D02*
X14180939Y-9566758D01*
X14180939Y-9566758D02*
X14190463Y-9547710D01*
X14190463Y-9547710D02*
X14190463Y-9538186D01*
X14190463Y-9538186D02*
X14180939Y-9519139D01*
X14180939Y-9519139D02*
X14161891Y-9509615D01*
X14161891Y-9509615D02*
X14133320Y-9509615D01*
X14133320Y-9509615D02*
X14114272Y-9500091D01*
X14114272Y-9500091D02*
X14104749Y-9481044D01*
X14104749Y-9481044D02*
X14104749Y-9471520D01*
X14104749Y-9471520D02*
X14114272Y-9452472D01*
X14114272Y-9452472D02*
X14133320Y-9442948D01*
X14133320Y-9442948D02*
X14161891Y-9442948D01*
X14161891Y-9442948D02*
X14180939Y-9452472D01*
X14257130Y-9652472D02*
X14266653Y-9642948D01*
X14266653Y-9642948D02*
X14285701Y-9614377D01*
X14285701Y-9614377D02*
X14295225Y-9595329D01*
X14295225Y-9595329D02*
X14304749Y-9566758D01*
X14304749Y-9566758D02*
X14314272Y-9519139D01*
X14314272Y-9519139D02*
X14314272Y-9481044D01*
X14314272Y-9481044D02*
X14304749Y-9433424D01*
X14304749Y-9433424D02*
X14295225Y-9404853D01*
X14295225Y-9404853D02*
X14285701Y-9385805D01*
X14285701Y-9385805D02*
X14266653Y-9357234D01*
X14266653Y-9357234D02*
X14257130Y-9347710D01*
D13*
X9181590Y-9693798D02*
X9291590Y-9803798D01*
X9291590Y-9693798D02*
X9181590Y-9803798D01*
X9236590Y-9693798D02*
X9236590Y-9803798D01*
X9181590Y-9748798D02*
X9291590Y-9748798D01*
D11*
X9657129Y-9840282D02*
X9542843Y-9840282D01*
X9599986Y-9840282D02*
X9599986Y-9640282D01*
X9599986Y-9640282D02*
X9580939Y-9668853D01*
X9580939Y-9668853D02*
X9561891Y-9687901D01*
X9561891Y-9687901D02*
X9542843Y-9697424D01*
X9742843Y-9821234D02*
X9752367Y-9830758D01*
X9752367Y-9830758D02*
X9742843Y-9840282D01*
X9742843Y-9840282D02*
X9733320Y-9830758D01*
X9733320Y-9830758D02*
X9742843Y-9821234D01*
X9742843Y-9821234D02*
X9742843Y-9840282D01*
X9942843Y-9840282D02*
X9828558Y-9840282D01*
X9885701Y-9840282D02*
X9885701Y-9640282D01*
X9885701Y-9640282D02*
X9866653Y-9668853D01*
X9866653Y-9668853D02*
X9847605Y-9687901D01*
X9847605Y-9687901D02*
X9828558Y-9697424D01*
X10066653Y-9640282D02*
X10085701Y-9640282D01*
X10085701Y-9640282D02*
X10104748Y-9649805D01*
X10104748Y-9649805D02*
X10114272Y-9659329D01*
X10114272Y-9659329D02*
X10123796Y-9678377D01*
X10123796Y-9678377D02*
X10133320Y-9716472D01*
X10133320Y-9716472D02*
X10133320Y-9764091D01*
X10133320Y-9764091D02*
X10123796Y-9802186D01*
X10123796Y-9802186D02*
X10114272Y-9821234D01*
X10114272Y-9821234D02*
X10104748Y-9830758D01*
X10104748Y-9830758D02*
X10085701Y-9840282D01*
X10085701Y-9840282D02*
X10066653Y-9840282D01*
X10066653Y-9840282D02*
X10047605Y-9830758D01*
X10047605Y-9830758D02*
X10038082Y-9821234D01*
X10038082Y-9821234D02*
X10028558Y-9802186D01*
X10028558Y-9802186D02*
X10019034Y-9764091D01*
X10019034Y-9764091D02*
X10019034Y-9716472D01*
X10019034Y-9716472D02*
X10028558Y-9678377D01*
X10028558Y-9678377D02*
X10038082Y-9659329D01*
X10038082Y-9659329D02*
X10047605Y-9649805D01*
X10047605Y-9649805D02*
X10066653Y-9640282D01*
X10257129Y-9640282D02*
X10276177Y-9640282D01*
X10276177Y-9640282D02*
X10295224Y-9649805D01*
X10295224Y-9649805D02*
X10304748Y-9659329D01*
X10304748Y-9659329D02*
X10314272Y-9678377D01*
X10314272Y-9678377D02*
X10323796Y-9716472D01*
X10323796Y-9716472D02*
X10323796Y-9764091D01*
X10323796Y-9764091D02*
X10314272Y-9802186D01*
X10314272Y-9802186D02*
X10304748Y-9821234D01*
X10304748Y-9821234D02*
X10295224Y-9830758D01*
X10295224Y-9830758D02*
X10276177Y-9840282D01*
X10276177Y-9840282D02*
X10257129Y-9840282D01*
X10257129Y-9840282D02*
X10238082Y-9830758D01*
X10238082Y-9830758D02*
X10228558Y-9821234D01*
X10228558Y-9821234D02*
X10219034Y-9802186D01*
X10219034Y-9802186D02*
X10209510Y-9764091D01*
X10209510Y-9764091D02*
X10209510Y-9716472D01*
X10209510Y-9716472D02*
X10219034Y-9678377D01*
X10219034Y-9678377D02*
X10228558Y-9659329D01*
X10228558Y-9659329D02*
X10238082Y-9649805D01*
X10238082Y-9649805D02*
X10257129Y-9640282D01*
X10409510Y-9840282D02*
X10409510Y-9706948D01*
X10409510Y-9725996D02*
X10419034Y-9716472D01*
X10419034Y-9716472D02*
X10438082Y-9706948D01*
X10438082Y-9706948D02*
X10466653Y-9706948D01*
X10466653Y-9706948D02*
X10485701Y-9716472D01*
X10485701Y-9716472D02*
X10495224Y-9735520D01*
X10495224Y-9735520D02*
X10495224Y-9840282D01*
X10495224Y-9735520D02*
X10504748Y-9716472D01*
X10504748Y-9716472D02*
X10523796Y-9706948D01*
X10523796Y-9706948D02*
X10552367Y-9706948D01*
X10552367Y-9706948D02*
X10571415Y-9716472D01*
X10571415Y-9716472D02*
X10580939Y-9735520D01*
X10580939Y-9735520D02*
X10580939Y-9840282D01*
X10676177Y-9840282D02*
X10676177Y-9706948D01*
X10676177Y-9725996D02*
X10685701Y-9716472D01*
X10685701Y-9716472D02*
X10704748Y-9706948D01*
X10704748Y-9706948D02*
X10733320Y-9706948D01*
X10733320Y-9706948D02*
X10752367Y-9716472D01*
X10752367Y-9716472D02*
X10761891Y-9735520D01*
X10761891Y-9735520D02*
X10761891Y-9840282D01*
X10761891Y-9735520D02*
X10771415Y-9716472D01*
X10771415Y-9716472D02*
X10790463Y-9706948D01*
X10790463Y-9706948D02*
X10819034Y-9706948D01*
X10819034Y-9706948D02*
X10838082Y-9716472D01*
X10838082Y-9716472D02*
X10847605Y-9735520D01*
X10847605Y-9735520D02*
X10847605Y-9840282D01*
X11238082Y-9630758D02*
X11066653Y-9887901D01*
X11495224Y-9640282D02*
X11514272Y-9640282D01*
X11514272Y-9640282D02*
X11533320Y-9649805D01*
X11533320Y-9649805D02*
X11542844Y-9659329D01*
X11542844Y-9659329D02*
X11552367Y-9678377D01*
X11552367Y-9678377D02*
X11561891Y-9716472D01*
X11561891Y-9716472D02*
X11561891Y-9764091D01*
X11561891Y-9764091D02*
X11552367Y-9802186D01*
X11552367Y-9802186D02*
X11542844Y-9821234D01*
X11542844Y-9821234D02*
X11533320Y-9830758D01*
X11533320Y-9830758D02*
X11514272Y-9840282D01*
X11514272Y-9840282D02*
X11495224Y-9840282D01*
X11495224Y-9840282D02*
X11476177Y-9830758D01*
X11476177Y-9830758D02*
X11466653Y-9821234D01*
X11466653Y-9821234D02*
X11457129Y-9802186D01*
X11457129Y-9802186D02*
X11447605Y-9764091D01*
X11447605Y-9764091D02*
X11447605Y-9716472D01*
X11447605Y-9716472D02*
X11457129Y-9678377D01*
X11457129Y-9678377D02*
X11466653Y-9659329D01*
X11466653Y-9659329D02*
X11476177Y-9649805D01*
X11476177Y-9649805D02*
X11495224Y-9640282D01*
X11647605Y-9821234D02*
X11657129Y-9830758D01*
X11657129Y-9830758D02*
X11647605Y-9840282D01*
X11647605Y-9840282D02*
X11638082Y-9830758D01*
X11638082Y-9830758D02*
X11647605Y-9821234D01*
X11647605Y-9821234D02*
X11647605Y-9840282D01*
X11780939Y-9640282D02*
X11799986Y-9640282D01*
X11799986Y-9640282D02*
X11819034Y-9649805D01*
X11819034Y-9649805D02*
X11828558Y-9659329D01*
X11828558Y-9659329D02*
X11838082Y-9678377D01*
X11838082Y-9678377D02*
X11847605Y-9716472D01*
X11847605Y-9716472D02*
X11847605Y-9764091D01*
X11847605Y-9764091D02*
X11838082Y-9802186D01*
X11838082Y-9802186D02*
X11828558Y-9821234D01*
X11828558Y-9821234D02*
X11819034Y-9830758D01*
X11819034Y-9830758D02*
X11799986Y-9840282D01*
X11799986Y-9840282D02*
X11780939Y-9840282D01*
X11780939Y-9840282D02*
X11761891Y-9830758D01*
X11761891Y-9830758D02*
X11752367Y-9821234D01*
X11752367Y-9821234D02*
X11742844Y-9802186D01*
X11742844Y-9802186D02*
X11733320Y-9764091D01*
X11733320Y-9764091D02*
X11733320Y-9716472D01*
X11733320Y-9716472D02*
X11742844Y-9678377D01*
X11742844Y-9678377D02*
X11752367Y-9659329D01*
X11752367Y-9659329D02*
X11761891Y-9649805D01*
X11761891Y-9649805D02*
X11780939Y-9640282D01*
X12019034Y-9706948D02*
X12019034Y-9840282D01*
X11971415Y-9630758D02*
X11923796Y-9773615D01*
X11923796Y-9773615D02*
X12047605Y-9773615D01*
X12104748Y-9640282D02*
X12228558Y-9640282D01*
X12228558Y-9640282D02*
X12161891Y-9716472D01*
X12161891Y-9716472D02*
X12190463Y-9716472D01*
X12190463Y-9716472D02*
X12209510Y-9725996D01*
X12209510Y-9725996D02*
X12219034Y-9735520D01*
X12219034Y-9735520D02*
X12228558Y-9754567D01*
X12228558Y-9754567D02*
X12228558Y-9802186D01*
X12228558Y-9802186D02*
X12219034Y-9821234D01*
X12219034Y-9821234D02*
X12209510Y-9830758D01*
X12209510Y-9830758D02*
X12190463Y-9840282D01*
X12190463Y-9840282D02*
X12133320Y-9840282D01*
X12133320Y-9840282D02*
X12114272Y-9830758D01*
X12114272Y-9830758D02*
X12104748Y-9821234D01*
X12295225Y-9640282D02*
X12419034Y-9640282D01*
X12419034Y-9640282D02*
X12352367Y-9716472D01*
X12352367Y-9716472D02*
X12380939Y-9716472D01*
X12380939Y-9716472D02*
X12399986Y-9725996D01*
X12399986Y-9725996D02*
X12409510Y-9735520D01*
X12409510Y-9735520D02*
X12419034Y-9754567D01*
X12419034Y-9754567D02*
X12419034Y-9802186D01*
X12419034Y-9802186D02*
X12409510Y-9821234D01*
X12409510Y-9821234D02*
X12399986Y-9830758D01*
X12399986Y-9830758D02*
X12380939Y-9840282D01*
X12380939Y-9840282D02*
X12323796Y-9840282D01*
X12323796Y-9840282D02*
X12304748Y-9830758D01*
X12304748Y-9830758D02*
X12295225Y-9821234D01*
X12495225Y-9640282D02*
X12495225Y-9678377D01*
X12571415Y-9640282D02*
X12571415Y-9678377D01*
X12866653Y-9916472D02*
X12857129Y-9906948D01*
X12857129Y-9906948D02*
X12838082Y-9878377D01*
X12838082Y-9878377D02*
X12828558Y-9859329D01*
X12828558Y-9859329D02*
X12819034Y-9830758D01*
X12819034Y-9830758D02*
X12809510Y-9783139D01*
X12809510Y-9783139D02*
X12809510Y-9745044D01*
X12809510Y-9745044D02*
X12819034Y-9697424D01*
X12819034Y-9697424D02*
X12828558Y-9668853D01*
X12828558Y-9668853D02*
X12838082Y-9649805D01*
X12838082Y-9649805D02*
X12857129Y-9621234D01*
X12857129Y-9621234D02*
X12866653Y-9611710D01*
X13047606Y-9840282D02*
X12933320Y-9840282D01*
X12990463Y-9840282D02*
X12990463Y-9640282D01*
X12990463Y-9640282D02*
X12971415Y-9668853D01*
X12971415Y-9668853D02*
X12952367Y-9687901D01*
X12952367Y-9687901D02*
X12933320Y-9697424D01*
X13171415Y-9640282D02*
X13190463Y-9640282D01*
X13190463Y-9640282D02*
X13209510Y-9649805D01*
X13209510Y-9649805D02*
X13219034Y-9659329D01*
X13219034Y-9659329D02*
X13228558Y-9678377D01*
X13228558Y-9678377D02*
X13238082Y-9716472D01*
X13238082Y-9716472D02*
X13238082Y-9764091D01*
X13238082Y-9764091D02*
X13228558Y-9802186D01*
X13228558Y-9802186D02*
X13219034Y-9821234D01*
X13219034Y-9821234D02*
X13209510Y-9830758D01*
X13209510Y-9830758D02*
X13190463Y-9840282D01*
X13190463Y-9840282D02*
X13171415Y-9840282D01*
X13171415Y-9840282D02*
X13152367Y-9830758D01*
X13152367Y-9830758D02*
X13142844Y-9821234D01*
X13142844Y-9821234D02*
X13133320Y-9802186D01*
X13133320Y-9802186D02*
X13123796Y-9764091D01*
X13123796Y-9764091D02*
X13123796Y-9716472D01*
X13123796Y-9716472D02*
X13133320Y-9678377D01*
X13133320Y-9678377D02*
X13142844Y-9659329D01*
X13142844Y-9659329D02*
X13152367Y-9649805D01*
X13152367Y-9649805D02*
X13171415Y-9640282D01*
X13476177Y-9840282D02*
X13476177Y-9640282D01*
X13561891Y-9840282D02*
X13561891Y-9735520D01*
X13561891Y-9735520D02*
X13552368Y-9716472D01*
X13552368Y-9716472D02*
X13533320Y-9706948D01*
X13533320Y-9706948D02*
X13504748Y-9706948D01*
X13504748Y-9706948D02*
X13485701Y-9716472D01*
X13485701Y-9716472D02*
X13476177Y-9725996D01*
X13685701Y-9840282D02*
X13666653Y-9830758D01*
X13666653Y-9830758D02*
X13657129Y-9821234D01*
X13657129Y-9821234D02*
X13647606Y-9802186D01*
X13647606Y-9802186D02*
X13647606Y-9745044D01*
X13647606Y-9745044D02*
X13657129Y-9725996D01*
X13657129Y-9725996D02*
X13666653Y-9716472D01*
X13666653Y-9716472D02*
X13685701Y-9706948D01*
X13685701Y-9706948D02*
X13714272Y-9706948D01*
X13714272Y-9706948D02*
X13733320Y-9716472D01*
X13733320Y-9716472D02*
X13742844Y-9725996D01*
X13742844Y-9725996D02*
X13752368Y-9745044D01*
X13752368Y-9745044D02*
X13752368Y-9802186D01*
X13752368Y-9802186D02*
X13742844Y-9821234D01*
X13742844Y-9821234D02*
X13733320Y-9830758D01*
X13733320Y-9830758D02*
X13714272Y-9840282D01*
X13714272Y-9840282D02*
X13685701Y-9840282D01*
X13866653Y-9840282D02*
X13847606Y-9830758D01*
X13847606Y-9830758D02*
X13838082Y-9811710D01*
X13838082Y-9811710D02*
X13838082Y-9640282D01*
X14019034Y-9830758D02*
X13999987Y-9840282D01*
X13999987Y-9840282D02*
X13961891Y-9840282D01*
X13961891Y-9840282D02*
X13942844Y-9830758D01*
X13942844Y-9830758D02*
X13933320Y-9811710D01*
X13933320Y-9811710D02*
X13933320Y-9735520D01*
X13933320Y-9735520D02*
X13942844Y-9716472D01*
X13942844Y-9716472D02*
X13961891Y-9706948D01*
X13961891Y-9706948D02*
X13999987Y-9706948D01*
X13999987Y-9706948D02*
X14019034Y-9716472D01*
X14019034Y-9716472D02*
X14028558Y-9735520D01*
X14028558Y-9735520D02*
X14028558Y-9754567D01*
X14028558Y-9754567D02*
X13933320Y-9773615D01*
X14104749Y-9830758D02*
X14123796Y-9840282D01*
X14123796Y-9840282D02*
X14161891Y-9840282D01*
X14161891Y-9840282D02*
X14180939Y-9830758D01*
X14180939Y-9830758D02*
X14190463Y-9811710D01*
X14190463Y-9811710D02*
X14190463Y-9802186D01*
X14190463Y-9802186D02*
X14180939Y-9783139D01*
X14180939Y-9783139D02*
X14161891Y-9773615D01*
X14161891Y-9773615D02*
X14133320Y-9773615D01*
X14133320Y-9773615D02*
X14114272Y-9764091D01*
X14114272Y-9764091D02*
X14104749Y-9745044D01*
X14104749Y-9745044D02*
X14104749Y-9735520D01*
X14104749Y-9735520D02*
X14114272Y-9716472D01*
X14114272Y-9716472D02*
X14133320Y-9706948D01*
X14133320Y-9706948D02*
X14161891Y-9706948D01*
X14161891Y-9706948D02*
X14180939Y-9716472D01*
X14257130Y-9916472D02*
X14266653Y-9906948D01*
X14266653Y-9906948D02*
X14285701Y-9878377D01*
X14285701Y-9878377D02*
X14295225Y-9859329D01*
X14295225Y-9859329D02*
X14304749Y-9830758D01*
X14304749Y-9830758D02*
X14314272Y-9783139D01*
X14314272Y-9783139D02*
X14314272Y-9745044D01*
X14314272Y-9745044D02*
X14304749Y-9697424D01*
X14304749Y-9697424D02*
X14295225Y-9668853D01*
X14295225Y-9668853D02*
X14285701Y-9649805D01*
X14285701Y-9649805D02*
X14266653Y-9621234D01*
X14266653Y-9621234D02*
X14257130Y-9611710D01*
D14*
X9161590Y-9947798D02*
X9291590Y-10077798D01*
X9291590Y-9947798D02*
X9161590Y-10077798D01*
X9272553Y-10058760D02*
X9272553Y-9966835D01*
X9180628Y-9966835D01*
X9180628Y-10058760D01*
X9272553Y-10058760D01*
D11*
X9657129Y-10104282D02*
X9542843Y-10104282D01*
X9599986Y-10104282D02*
X9599986Y-9904282D01*
X9599986Y-9904282D02*
X9580939Y-9932853D01*
X9580939Y-9932853D02*
X9561891Y-9951901D01*
X9561891Y-9951901D02*
X9542843Y-9961424D01*
X9742843Y-10085234D02*
X9752367Y-10094758D01*
X9752367Y-10094758D02*
X9742843Y-10104282D01*
X9742843Y-10104282D02*
X9733320Y-10094758D01*
X9733320Y-10094758D02*
X9742843Y-10085234D01*
X9742843Y-10085234D02*
X9742843Y-10104282D01*
X9819034Y-9904282D02*
X9942843Y-9904282D01*
X9942843Y-9904282D02*
X9876177Y-9980472D01*
X9876177Y-9980472D02*
X9904748Y-9980472D01*
X9904748Y-9980472D02*
X9923796Y-9989996D01*
X9923796Y-9989996D02*
X9933320Y-9999520D01*
X9933320Y-9999520D02*
X9942843Y-10018567D01*
X9942843Y-10018567D02*
X9942843Y-10066186D01*
X9942843Y-10066186D02*
X9933320Y-10085234D01*
X9933320Y-10085234D02*
X9923796Y-10094758D01*
X9923796Y-10094758D02*
X9904748Y-10104282D01*
X9904748Y-10104282D02*
X9847605Y-10104282D01*
X9847605Y-10104282D02*
X9828558Y-10094758D01*
X9828558Y-10094758D02*
X9819034Y-10085234D01*
X10066653Y-9904282D02*
X10085701Y-9904282D01*
X10085701Y-9904282D02*
X10104748Y-9913805D01*
X10104748Y-9913805D02*
X10114272Y-9923329D01*
X10114272Y-9923329D02*
X10123796Y-9942377D01*
X10123796Y-9942377D02*
X10133320Y-9980472D01*
X10133320Y-9980472D02*
X10133320Y-10028091D01*
X10133320Y-10028091D02*
X10123796Y-10066186D01*
X10123796Y-10066186D02*
X10114272Y-10085234D01*
X10114272Y-10085234D02*
X10104748Y-10094758D01*
X10104748Y-10094758D02*
X10085701Y-10104282D01*
X10085701Y-10104282D02*
X10066653Y-10104282D01*
X10066653Y-10104282D02*
X10047605Y-10094758D01*
X10047605Y-10094758D02*
X10038082Y-10085234D01*
X10038082Y-10085234D02*
X10028558Y-10066186D01*
X10028558Y-10066186D02*
X10019034Y-10028091D01*
X10019034Y-10028091D02*
X10019034Y-9980472D01*
X10019034Y-9980472D02*
X10028558Y-9942377D01*
X10028558Y-9942377D02*
X10038082Y-9923329D01*
X10038082Y-9923329D02*
X10047605Y-9913805D01*
X10047605Y-9913805D02*
X10066653Y-9904282D01*
X10257129Y-9904282D02*
X10276177Y-9904282D01*
X10276177Y-9904282D02*
X10295224Y-9913805D01*
X10295224Y-9913805D02*
X10304748Y-9923329D01*
X10304748Y-9923329D02*
X10314272Y-9942377D01*
X10314272Y-9942377D02*
X10323796Y-9980472D01*
X10323796Y-9980472D02*
X10323796Y-10028091D01*
X10323796Y-10028091D02*
X10314272Y-10066186D01*
X10314272Y-10066186D02*
X10304748Y-10085234D01*
X10304748Y-10085234D02*
X10295224Y-10094758D01*
X10295224Y-10094758D02*
X10276177Y-10104282D01*
X10276177Y-10104282D02*
X10257129Y-10104282D01*
X10257129Y-10104282D02*
X10238082Y-10094758D01*
X10238082Y-10094758D02*
X10228558Y-10085234D01*
X10228558Y-10085234D02*
X10219034Y-10066186D01*
X10219034Y-10066186D02*
X10209510Y-10028091D01*
X10209510Y-10028091D02*
X10209510Y-9980472D01*
X10209510Y-9980472D02*
X10219034Y-9942377D01*
X10219034Y-9942377D02*
X10228558Y-9923329D01*
X10228558Y-9923329D02*
X10238082Y-9913805D01*
X10238082Y-9913805D02*
X10257129Y-9904282D01*
X10409510Y-10104282D02*
X10409510Y-9970948D01*
X10409510Y-9989996D02*
X10419034Y-9980472D01*
X10419034Y-9980472D02*
X10438082Y-9970948D01*
X10438082Y-9970948D02*
X10466653Y-9970948D01*
X10466653Y-9970948D02*
X10485701Y-9980472D01*
X10485701Y-9980472D02*
X10495224Y-9999520D01*
X10495224Y-9999520D02*
X10495224Y-10104282D01*
X10495224Y-9999520D02*
X10504748Y-9980472D01*
X10504748Y-9980472D02*
X10523796Y-9970948D01*
X10523796Y-9970948D02*
X10552367Y-9970948D01*
X10552367Y-9970948D02*
X10571415Y-9980472D01*
X10571415Y-9980472D02*
X10580939Y-9999520D01*
X10580939Y-9999520D02*
X10580939Y-10104282D01*
X10676177Y-10104282D02*
X10676177Y-9970948D01*
X10676177Y-9989996D02*
X10685701Y-9980472D01*
X10685701Y-9980472D02*
X10704748Y-9970948D01*
X10704748Y-9970948D02*
X10733320Y-9970948D01*
X10733320Y-9970948D02*
X10752367Y-9980472D01*
X10752367Y-9980472D02*
X10761891Y-9999520D01*
X10761891Y-9999520D02*
X10761891Y-10104282D01*
X10761891Y-9999520D02*
X10771415Y-9980472D01*
X10771415Y-9980472D02*
X10790463Y-9970948D01*
X10790463Y-9970948D02*
X10819034Y-9970948D01*
X10819034Y-9970948D02*
X10838082Y-9980472D01*
X10838082Y-9980472D02*
X10847605Y-9999520D01*
X10847605Y-9999520D02*
X10847605Y-10104282D01*
X11238082Y-9894758D02*
X11066653Y-10151901D01*
X11495224Y-9904282D02*
X11514272Y-9904282D01*
X11514272Y-9904282D02*
X11533320Y-9913805D01*
X11533320Y-9913805D02*
X11542844Y-9923329D01*
X11542844Y-9923329D02*
X11552367Y-9942377D01*
X11552367Y-9942377D02*
X11561891Y-9980472D01*
X11561891Y-9980472D02*
X11561891Y-10028091D01*
X11561891Y-10028091D02*
X11552367Y-10066186D01*
X11552367Y-10066186D02*
X11542844Y-10085234D01*
X11542844Y-10085234D02*
X11533320Y-10094758D01*
X11533320Y-10094758D02*
X11514272Y-10104282D01*
X11514272Y-10104282D02*
X11495224Y-10104282D01*
X11495224Y-10104282D02*
X11476177Y-10094758D01*
X11476177Y-10094758D02*
X11466653Y-10085234D01*
X11466653Y-10085234D02*
X11457129Y-10066186D01*
X11457129Y-10066186D02*
X11447605Y-10028091D01*
X11447605Y-10028091D02*
X11447605Y-9980472D01*
X11447605Y-9980472D02*
X11457129Y-9942377D01*
X11457129Y-9942377D02*
X11466653Y-9923329D01*
X11466653Y-9923329D02*
X11476177Y-9913805D01*
X11476177Y-9913805D02*
X11495224Y-9904282D01*
X11647605Y-10085234D02*
X11657129Y-10094758D01*
X11657129Y-10094758D02*
X11647605Y-10104282D01*
X11647605Y-10104282D02*
X11638082Y-10094758D01*
X11638082Y-10094758D02*
X11647605Y-10085234D01*
X11647605Y-10085234D02*
X11647605Y-10104282D01*
X11780939Y-9904282D02*
X11799986Y-9904282D01*
X11799986Y-9904282D02*
X11819034Y-9913805D01*
X11819034Y-9913805D02*
X11828558Y-9923329D01*
X11828558Y-9923329D02*
X11838082Y-9942377D01*
X11838082Y-9942377D02*
X11847605Y-9980472D01*
X11847605Y-9980472D02*
X11847605Y-10028091D01*
X11847605Y-10028091D02*
X11838082Y-10066186D01*
X11838082Y-10066186D02*
X11828558Y-10085234D01*
X11828558Y-10085234D02*
X11819034Y-10094758D01*
X11819034Y-10094758D02*
X11799986Y-10104282D01*
X11799986Y-10104282D02*
X11780939Y-10104282D01*
X11780939Y-10104282D02*
X11761891Y-10094758D01*
X11761891Y-10094758D02*
X11752367Y-10085234D01*
X11752367Y-10085234D02*
X11742844Y-10066186D01*
X11742844Y-10066186D02*
X11733320Y-10028091D01*
X11733320Y-10028091D02*
X11733320Y-9980472D01*
X11733320Y-9980472D02*
X11742844Y-9942377D01*
X11742844Y-9942377D02*
X11752367Y-9923329D01*
X11752367Y-9923329D02*
X11761891Y-9913805D01*
X11761891Y-9913805D02*
X11780939Y-9904282D01*
X12028558Y-9904282D02*
X11933320Y-9904282D01*
X11933320Y-9904282D02*
X11923796Y-9999520D01*
X11923796Y-9999520D02*
X11933320Y-9989996D01*
X11933320Y-9989996D02*
X11952367Y-9980472D01*
X11952367Y-9980472D02*
X11999986Y-9980472D01*
X11999986Y-9980472D02*
X12019034Y-9989996D01*
X12019034Y-9989996D02*
X12028558Y-9999520D01*
X12028558Y-9999520D02*
X12038082Y-10018567D01*
X12038082Y-10018567D02*
X12038082Y-10066186D01*
X12038082Y-10066186D02*
X12028558Y-10085234D01*
X12028558Y-10085234D02*
X12019034Y-10094758D01*
X12019034Y-10094758D02*
X11999986Y-10104282D01*
X11999986Y-10104282D02*
X11952367Y-10104282D01*
X11952367Y-10104282D02*
X11933320Y-10094758D01*
X11933320Y-10094758D02*
X11923796Y-10085234D01*
X12228558Y-10104282D02*
X12114272Y-10104282D01*
X12171415Y-10104282D02*
X12171415Y-9904282D01*
X12171415Y-9904282D02*
X12152367Y-9932853D01*
X12152367Y-9932853D02*
X12133320Y-9951901D01*
X12133320Y-9951901D02*
X12114272Y-9961424D01*
X12304748Y-9923329D02*
X12314272Y-9913805D01*
X12314272Y-9913805D02*
X12333320Y-9904282D01*
X12333320Y-9904282D02*
X12380939Y-9904282D01*
X12380939Y-9904282D02*
X12399986Y-9913805D01*
X12399986Y-9913805D02*
X12409510Y-9923329D01*
X12409510Y-9923329D02*
X12419034Y-9942377D01*
X12419034Y-9942377D02*
X12419034Y-9961424D01*
X12419034Y-9961424D02*
X12409510Y-9989996D01*
X12409510Y-9989996D02*
X12295225Y-10104282D01*
X12295225Y-10104282D02*
X12419034Y-10104282D01*
X12495225Y-9904282D02*
X12495225Y-9942377D01*
X12571415Y-9904282D02*
X12571415Y-9942377D01*
X12866653Y-10180472D02*
X12857129Y-10170948D01*
X12857129Y-10170948D02*
X12838082Y-10142377D01*
X12838082Y-10142377D02*
X12828558Y-10123329D01*
X12828558Y-10123329D02*
X12819034Y-10094758D01*
X12819034Y-10094758D02*
X12809510Y-10047139D01*
X12809510Y-10047139D02*
X12809510Y-10009044D01*
X12809510Y-10009044D02*
X12819034Y-9961424D01*
X12819034Y-9961424D02*
X12828558Y-9932853D01*
X12828558Y-9932853D02*
X12838082Y-9913805D01*
X12838082Y-9913805D02*
X12857129Y-9885234D01*
X12857129Y-9885234D02*
X12866653Y-9875710D01*
X13028558Y-9904282D02*
X12990463Y-9904282D01*
X12990463Y-9904282D02*
X12971415Y-9913805D01*
X12971415Y-9913805D02*
X12961891Y-9923329D01*
X12961891Y-9923329D02*
X12942844Y-9951901D01*
X12942844Y-9951901D02*
X12933320Y-9989996D01*
X12933320Y-9989996D02*
X12933320Y-10066186D01*
X12933320Y-10066186D02*
X12942844Y-10085234D01*
X12942844Y-10085234D02*
X12952367Y-10094758D01*
X12952367Y-10094758D02*
X12971415Y-10104282D01*
X12971415Y-10104282D02*
X13009510Y-10104282D01*
X13009510Y-10104282D02*
X13028558Y-10094758D01*
X13028558Y-10094758D02*
X13038082Y-10085234D01*
X13038082Y-10085234D02*
X13047606Y-10066186D01*
X13047606Y-10066186D02*
X13047606Y-10018567D01*
X13047606Y-10018567D02*
X13038082Y-9999520D01*
X13038082Y-9999520D02*
X13028558Y-9989996D01*
X13028558Y-9989996D02*
X13009510Y-9980472D01*
X13009510Y-9980472D02*
X12971415Y-9980472D01*
X12971415Y-9980472D02*
X12952367Y-9989996D01*
X12952367Y-9989996D02*
X12942844Y-9999520D01*
X12942844Y-9999520D02*
X12933320Y-10018567D01*
X13285701Y-10104282D02*
X13285701Y-9904282D01*
X13371415Y-10104282D02*
X13371415Y-9999520D01*
X13371415Y-9999520D02*
X13361891Y-9980472D01*
X13361891Y-9980472D02*
X13342844Y-9970948D01*
X13342844Y-9970948D02*
X13314272Y-9970948D01*
X13314272Y-9970948D02*
X13295225Y-9980472D01*
X13295225Y-9980472D02*
X13285701Y-9989996D01*
X13495225Y-10104282D02*
X13476177Y-10094758D01*
X13476177Y-10094758D02*
X13466653Y-10085234D01*
X13466653Y-10085234D02*
X13457129Y-10066186D01*
X13457129Y-10066186D02*
X13457129Y-10009044D01*
X13457129Y-10009044D02*
X13466653Y-9989996D01*
X13466653Y-9989996D02*
X13476177Y-9980472D01*
X13476177Y-9980472D02*
X13495225Y-9970948D01*
X13495225Y-9970948D02*
X13523796Y-9970948D01*
X13523796Y-9970948D02*
X13542844Y-9980472D01*
X13542844Y-9980472D02*
X13552368Y-9989996D01*
X13552368Y-9989996D02*
X13561891Y-10009044D01*
X13561891Y-10009044D02*
X13561891Y-10066186D01*
X13561891Y-10066186D02*
X13552368Y-10085234D01*
X13552368Y-10085234D02*
X13542844Y-10094758D01*
X13542844Y-10094758D02*
X13523796Y-10104282D01*
X13523796Y-10104282D02*
X13495225Y-10104282D01*
X13676177Y-10104282D02*
X13657129Y-10094758D01*
X13657129Y-10094758D02*
X13647606Y-10075710D01*
X13647606Y-10075710D02*
X13647606Y-9904282D01*
X13828558Y-10094758D02*
X13809510Y-10104282D01*
X13809510Y-10104282D02*
X13771415Y-10104282D01*
X13771415Y-10104282D02*
X13752368Y-10094758D01*
X13752368Y-10094758D02*
X13742844Y-10075710D01*
X13742844Y-10075710D02*
X13742844Y-9999520D01*
X13742844Y-9999520D02*
X13752368Y-9980472D01*
X13752368Y-9980472D02*
X13771415Y-9970948D01*
X13771415Y-9970948D02*
X13809510Y-9970948D01*
X13809510Y-9970948D02*
X13828558Y-9980472D01*
X13828558Y-9980472D02*
X13838082Y-9999520D01*
X13838082Y-9999520D02*
X13838082Y-10018567D01*
X13838082Y-10018567D02*
X13742844Y-10037615D01*
X13914272Y-10094758D02*
X13933320Y-10104282D01*
X13933320Y-10104282D02*
X13971415Y-10104282D01*
X13971415Y-10104282D02*
X13990463Y-10094758D01*
X13990463Y-10094758D02*
X13999987Y-10075710D01*
X13999987Y-10075710D02*
X13999987Y-10066186D01*
X13999987Y-10066186D02*
X13990463Y-10047139D01*
X13990463Y-10047139D02*
X13971415Y-10037615D01*
X13971415Y-10037615D02*
X13942844Y-10037615D01*
X13942844Y-10037615D02*
X13923796Y-10028091D01*
X13923796Y-10028091D02*
X13914272Y-10009044D01*
X13914272Y-10009044D02*
X13914272Y-9999520D01*
X13914272Y-9999520D02*
X13923796Y-9980472D01*
X13923796Y-9980472D02*
X13942844Y-9970948D01*
X13942844Y-9970948D02*
X13971415Y-9970948D01*
X13971415Y-9970948D02*
X13990463Y-9980472D01*
X14066653Y-10180472D02*
X14076177Y-10170948D01*
X14076177Y-10170948D02*
X14095225Y-10142377D01*
X14095225Y-10142377D02*
X14104749Y-10123329D01*
X14104749Y-10123329D02*
X14114272Y-10094758D01*
X14114272Y-10094758D02*
X14123796Y-10047139D01*
X14123796Y-10047139D02*
X14123796Y-10009044D01*
X14123796Y-10009044D02*
X14114272Y-9961424D01*
X14114272Y-9961424D02*
X14104749Y-9932853D01*
X14104749Y-9932853D02*
X14095225Y-9913805D01*
X14095225Y-9913805D02*
X14076177Y-9885234D01*
X14076177Y-9885234D02*
X14066653Y-9875710D01*
D15*
X9106590Y-10184298D02*
X9291590Y-10369298D01*
X9291590Y-10184298D02*
X9106590Y-10369298D01*
X9199090Y-10369298D02*
X9291590Y-10276798D01*
X9199090Y-10184298D01*
X9106590Y-10276798D01*
X9199090Y-10369298D01*
D11*
X9657129Y-10368282D02*
X9542843Y-10368282D01*
X9599986Y-10368282D02*
X9599986Y-10168282D01*
X9599986Y-10168282D02*
X9580939Y-10196853D01*
X9580939Y-10196853D02*
X9561891Y-10215901D01*
X9561891Y-10215901D02*
X9542843Y-10225424D01*
X9742843Y-10349234D02*
X9752367Y-10358758D01*
X9752367Y-10358758D02*
X9742843Y-10368282D01*
X9742843Y-10368282D02*
X9733320Y-10358758D01*
X9733320Y-10358758D02*
X9742843Y-10349234D01*
X9742843Y-10349234D02*
X9742843Y-10368282D01*
X9866653Y-10253996D02*
X9847605Y-10244472D01*
X9847605Y-10244472D02*
X9838082Y-10234948D01*
X9838082Y-10234948D02*
X9828558Y-10215901D01*
X9828558Y-10215901D02*
X9828558Y-10206377D01*
X9828558Y-10206377D02*
X9838082Y-10187329D01*
X9838082Y-10187329D02*
X9847605Y-10177805D01*
X9847605Y-10177805D02*
X9866653Y-10168282D01*
X9866653Y-10168282D02*
X9904748Y-10168282D01*
X9904748Y-10168282D02*
X9923796Y-10177805D01*
X9923796Y-10177805D02*
X9933320Y-10187329D01*
X9933320Y-10187329D02*
X9942843Y-10206377D01*
X9942843Y-10206377D02*
X9942843Y-10215901D01*
X9942843Y-10215901D02*
X9933320Y-10234948D01*
X9933320Y-10234948D02*
X9923796Y-10244472D01*
X9923796Y-10244472D02*
X9904748Y-10253996D01*
X9904748Y-10253996D02*
X9866653Y-10253996D01*
X9866653Y-10253996D02*
X9847605Y-10263520D01*
X9847605Y-10263520D02*
X9838082Y-10273044D01*
X9838082Y-10273044D02*
X9828558Y-10292091D01*
X9828558Y-10292091D02*
X9828558Y-10330186D01*
X9828558Y-10330186D02*
X9838082Y-10349234D01*
X9838082Y-10349234D02*
X9847605Y-10358758D01*
X9847605Y-10358758D02*
X9866653Y-10368282D01*
X9866653Y-10368282D02*
X9904748Y-10368282D01*
X9904748Y-10368282D02*
X9923796Y-10358758D01*
X9923796Y-10358758D02*
X9933320Y-10349234D01*
X9933320Y-10349234D02*
X9942843Y-10330186D01*
X9942843Y-10330186D02*
X9942843Y-10292091D01*
X9942843Y-10292091D02*
X9933320Y-10273044D01*
X9933320Y-10273044D02*
X9923796Y-10263520D01*
X9923796Y-10263520D02*
X9904748Y-10253996D01*
X10123796Y-10168282D02*
X10028558Y-10168282D01*
X10028558Y-10168282D02*
X10019034Y-10263520D01*
X10019034Y-10263520D02*
X10028558Y-10253996D01*
X10028558Y-10253996D02*
X10047605Y-10244472D01*
X10047605Y-10244472D02*
X10095224Y-10244472D01*
X10095224Y-10244472D02*
X10114272Y-10253996D01*
X10114272Y-10253996D02*
X10123796Y-10263520D01*
X10123796Y-10263520D02*
X10133320Y-10282567D01*
X10133320Y-10282567D02*
X10133320Y-10330186D01*
X10133320Y-10330186D02*
X10123796Y-10349234D01*
X10123796Y-10349234D02*
X10114272Y-10358758D01*
X10114272Y-10358758D02*
X10095224Y-10368282D01*
X10095224Y-10368282D02*
X10047605Y-10368282D01*
X10047605Y-10368282D02*
X10028558Y-10358758D01*
X10028558Y-10358758D02*
X10019034Y-10349234D01*
X10257129Y-10168282D02*
X10276177Y-10168282D01*
X10276177Y-10168282D02*
X10295224Y-10177805D01*
X10295224Y-10177805D02*
X10304748Y-10187329D01*
X10304748Y-10187329D02*
X10314272Y-10206377D01*
X10314272Y-10206377D02*
X10323796Y-10244472D01*
X10323796Y-10244472D02*
X10323796Y-10292091D01*
X10323796Y-10292091D02*
X10314272Y-10330186D01*
X10314272Y-10330186D02*
X10304748Y-10349234D01*
X10304748Y-10349234D02*
X10295224Y-10358758D01*
X10295224Y-10358758D02*
X10276177Y-10368282D01*
X10276177Y-10368282D02*
X10257129Y-10368282D01*
X10257129Y-10368282D02*
X10238082Y-10358758D01*
X10238082Y-10358758D02*
X10228558Y-10349234D01*
X10228558Y-10349234D02*
X10219034Y-10330186D01*
X10219034Y-10330186D02*
X10209510Y-10292091D01*
X10209510Y-10292091D02*
X10209510Y-10244472D01*
X10209510Y-10244472D02*
X10219034Y-10206377D01*
X10219034Y-10206377D02*
X10228558Y-10187329D01*
X10228558Y-10187329D02*
X10238082Y-10177805D01*
X10238082Y-10177805D02*
X10257129Y-10168282D01*
X10409510Y-10368282D02*
X10409510Y-10234948D01*
X10409510Y-10253996D02*
X10419034Y-10244472D01*
X10419034Y-10244472D02*
X10438082Y-10234948D01*
X10438082Y-10234948D02*
X10466653Y-10234948D01*
X10466653Y-10234948D02*
X10485701Y-10244472D01*
X10485701Y-10244472D02*
X10495224Y-10263520D01*
X10495224Y-10263520D02*
X10495224Y-10368282D01*
X10495224Y-10263520D02*
X10504748Y-10244472D01*
X10504748Y-10244472D02*
X10523796Y-10234948D01*
X10523796Y-10234948D02*
X10552367Y-10234948D01*
X10552367Y-10234948D02*
X10571415Y-10244472D01*
X10571415Y-10244472D02*
X10580939Y-10263520D01*
X10580939Y-10263520D02*
X10580939Y-10368282D01*
X10676177Y-10368282D02*
X10676177Y-10234948D01*
X10676177Y-10253996D02*
X10685701Y-10244472D01*
X10685701Y-10244472D02*
X10704748Y-10234948D01*
X10704748Y-10234948D02*
X10733320Y-10234948D01*
X10733320Y-10234948D02*
X10752367Y-10244472D01*
X10752367Y-10244472D02*
X10761891Y-10263520D01*
X10761891Y-10263520D02*
X10761891Y-10368282D01*
X10761891Y-10263520D02*
X10771415Y-10244472D01*
X10771415Y-10244472D02*
X10790463Y-10234948D01*
X10790463Y-10234948D02*
X10819034Y-10234948D01*
X10819034Y-10234948D02*
X10838082Y-10244472D01*
X10838082Y-10244472D02*
X10847605Y-10263520D01*
X10847605Y-10263520D02*
X10847605Y-10368282D01*
X11238082Y-10158758D02*
X11066653Y-10415901D01*
X11495224Y-10168282D02*
X11514272Y-10168282D01*
X11514272Y-10168282D02*
X11533320Y-10177805D01*
X11533320Y-10177805D02*
X11542844Y-10187329D01*
X11542844Y-10187329D02*
X11552367Y-10206377D01*
X11552367Y-10206377D02*
X11561891Y-10244472D01*
X11561891Y-10244472D02*
X11561891Y-10292091D01*
X11561891Y-10292091D02*
X11552367Y-10330186D01*
X11552367Y-10330186D02*
X11542844Y-10349234D01*
X11542844Y-10349234D02*
X11533320Y-10358758D01*
X11533320Y-10358758D02*
X11514272Y-10368282D01*
X11514272Y-10368282D02*
X11495224Y-10368282D01*
X11495224Y-10368282D02*
X11476177Y-10358758D01*
X11476177Y-10358758D02*
X11466653Y-10349234D01*
X11466653Y-10349234D02*
X11457129Y-10330186D01*
X11457129Y-10330186D02*
X11447605Y-10292091D01*
X11447605Y-10292091D02*
X11447605Y-10244472D01*
X11447605Y-10244472D02*
X11457129Y-10206377D01*
X11457129Y-10206377D02*
X11466653Y-10187329D01*
X11466653Y-10187329D02*
X11476177Y-10177805D01*
X11476177Y-10177805D02*
X11495224Y-10168282D01*
X11647605Y-10349234D02*
X11657129Y-10358758D01*
X11657129Y-10358758D02*
X11647605Y-10368282D01*
X11647605Y-10368282D02*
X11638082Y-10358758D01*
X11638082Y-10358758D02*
X11647605Y-10349234D01*
X11647605Y-10349234D02*
X11647605Y-10368282D01*
X11780939Y-10168282D02*
X11799986Y-10168282D01*
X11799986Y-10168282D02*
X11819034Y-10177805D01*
X11819034Y-10177805D02*
X11828558Y-10187329D01*
X11828558Y-10187329D02*
X11838082Y-10206377D01*
X11838082Y-10206377D02*
X11847605Y-10244472D01*
X11847605Y-10244472D02*
X11847605Y-10292091D01*
X11847605Y-10292091D02*
X11838082Y-10330186D01*
X11838082Y-10330186D02*
X11828558Y-10349234D01*
X11828558Y-10349234D02*
X11819034Y-10358758D01*
X11819034Y-10358758D02*
X11799986Y-10368282D01*
X11799986Y-10368282D02*
X11780939Y-10368282D01*
X11780939Y-10368282D02*
X11761891Y-10358758D01*
X11761891Y-10358758D02*
X11752367Y-10349234D01*
X11752367Y-10349234D02*
X11742844Y-10330186D01*
X11742844Y-10330186D02*
X11733320Y-10292091D01*
X11733320Y-10292091D02*
X11733320Y-10244472D01*
X11733320Y-10244472D02*
X11742844Y-10206377D01*
X11742844Y-10206377D02*
X11752367Y-10187329D01*
X11752367Y-10187329D02*
X11761891Y-10177805D01*
X11761891Y-10177805D02*
X11780939Y-10168282D01*
X11914272Y-10168282D02*
X12047605Y-10168282D01*
X12047605Y-10168282D02*
X11961891Y-10368282D01*
X12114272Y-10187329D02*
X12123796Y-10177805D01*
X12123796Y-10177805D02*
X12142844Y-10168282D01*
X12142844Y-10168282D02*
X12190463Y-10168282D01*
X12190463Y-10168282D02*
X12209510Y-10177805D01*
X12209510Y-10177805D02*
X12219034Y-10187329D01*
X12219034Y-10187329D02*
X12228558Y-10206377D01*
X12228558Y-10206377D02*
X12228558Y-10225424D01*
X12228558Y-10225424D02*
X12219034Y-10253996D01*
X12219034Y-10253996D02*
X12104748Y-10368282D01*
X12104748Y-10368282D02*
X12228558Y-10368282D01*
X12342844Y-10253996D02*
X12323796Y-10244472D01*
X12323796Y-10244472D02*
X12314272Y-10234948D01*
X12314272Y-10234948D02*
X12304748Y-10215901D01*
X12304748Y-10215901D02*
X12304748Y-10206377D01*
X12304748Y-10206377D02*
X12314272Y-10187329D01*
X12314272Y-10187329D02*
X12323796Y-10177805D01*
X12323796Y-10177805D02*
X12342844Y-10168282D01*
X12342844Y-10168282D02*
X12380939Y-10168282D01*
X12380939Y-10168282D02*
X12399986Y-10177805D01*
X12399986Y-10177805D02*
X12409510Y-10187329D01*
X12409510Y-10187329D02*
X12419034Y-10206377D01*
X12419034Y-10206377D02*
X12419034Y-10215901D01*
X12419034Y-10215901D02*
X12409510Y-10234948D01*
X12409510Y-10234948D02*
X12399986Y-10244472D01*
X12399986Y-10244472D02*
X12380939Y-10253996D01*
X12380939Y-10253996D02*
X12342844Y-10253996D01*
X12342844Y-10253996D02*
X12323796Y-10263520D01*
X12323796Y-10263520D02*
X12314272Y-10273044D01*
X12314272Y-10273044D02*
X12304748Y-10292091D01*
X12304748Y-10292091D02*
X12304748Y-10330186D01*
X12304748Y-10330186D02*
X12314272Y-10349234D01*
X12314272Y-10349234D02*
X12323796Y-10358758D01*
X12323796Y-10358758D02*
X12342844Y-10368282D01*
X12342844Y-10368282D02*
X12380939Y-10368282D01*
X12380939Y-10368282D02*
X12399986Y-10358758D01*
X12399986Y-10358758D02*
X12409510Y-10349234D01*
X12409510Y-10349234D02*
X12419034Y-10330186D01*
X12419034Y-10330186D02*
X12419034Y-10292091D01*
X12419034Y-10292091D02*
X12409510Y-10273044D01*
X12409510Y-10273044D02*
X12399986Y-10263520D01*
X12399986Y-10263520D02*
X12380939Y-10253996D01*
X12495225Y-10168282D02*
X12495225Y-10206377D01*
X12571415Y-10168282D02*
X12571415Y-10206377D01*
X12866653Y-10444472D02*
X12857129Y-10434948D01*
X12857129Y-10434948D02*
X12838082Y-10406377D01*
X12838082Y-10406377D02*
X12828558Y-10387329D01*
X12828558Y-10387329D02*
X12819034Y-10358758D01*
X12819034Y-10358758D02*
X12809510Y-10311139D01*
X12809510Y-10311139D02*
X12809510Y-10273044D01*
X12809510Y-10273044D02*
X12819034Y-10225424D01*
X12819034Y-10225424D02*
X12828558Y-10196853D01*
X12828558Y-10196853D02*
X12838082Y-10177805D01*
X12838082Y-10177805D02*
X12857129Y-10149234D01*
X12857129Y-10149234D02*
X12866653Y-10139710D01*
X12923796Y-10168282D02*
X13047606Y-10168282D01*
X13047606Y-10168282D02*
X12980939Y-10244472D01*
X12980939Y-10244472D02*
X13009510Y-10244472D01*
X13009510Y-10244472D02*
X13028558Y-10253996D01*
X13028558Y-10253996D02*
X13038082Y-10263520D01*
X13038082Y-10263520D02*
X13047606Y-10282567D01*
X13047606Y-10282567D02*
X13047606Y-10330186D01*
X13047606Y-10330186D02*
X13038082Y-10349234D01*
X13038082Y-10349234D02*
X13028558Y-10358758D01*
X13028558Y-10358758D02*
X13009510Y-10368282D01*
X13009510Y-10368282D02*
X12952367Y-10368282D01*
X12952367Y-10368282D02*
X12933320Y-10358758D01*
X12933320Y-10358758D02*
X12923796Y-10349234D01*
X13285701Y-10368282D02*
X13285701Y-10168282D01*
X13371415Y-10368282D02*
X13371415Y-10263520D01*
X13371415Y-10263520D02*
X13361891Y-10244472D01*
X13361891Y-10244472D02*
X13342844Y-10234948D01*
X13342844Y-10234948D02*
X13314272Y-10234948D01*
X13314272Y-10234948D02*
X13295225Y-10244472D01*
X13295225Y-10244472D02*
X13285701Y-10253996D01*
X13495225Y-10368282D02*
X13476177Y-10358758D01*
X13476177Y-10358758D02*
X13466653Y-10349234D01*
X13466653Y-10349234D02*
X13457129Y-10330186D01*
X13457129Y-10330186D02*
X13457129Y-10273044D01*
X13457129Y-10273044D02*
X13466653Y-10253996D01*
X13466653Y-10253996D02*
X13476177Y-10244472D01*
X13476177Y-10244472D02*
X13495225Y-10234948D01*
X13495225Y-10234948D02*
X13523796Y-10234948D01*
X13523796Y-10234948D02*
X13542844Y-10244472D01*
X13542844Y-10244472D02*
X13552368Y-10253996D01*
X13552368Y-10253996D02*
X13561891Y-10273044D01*
X13561891Y-10273044D02*
X13561891Y-10330186D01*
X13561891Y-10330186D02*
X13552368Y-10349234D01*
X13552368Y-10349234D02*
X13542844Y-10358758D01*
X13542844Y-10358758D02*
X13523796Y-10368282D01*
X13523796Y-10368282D02*
X13495225Y-10368282D01*
X13676177Y-10368282D02*
X13657129Y-10358758D01*
X13657129Y-10358758D02*
X13647606Y-10339710D01*
X13647606Y-10339710D02*
X13647606Y-10168282D01*
X13828558Y-10358758D02*
X13809510Y-10368282D01*
X13809510Y-10368282D02*
X13771415Y-10368282D01*
X13771415Y-10368282D02*
X13752368Y-10358758D01*
X13752368Y-10358758D02*
X13742844Y-10339710D01*
X13742844Y-10339710D02*
X13742844Y-10263520D01*
X13742844Y-10263520D02*
X13752368Y-10244472D01*
X13752368Y-10244472D02*
X13771415Y-10234948D01*
X13771415Y-10234948D02*
X13809510Y-10234948D01*
X13809510Y-10234948D02*
X13828558Y-10244472D01*
X13828558Y-10244472D02*
X13838082Y-10263520D01*
X13838082Y-10263520D02*
X13838082Y-10282567D01*
X13838082Y-10282567D02*
X13742844Y-10301615D01*
X13914272Y-10358758D02*
X13933320Y-10368282D01*
X13933320Y-10368282D02*
X13971415Y-10368282D01*
X13971415Y-10368282D02*
X13990463Y-10358758D01*
X13990463Y-10358758D02*
X13999987Y-10339710D01*
X13999987Y-10339710D02*
X13999987Y-10330186D01*
X13999987Y-10330186D02*
X13990463Y-10311139D01*
X13990463Y-10311139D02*
X13971415Y-10301615D01*
X13971415Y-10301615D02*
X13942844Y-10301615D01*
X13942844Y-10301615D02*
X13923796Y-10292091D01*
X13923796Y-10292091D02*
X13914272Y-10273044D01*
X13914272Y-10273044D02*
X13914272Y-10263520D01*
X13914272Y-10263520D02*
X13923796Y-10244472D01*
X13923796Y-10244472D02*
X13942844Y-10234948D01*
X13942844Y-10234948D02*
X13971415Y-10234948D01*
X13971415Y-10234948D02*
X13990463Y-10244472D01*
X14066653Y-10444472D02*
X14076177Y-10434948D01*
X14076177Y-10434948D02*
X14095225Y-10406377D01*
X14095225Y-10406377D02*
X14104749Y-10387329D01*
X14104749Y-10387329D02*
X14114272Y-10358758D01*
X14114272Y-10358758D02*
X14123796Y-10311139D01*
X14123796Y-10311139D02*
X14123796Y-10273044D01*
X14123796Y-10273044D02*
X14114272Y-10225424D01*
X14114272Y-10225424D02*
X14104749Y-10196853D01*
X14104749Y-10196853D02*
X14095225Y-10177805D01*
X14095225Y-10177805D02*
X14076177Y-10149234D01*
X14076177Y-10149234D02*
X14066653Y-10139710D01*
X9191590Y-10481798D02*
X9191590Y-10681798D01*
X9091590Y-10581798D02*
X9291590Y-10581798D01*
X9291590Y-10581798D02*
G75*
G02*
X9091590Y-10581798I-100000J0D01*
G01*
X9091590Y-10581798D02*
G75*
G02*
X9291590Y-10581798I100000J0D01*
G01*
X9542843Y-10492329D02*
X9552367Y-10482805D01*
X9552367Y-10482805D02*
X9571415Y-10473282D01*
X9571415Y-10473282D02*
X9619034Y-10473282D01*
X9619034Y-10473282D02*
X9638082Y-10482805D01*
X9638082Y-10482805D02*
X9647605Y-10492329D01*
X9647605Y-10492329D02*
X9657129Y-10511377D01*
X9657129Y-10511377D02*
X9657129Y-10530424D01*
X9657129Y-10530424D02*
X9647605Y-10558996D01*
X9647605Y-10558996D02*
X9533320Y-10673282D01*
X9533320Y-10673282D02*
X9657129Y-10673282D01*
X9742843Y-10654234D02*
X9752367Y-10663758D01*
X9752367Y-10663758D02*
X9742843Y-10673282D01*
X9742843Y-10673282D02*
X9733320Y-10663758D01*
X9733320Y-10663758D02*
X9742843Y-10654234D01*
X9742843Y-10654234D02*
X9742843Y-10673282D01*
X9942843Y-10673282D02*
X9828558Y-10673282D01*
X9885701Y-10673282D02*
X9885701Y-10473282D01*
X9885701Y-10473282D02*
X9866653Y-10501853D01*
X9866653Y-10501853D02*
X9847605Y-10520901D01*
X9847605Y-10520901D02*
X9828558Y-10530424D01*
X10066653Y-10473282D02*
X10085701Y-10473282D01*
X10085701Y-10473282D02*
X10104748Y-10482805D01*
X10104748Y-10482805D02*
X10114272Y-10492329D01*
X10114272Y-10492329D02*
X10123796Y-10511377D01*
X10123796Y-10511377D02*
X10133320Y-10549472D01*
X10133320Y-10549472D02*
X10133320Y-10597091D01*
X10133320Y-10597091D02*
X10123796Y-10635186D01*
X10123796Y-10635186D02*
X10114272Y-10654234D01*
X10114272Y-10654234D02*
X10104748Y-10663758D01*
X10104748Y-10663758D02*
X10085701Y-10673282D01*
X10085701Y-10673282D02*
X10066653Y-10673282D01*
X10066653Y-10673282D02*
X10047605Y-10663758D01*
X10047605Y-10663758D02*
X10038082Y-10654234D01*
X10038082Y-10654234D02*
X10028558Y-10635186D01*
X10028558Y-10635186D02*
X10019034Y-10597091D01*
X10019034Y-10597091D02*
X10019034Y-10549472D01*
X10019034Y-10549472D02*
X10028558Y-10511377D01*
X10028558Y-10511377D02*
X10038082Y-10492329D01*
X10038082Y-10492329D02*
X10047605Y-10482805D01*
X10047605Y-10482805D02*
X10066653Y-10473282D01*
X10257129Y-10473282D02*
X10276177Y-10473282D01*
X10276177Y-10473282D02*
X10295224Y-10482805D01*
X10295224Y-10482805D02*
X10304748Y-10492329D01*
X10304748Y-10492329D02*
X10314272Y-10511377D01*
X10314272Y-10511377D02*
X10323796Y-10549472D01*
X10323796Y-10549472D02*
X10323796Y-10597091D01*
X10323796Y-10597091D02*
X10314272Y-10635186D01*
X10314272Y-10635186D02*
X10304748Y-10654234D01*
X10304748Y-10654234D02*
X10295224Y-10663758D01*
X10295224Y-10663758D02*
X10276177Y-10673282D01*
X10276177Y-10673282D02*
X10257129Y-10673282D01*
X10257129Y-10673282D02*
X10238082Y-10663758D01*
X10238082Y-10663758D02*
X10228558Y-10654234D01*
X10228558Y-10654234D02*
X10219034Y-10635186D01*
X10219034Y-10635186D02*
X10209510Y-10597091D01*
X10209510Y-10597091D02*
X10209510Y-10549472D01*
X10209510Y-10549472D02*
X10219034Y-10511377D01*
X10219034Y-10511377D02*
X10228558Y-10492329D01*
X10228558Y-10492329D02*
X10238082Y-10482805D01*
X10238082Y-10482805D02*
X10257129Y-10473282D01*
X10409510Y-10673282D02*
X10409510Y-10539948D01*
X10409510Y-10558996D02*
X10419034Y-10549472D01*
X10419034Y-10549472D02*
X10438082Y-10539948D01*
X10438082Y-10539948D02*
X10466653Y-10539948D01*
X10466653Y-10539948D02*
X10485701Y-10549472D01*
X10485701Y-10549472D02*
X10495224Y-10568520D01*
X10495224Y-10568520D02*
X10495224Y-10673282D01*
X10495224Y-10568520D02*
X10504748Y-10549472D01*
X10504748Y-10549472D02*
X10523796Y-10539948D01*
X10523796Y-10539948D02*
X10552367Y-10539948D01*
X10552367Y-10539948D02*
X10571415Y-10549472D01*
X10571415Y-10549472D02*
X10580939Y-10568520D01*
X10580939Y-10568520D02*
X10580939Y-10673282D01*
X10676177Y-10673282D02*
X10676177Y-10539948D01*
X10676177Y-10558996D02*
X10685701Y-10549472D01*
X10685701Y-10549472D02*
X10704748Y-10539948D01*
X10704748Y-10539948D02*
X10733320Y-10539948D01*
X10733320Y-10539948D02*
X10752367Y-10549472D01*
X10752367Y-10549472D02*
X10761891Y-10568520D01*
X10761891Y-10568520D02*
X10761891Y-10673282D01*
X10761891Y-10568520D02*
X10771415Y-10549472D01*
X10771415Y-10549472D02*
X10790463Y-10539948D01*
X10790463Y-10539948D02*
X10819034Y-10539948D01*
X10819034Y-10539948D02*
X10838082Y-10549472D01*
X10838082Y-10549472D02*
X10847605Y-10568520D01*
X10847605Y-10568520D02*
X10847605Y-10673282D01*
X11238082Y-10463758D02*
X11066653Y-10720901D01*
X11495224Y-10473282D02*
X11514272Y-10473282D01*
X11514272Y-10473282D02*
X11533320Y-10482805D01*
X11533320Y-10482805D02*
X11542844Y-10492329D01*
X11542844Y-10492329D02*
X11552367Y-10511377D01*
X11552367Y-10511377D02*
X11561891Y-10549472D01*
X11561891Y-10549472D02*
X11561891Y-10597091D01*
X11561891Y-10597091D02*
X11552367Y-10635186D01*
X11552367Y-10635186D02*
X11542844Y-10654234D01*
X11542844Y-10654234D02*
X11533320Y-10663758D01*
X11533320Y-10663758D02*
X11514272Y-10673282D01*
X11514272Y-10673282D02*
X11495224Y-10673282D01*
X11495224Y-10673282D02*
X11476177Y-10663758D01*
X11476177Y-10663758D02*
X11466653Y-10654234D01*
X11466653Y-10654234D02*
X11457129Y-10635186D01*
X11457129Y-10635186D02*
X11447605Y-10597091D01*
X11447605Y-10597091D02*
X11447605Y-10549472D01*
X11447605Y-10549472D02*
X11457129Y-10511377D01*
X11457129Y-10511377D02*
X11466653Y-10492329D01*
X11466653Y-10492329D02*
X11476177Y-10482805D01*
X11476177Y-10482805D02*
X11495224Y-10473282D01*
X11647605Y-10654234D02*
X11657129Y-10663758D01*
X11657129Y-10663758D02*
X11647605Y-10673282D01*
X11647605Y-10673282D02*
X11638082Y-10663758D01*
X11638082Y-10663758D02*
X11647605Y-10654234D01*
X11647605Y-10654234D02*
X11647605Y-10673282D01*
X11780939Y-10473282D02*
X11799986Y-10473282D01*
X11799986Y-10473282D02*
X11819034Y-10482805D01*
X11819034Y-10482805D02*
X11828558Y-10492329D01*
X11828558Y-10492329D02*
X11838082Y-10511377D01*
X11838082Y-10511377D02*
X11847605Y-10549472D01*
X11847605Y-10549472D02*
X11847605Y-10597091D01*
X11847605Y-10597091D02*
X11838082Y-10635186D01*
X11838082Y-10635186D02*
X11828558Y-10654234D01*
X11828558Y-10654234D02*
X11819034Y-10663758D01*
X11819034Y-10663758D02*
X11799986Y-10673282D01*
X11799986Y-10673282D02*
X11780939Y-10673282D01*
X11780939Y-10673282D02*
X11761891Y-10663758D01*
X11761891Y-10663758D02*
X11752367Y-10654234D01*
X11752367Y-10654234D02*
X11742844Y-10635186D01*
X11742844Y-10635186D02*
X11733320Y-10597091D01*
X11733320Y-10597091D02*
X11733320Y-10549472D01*
X11733320Y-10549472D02*
X11742844Y-10511377D01*
X11742844Y-10511377D02*
X11752367Y-10492329D01*
X11752367Y-10492329D02*
X11761891Y-10482805D01*
X11761891Y-10482805D02*
X11780939Y-10473282D01*
X11961891Y-10558996D02*
X11942844Y-10549472D01*
X11942844Y-10549472D02*
X11933320Y-10539948D01*
X11933320Y-10539948D02*
X11923796Y-10520901D01*
X11923796Y-10520901D02*
X11923796Y-10511377D01*
X11923796Y-10511377D02*
X11933320Y-10492329D01*
X11933320Y-10492329D02*
X11942844Y-10482805D01*
X11942844Y-10482805D02*
X11961891Y-10473282D01*
X11961891Y-10473282D02*
X11999986Y-10473282D01*
X11999986Y-10473282D02*
X12019034Y-10482805D01*
X12019034Y-10482805D02*
X12028558Y-10492329D01*
X12028558Y-10492329D02*
X12038082Y-10511377D01*
X12038082Y-10511377D02*
X12038082Y-10520901D01*
X12038082Y-10520901D02*
X12028558Y-10539948D01*
X12028558Y-10539948D02*
X12019034Y-10549472D01*
X12019034Y-10549472D02*
X11999986Y-10558996D01*
X11999986Y-10558996D02*
X11961891Y-10558996D01*
X11961891Y-10558996D02*
X11942844Y-10568520D01*
X11942844Y-10568520D02*
X11933320Y-10578044D01*
X11933320Y-10578044D02*
X11923796Y-10597091D01*
X11923796Y-10597091D02*
X11923796Y-10635186D01*
X11923796Y-10635186D02*
X11933320Y-10654234D01*
X11933320Y-10654234D02*
X11942844Y-10663758D01*
X11942844Y-10663758D02*
X11961891Y-10673282D01*
X11961891Y-10673282D02*
X11999986Y-10673282D01*
X11999986Y-10673282D02*
X12019034Y-10663758D01*
X12019034Y-10663758D02*
X12028558Y-10654234D01*
X12028558Y-10654234D02*
X12038082Y-10635186D01*
X12038082Y-10635186D02*
X12038082Y-10597091D01*
X12038082Y-10597091D02*
X12028558Y-10578044D01*
X12028558Y-10578044D02*
X12019034Y-10568520D01*
X12019034Y-10568520D02*
X11999986Y-10558996D01*
X12114272Y-10492329D02*
X12123796Y-10482805D01*
X12123796Y-10482805D02*
X12142844Y-10473282D01*
X12142844Y-10473282D02*
X12190463Y-10473282D01*
X12190463Y-10473282D02*
X12209510Y-10482805D01*
X12209510Y-10482805D02*
X12219034Y-10492329D01*
X12219034Y-10492329D02*
X12228558Y-10511377D01*
X12228558Y-10511377D02*
X12228558Y-10530424D01*
X12228558Y-10530424D02*
X12219034Y-10558996D01*
X12219034Y-10558996D02*
X12104748Y-10673282D01*
X12104748Y-10673282D02*
X12228558Y-10673282D01*
X12295225Y-10473282D02*
X12428558Y-10473282D01*
X12428558Y-10473282D02*
X12342844Y-10673282D01*
X12495225Y-10473282D02*
X12495225Y-10511377D01*
X12571415Y-10473282D02*
X12571415Y-10511377D01*
X12866653Y-10749472D02*
X12857129Y-10739948D01*
X12857129Y-10739948D02*
X12838082Y-10711377D01*
X12838082Y-10711377D02*
X12828558Y-10692329D01*
X12828558Y-10692329D02*
X12819034Y-10663758D01*
X12819034Y-10663758D02*
X12809510Y-10616139D01*
X12809510Y-10616139D02*
X12809510Y-10578044D01*
X12809510Y-10578044D02*
X12819034Y-10530424D01*
X12819034Y-10530424D02*
X12828558Y-10501853D01*
X12828558Y-10501853D02*
X12838082Y-10482805D01*
X12838082Y-10482805D02*
X12857129Y-10454234D01*
X12857129Y-10454234D02*
X12866653Y-10444710D01*
X13028558Y-10539948D02*
X13028558Y-10673282D01*
X12980939Y-10463758D02*
X12933320Y-10606615D01*
X12933320Y-10606615D02*
X13057129Y-10606615D01*
X13285701Y-10673282D02*
X13285701Y-10473282D01*
X13371415Y-10673282D02*
X13371415Y-10568520D01*
X13371415Y-10568520D02*
X13361891Y-10549472D01*
X13361891Y-10549472D02*
X13342844Y-10539948D01*
X13342844Y-10539948D02*
X13314272Y-10539948D01*
X13314272Y-10539948D02*
X13295225Y-10549472D01*
X13295225Y-10549472D02*
X13285701Y-10558996D01*
X13495225Y-10673282D02*
X13476177Y-10663758D01*
X13476177Y-10663758D02*
X13466653Y-10654234D01*
X13466653Y-10654234D02*
X13457129Y-10635186D01*
X13457129Y-10635186D02*
X13457129Y-10578044D01*
X13457129Y-10578044D02*
X13466653Y-10558996D01*
X13466653Y-10558996D02*
X13476177Y-10549472D01*
X13476177Y-10549472D02*
X13495225Y-10539948D01*
X13495225Y-10539948D02*
X13523796Y-10539948D01*
X13523796Y-10539948D02*
X13542844Y-10549472D01*
X13542844Y-10549472D02*
X13552368Y-10558996D01*
X13552368Y-10558996D02*
X13561891Y-10578044D01*
X13561891Y-10578044D02*
X13561891Y-10635186D01*
X13561891Y-10635186D02*
X13552368Y-10654234D01*
X13552368Y-10654234D02*
X13542844Y-10663758D01*
X13542844Y-10663758D02*
X13523796Y-10673282D01*
X13523796Y-10673282D02*
X13495225Y-10673282D01*
X13676177Y-10673282D02*
X13657129Y-10663758D01*
X13657129Y-10663758D02*
X13647606Y-10644710D01*
X13647606Y-10644710D02*
X13647606Y-10473282D01*
X13828558Y-10663758D02*
X13809510Y-10673282D01*
X13809510Y-10673282D02*
X13771415Y-10673282D01*
X13771415Y-10673282D02*
X13752368Y-10663758D01*
X13752368Y-10663758D02*
X13742844Y-10644710D01*
X13742844Y-10644710D02*
X13742844Y-10568520D01*
X13742844Y-10568520D02*
X13752368Y-10549472D01*
X13752368Y-10549472D02*
X13771415Y-10539948D01*
X13771415Y-10539948D02*
X13809510Y-10539948D01*
X13809510Y-10539948D02*
X13828558Y-10549472D01*
X13828558Y-10549472D02*
X13838082Y-10568520D01*
X13838082Y-10568520D02*
X13838082Y-10587567D01*
X13838082Y-10587567D02*
X13742844Y-10606615D01*
X13914272Y-10663758D02*
X13933320Y-10673282D01*
X13933320Y-10673282D02*
X13971415Y-10673282D01*
X13971415Y-10673282D02*
X13990463Y-10663758D01*
X13990463Y-10663758D02*
X13999987Y-10644710D01*
X13999987Y-10644710D02*
X13999987Y-10635186D01*
X13999987Y-10635186D02*
X13990463Y-10616139D01*
X13990463Y-10616139D02*
X13971415Y-10606615D01*
X13971415Y-10606615D02*
X13942844Y-10606615D01*
X13942844Y-10606615D02*
X13923796Y-10597091D01*
X13923796Y-10597091D02*
X13914272Y-10578044D01*
X13914272Y-10578044D02*
X13914272Y-10568520D01*
X13914272Y-10568520D02*
X13923796Y-10549472D01*
X13923796Y-10549472D02*
X13942844Y-10539948D01*
X13942844Y-10539948D02*
X13971415Y-10539948D01*
X13971415Y-10539948D02*
X13990463Y-10549472D01*
X14066653Y-10749472D02*
X14076177Y-10739948D01*
X14076177Y-10739948D02*
X14095225Y-10711377D01*
X14095225Y-10711377D02*
X14104749Y-10692329D01*
X14104749Y-10692329D02*
X14114272Y-10663758D01*
X14114272Y-10663758D02*
X14123796Y-10616139D01*
X14123796Y-10616139D02*
X14123796Y-10578044D01*
X14123796Y-10578044D02*
X14114272Y-10530424D01*
X14114272Y-10530424D02*
X14104749Y-10501853D01*
X14104749Y-10501853D02*
X14095225Y-10482805D01*
X14095225Y-10482805D02*
X14076177Y-10454234D01*
X14076177Y-10454234D02*
X14066653Y-10444710D01*
X9262302Y-10972509D02*
X9262302Y-10831086D01*
X9120879Y-10831086D01*
X9120879Y-10972509D01*
X9262302Y-10972509D01*
X9291590Y-10901798D02*
G75*
G02*
X9091590Y-10901798I-100000J0D01*
G01*
X9091590Y-10901798D02*
G75*
G02*
X9291590Y-10901798I100000J0D01*
G01*
X9542843Y-10812329D02*
X9552367Y-10802805D01*
X9552367Y-10802805D02*
X9571415Y-10793282D01*
X9571415Y-10793282D02*
X9619034Y-10793282D01*
X9619034Y-10793282D02*
X9638082Y-10802805D01*
X9638082Y-10802805D02*
X9647605Y-10812329D01*
X9647605Y-10812329D02*
X9657129Y-10831377D01*
X9657129Y-10831377D02*
X9657129Y-10850424D01*
X9657129Y-10850424D02*
X9647605Y-10878996D01*
X9647605Y-10878996D02*
X9533320Y-10993282D01*
X9533320Y-10993282D02*
X9657129Y-10993282D01*
X9742843Y-10974234D02*
X9752367Y-10983758D01*
X9752367Y-10983758D02*
X9742843Y-10993282D01*
X9742843Y-10993282D02*
X9733320Y-10983758D01*
X9733320Y-10983758D02*
X9742843Y-10974234D01*
X9742843Y-10974234D02*
X9742843Y-10993282D01*
X9942843Y-10993282D02*
X9828558Y-10993282D01*
X9885701Y-10993282D02*
X9885701Y-10793282D01*
X9885701Y-10793282D02*
X9866653Y-10821853D01*
X9866653Y-10821853D02*
X9847605Y-10840901D01*
X9847605Y-10840901D02*
X9828558Y-10850424D01*
X10133320Y-10993282D02*
X10019034Y-10993282D01*
X10076177Y-10993282D02*
X10076177Y-10793282D01*
X10076177Y-10793282D02*
X10057129Y-10821853D01*
X10057129Y-10821853D02*
X10038082Y-10840901D01*
X10038082Y-10840901D02*
X10019034Y-10850424D01*
X10257129Y-10793282D02*
X10276177Y-10793282D01*
X10276177Y-10793282D02*
X10295224Y-10802805D01*
X10295224Y-10802805D02*
X10304748Y-10812329D01*
X10304748Y-10812329D02*
X10314272Y-10831377D01*
X10314272Y-10831377D02*
X10323796Y-10869472D01*
X10323796Y-10869472D02*
X10323796Y-10917091D01*
X10323796Y-10917091D02*
X10314272Y-10955186D01*
X10314272Y-10955186D02*
X10304748Y-10974234D01*
X10304748Y-10974234D02*
X10295224Y-10983758D01*
X10295224Y-10983758D02*
X10276177Y-10993282D01*
X10276177Y-10993282D02*
X10257129Y-10993282D01*
X10257129Y-10993282D02*
X10238082Y-10983758D01*
X10238082Y-10983758D02*
X10228558Y-10974234D01*
X10228558Y-10974234D02*
X10219034Y-10955186D01*
X10219034Y-10955186D02*
X10209510Y-10917091D01*
X10209510Y-10917091D02*
X10209510Y-10869472D01*
X10209510Y-10869472D02*
X10219034Y-10831377D01*
X10219034Y-10831377D02*
X10228558Y-10812329D01*
X10228558Y-10812329D02*
X10238082Y-10802805D01*
X10238082Y-10802805D02*
X10257129Y-10793282D01*
X10409510Y-10993282D02*
X10409510Y-10859948D01*
X10409510Y-10878996D02*
X10419034Y-10869472D01*
X10419034Y-10869472D02*
X10438082Y-10859948D01*
X10438082Y-10859948D02*
X10466653Y-10859948D01*
X10466653Y-10859948D02*
X10485701Y-10869472D01*
X10485701Y-10869472D02*
X10495224Y-10888520D01*
X10495224Y-10888520D02*
X10495224Y-10993282D01*
X10495224Y-10888520D02*
X10504748Y-10869472D01*
X10504748Y-10869472D02*
X10523796Y-10859948D01*
X10523796Y-10859948D02*
X10552367Y-10859948D01*
X10552367Y-10859948D02*
X10571415Y-10869472D01*
X10571415Y-10869472D02*
X10580939Y-10888520D01*
X10580939Y-10888520D02*
X10580939Y-10993282D01*
X10676177Y-10993282D02*
X10676177Y-10859948D01*
X10676177Y-10878996D02*
X10685701Y-10869472D01*
X10685701Y-10869472D02*
X10704748Y-10859948D01*
X10704748Y-10859948D02*
X10733320Y-10859948D01*
X10733320Y-10859948D02*
X10752367Y-10869472D01*
X10752367Y-10869472D02*
X10761891Y-10888520D01*
X10761891Y-10888520D02*
X10761891Y-10993282D01*
X10761891Y-10888520D02*
X10771415Y-10869472D01*
X10771415Y-10869472D02*
X10790463Y-10859948D01*
X10790463Y-10859948D02*
X10819034Y-10859948D01*
X10819034Y-10859948D02*
X10838082Y-10869472D01*
X10838082Y-10869472D02*
X10847605Y-10888520D01*
X10847605Y-10888520D02*
X10847605Y-10993282D01*
X11238082Y-10783758D02*
X11066653Y-11040901D01*
X11495224Y-10793282D02*
X11514272Y-10793282D01*
X11514272Y-10793282D02*
X11533320Y-10802805D01*
X11533320Y-10802805D02*
X11542844Y-10812329D01*
X11542844Y-10812329D02*
X11552367Y-10831377D01*
X11552367Y-10831377D02*
X11561891Y-10869472D01*
X11561891Y-10869472D02*
X11561891Y-10917091D01*
X11561891Y-10917091D02*
X11552367Y-10955186D01*
X11552367Y-10955186D02*
X11542844Y-10974234D01*
X11542844Y-10974234D02*
X11533320Y-10983758D01*
X11533320Y-10983758D02*
X11514272Y-10993282D01*
X11514272Y-10993282D02*
X11495224Y-10993282D01*
X11495224Y-10993282D02*
X11476177Y-10983758D01*
X11476177Y-10983758D02*
X11466653Y-10974234D01*
X11466653Y-10974234D02*
X11457129Y-10955186D01*
X11457129Y-10955186D02*
X11447605Y-10917091D01*
X11447605Y-10917091D02*
X11447605Y-10869472D01*
X11447605Y-10869472D02*
X11457129Y-10831377D01*
X11457129Y-10831377D02*
X11466653Y-10812329D01*
X11466653Y-10812329D02*
X11476177Y-10802805D01*
X11476177Y-10802805D02*
X11495224Y-10793282D01*
X11647605Y-10974234D02*
X11657129Y-10983758D01*
X11657129Y-10983758D02*
X11647605Y-10993282D01*
X11647605Y-10993282D02*
X11638082Y-10983758D01*
X11638082Y-10983758D02*
X11647605Y-10974234D01*
X11647605Y-10974234D02*
X11647605Y-10993282D01*
X11780939Y-10793282D02*
X11799986Y-10793282D01*
X11799986Y-10793282D02*
X11819034Y-10802805D01*
X11819034Y-10802805D02*
X11828558Y-10812329D01*
X11828558Y-10812329D02*
X11838082Y-10831377D01*
X11838082Y-10831377D02*
X11847605Y-10869472D01*
X11847605Y-10869472D02*
X11847605Y-10917091D01*
X11847605Y-10917091D02*
X11838082Y-10955186D01*
X11838082Y-10955186D02*
X11828558Y-10974234D01*
X11828558Y-10974234D02*
X11819034Y-10983758D01*
X11819034Y-10983758D02*
X11799986Y-10993282D01*
X11799986Y-10993282D02*
X11780939Y-10993282D01*
X11780939Y-10993282D02*
X11761891Y-10983758D01*
X11761891Y-10983758D02*
X11752367Y-10974234D01*
X11752367Y-10974234D02*
X11742844Y-10955186D01*
X11742844Y-10955186D02*
X11733320Y-10917091D01*
X11733320Y-10917091D02*
X11733320Y-10869472D01*
X11733320Y-10869472D02*
X11742844Y-10831377D01*
X11742844Y-10831377D02*
X11752367Y-10812329D01*
X11752367Y-10812329D02*
X11761891Y-10802805D01*
X11761891Y-10802805D02*
X11780939Y-10793282D01*
X11961891Y-10878996D02*
X11942844Y-10869472D01*
X11942844Y-10869472D02*
X11933320Y-10859948D01*
X11933320Y-10859948D02*
X11923796Y-10840901D01*
X11923796Y-10840901D02*
X11923796Y-10831377D01*
X11923796Y-10831377D02*
X11933320Y-10812329D01*
X11933320Y-10812329D02*
X11942844Y-10802805D01*
X11942844Y-10802805D02*
X11961891Y-10793282D01*
X11961891Y-10793282D02*
X11999986Y-10793282D01*
X11999986Y-10793282D02*
X12019034Y-10802805D01*
X12019034Y-10802805D02*
X12028558Y-10812329D01*
X12028558Y-10812329D02*
X12038082Y-10831377D01*
X12038082Y-10831377D02*
X12038082Y-10840901D01*
X12038082Y-10840901D02*
X12028558Y-10859948D01*
X12028558Y-10859948D02*
X12019034Y-10869472D01*
X12019034Y-10869472D02*
X11999986Y-10878996D01*
X11999986Y-10878996D02*
X11961891Y-10878996D01*
X11961891Y-10878996D02*
X11942844Y-10888520D01*
X11942844Y-10888520D02*
X11933320Y-10898044D01*
X11933320Y-10898044D02*
X11923796Y-10917091D01*
X11923796Y-10917091D02*
X11923796Y-10955186D01*
X11923796Y-10955186D02*
X11933320Y-10974234D01*
X11933320Y-10974234D02*
X11942844Y-10983758D01*
X11942844Y-10983758D02*
X11961891Y-10993282D01*
X11961891Y-10993282D02*
X11999986Y-10993282D01*
X11999986Y-10993282D02*
X12019034Y-10983758D01*
X12019034Y-10983758D02*
X12028558Y-10974234D01*
X12028558Y-10974234D02*
X12038082Y-10955186D01*
X12038082Y-10955186D02*
X12038082Y-10917091D01*
X12038082Y-10917091D02*
X12028558Y-10898044D01*
X12028558Y-10898044D02*
X12019034Y-10888520D01*
X12019034Y-10888520D02*
X11999986Y-10878996D01*
X12104748Y-10793282D02*
X12228558Y-10793282D01*
X12228558Y-10793282D02*
X12161891Y-10869472D01*
X12161891Y-10869472D02*
X12190463Y-10869472D01*
X12190463Y-10869472D02*
X12209510Y-10878996D01*
X12209510Y-10878996D02*
X12219034Y-10888520D01*
X12219034Y-10888520D02*
X12228558Y-10907567D01*
X12228558Y-10907567D02*
X12228558Y-10955186D01*
X12228558Y-10955186D02*
X12219034Y-10974234D01*
X12219034Y-10974234D02*
X12209510Y-10983758D01*
X12209510Y-10983758D02*
X12190463Y-10993282D01*
X12190463Y-10993282D02*
X12133320Y-10993282D01*
X12133320Y-10993282D02*
X12114272Y-10983758D01*
X12114272Y-10983758D02*
X12104748Y-10974234D01*
X12419034Y-10993282D02*
X12304748Y-10993282D01*
X12361891Y-10993282D02*
X12361891Y-10793282D01*
X12361891Y-10793282D02*
X12342844Y-10821853D01*
X12342844Y-10821853D02*
X12323796Y-10840901D01*
X12323796Y-10840901D02*
X12304748Y-10850424D01*
X12495225Y-10793282D02*
X12495225Y-10831377D01*
X12571415Y-10793282D02*
X12571415Y-10831377D01*
X12866653Y-11069472D02*
X12857129Y-11059948D01*
X12857129Y-11059948D02*
X12838082Y-11031377D01*
X12838082Y-11031377D02*
X12828558Y-11012329D01*
X12828558Y-11012329D02*
X12819034Y-10983758D01*
X12819034Y-10983758D02*
X12809510Y-10936139D01*
X12809510Y-10936139D02*
X12809510Y-10898044D01*
X12809510Y-10898044D02*
X12819034Y-10850424D01*
X12819034Y-10850424D02*
X12828558Y-10821853D01*
X12828558Y-10821853D02*
X12838082Y-10802805D01*
X12838082Y-10802805D02*
X12857129Y-10774234D01*
X12857129Y-10774234D02*
X12866653Y-10764710D01*
X12933320Y-10812329D02*
X12942844Y-10802805D01*
X12942844Y-10802805D02*
X12961891Y-10793282D01*
X12961891Y-10793282D02*
X13009510Y-10793282D01*
X13009510Y-10793282D02*
X13028558Y-10802805D01*
X13028558Y-10802805D02*
X13038082Y-10812329D01*
X13038082Y-10812329D02*
X13047606Y-10831377D01*
X13047606Y-10831377D02*
X13047606Y-10850424D01*
X13047606Y-10850424D02*
X13038082Y-10878996D01*
X13038082Y-10878996D02*
X12923796Y-10993282D01*
X12923796Y-10993282D02*
X13047606Y-10993282D01*
X13285701Y-10993282D02*
X13285701Y-10793282D01*
X13371415Y-10993282D02*
X13371415Y-10888520D01*
X13371415Y-10888520D02*
X13361891Y-10869472D01*
X13361891Y-10869472D02*
X13342844Y-10859948D01*
X13342844Y-10859948D02*
X13314272Y-10859948D01*
X13314272Y-10859948D02*
X13295225Y-10869472D01*
X13295225Y-10869472D02*
X13285701Y-10878996D01*
X13495225Y-10993282D02*
X13476177Y-10983758D01*
X13476177Y-10983758D02*
X13466653Y-10974234D01*
X13466653Y-10974234D02*
X13457129Y-10955186D01*
X13457129Y-10955186D02*
X13457129Y-10898044D01*
X13457129Y-10898044D02*
X13466653Y-10878996D01*
X13466653Y-10878996D02*
X13476177Y-10869472D01*
X13476177Y-10869472D02*
X13495225Y-10859948D01*
X13495225Y-10859948D02*
X13523796Y-10859948D01*
X13523796Y-10859948D02*
X13542844Y-10869472D01*
X13542844Y-10869472D02*
X13552368Y-10878996D01*
X13552368Y-10878996D02*
X13561891Y-10898044D01*
X13561891Y-10898044D02*
X13561891Y-10955186D01*
X13561891Y-10955186D02*
X13552368Y-10974234D01*
X13552368Y-10974234D02*
X13542844Y-10983758D01*
X13542844Y-10983758D02*
X13523796Y-10993282D01*
X13523796Y-10993282D02*
X13495225Y-10993282D01*
X13676177Y-10993282D02*
X13657129Y-10983758D01*
X13657129Y-10983758D02*
X13647606Y-10964710D01*
X13647606Y-10964710D02*
X13647606Y-10793282D01*
X13828558Y-10983758D02*
X13809510Y-10993282D01*
X13809510Y-10993282D02*
X13771415Y-10993282D01*
X13771415Y-10993282D02*
X13752368Y-10983758D01*
X13752368Y-10983758D02*
X13742844Y-10964710D01*
X13742844Y-10964710D02*
X13742844Y-10888520D01*
X13742844Y-10888520D02*
X13752368Y-10869472D01*
X13752368Y-10869472D02*
X13771415Y-10859948D01*
X13771415Y-10859948D02*
X13809510Y-10859948D01*
X13809510Y-10859948D02*
X13828558Y-10869472D01*
X13828558Y-10869472D02*
X13838082Y-10888520D01*
X13838082Y-10888520D02*
X13838082Y-10907567D01*
X13838082Y-10907567D02*
X13742844Y-10926615D01*
X13914272Y-10983758D02*
X13933320Y-10993282D01*
X13933320Y-10993282D02*
X13971415Y-10993282D01*
X13971415Y-10993282D02*
X13990463Y-10983758D01*
X13990463Y-10983758D02*
X13999987Y-10964710D01*
X13999987Y-10964710D02*
X13999987Y-10955186D01*
X13999987Y-10955186D02*
X13990463Y-10936139D01*
X13990463Y-10936139D02*
X13971415Y-10926615D01*
X13971415Y-10926615D02*
X13942844Y-10926615D01*
X13942844Y-10926615D02*
X13923796Y-10917091D01*
X13923796Y-10917091D02*
X13914272Y-10898044D01*
X13914272Y-10898044D02*
X13914272Y-10888520D01*
X13914272Y-10888520D02*
X13923796Y-10869472D01*
X13923796Y-10869472D02*
X13942844Y-10859948D01*
X13942844Y-10859948D02*
X13971415Y-10859948D01*
X13971415Y-10859948D02*
X13990463Y-10869472D01*
X14066653Y-11069472D02*
X14076177Y-11059948D01*
X14076177Y-11059948D02*
X14095225Y-11031377D01*
X14095225Y-11031377D02*
X14104749Y-11012329D01*
X14104749Y-11012329D02*
X14114272Y-10983758D01*
X14114272Y-10983758D02*
X14123796Y-10936139D01*
X14123796Y-10936139D02*
X14123796Y-10898044D01*
X14123796Y-10898044D02*
X14114272Y-10850424D01*
X14114272Y-10850424D02*
X14104749Y-10821853D01*
X14104749Y-10821853D02*
X14095225Y-10802805D01*
X14095225Y-10802805D02*
X14076177Y-10774234D01*
X14076177Y-10774234D02*
X14066653Y-10764710D01*
X9191590Y-11321798D02*
X9291590Y-11221798D01*
X9191590Y-11121798D01*
X9091590Y-11221798D01*
X9191590Y-11321798D01*
X9291590Y-11221798D02*
G75*
G02*
X9091590Y-11221798I-100000J0D01*
G01*
X9091590Y-11221798D02*
G75*
G02*
X9291590Y-11221798I100000J0D01*
G01*
X9533320Y-11113282D02*
X9657129Y-11113282D01*
X9657129Y-11113282D02*
X9590462Y-11189472D01*
X9590462Y-11189472D02*
X9619034Y-11189472D01*
X9619034Y-11189472D02*
X9638082Y-11198996D01*
X9638082Y-11198996D02*
X9647605Y-11208520D01*
X9647605Y-11208520D02*
X9657129Y-11227567D01*
X9657129Y-11227567D02*
X9657129Y-11275186D01*
X9657129Y-11275186D02*
X9647605Y-11294234D01*
X9647605Y-11294234D02*
X9638082Y-11303758D01*
X9638082Y-11303758D02*
X9619034Y-11313282D01*
X9619034Y-11313282D02*
X9561891Y-11313282D01*
X9561891Y-11313282D02*
X9542843Y-11303758D01*
X9542843Y-11303758D02*
X9533320Y-11294234D01*
X9742843Y-11294234D02*
X9752367Y-11303758D01*
X9752367Y-11303758D02*
X9742843Y-11313282D01*
X9742843Y-11313282D02*
X9733320Y-11303758D01*
X9733320Y-11303758D02*
X9742843Y-11294234D01*
X9742843Y-11294234D02*
X9742843Y-11313282D01*
X9942843Y-11313282D02*
X9828558Y-11313282D01*
X9885701Y-11313282D02*
X9885701Y-11113282D01*
X9885701Y-11113282D02*
X9866653Y-11141853D01*
X9866653Y-11141853D02*
X9847605Y-11160901D01*
X9847605Y-11160901D02*
X9828558Y-11170424D01*
X10114272Y-11113282D02*
X10076177Y-11113282D01*
X10076177Y-11113282D02*
X10057129Y-11122805D01*
X10057129Y-11122805D02*
X10047605Y-11132329D01*
X10047605Y-11132329D02*
X10028558Y-11160901D01*
X10028558Y-11160901D02*
X10019034Y-11198996D01*
X10019034Y-11198996D02*
X10019034Y-11275186D01*
X10019034Y-11275186D02*
X10028558Y-11294234D01*
X10028558Y-11294234D02*
X10038082Y-11303758D01*
X10038082Y-11303758D02*
X10057129Y-11313282D01*
X10057129Y-11313282D02*
X10095224Y-11313282D01*
X10095224Y-11313282D02*
X10114272Y-11303758D01*
X10114272Y-11303758D02*
X10123796Y-11294234D01*
X10123796Y-11294234D02*
X10133320Y-11275186D01*
X10133320Y-11275186D02*
X10133320Y-11227567D01*
X10133320Y-11227567D02*
X10123796Y-11208520D01*
X10123796Y-11208520D02*
X10114272Y-11198996D01*
X10114272Y-11198996D02*
X10095224Y-11189472D01*
X10095224Y-11189472D02*
X10057129Y-11189472D01*
X10057129Y-11189472D02*
X10038082Y-11198996D01*
X10038082Y-11198996D02*
X10028558Y-11208520D01*
X10028558Y-11208520D02*
X10019034Y-11227567D01*
X10209510Y-11132329D02*
X10219034Y-11122805D01*
X10219034Y-11122805D02*
X10238082Y-11113282D01*
X10238082Y-11113282D02*
X10285701Y-11113282D01*
X10285701Y-11113282D02*
X10304748Y-11122805D01*
X10304748Y-11122805D02*
X10314272Y-11132329D01*
X10314272Y-11132329D02*
X10323796Y-11151377D01*
X10323796Y-11151377D02*
X10323796Y-11170424D01*
X10323796Y-11170424D02*
X10314272Y-11198996D01*
X10314272Y-11198996D02*
X10199986Y-11313282D01*
X10199986Y-11313282D02*
X10323796Y-11313282D01*
X10409510Y-11313282D02*
X10409510Y-11179948D01*
X10409510Y-11198996D02*
X10419034Y-11189472D01*
X10419034Y-11189472D02*
X10438082Y-11179948D01*
X10438082Y-11179948D02*
X10466653Y-11179948D01*
X10466653Y-11179948D02*
X10485701Y-11189472D01*
X10485701Y-11189472D02*
X10495224Y-11208520D01*
X10495224Y-11208520D02*
X10495224Y-11313282D01*
X10495224Y-11208520D02*
X10504748Y-11189472D01*
X10504748Y-11189472D02*
X10523796Y-11179948D01*
X10523796Y-11179948D02*
X10552367Y-11179948D01*
X10552367Y-11179948D02*
X10571415Y-11189472D01*
X10571415Y-11189472D02*
X10580939Y-11208520D01*
X10580939Y-11208520D02*
X10580939Y-11313282D01*
X10676177Y-11313282D02*
X10676177Y-11179948D01*
X10676177Y-11198996D02*
X10685701Y-11189472D01*
X10685701Y-11189472D02*
X10704748Y-11179948D01*
X10704748Y-11179948D02*
X10733320Y-11179948D01*
X10733320Y-11179948D02*
X10752367Y-11189472D01*
X10752367Y-11189472D02*
X10761891Y-11208520D01*
X10761891Y-11208520D02*
X10761891Y-11313282D01*
X10761891Y-11208520D02*
X10771415Y-11189472D01*
X10771415Y-11189472D02*
X10790463Y-11179948D01*
X10790463Y-11179948D02*
X10819034Y-11179948D01*
X10819034Y-11179948D02*
X10838082Y-11189472D01*
X10838082Y-11189472D02*
X10847605Y-11208520D01*
X10847605Y-11208520D02*
X10847605Y-11313282D01*
X11238082Y-11103758D02*
X11066653Y-11360901D01*
X11495224Y-11113282D02*
X11514272Y-11113282D01*
X11514272Y-11113282D02*
X11533320Y-11122805D01*
X11533320Y-11122805D02*
X11542844Y-11132329D01*
X11542844Y-11132329D02*
X11552367Y-11151377D01*
X11552367Y-11151377D02*
X11561891Y-11189472D01*
X11561891Y-11189472D02*
X11561891Y-11237091D01*
X11561891Y-11237091D02*
X11552367Y-11275186D01*
X11552367Y-11275186D02*
X11542844Y-11294234D01*
X11542844Y-11294234D02*
X11533320Y-11303758D01*
X11533320Y-11303758D02*
X11514272Y-11313282D01*
X11514272Y-11313282D02*
X11495224Y-11313282D01*
X11495224Y-11313282D02*
X11476177Y-11303758D01*
X11476177Y-11303758D02*
X11466653Y-11294234D01*
X11466653Y-11294234D02*
X11457129Y-11275186D01*
X11457129Y-11275186D02*
X11447605Y-11237091D01*
X11447605Y-11237091D02*
X11447605Y-11189472D01*
X11447605Y-11189472D02*
X11457129Y-11151377D01*
X11457129Y-11151377D02*
X11466653Y-11132329D01*
X11466653Y-11132329D02*
X11476177Y-11122805D01*
X11476177Y-11122805D02*
X11495224Y-11113282D01*
X11647605Y-11294234D02*
X11657129Y-11303758D01*
X11657129Y-11303758D02*
X11647605Y-11313282D01*
X11647605Y-11313282D02*
X11638082Y-11303758D01*
X11638082Y-11303758D02*
X11647605Y-11294234D01*
X11647605Y-11294234D02*
X11647605Y-11313282D01*
X11847605Y-11313282D02*
X11733320Y-11313282D01*
X11790463Y-11313282D02*
X11790463Y-11113282D01*
X11790463Y-11113282D02*
X11771415Y-11141853D01*
X11771415Y-11141853D02*
X11752367Y-11160901D01*
X11752367Y-11160901D02*
X11733320Y-11170424D01*
X11923796Y-11132329D02*
X11933320Y-11122805D01*
X11933320Y-11122805D02*
X11952367Y-11113282D01*
X11952367Y-11113282D02*
X11999986Y-11113282D01*
X11999986Y-11113282D02*
X12019034Y-11122805D01*
X12019034Y-11122805D02*
X12028558Y-11132329D01*
X12028558Y-11132329D02*
X12038082Y-11151377D01*
X12038082Y-11151377D02*
X12038082Y-11170424D01*
X12038082Y-11170424D02*
X12028558Y-11198996D01*
X12028558Y-11198996D02*
X11914272Y-11313282D01*
X11914272Y-11313282D02*
X12038082Y-11313282D01*
X12209510Y-11179948D02*
X12209510Y-11313282D01*
X12161891Y-11103758D02*
X12114272Y-11246615D01*
X12114272Y-11246615D02*
X12238082Y-11246615D01*
X12409510Y-11113282D02*
X12314272Y-11113282D01*
X12314272Y-11113282D02*
X12304748Y-11208520D01*
X12304748Y-11208520D02*
X12314272Y-11198996D01*
X12314272Y-11198996D02*
X12333320Y-11189472D01*
X12333320Y-11189472D02*
X12380939Y-11189472D01*
X12380939Y-11189472D02*
X12399986Y-11198996D01*
X12399986Y-11198996D02*
X12409510Y-11208520D01*
X12409510Y-11208520D02*
X12419034Y-11227567D01*
X12419034Y-11227567D02*
X12419034Y-11275186D01*
X12419034Y-11275186D02*
X12409510Y-11294234D01*
X12409510Y-11294234D02*
X12399986Y-11303758D01*
X12399986Y-11303758D02*
X12380939Y-11313282D01*
X12380939Y-11313282D02*
X12333320Y-11313282D01*
X12333320Y-11313282D02*
X12314272Y-11303758D01*
X12314272Y-11303758D02*
X12304748Y-11294234D01*
X12495225Y-11113282D02*
X12495225Y-11151377D01*
X12571415Y-11113282D02*
X12571415Y-11151377D01*
X12866653Y-11389472D02*
X12857129Y-11379948D01*
X12857129Y-11379948D02*
X12838082Y-11351377D01*
X12838082Y-11351377D02*
X12828558Y-11332329D01*
X12828558Y-11332329D02*
X12819034Y-11303758D01*
X12819034Y-11303758D02*
X12809510Y-11256139D01*
X12809510Y-11256139D02*
X12809510Y-11218043D01*
X12809510Y-11218043D02*
X12819034Y-11170424D01*
X12819034Y-11170424D02*
X12828558Y-11141853D01*
X12828558Y-11141853D02*
X12838082Y-11122805D01*
X12838082Y-11122805D02*
X12857129Y-11094234D01*
X12857129Y-11094234D02*
X12866653Y-11084710D01*
X12933320Y-11132329D02*
X12942844Y-11122805D01*
X12942844Y-11122805D02*
X12961891Y-11113282D01*
X12961891Y-11113282D02*
X13009510Y-11113282D01*
X13009510Y-11113282D02*
X13028558Y-11122805D01*
X13028558Y-11122805D02*
X13038082Y-11132329D01*
X13038082Y-11132329D02*
X13047606Y-11151377D01*
X13047606Y-11151377D02*
X13047606Y-11170424D01*
X13047606Y-11170424D02*
X13038082Y-11198996D01*
X13038082Y-11198996D02*
X12923796Y-11313282D01*
X12923796Y-11313282D02*
X13047606Y-11313282D01*
X13285701Y-11313282D02*
X13285701Y-11113282D01*
X13371415Y-11313282D02*
X13371415Y-11208520D01*
X13371415Y-11208520D02*
X13361891Y-11189472D01*
X13361891Y-11189472D02*
X13342844Y-11179948D01*
X13342844Y-11179948D02*
X13314272Y-11179948D01*
X13314272Y-11179948D02*
X13295225Y-11189472D01*
X13295225Y-11189472D02*
X13285701Y-11198996D01*
X13495225Y-11313282D02*
X13476177Y-11303758D01*
X13476177Y-11303758D02*
X13466653Y-11294234D01*
X13466653Y-11294234D02*
X13457129Y-11275186D01*
X13457129Y-11275186D02*
X13457129Y-11218043D01*
X13457129Y-11218043D02*
X13466653Y-11198996D01*
X13466653Y-11198996D02*
X13476177Y-11189472D01*
X13476177Y-11189472D02*
X13495225Y-11179948D01*
X13495225Y-11179948D02*
X13523796Y-11179948D01*
X13523796Y-11179948D02*
X13542844Y-11189472D01*
X13542844Y-11189472D02*
X13552368Y-11198996D01*
X13552368Y-11198996D02*
X13561891Y-11218043D01*
X13561891Y-11218043D02*
X13561891Y-11275186D01*
X13561891Y-11275186D02*
X13552368Y-11294234D01*
X13552368Y-11294234D02*
X13542844Y-11303758D01*
X13542844Y-11303758D02*
X13523796Y-11313282D01*
X13523796Y-11313282D02*
X13495225Y-11313282D01*
X13676177Y-11313282D02*
X13657129Y-11303758D01*
X13657129Y-11303758D02*
X13647606Y-11284710D01*
X13647606Y-11284710D02*
X13647606Y-11113282D01*
X13828558Y-11303758D02*
X13809510Y-11313282D01*
X13809510Y-11313282D02*
X13771415Y-11313282D01*
X13771415Y-11313282D02*
X13752368Y-11303758D01*
X13752368Y-11303758D02*
X13742844Y-11284710D01*
X13742844Y-11284710D02*
X13742844Y-11208520D01*
X13742844Y-11208520D02*
X13752368Y-11189472D01*
X13752368Y-11189472D02*
X13771415Y-11179948D01*
X13771415Y-11179948D02*
X13809510Y-11179948D01*
X13809510Y-11179948D02*
X13828558Y-11189472D01*
X13828558Y-11189472D02*
X13838082Y-11208520D01*
X13838082Y-11208520D02*
X13838082Y-11227567D01*
X13838082Y-11227567D02*
X13742844Y-11246615D01*
X13914272Y-11303758D02*
X13933320Y-11313282D01*
X13933320Y-11313282D02*
X13971415Y-11313282D01*
X13971415Y-11313282D02*
X13990463Y-11303758D01*
X13990463Y-11303758D02*
X13999987Y-11284710D01*
X13999987Y-11284710D02*
X13999987Y-11275186D01*
X13999987Y-11275186D02*
X13990463Y-11256139D01*
X13990463Y-11256139D02*
X13971415Y-11246615D01*
X13971415Y-11246615D02*
X13942844Y-11246615D01*
X13942844Y-11246615D02*
X13923796Y-11237091D01*
X13923796Y-11237091D02*
X13914272Y-11218043D01*
X13914272Y-11218043D02*
X13914272Y-11208520D01*
X13914272Y-11208520D02*
X13923796Y-11189472D01*
X13923796Y-11189472D02*
X13942844Y-11179948D01*
X13942844Y-11179948D02*
X13971415Y-11179948D01*
X13971415Y-11179948D02*
X13990463Y-11189472D01*
X14066653Y-11389472D02*
X14076177Y-11379948D01*
X14076177Y-11379948D02*
X14095225Y-11351377D01*
X14095225Y-11351377D02*
X14104749Y-11332329D01*
X14104749Y-11332329D02*
X14114272Y-11303758D01*
X14114272Y-11303758D02*
X14123796Y-11256139D01*
X14123796Y-11256139D02*
X14123796Y-11218043D01*
X14123796Y-11218043D02*
X14114272Y-11170424D01*
X14114272Y-11170424D02*
X14104749Y-11141853D01*
X14104749Y-11141853D02*
X14095225Y-11122805D01*
X14095225Y-11122805D02*
X14076177Y-11094234D01*
X14076177Y-11094234D02*
X14066653Y-11084710D01*
M02*
