%TF.GenerationSoftware,KiCad,Pcbnew,9.0.2*%
%TF.CreationDate,2025-05-20T12:48:23-07:00*%
%TF.ProjectId,40Hz_S2,3430487a-5f53-4322-9e6b-696361645f70,rev?*%
%TF.SameCoordinates,Original*%
%TF.FileFunction,Soldermask,Bot*%
%TF.FilePolarity,Negative*%
%FSLAX46Y46*%
G04 Gerber Fmt 4.6, Leading zero omitted, Abs format (unit mm)*
G04 Created by KiCad (PCBNEW 9.0.2) date 2025-05-20 12:48:23*
%MOMM*%
%LPD*%
G01*
G04 APERTURE LIST*
G04 Aperture macros list*
%AMRoundRect*
0 Rectangle with rounded corners*
0 $1 Rounding radius*
0 $2 $3 $4 $5 $6 $7 $8 $9 X,Y pos of 4 corners*
0 Add a 4 corners polygon primitive as box body*
4,1,4,$2,$3,$4,$5,$6,$7,$8,$9,$2,$3,0*
0 Add four circle primitives for the rounded corners*
1,1,$1+$1,$2,$3*
1,1,$1+$1,$4,$5*
1,1,$1+$1,$6,$7*
1,1,$1+$1,$8,$9*
0 Add four rect primitives between the rounded corners*
20,1,$1+$1,$2,$3,$4,$5,0*
20,1,$1+$1,$4,$5,$6,$7,0*
20,1,$1+$1,$6,$7,$8,$9,0*
20,1,$1+$1,$8,$9,$2,$3,0*%
%AMFreePoly0*
4,1,19,-0.850000,0.255000,-0.829726,0.408997,-0.770285,0.552500,-0.675729,0.675729,-0.552500,0.770285,-0.408997,0.829726,-0.255000,0.850000,0.510000,0.850000,0.850000,0.510000,0.850000,-0.255000,0.829726,-0.408997,0.770285,-0.552500,0.675729,-0.675729,0.552500,-0.770285,0.408997,-0.829726,0.255000,-0.850000,-0.510000,-0.850000,-0.850000,-0.510000,-0.850000,0.255000,-0.850000,0.255000,
$1*%
G04 Aperture macros list end*
%ADD10RoundRect,1.250000X-1.250000X-0.000010X1.250000X-0.000010X1.250000X0.000010X-1.250000X0.000010X0*%
%ADD11RoundRect,0.700000X-0.000010X-0.750000X0.000010X-0.750000X0.000010X0.750000X-0.000010X0.750000X0*%
%ADD12C,2.000000*%
%ADD13C,1.600000*%
%ADD14C,1.778000*%
%ADD15C,1.500000*%
%ADD16C,3.164000*%
%ADD17C,1.650000*%
%ADD18RoundRect,1.000000X-0.000010X-0.750000X0.000010X-0.750000X0.000010X0.750000X-0.000010X0.750000X0*%
%ADD19RoundRect,0.249999X-0.850001X0.850001X-0.850001X-0.850001X0.850001X-0.850001X0.850001X0.850001X0*%
%ADD20C,2.200000*%
%ADD21R,1.700000X1.700000*%
%ADD22C,1.700000*%
%ADD23FreePoly0,180.000000*%
%ADD24R,2.000000X1.905000*%
%ADD25O,2.000000X1.905000*%
G04 APERTURE END LIST*
D10*
%TO.C,OLED_I2C1*%
X77800000Y-72600000D03*
X99200000Y-72600000D03*
D11*
X84690000Y-49670000D03*
X89770000Y-49670000D03*
X92310000Y-49670000D03*
X87230000Y-49670000D03*
%TD*%
D12*
%TO.C,start/stop1*%
X107750000Y-80750000D03*
X114250000Y-80750000D03*
X107750000Y-85250000D03*
X114250000Y-85250000D03*
%TD*%
D13*
%TO.C,R2*%
X110000000Y-74045000D03*
X110000000Y-71505000D03*
%TD*%
D12*
%TO.C,other1*%
X63250000Y-80750000D03*
X69750000Y-80750000D03*
X63250000Y-85250000D03*
X69750000Y-85250000D03*
%TD*%
D14*
%TO.C,Amp_1*%
X77048000Y-78300000D03*
X77048000Y-80840000D03*
X77048000Y-83380000D03*
X77048000Y-85920000D03*
X77048000Y-88460000D03*
X94447000Y-81707000D03*
X94447000Y-85207000D03*
%TD*%
D15*
%TO.C,VR1*%
X63500000Y-68525000D03*
X66000000Y-68525000D03*
X68500000Y-68525000D03*
D16*
X61250000Y-61025000D03*
X70750000Y-61025000D03*
%TD*%
D13*
%TO.C,R3*%
X109960000Y-77500000D03*
X112500000Y-77500000D03*
%TD*%
D17*
%TO.C,EN1*%
X108500000Y-54000000D03*
X113500000Y-54000000D03*
X108500000Y-68500000D03*
X113500000Y-68500000D03*
X111000000Y-68500000D03*
D18*
X105000000Y-61000000D03*
X117000000Y-61000000D03*
%TD*%
D19*
%TO.C,D1*%
X105000000Y-71500000D03*
D20*
X105000000Y-74040000D03*
%TD*%
D17*
%TO.C,RV1*%
X63500000Y-55000000D03*
X66000000Y-60000000D03*
X68500000Y-55000000D03*
%TD*%
D21*
%TO.C,J2*%
X97699438Y-81620306D03*
D22*
X100239438Y-81620306D03*
%TD*%
D23*
%TO.C,U1*%
X100000000Y-49000000D03*
D22*
X100000000Y-51540000D03*
X100000000Y-54080000D03*
X100000000Y-56620000D03*
X100000000Y-59160000D03*
X100000000Y-61700000D03*
X100000000Y-64240000D03*
X100000000Y-66780000D03*
X77140000Y-66780000D03*
X77140000Y-64240000D03*
X77140000Y-61700000D03*
X77140000Y-59160000D03*
X77140000Y-56620000D03*
X77140000Y-54080000D03*
X77140000Y-51540000D03*
X77140000Y-49000000D03*
%TD*%
D21*
%TO.C,J3*%
X105225000Y-49500000D03*
D22*
X107765000Y-49500000D03*
%TD*%
D24*
%TO.C,Q1*%
X117500000Y-72000000D03*
D25*
X117500000Y-74540000D03*
X117500000Y-77080000D03*
%TD*%
D21*
%TO.C,J1*%
X68460000Y-50000000D03*
D22*
X71000000Y-50000000D03*
%TD*%
M02*
